<svg width="20" height="20" viewBox="0 0 20 20" fill="none" xmlns="http://www.w3.org/2000/svg">
<g clip-path="url(#clip0_601_46689)">
<rect width="20" height="20" rx="3" fill="#FFF4E1"/>
<path d="M5.30442 10.7899C5.41071 10.7599 5.4725 10.6493 5.44244 10.5431C5.41237 10.4368 5.30184 10.375 5.19555 10.405L5.30442 10.7899ZM2.90082 17.0861L3.08192 17.0012L3.08192 17.0012L2.90082 17.0861ZM9.69347 15.6387L9.56597 15.4847L9.56597 15.4847L9.69347 15.6387ZM10.1601 12.3979L10.3095 12.5308L10.1601 12.3979ZM12.468 12.5203L12.6574 12.5844L12.6574 12.5844L12.468 12.5203ZM8.30421 2.03371L8.40019 2.20918L8.30421 2.03371ZM6.24976 10.7565L6.38422 10.608L6.37538 10.6009L6.24976 10.7565ZM6.56882 11.5761C6.4515 12.1534 6.8244 12.7165 7.4017 12.8338C7.979 12.9511 8.5421 12.5782 8.65942 12.0009C8.77673 11.4236 8.40384 10.8605 7.82653 10.7432C7.24923 10.6259 6.68613 10.9988 6.56882 11.5761ZM12.4843 6.08827L12.6721 6.01954L12.4843 6.08827ZM14.2075 12.0604L14.0387 11.9531L14.0387 11.9531L14.2075 12.0604ZM15.7512 5.81385L15.5524 5.83586L15.5524 5.83586L15.7512 5.81385ZM12.6601 0.862279L12.6092 0.668871L12.6601 0.862279ZM10.5775 2.35315C10.506 2.4373 10.5162 2.56352 10.6003 2.63507C10.6845 2.70662 10.8107 2.6964 10.8823 2.61224L10.5775 2.35315ZM12.6791 13.3129C12.5702 13.3312 12.4967 13.4344 12.515 13.5433C12.5333 13.6522 12.6365 13.7257 12.7454 13.7074L12.6791 13.3129ZM5.24999 10.5975L5.19555 10.405C4.66201 10.5559 4.20116 10.9738 3.82411 11.5049C3.4447 12.0393 3.13462 12.7098 2.90941 13.4055C2.68401 14.1018 2.54096 14.8316 2.50043 15.4885C2.46025 16.1395 2.51919 16.743 2.71972 17.1709L2.90082 17.0861L3.08192 17.0012C2.92345 16.663 2.86104 16.1391 2.89967 15.5131C2.93793 14.8931 3.07381 14.1964 3.28997 13.5287C3.50632 12.8603 3.80041 12.2292 4.15027 11.7365C4.50249 11.2404 4.89602 10.9055 5.30442 10.7899L5.24999 10.5975ZM2.90082 17.0861L2.71972 17.1709C2.93321 17.6265 3.35203 17.8884 3.86552 17.998C4.3754 18.1067 4.99473 18.0703 5.65605 17.9216C6.98025 17.6239 8.52703 16.8635 9.82097 15.7928L9.69347 15.6387L9.56597 15.4847C8.31531 16.5195 6.82477 17.2488 5.5683 17.5314C4.93928 17.6728 4.38244 17.6992 3.94898 17.6068C3.51912 17.5151 3.22744 17.3117 3.08192 17.0012L2.90082 17.0861ZM9.69347 15.6387L9.82097 15.7928C10.4021 15.312 10.7964 14.829 11.0458 14.3741L10.8704 14.2779L10.695 14.1818C10.4736 14.5856 10.1146 15.0307 9.56597 15.4847L9.69347 15.6387ZM10.8704 14.2779L11.0458 14.3741C11.4804 13.5814 11.4792 12.861 11.2343 12.4142C11.1122 12.1913 10.9199 12.0245 10.6825 11.9863C10.4391 11.9472 10.2007 12.0513 10.0107 12.265L10.1601 12.3979L10.3095 12.5308C10.4319 12.3933 10.5417 12.3688 10.619 12.3812C10.7022 12.3946 10.8031 12.4595 10.8835 12.6064C11.0439 12.899 11.0854 13.4698 10.695 14.1818L10.8704 14.2779ZM10.1601 12.3979L10.0107 12.265C9.88912 12.4016 9.86513 12.6073 9.87173 12.785C9.87882 12.9759 9.92357 13.1932 9.99577 13.4049C10.0681 13.6172 10.1709 13.832 10.2996 14.0164C10.4272 14.199 10.5887 14.3638 10.7833 14.458L10.8704 14.2779L10.9575 14.0979C10.8463 14.0441 10.7326 13.9378 10.6276 13.7874C10.5238 13.6388 10.4368 13.4588 10.3744 13.2758C10.3118 13.0923 10.2768 12.914 10.2715 12.7702C10.2656 12.6133 10.2965 12.5454 10.3095 12.5308L10.1601 12.3979ZM10.8704 14.2779L10.7833 14.458C10.9305 14.5292 11.0959 14.5593 11.2709 14.5247C11.4441 14.4904 11.6101 14.3961 11.7668 14.2469C12.0753 13.9533 12.3744 13.4218 12.6574 12.5844L12.468 12.5203L12.2785 12.4563C12.0019 13.2746 11.7283 13.7313 11.491 13.9572C11.3748 14.0678 11.2746 14.1162 11.1933 14.1323C11.1138 14.148 11.0365 14.1361 10.9575 14.0979L10.8704 14.2779ZM8.30421 2.03371L8.20824 1.85824C8.01026 1.96653 7.80347 2.16805 7.60003 2.41956C7.39351 2.67487 7.17847 2.99685 6.96703 3.36344C6.54409 4.09671 6.12839 5.0209 5.81973 5.97495C5.51158 6.92741 5.30638 7.92105 5.31324 8.79055C5.32007 9.65482 5.5377 10.4388 6.12413 10.9122L6.24976 10.7565L6.37538 10.6009C5.92641 10.2385 5.71968 9.6036 5.71323 8.7874C5.70683 7.97642 5.89946 7.02796 6.20031 6.09808C6.50063 5.1698 6.90509 4.27142 7.31353 3.56329C7.51778 3.20917 7.72123 2.90575 7.91102 2.67112C8.10389 2.43268 8.27122 2.27972 8.40019 2.20918L8.30421 2.03371ZM6.24976 10.7565L6.11551 10.9048C6.5732 11.3192 7.2327 11.7782 7.50474 11.9559L7.61412 11.7885L7.7235 11.6211C7.45775 11.4475 6.81862 11.0018 6.384 10.6083L6.24976 10.7565ZM12.468 12.5203L12.6574 12.5844C12.8274 12.0817 13.0426 11.0256 13.1111 9.81051C13.1796 8.59559 13.1031 7.19725 12.6721 6.01954L12.4843 6.08827L12.2965 6.15701C12.7008 7.26178 12.7788 8.59817 12.7117 9.78799C12.6446 10.9776 12.434 11.9964 12.2785 12.4563L12.468 12.5203ZM12.4843 6.08827L12.6721 6.01954C12.1398 4.56496 11.2552 3.4242 10.4066 2.6953C9.98279 2.33124 9.56208 2.06491 9.19215 1.91507C8.83648 1.77101 8.47335 1.71323 8.20824 1.85824L8.30421 2.03371L8.40019 2.20918C8.49764 2.15587 8.70835 2.15068 9.04199 2.28581C9.36137 2.41518 9.74543 2.65466 10.146 2.99874C10.9463 3.68613 11.7892 4.77096 12.2965 6.15701L12.4843 6.08827ZM14.2075 12.0604L14.3763 12.1676C14.6606 11.7202 15.1201 10.746 15.4753 9.58178C15.8303 8.4177 16.0883 7.04042 15.95 5.79184L15.7512 5.81385L15.5524 5.83586C15.6822 7.00747 15.4404 8.32511 15.0927 9.46508C14.745 10.6049 14.2987 11.5439 14.0387 11.9531L14.2075 12.0604ZM15.7512 5.81385L15.95 5.79184C15.7793 4.24973 15.1924 2.92736 14.5426 2.0139C14.2181 1.55765 13.8734 1.19713 13.5503 0.962084C13.2398 0.736205 12.9013 0.591976 12.6092 0.668871L12.6601 0.862279L12.711 1.05569C12.8178 1.02759 13.0233 1.07332 13.315 1.28555C13.5941 1.48862 13.9098 1.81437 14.2167 2.24575C14.8297 3.10757 15.3897 4.36598 15.5524 5.83586L15.7512 5.81385ZM12.6601 0.862279L12.6092 0.668871C12.3366 0.740655 12.0108 0.952843 11.6734 1.23771C11.3298 1.52773 10.9532 1.91128 10.5775 2.35315L10.7299 2.4827L10.8823 2.61224C11.2476 2.18252 11.6088 1.81572 11.9314 1.54336C12.2601 1.26585 12.529 1.10363 12.711 1.05569L12.6601 0.862279ZM12.7123 13.5102L12.7454 13.7074C12.9862 13.667 13.2382 13.523 13.5023 13.2771C13.7679 13.03 14.0584 12.6681 14.3763 12.1676L14.2075 12.0604L14.0387 11.9531C13.7314 12.4368 13.4618 12.7684 13.2298 12.9843C12.9964 13.2016 12.8133 13.2904 12.6791 13.3129L12.7123 13.5102Z" fill="#026A67"/>
</g>
<defs>
<clipPath id="clip0_601_46689">
<rect width="20" height="20" rx="3" fill="white"/>
</clipPath>
</defs>
</svg>
