<svg width="24" height="24" viewBox="0 0 24 24" fill="none" xmlns="http://www.w3.org/2000/svg">
<g clip-path="url(#clip0_759_3551)">
<path d="M18.65 12C18.65 12.8837 19.3663 13.6 20.25 13.6C21.1337 13.6 21.85 12.8837 21.85 12C21.85 11.1163 21.1337 10.4 20.25 10.4C19.3663 10.4 18.65 11.1163 18.65 12ZM10.7047 5.46932C10.8258 5.35627 10.8324 5.16643 10.7193 5.0453C10.6063 4.92418 10.4164 4.91763 10.2953 5.03068L10.7047 5.46932ZM3.75 12L3.45302 11.9576C3.45101 11.9716 3.45 11.9858 3.45 12H3.75ZM9.85663 19.2592C9.93074 19.4074 10.1109 19.4674 10.2591 19.3933C10.4073 19.3192 10.4674 19.139 10.3933 18.9908L9.85663 19.2592ZM4.6703 10.2807C4.54918 10.3937 4.54263 10.5836 4.65568 10.7047C4.76873 10.8258 4.95857 10.8324 5.0797 10.7193L4.6703 10.2807ZM20.25 12V11.7H11.625V12V12.3H20.25V12ZM11.625 12V11.7C11.6221 11.7 11.6191 11.7 11.6162 11.7C11.6133 11.7 11.6104 11.7 11.6075 11.7C11.6046 11.7 11.6017 11.7 11.5988 11.7C11.5959 11.7 11.593 11.7 11.5901 11.7C11.5872 11.7 11.5844 11.7 11.5815 11.7C11.5786 11.7 11.5757 11.7 11.5729 11.7C11.57 11.7 11.5672 11.7 11.5643 11.7C11.5615 11.7 11.5586 11.7 11.5558 11.7C11.5529 11.7 11.5501 11.7 11.5473 11.7C11.5444 11.7 11.5416 11.7 11.5388 11.7C11.536 11.7 11.5332 11.7 11.5304 11.7C11.5276 11.7 11.5248 11.7 11.522 11.7C11.5192 11.7 11.5164 11.7 11.5136 11.7C11.5108 11.7 11.508 11.7 11.5053 11.7C11.5025 11.7 11.4997 11.7 11.497 11.7C11.4942 11.7 11.4914 11.7 11.4887 11.7C11.4859 11.7 11.4832 11.7 11.4804 11.7C11.4777 11.7 11.475 11.7 11.4722 11.7C11.4695 11.7 11.4668 11.7 11.4641 11.7C11.4613 11.7 11.4586 11.7 11.4559 11.7C11.4532 11.7 11.4505 11.7 11.4478 11.7C11.4451 11.7 11.4424 11.7 11.4397 11.7C11.4371 11.7 11.4344 11.7 11.4317 11.7C11.429 11.7 11.4263 11.7 11.4237 11.7C11.421 11.7 11.4184 11.7 11.4157 11.7C11.413 11.7 11.4104 11.7 11.4077 11.7C11.4051 11.7 11.4025 11.7 11.3998 11.7C11.3972 11.7 11.3946 11.7 11.3919 11.7C11.3893 11.7 11.3867 11.7 11.3841 11.7C11.3815 11.7 11.3789 11.7 11.3762 11.7C11.3736 11.7 11.371 11.7 11.3685 11.7C11.3659 11.7 11.3633 11.7 11.3607 11.7C11.3581 11.7 11.3555 11.7 11.353 11.7C11.3504 11.7 11.3478 11.7 11.3452 11.7C11.3427 11.7 11.3401 11.7 11.3376 11.7C11.335 11.7 11.3325 11.7 11.3299 11.7C11.3274 11.7 11.3248 11.7 11.3223 11.7C11.3198 11.7 11.3173 11.7 11.3147 11.7C11.3122 11.7 11.3097 11.7 11.3072 11.7C11.3047 11.7 11.3022 11.7 11.2996 11.7C11.2971 11.7 11.2946 11.7 11.2922 11.7C11.2897 11.7 11.2872 11.7 11.2847 11.7C11.2822 11.7 11.2797 11.7 11.2773 11.7C11.2748 11.7 11.2723 11.7 11.2698 11.7C11.2674 11.7 11.2649 11.7 11.2625 11.7C11.26 11.7 11.2576 11.7 11.2551 11.7C11.2527 11.7 11.2502 11.7 11.2478 11.7C11.2454 11.7 11.2429 11.7 11.2405 11.7C11.2381 11.7 11.2357 11.7 11.2332 11.7C11.2308 11.7 11.2284 11.7 11.226 11.7C11.2236 11.7 11.2212 11.7 11.2188 11.7C11.2164 11.7 11.214 11.7 11.2116 11.7C11.2092 11.7 11.2069 11.7 11.2045 11.7C11.2021 11.7 11.1997 11.7 11.1974 11.7C11.195 11.7 11.1926 11.7 11.1903 11.7C11.1879 11.7 11.1856 11.7 11.1832 11.7C11.1809 11.7 11.1785 11.7 11.1762 11.7C11.1738 11.7 11.1715 11.7 11.1692 11.7C11.1668 11.7 11.1645 11.7 11.1622 11.7C11.1599 11.7 11.1575 11.7 11.1552 11.7C11.1529 11.7 11.1506 11.7 11.1483 11.7C11.146 11.7 11.1437 11.7 11.1414 11.7C11.1391 11.7 11.1368 11.7 11.1345 11.7C11.1322 11.7 11.13 11.7 11.1277 11.7C11.1254 11.7 11.1231 11.7 11.1209 11.7C11.1186 11.7 11.1163 11.7 11.1141 11.7C11.1118 11.7 11.1096 11.7 11.1073 11.7C11.1051 11.7 11.1028 11.7 11.1006 11.7C11.0983 11.7 11.0961 11.7 11.0939 11.7C11.0916 11.7 11.0894 11.7 11.0872 11.7C11.0849 11.7 11.0827 11.7 11.0805 11.7C11.0783 11.7 11.0761 11.7 11.0739 11.7C11.0717 11.7 11.0695 11.7 11.0673 11.7C11.0651 11.7 11.0629 11.7 11.0607 11.7C11.0585 11.7 11.0563 11.7 11.0541 11.7C11.0519 11.7 11.0498 11.7 11.0476 11.7C11.0454 11.7 11.0433 11.7 11.0411 11.7C11.0389 11.7 11.0368 11.7 11.0346 11.7C11.0325 11.7 11.0303 11.7 11.0282 11.7C11.026 11.7 11.0239 11.7 11.0217 11.7C11.0196 11.7 11.0174 11.7 11.0153 11.7C11.0132 11.7 11.0111 11.7 11.0089 11.7C11.0068 11.7 11.0047 11.7 11.0026 11.7C11.0005 11.7 10.9984 11.7 10.9962 11.7C10.9941 11.7 10.992 11.7 10.9899 11.7C10.9878 11.7 10.9857 11.7 10.9837 11.7C10.9816 11.7 10.9795 11.7 10.9774 11.7C10.9753 11.7 10.9732 11.7 10.9712 11.7C10.9691 11.7 10.967 11.7 10.965 11.7C10.9629 11.7 10.9608 11.7 10.9588 11.7C10.9567 11.7 10.9547 11.7 10.9526 11.7C10.9506 11.7 10.9485 11.7 10.9465 11.7C10.9444 11.7 10.9424 11.7 10.9404 11.7C10.9383 11.7 10.9363 11.7 10.9343 11.7C10.9322 11.7 10.9302 11.7 10.9282 11.7C10.9262 11.7 10.9242 11.7 10.9221 11.7C10.9201 11.7 10.9181 11.7 10.9161 11.7C10.9141 11.7 10.9121 11.7 10.9101 11.7C10.9081 11.7 10.9061 11.7 10.9041 11.7C10.9022 11.7 10.9002 11.7 10.8982 11.7C10.8962 11.7 10.8942 11.7 10.8923 11.7C10.8903 11.7 10.8883 11.7 10.8864 11.7C10.8844 11.7 10.8824 11.7 10.8805 11.7C10.8785 11.7 10.8766 11.7 10.8746 11.7C10.8727 11.7 10.8707 11.7 10.8688 11.7C10.8668 11.7 10.8649 11.7 10.8629 11.7C10.861 11.7 10.8591 11.7 10.8571 11.7C10.8552 11.7 10.8533 11.7 10.8514 11.7C10.8494 11.7 10.8475 11.7 10.8456 11.7C10.8437 11.7 10.8418 11.7 10.8399 11.7C10.838 11.7 10.8361 11.7 10.8342 11.7C10.8323 11.7 10.8304 11.7 10.8285 11.7C10.8266 11.7 10.8247 11.7 10.8228 11.7C10.8209 11.7 10.819 11.7 10.8172 11.7C10.8153 11.7 10.8134 11.7 10.8115 11.7C10.8097 11.7 10.8078 11.7 10.8059 11.7C10.8041 11.7 10.8022 11.7 10.8003 11.7C10.7985 11.7 10.7966 11.7 10.7948 11.7C10.7929 11.7 10.7911 11.7 10.7892 11.7C10.7874 11.7 10.7855 11.7 10.7837 11.7C10.7819 11.7 10.78 11.7 10.7782 11.7C10.7764 11.7 10.7745 11.7 10.7727 11.7C10.7709 11.7 10.7691 11.7 10.7673 11.7C10.7654 11.7 10.7636 11.7 10.7618 11.7C10.76 11.7 10.7582 11.7 10.7564 11.7C10.7546 11.7 10.7528 11.7 10.751 11.7C10.7492 11.7 10.7474 11.7 10.7456 11.7C10.7438 11.7 10.742 11.7 10.7402 11.7C10.7384 11.7 10.7367 11.7 10.7349 11.7C10.7331 11.7 10.7313 11.7 10.7296 11.7C10.7278 11.7 10.726 11.7 10.7243 11.7C10.7225 11.7 10.7207 11.7 10.719 11.7C10.7172 11.7 10.7154 11.7 10.7137 11.7C10.7119 11.7 10.7102 11.7 10.7084 11.7C10.7067 11.7 10.7049 11.7 10.7032 11.7C10.7015 11.7 10.6997 11.7 10.698 11.7C10.6963 11.7 10.6945 11.7 10.6928 11.7C10.6911 11.7 10.6893 11.7 10.6876 11.7C10.6859 11.7 10.6842 11.7 10.6825 11.7C10.6807 11.7 10.679 11.7 10.6773 11.7C10.6756 11.7 10.6739 11.7 10.6722 11.7C10.6705 11.7 10.6688 11.7 10.6671 11.7C10.6654 11.7 10.6637 11.7 10.662 11.7C10.6603 11.7 10.6586 11.7 10.6569 11.7C10.6552 11.7 10.6536 11.7 10.6519 11.7C10.6502 11.7 10.6485 11.7 10.6468 11.7C10.6452 11.7 10.6435 11.7 10.6418 11.7C10.6402 11.7 10.6385 11.7 10.6368 11.7C10.6352 11.7 10.6335 11.7 10.6318 11.7C10.6302 11.7 10.6285 11.7 10.6269 11.7C10.6252 11.7 10.6236 11.7 10.6219 11.7C10.6203 11.7 10.6186 11.7 10.617 11.7C10.6153 11.7 10.6137 11.7 10.6121 11.7C10.6104 11.7 10.6088 11.7 10.6072 11.7C10.6055 11.7 10.6039 11.7 10.6023 11.7C10.6007 11.7 10.599 11.7 10.5974 11.7C10.5958 11.7 10.5942 11.7 10.5926 11.7C10.5909 11.7 10.5893 11.7 10.5877 11.7C10.5861 11.7 10.5845 11.7 10.5829 11.7C10.5813 11.7 10.5797 11.7 10.5781 11.7C10.5765 11.7 10.5749 11.7 10.5733 11.7C10.5717 11.7 10.5701 11.7 10.5685 11.7C10.5669 11.7 10.5654 11.7 10.5638 11.7C10.5622 11.7 10.5606 11.7 10.559 11.7C10.5574 11.7 10.5559 11.7 10.5543 11.7C10.5527 11.7 10.5511 11.7 10.5496 11.7C10.548 11.7 10.5464 11.7 10.5449 11.7C10.5433 11.7 10.5418 11.7 10.5402 11.7C10.5386 11.7 10.5371 11.7 10.5355 11.7C10.534 11.7 10.5324 11.7 10.5309 11.7C10.5293 11.7 10.5278 11.7 10.5262 11.7C10.5247 11.7 10.5231 11.7 10.5216 11.7C10.5201 11.7 10.5185 11.7 10.517 11.7C10.5155 11.7 10.5139 11.7 10.5124 11.7C10.5109 11.7 10.5093 11.7 10.5078 11.7C10.5063 11.7 10.5048 11.7 10.5032 11.7C10.5017 11.7 10.5002 11.7 10.4987 11.7C10.4972 11.7 10.4956 11.7 10.4941 11.7C10.4926 11.7 10.4911 11.7 10.4896 11.7C10.4881 11.7 10.4866 11.7 10.4851 11.7C10.4836 11.7 10.4821 11.7 10.4806 11.7C10.4791 11.7 10.4776 11.7 10.4761 11.7C10.4746 11.7 10.4731 11.7 10.4716 11.7C10.4701 11.7 10.4686 11.7 10.4672 11.7C10.4657 11.7 10.4642 11.7 10.4627 11.7C10.4612 11.7 10.4597 11.7 10.4583 11.7C10.4568 11.7 10.4553 11.7 10.4538 11.7C10.4524 11.7 10.4509 11.7 10.4494 11.7C10.448 11.7 10.4465 11.7 10.445 11.7C10.4436 11.7 10.4421 11.7 10.4406 11.7C10.4392 11.7 10.4377 11.7 10.4362 11.7C10.4348 11.7 10.4333 11.7 10.4319 11.7C10.4304 11.7 10.429 11.7 10.4275 11.7C10.4261 11.7 10.4246 11.7 10.4232 11.7C10.4217 11.7 10.4203 11.7 10.4189 11.7C10.4174 11.7 10.416 11.7 10.4145 11.7C10.4131 11.7 10.4117 11.7 10.4102 11.7C10.4088 11.7 10.4074 11.7 10.4059 11.7C10.4045 11.7 10.4031 11.7 10.4016 11.7C10.4002 11.7 10.3988 11.7 10.3974 11.7C10.3959 11.7 10.3945 11.7 10.3931 11.7C10.3917 11.7 10.3903 11.7 10.3889 11.7C10.3874 11.7 10.386 11.7 10.3846 11.7C10.3832 11.7 10.3818 11.7 10.3804 11.7C10.379 11.7 10.3776 11.7 10.3762 11.7C10.3747 11.7 10.3733 11.7 10.3719 11.7C10.3705 11.7 10.3691 11.7 10.3677 11.7C10.3663 11.7 10.3649 11.7 10.3636 11.7C10.3622 11.7 10.3608 11.7 10.3594 11.7C10.358 11.7 10.3566 11.7 10.3552 11.7C10.3538 11.7 10.3524 11.7 10.351 11.7C10.3496 11.7 10.3483 11.7 10.3469 11.7C10.3455 11.7 10.3441 11.7 10.3427 11.7C10.3414 11.7 10.34 11.7 10.3386 11.7C10.3372 11.7 10.3359 11.7 10.3345 11.7C10.3331 11.7 10.3317 11.7 10.3304 11.7C10.329 11.7 10.3276 11.7 10.3263 11.7C10.3249 11.7 10.3235 11.7 10.3222 11.7C10.3208 11.7 10.3194 11.7 10.3181 11.7C10.3167 11.7 10.3154 11.7 10.314 11.7C10.3126 11.7 10.3113 11.7 10.3099 11.7C10.3086 11.7 10.3072 11.7 10.3059 11.7C10.3045 11.7 10.3032 11.7 10.3018 11.7C10.3005 11.7 10.2991 11.7 10.2978 11.7C10.2964 11.7 10.2951 11.7 10.2937 11.7C10.2924 11.7 10.291 11.7 10.2897 11.7C10.2883 11.7 10.287 11.7 10.2857 11.7C10.2843 11.7 10.283 11.7 10.2817 11.7C10.2803 11.7 10.279 11.7 10.2776 11.7C10.2763 11.7 10.275 11.7 10.2736 11.7C10.2723 11.7 10.271 11.7 10.2697 11.7C10.2683 11.7 10.267 11.7 10.2657 11.7C10.2643 11.7 10.263 11.7 10.2617 11.7C10.2604 11.7 10.259 11.7 10.2577 11.7C10.2564 11.7 10.2551 11.7 10.2538 11.7C10.2524 11.7 10.2511 11.7 10.2498 11.7C10.2485 11.7 10.2472 11.7 10.2458 11.7C10.2445 11.7 10.2432 11.7 10.2419 11.7C10.2406 11.7 10.2393 11.7 10.238 11.7C10.2366 11.7 10.2353 11.7 10.234 11.7C10.2327 11.7 10.2314 11.7 10.2301 11.7C10.2288 11.7 10.2275 11.7 10.2262 11.7C10.2249 11.7 10.2236 11.7 10.2223 11.7C10.221 11.7 10.2197 11.7 10.2184 11.7C10.2171 11.7 10.2158 11.7 10.2145 11.7C10.2132 11.7 10.2119 11.7 10.2106 11.7C10.2093 11.7 10.208 11.7 10.2067 11.7C10.2054 11.7 10.2041 11.7 10.2028 11.7C10.2015 11.7 10.2002 11.7 10.1989 11.7C10.1976 11.7 10.1963 11.7 10.195 11.7C10.1937 11.7 10.1924 11.7 10.1912 11.7C10.1899 11.7 10.1886 11.7 10.1873 11.7C10.186 11.7 10.1847 11.7 10.1834 11.7C10.1821 11.7 10.1809 11.7 10.1796 11.7C10.1783 11.7 10.177 11.7 10.1757 11.7C10.1744 11.7 10.1732 11.7 10.1719 11.7C10.1706 11.7 10.1693 11.7 10.168 11.7C10.1668 11.7 10.1655 11.7 10.1642 11.7C10.1629 11.7 10.1616 11.7 10.1604 11.7C10.1591 11.7 10.1578 11.7 10.1565 11.7C10.1553 11.7 10.154 11.7 10.1527 11.7C10.1514 11.7 10.1501 11.7 10.1489 11.7C10.1476 11.7 10.1463 11.7 10.1451 11.7C10.1438 11.7 10.1425 11.7 10.1412 11.7C10.14 11.7 10.1387 11.7 10.1374 11.7C10.1362 11.7 10.1349 11.7 10.1336 11.7C10.1323 11.7 10.1311 11.7 10.1298 11.7C10.1285 11.7 10.1273 11.7 10.126 11.7C10.1247 11.7 10.1235 11.7 10.1222 11.7C10.1209 11.7 10.1197 11.7 10.1184 11.7C10.1171 11.7 10.1159 11.7 10.1146 11.7C10.1133 11.7 10.1121 11.7 10.1108 11.7C10.1096 11.7 10.1083 11.7 10.107 11.7C10.1058 11.7 10.1045 11.7 10.1032 11.7C10.102 11.7 10.1007 11.7 10.0995 11.7C10.0982 11.7 10.0969 11.7 10.0957 11.7C10.0944 11.7 10.0932 11.7 10.0919 11.7C10.0906 11.7 10.0894 11.7 10.0881 11.7C10.0868 11.7 10.0856 11.7 10.0843 11.7C10.0831 11.7 10.0818 11.7 10.0806 11.7C10.0793 11.7 10.078 11.7 10.0768 11.7C10.0755 11.7 10.0743 11.7 10.073 11.7C10.0717 11.7 10.0705 11.7 10.0692 11.7C10.068 11.7 10.0667 11.7 10.0655 11.7C10.0642 11.7 10.0629 11.7 10.0617 11.7C10.0604 11.7 10.0592 11.7 10.0579 11.7C10.0567 11.7 10.0554 11.7 10.0542 11.7C10.0529 11.7 10.0516 11.7 10.0504 11.7C10.0491 11.7 10.0479 11.7 10.0466 11.7C10.0454 11.7 10.0441 11.7 10.0428 11.7C10.0416 11.7 10.0403 11.7 10.0391 11.7C10.0378 11.7 10.0366 11.7 10.0353 11.7C10.0341 11.7 10.0328 11.7 10.0315 11.7C10.0303 11.7 10.029 11.7 10.0278 11.7C10.0265 11.7 10.0253 11.7 10.024 11.7C10.0228 11.7 10.0215 11.7 10.0202 11.7C10.019 11.7 10.0177 11.7 10.0165 11.7C10.0152 11.7 10.014 11.7 10.0127 11.7C10.0115 11.7 10.0102 11.7 10.0089 11.7C10.0077 11.7 10.0064 11.7 10.0052 11.7C10.0039 11.7 10.0027 11.7 10.0014 11.7C10.0001 11.7 9.99889 11.7 9.99763 11.7C9.99637 11.7 9.99512 11.7 9.99386 11.7C9.9926 11.7 9.99134 11.7 9.99008 11.7C9.98883 11.7 9.98757 11.7 9.98631 11.7C9.98505 11.7 9.98379 11.7 9.98253 11.7C9.98127 11.7 9.98001 11.7 9.97875 11.7C9.9775 11.7 9.97624 11.7 9.97498 11.7C9.97371 11.7 9.97245 11.7 9.97119 11.7C9.96993 11.7 9.96867 11.7 9.96741 11.7C9.96615 11.7 9.96489 11.7 9.96362 11.7C9.96236 11.7 9.9611 11.7 9.95984 11.7C9.95857 11.7 9.95731 11.7 9.95605 11.7C9.95478 11.7 9.95352 11.7 9.95225 11.7C9.95099 11.7 9.94972 11.7 9.94846 11.7C9.94719 11.7 9.94593 11.7 9.94466 11.7C9.9434 11.7 9.94213 11.7 9.94086 11.7C9.93959 11.7 9.93833 11.7 9.93706 11.7C9.93579 11.7 9.93452 11.7 9.93325 11.7C9.93198 11.7 9.93071 11.7 9.92944 11.7C9.92817 11.7 9.9269 11.7 9.92563 11.7C9.92436 11.7 9.92309 11.7 9.92181 11.7C9.92054 11.7 9.91927 11.7 9.91799 11.7C9.91672 11.7 9.91545 11.7 9.91417 11.7C9.9129 11.7 9.91162 11.7 9.91035 11.7C9.90907 11.7 9.90779 11.7 9.90652 11.7C9.90524 11.7 9.90396 11.7 9.90268 11.7C9.9014 11.7 9.90012 11.7 9.89884 11.7C9.89756 11.7 9.89628 11.7 9.895 11.7C9.89372 11.7 9.89244 11.7 9.89115 11.7C9.88987 11.7 9.88859 11.7 9.8873 11.7C9.88602 11.7 9.88473 11.7 9.88345 11.7C9.88216 11.7 9.88087 11.7 9.87959 11.7C9.8783 11.7 9.87701 11.7 9.87572 11.7C9.87443 11.7 9.87314 11.7 9.87185 11.7C9.87056 11.7 9.86927 11.7 9.86798 11.7C9.86668 11.7 9.86539 11.7 9.8641 11.7C9.8628 11.7 9.86151 11.7 9.86021 11.7C9.85892 11.7 9.85762 11.7 9.85632 11.7C9.85502 11.7 9.85372 11.7 9.85243 11.7C9.85113 11.7 9.84982 11.7 9.84852 11.7C9.84722 11.7 9.84592 11.7 9.84462 11.7C9.84331 11.7 9.84201 11.7 9.8407 11.7C9.8394 11.7 9.83809 11.7 9.83678 11.7C9.83548 11.7 9.83417 11.7 9.83286 11.7C9.83155 11.7 9.83024 11.7 9.82893 11.7C9.82762 11.7 9.8263 11.7 9.82499 11.7C9.82368 11.7 9.82236 11.7 9.82105 11.7C9.81973 11.7 9.81841 11.7 9.8171 11.7C9.81578 11.7 9.81446 11.7 9.81314 11.7C9.81182 11.7 9.8105 11.7 9.80918 11.7C9.80785 11.7 9.80653 11.7 9.80521 11.7C9.80388 11.7 9.80256 11.7 9.80123 11.7C9.7999 11.7 9.79857 11.7 9.79724 11.7C9.79591 11.7 9.79458 11.7 9.79325 11.7C9.79192 11.7 9.79059 11.7 9.78925 11.7C9.78792 11.7 9.78658 11.7 9.78525 11.7C9.78391 11.7 9.78257 11.7 9.78123 11.7C9.77989 11.7 9.77855 11.7 9.77721 11.7C9.77587 11.7 9.77453 11.7 9.77318 11.7C9.77184 11.7 9.77049 11.7 9.76914 11.7C9.7678 11.7 9.76645 11.7 9.7651 11.7C9.76375 11.7 9.7624 11.7 9.76104 11.7C9.75969 11.7 9.75834 11.7 9.75698 11.7C9.75563 11.7 9.75427 11.7 9.75291 11.7C9.75155 11.7 9.75019 11.7 9.74883 11.7C9.74747 11.7 9.74611 11.7 9.74475 11.7C9.74338 11.7 9.74202 11.7 9.74065 11.7C9.73928 11.7 9.73791 11.7 9.73654 11.7C9.73518 11.7 9.7338 11.7 9.73243 11.7C9.73106 11.7 9.72968 11.7 9.72831 11.7C9.72693 11.7 9.72555 11.7 9.72418 11.7C9.7228 11.7 9.72142 11.7 9.72003 11.7C9.71865 11.7 9.71727 11.7 9.71588 11.7C9.7145 11.7 9.71311 11.7 9.71172 11.7C9.71033 11.7 9.70894 11.7 9.70755 11.7C9.70616 11.7 9.70477 11.7 9.70337 11.7C9.70198 11.7 9.70058 11.7 9.69918 11.7C9.69778 11.7 9.69638 11.7 9.69498 11.7C9.69358 11.7 9.69218 11.7 9.69077 11.7C9.68937 11.7 9.68796 11.7 9.68655 11.7C9.68514 11.7 9.68373 11.7 9.68232 11.7C9.68091 11.7 9.6795 11.7 9.67808 11.7C9.67666 11.7 9.67525 11.7 9.67383 11.7C9.67241 11.7 9.67099 11.7 9.66957 11.7C9.66814 11.7 9.66672 11.7 9.66529 11.7C9.66387 11.7 9.66244 11.7 9.66101 11.7C9.65958 11.7 9.65815 11.7 9.65671 11.7C9.65528 11.7 9.65384 11.7 9.65241 11.7C9.65097 11.7 9.64953 11.7 9.64809 11.7C9.64665 11.7 9.6452 11.7 9.64376 11.7C9.64231 11.7 9.64087 11.7 9.63942 11.7C9.63797 11.7 9.63652 11.7 9.63506 11.7C9.63361 11.7 9.63216 11.7 9.6307 11.7C9.62924 11.7 9.62778 11.7 9.62632 11.7C9.62486 11.7 9.6234 11.7 9.62194 11.7C9.62047 11.7 9.619 11.7 9.61753 11.7C9.61607 11.7 9.61459 11.7 9.61312 11.7C9.61165 11.7 9.61017 11.7 9.6087 11.7C9.60722 11.7 9.60574 11.7 9.60426 11.7C9.60278 11.7 9.60129 11.7 9.59981 11.7C9.59832 11.7 9.59684 11.7 9.59535 11.7C9.59386 11.7 9.59236 11.7 9.59087 11.7C9.58938 11.7 9.58788 11.7 9.58638 11.7C9.58488 11.7 9.58338 11.7 9.58188 11.7C9.58038 11.7 9.57887 11.7 9.57736 11.7C9.57586 11.7 9.57435 11.7 9.57284 11.7C9.57132 11.7 9.56981 11.7 9.5683 11.7C9.56678 11.7 9.56526 11.7 9.56374 11.7C9.56222 11.7 9.5607 11.7 9.55917 11.7C9.55765 11.7 9.55612 11.7 9.55459 11.7C9.55306 11.7 9.55153 11.7 9.54999 11.7C9.54846 11.7 9.54692 11.7 9.54538 11.7C9.54384 11.7 9.5423 11.7 9.54076 11.7C9.53921 11.7 9.53767 11.7 9.53612 11.7C9.53457 11.7 9.53302 11.7 9.53146 11.7C9.52991 11.7 9.52835 11.7 9.5268 11.7C9.52524 11.7 9.52368 11.7 9.52211 11.7C9.52055 11.7 9.51898 11.7 9.51742 11.7C9.51585 11.7 9.51428 11.7 9.5127 11.7C9.51113 11.7 9.50955 11.7 9.50798 11.7C9.5064 11.7 9.50482 11.7 9.50323 11.7C9.50165 11.7 9.50007 11.7 9.49848 11.7C9.49689 11.7 9.4953 11.7 9.49371 11.7C9.49211 11.7 9.49052 11.7 9.48892 11.7C9.48732 11.7 9.48572 11.7 9.48411 11.7C9.48251 11.7 9.4809 11.7 9.47929 11.7C9.47769 11.7 9.47607 11.7 9.47446 11.7C9.47285 11.7 9.47123 11.7 9.46961 11.7C9.46799 11.7 9.46637 11.7 9.46474 11.7C9.46312 11.7 9.46149 11.7 9.45986 11.7C9.45823 11.7 9.4566 11.7 9.45496 11.7C9.45332 11.7 9.45169 11.7 9.45004 11.7C9.4484 11.7 9.44676 11.7 9.44511 11.7C9.44347 11.7 9.44182 11.7 9.44016 11.7C9.43851 11.7 9.43686 11.7 9.4352 11.7C9.43354 11.7 9.43188 11.7 9.43022 11.7C9.42855 11.7 9.42689 11.7 9.42522 11.7C9.42355 11.7 9.42188 11.7 9.4202 11.7C9.41853 11.7 9.41685 11.7 9.41517 11.7C9.41349 11.7 9.4118 11.7 9.41012 11.7C9.40843 11.7 9.40674 11.7 9.40505 11.7C9.40336 11.7 9.40166 11.7 9.39996 11.7C9.39826 11.7 9.39656 11.7 9.39486 11.7C9.39316 11.7 9.39145 11.7 9.38974 11.7C9.38803 11.7 9.38632 11.7 9.3846 11.7C9.38288 11.7 9.38116 11.7 9.37944 11.7C9.37772 11.7 9.376 11.7 9.37427 11.7C9.37254 11.7 9.37081 11.7 9.36907 11.7C9.36734 11.7 9.3656 11.7 9.36386 11.7C9.36212 11.7 9.36038 11.7 9.35863 11.7C9.35689 11.7 9.35514 11.7 9.35338 11.7C9.35163 11.7 9.34987 11.7 9.34812 11.7C9.34636 11.7 9.34459 11.7 9.34283 11.7C9.34106 11.7 9.3393 11.7 9.33752 11.7C9.33575 11.7 9.33398 11.7 9.3322 11.7C9.33042 11.7 9.32864 11.7 9.32686 11.7C9.32507 11.7 9.32329 11.7 9.32149 11.7C9.3197 11.7 9.31791 11.7 9.31611 11.7C9.31431 11.7 9.31251 11.7 9.31071 11.7C9.30891 11.7 9.3071 11.7 9.30529 11.7C9.30348 11.7 9.30166 11.7 9.29985 11.7C9.29803 11.7 9.29621 11.7 9.29439 11.7C9.29256 11.7 9.29074 11.7 9.28891 11.7C9.28708 11.7 9.28524 11.7 9.2834 11.7C9.28157 11.7 9.27973 11.7 9.27788 11.7C9.27604 11.7 9.27419 11.7 9.27234 11.7C9.27049 11.7 9.26864 11.7 9.26678 11.7C9.26492 11.7 9.26306 11.7 9.2612 11.7C9.25933 11.7 9.25746 11.7 9.25559 11.7C9.25372 11.7 9.25185 11.7 9.24997 11.7C9.24809 11.7 9.24621 11.7 9.24432 11.7C9.24244 11.7 9.24055 11.7 9.23866 11.7C9.23677 11.7 9.23487 11.7 9.23297 11.7C9.23107 11.7 9.22917 11.7 9.22726 11.7C9.22536 11.7 9.22345 11.7 9.22153 11.7C9.21962 11.7 9.2177 11.7 9.21578 11.7C9.21386 11.7 9.21193 11.7 9.21001 11.7C9.20808 11.7 9.20615 11.7 9.20421 11.7C9.20228 11.7 9.20034 11.7 9.19839 11.7C9.19645 11.7 9.19451 11.7 9.19256 11.7C9.19061 11.7 9.18865 11.7 9.18669 11.7C9.18474 11.7 9.18278 11.7 9.18081 11.7C9.17885 11.7 9.17688 11.7 9.17491 11.7C9.17293 11.7 9.17096 11.7 9.16898 11.7C9.167 11.7 9.16501 11.7 9.16303 11.7C9.16104 11.7 9.15905 11.7 9.15705 11.7C9.15506 11.7 9.15306 11.7 9.15106 11.7C9.14906 11.7 9.14705 11.7 9.14504 11.7C9.14303 11.7 9.14101 11.7 9.139 11.7C9.13698 11.7 9.13496 11.7 9.13293 11.7C9.13091 11.7 9.12888 11.7 9.12684 11.7C9.12481 11.7 9.12277 11.7 9.12073 11.7C9.11869 11.7 9.11664 11.7 9.11459 11.7C9.11255 11.7 9.11049 11.7 9.10844 11.7C9.10638 11.7 9.10432 11.7 9.10225 11.7C9.10019 11.7 9.09812 11.7 9.09605 11.7C9.09397 11.7 9.0919 11.7 9.08982 11.7C9.08773 11.7 9.08565 11.7 9.08356 11.7C9.08147 11.7 9.07938 11.7 9.07728 11.7C9.07518 11.7 9.07308 11.7 9.07098 11.7C9.06887 11.7 9.06676 11.7 9.06465 11.7C9.06254 11.7 9.06042 11.7 9.0583 11.7C9.05618 11.7 9.05405 11.7 9.05192 11.7C9.04979 11.7 9.04766 11.7 9.04552 11.7C9.04338 11.7 9.04124 11.7 9.03909 11.7C9.03694 11.7 9.03479 11.7 9.03264 11.7C9.03048 11.7 9.02833 11.7 9.02616 11.7C9.024 11.7 9.02183 11.7 9.01966 11.7C9.01749 11.7 9.01531 11.7 9.01313 11.7C9.01095 11.7 9.00877 11.7 9.00658 11.7C9.00439 11.7 9.0022 11.7 9 11.7V12V12.3C9.0022 12.3 9.00439 12.3 9.00658 12.3C9.00877 12.3 9.01095 12.3 9.01313 12.3C9.01531 12.3 9.01749 12.3 9.01966 12.3C9.02183 12.3 9.024 12.3 9.02616 12.3C9.02833 12.3 9.03048 12.3 9.03264 12.3C9.03479 12.3 9.03694 12.3 9.03909 12.3C9.04124 12.3 9.04338 12.3 9.04552 12.3C9.04766 12.3 9.04979 12.3 9.05192 12.3C9.05405 12.3 9.05618 12.3 9.0583 12.3C9.06042 12.3 9.06254 12.3 9.06465 12.3C9.06676 12.3 9.06887 12.3 9.07098 12.3C9.07308 12.3 9.07518 12.3 9.07728 12.3C9.07938 12.3 9.08147 12.3 9.08356 12.3C9.08565 12.3 9.08773 12.3 9.08982 12.3C9.0919 12.3 9.09397 12.3 9.09605 12.3C9.09812 12.3 9.10019 12.3 9.10225 12.3C9.10432 12.3 9.10638 12.3 9.10844 12.3C9.11049 12.3 9.11255 12.3 9.11459 12.3C9.11664 12.3 9.11869 12.3 9.12073 12.3C9.12277 12.3 9.12481 12.3 9.12684 12.3C9.12888 12.3 9.13091 12.3 9.13293 12.3C9.13496 12.3 9.13698 12.3 9.139 12.3C9.14101 12.3 9.14303 12.3 9.14504 12.3C9.14705 12.3 9.14906 12.3 9.15106 12.3C9.15306 12.3 9.15506 12.3 9.15705 12.3C9.15905 12.3 9.16104 12.3 9.16303 12.3C9.16501 12.3 9.167 12.3 9.16898 12.3C9.17096 12.3 9.17293 12.3 9.17491 12.3C9.17688 12.3 9.17885 12.3 9.18081 12.3C9.18278 12.3 9.18474 12.3 9.18669 12.3C9.18865 12.3 9.19061 12.3 9.19256 12.3C9.19451 12.3 9.19645 12.3 9.19839 12.3C9.20034 12.3 9.20228 12.3 9.20421 12.3C9.20615 12.3 9.20808 12.3 9.21001 12.3C9.21193 12.3 9.21386 12.3 9.21578 12.3C9.2177 12.3 9.21962 12.3 9.22153 12.3C9.22345 12.3 9.22536 12.3 9.22726 12.3C9.22917 12.3 9.23107 12.3 9.23297 12.3C9.23487 12.3 9.23677 12.3 9.23866 12.3C9.24055 12.3 9.24244 12.3 9.24432 12.3C9.24621 12.3 9.24809 12.3 9.24997 12.3C9.25185 12.3 9.25372 12.3 9.25559 12.3C9.25746 12.3 9.25933 12.3 9.2612 12.3C9.26306 12.3 9.26492 12.3 9.26678 12.3C9.26864 12.3 9.27049 12.3 9.27234 12.3C9.27419 12.3 9.27604 12.3 9.27788 12.3C9.27973 12.3 9.28157 12.3 9.2834 12.3C9.28524 12.3 9.28708 12.3 9.28891 12.3C9.29074 12.3 9.29256 12.3 9.29439 12.3C9.29621 12.3 9.29803 12.3 9.29985 12.3C9.30166 12.3 9.30348 12.3 9.30529 12.3C9.3071 12.3 9.30891 12.3 9.31071 12.3C9.31251 12.3 9.31431 12.3 9.31611 12.3C9.31791 12.3 9.3197 12.3 9.32149 12.3C9.32329 12.3 9.32507 12.3 9.32686 12.3C9.32864 12.3 9.33042 12.3 9.3322 12.3C9.33398 12.3 9.33575 12.3 9.33752 12.3C9.3393 12.3 9.34106 12.3 9.34283 12.3C9.34459 12.3 9.34636 12.3 9.34812 12.3C9.34987 12.3 9.35163 12.3 9.35338 12.3C9.35514 12.3 9.35689 12.3 9.35863 12.3C9.36038 12.3 9.36212 12.3 9.36386 12.3C9.3656 12.3 9.36734 12.3 9.36907 12.3C9.37081 12.3 9.37254 12.3 9.37427 12.3C9.376 12.3 9.37772 12.3 9.37944 12.3C9.38116 12.3 9.38288 12.3 9.3846 12.3C9.38632 12.3 9.38803 12.3 9.38974 12.3C9.39145 12.3 9.39316 12.3 9.39486 12.3C9.39656 12.3 9.39826 12.3 9.39996 12.3C9.40166 12.3 9.40336 12.3 9.40505 12.3C9.40674 12.3 9.40843 12.3 9.41012 12.3C9.4118 12.3 9.41349 12.3 9.41517 12.3C9.41685 12.3 9.41853 12.3 9.4202 12.3C9.42188 12.3 9.42355 12.3 9.42522 12.3C9.42689 12.3 9.42855 12.3 9.43022 12.3C9.43188 12.3 9.43354 12.3 9.4352 12.3C9.43686 12.3 9.43851 12.3 9.44016 12.3C9.44182 12.3 9.44347 12.3 9.44511 12.3C9.44676 12.3 9.4484 12.3 9.45004 12.3C9.45169 12.3 9.45332 12.3 9.45496 12.3C9.4566 12.3 9.45823 12.3 9.45986 12.3C9.46149 12.3 9.46312 12.3 9.46474 12.3C9.46637 12.3 9.46799 12.3 9.46961 12.3C9.47123 12.3 9.47285 12.3 9.47446 12.3C9.47607 12.3 9.47769 12.3 9.47929 12.3C9.4809 12.3 9.48251 12.3 9.48411 12.3C9.48572 12.3 9.48732 12.3 9.48892 12.3C9.49052 12.3 9.49211 12.3 9.49371 12.3C9.4953 12.3 9.49689 12.3 9.49848 12.3C9.50007 12.3 9.50165 12.3 9.50323 12.3C9.50482 12.3 9.5064 12.3 9.50798 12.3C9.50955 12.3 9.51113 12.3 9.5127 12.3C9.51428 12.3 9.51585 12.3 9.51742 12.3C9.51898 12.3 9.52055 12.3 9.52211 12.3C9.52368 12.3 9.52524 12.3 9.5268 12.3C9.52835 12.3 9.52991 12.3 9.53146 12.3C9.53302 12.3 9.53457 12.3 9.53612 12.3C9.53767 12.3 9.53921 12.3 9.54076 12.3C9.5423 12.3 9.54384 12.3 9.54538 12.3C9.54692 12.3 9.54846 12.3 9.54999 12.3C9.55153 12.3 9.55306 12.3 9.55459 12.3C9.55612 12.3 9.55765 12.3 9.55917 12.3C9.5607 12.3 9.56222 12.3 9.56374 12.3C9.56526 12.3 9.56678 12.3 9.5683 12.3C9.56981 12.3 9.57132 12.3 9.57284 12.3C9.57435 12.3 9.57586 12.3 9.57736 12.3C9.57887 12.3 9.58038 12.3 9.58188 12.3C9.58338 12.3 9.58488 12.3 9.58638 12.3C9.58788 12.3 9.58938 12.3 9.59087 12.3C9.59236 12.3 9.59386 12.3 9.59535 12.3C9.59684 12.3 9.59832 12.3 9.59981 12.3C9.60129 12.3 9.60278 12.3 9.60426 12.3C9.60574 12.3 9.60722 12.3 9.6087 12.3C9.61017 12.3 9.61165 12.3 9.61312 12.3C9.61459 12.3 9.61607 12.3 9.61753 12.3C9.619 12.3 9.62047 12.3 9.62194 12.3C9.6234 12.3 9.62486 12.3 9.62632 12.3C9.62778 12.3 9.62924 12.3 9.6307 12.3C9.63216 12.3 9.63361 12.3 9.63506 12.3C9.63652 12.3 9.63797 12.3 9.63942 12.3C9.64087 12.3 9.64231 12.3 9.64376 12.3C9.6452 12.3 9.64665 12.3 9.64809 12.3C9.64953 12.3 9.65097 12.3 9.65241 12.3C9.65384 12.3 9.65528 12.3 9.65671 12.3C9.65815 12.3 9.65958 12.3 9.66101 12.3C9.66244 12.3 9.66387 12.3 9.66529 12.3C9.66672 12.3 9.66814 12.3 9.66957 12.3C9.67099 12.3 9.67241 12.3 9.67383 12.3C9.67525 12.3 9.67666 12.3 9.67808 12.3C9.6795 12.3 9.68091 12.3 9.68232 12.3C9.68373 12.3 9.68514 12.3 9.68655 12.3C9.68796 12.3 9.68937 12.3 9.69077 12.3C9.69218 12.3 9.69358 12.3 9.69498 12.3C9.69638 12.3 9.69778 12.3 9.69918 12.3C9.70058 12.3 9.70198 12.3 9.70337 12.3C9.70477 12.3 9.70616 12.3 9.70755 12.3C9.70894 12.3 9.71033 12.3 9.71172 12.3C9.71311 12.3 9.7145 12.3 9.71588 12.3C9.71727 12.3 9.71865 12.3 9.72003 12.3C9.72142 12.3 9.7228 12.3 9.72418 12.3C9.72555 12.3 9.72693 12.3 9.72831 12.3C9.72968 12.3 9.73106 12.3 9.73243 12.3C9.7338 12.3 9.73518 12.3 9.73654 12.3C9.73791 12.3 9.73928 12.3 9.74065 12.3C9.74202 12.3 9.74338 12.3 9.74475 12.3C9.74611 12.3 9.74747 12.3 9.74883 12.3C9.75019 12.3 9.75155 12.3 9.75291 12.3C9.75427 12.3 9.75563 12.3 9.75698 12.3C9.75834 12.3 9.75969 12.3 9.76104 12.3C9.7624 12.3 9.76375 12.3 9.7651 12.3C9.76645 12.3 9.7678 12.3 9.76914 12.3C9.77049 12.3 9.77184 12.3 9.77318 12.3C9.77453 12.3 9.77587 12.3 9.77721 12.3C9.77855 12.3 9.77989 12.3 9.78123 12.3C9.78257 12.3 9.78391 12.3 9.78525 12.3C9.78658 12.3 9.78792 12.3 9.78925 12.3C9.79059 12.3 9.79192 12.3 9.79325 12.3C9.79458 12.3 9.79591 12.3 9.79724 12.3C9.79857 12.3 9.7999 12.3 9.80123 12.3C9.80256 12.3 9.80388 12.3 9.80521 12.3C9.80653 12.3 9.80785 12.3 9.80918 12.3C9.8105 12.3 9.81182 12.3 9.81314 12.3C9.81446 12.3 9.81578 12.3 9.8171 12.3C9.81841 12.3 9.81973 12.3 9.82105 12.3C9.82236 12.3 9.82368 12.3 9.82499 12.3C9.8263 12.3 9.82762 12.3 9.82893 12.3C9.83024 12.3 9.83155 12.3 9.83286 12.3C9.83417 12.3 9.83548 12.3 9.83678 12.3C9.83809 12.3 9.8394 12.3 9.8407 12.3C9.84201 12.3 9.84331 12.3 9.84462 12.3C9.84592 12.3 9.84722 12.3 9.84852 12.3C9.84982 12.3 9.85113 12.3 9.85243 12.3C9.85372 12.3 9.85502 12.3 9.85632 12.3C9.85762 12.3 9.85892 12.3 9.86021 12.3C9.86151 12.3 9.8628 12.3 9.8641 12.3C9.86539 12.3 9.86668 12.3 9.86798 12.3C9.86927 12.3 9.87056 12.3 9.87185 12.3C9.87314 12.3 9.87443 12.3 9.87572 12.3C9.87701 12.3 9.8783 12.3 9.87959 12.3C9.88087 12.3 9.88216 12.3 9.88345 12.3C9.88473 12.3 9.88602 12.3 9.8873 12.3C9.88859 12.3 9.88987 12.3 9.89115 12.3C9.89244 12.3 9.89372 12.3 9.895 12.3C9.89628 12.3 9.89756 12.3 9.89884 12.3C9.90012 12.3 9.9014 12.3 9.90268 12.3C9.90396 12.3 9.90524 12.3 9.90652 12.3C9.90779 12.3 9.90907 12.3 9.91035 12.3C9.91162 12.3 9.9129 12.3 9.91417 12.3C9.91545 12.3 9.91672 12.3 9.91799 12.3C9.91927 12.3 9.92054 12.3 9.92181 12.3C9.92309 12.3 9.92436 12.3 9.92563 12.3C9.9269 12.3 9.92817 12.3 9.92944 12.3C9.93071 12.3 9.93198 12.3 9.93325 12.3C9.93452 12.3 9.93579 12.3 9.93706 12.3C9.93833 12.3 9.93959 12.3 9.94086 12.3C9.94213 12.3 9.9434 12.3 9.94466 12.3C9.94593 12.3 9.94719 12.3 9.94846 12.3C9.94972 12.3 9.95099 12.3 9.95225 12.3C9.95352 12.3 9.95478 12.3 9.95605 12.3C9.95731 12.3 9.95857 12.3 9.95984 12.3C9.9611 12.3 9.96236 12.3 9.96362 12.3C9.96489 12.3 9.96615 12.3 9.96741 12.3C9.96867 12.3 9.96993 12.3 9.97119 12.3C9.97245 12.3 9.97371 12.3 9.97498 12.3C9.97624 12.3 9.9775 12.3 9.97875 12.3C9.98001 12.3 9.98127 12.3 9.98253 12.3C9.98379 12.3 9.98505 12.3 9.98631 12.3C9.98757 12.3 9.98883 12.3 9.99008 12.3C9.99134 12.3 9.9926 12.3 9.99386 12.3C9.99512 12.3 9.99637 12.3 9.99763 12.3C9.99889 12.3 10.0001 12.3 10.0014 12.3C10.0027 12.3 10.0039 12.3 10.0052 12.3C10.0064 12.3 10.0077 12.3 10.0089 12.3C10.0102 12.3 10.0115 12.3 10.0127 12.3C10.014 12.3 10.0152 12.3 10.0165 12.3C10.0177 12.3 10.019 12.3 10.0202 12.3C10.0215 12.3 10.0228 12.3 10.024 12.3C10.0253 12.3 10.0265 12.3 10.0278 12.3C10.029 12.3 10.0303 12.3 10.0315 12.3C10.0328 12.3 10.0341 12.3 10.0353 12.3C10.0366 12.3 10.0378 12.3 10.0391 12.3C10.0403 12.3 10.0416 12.3 10.0428 12.3C10.0441 12.3 10.0454 12.3 10.0466 12.3C10.0479 12.3 10.0491 12.3 10.0504 12.3C10.0516 12.3 10.0529 12.3 10.0542 12.3C10.0554 12.3 10.0567 12.3 10.0579 12.3C10.0592 12.3 10.0604 12.3 10.0617 12.3C10.0629 12.3 10.0642 12.3 10.0655 12.3C10.0667 12.3 10.068 12.3 10.0692 12.3C10.0705 12.3 10.0717 12.3 10.073 12.3C10.0743 12.3 10.0755 12.3 10.0768 12.3C10.078 12.3 10.0793 12.3 10.0806 12.3C10.0818 12.3 10.0831 12.3 10.0843 12.3C10.0856 12.3 10.0868 12.3 10.0881 12.3C10.0894 12.3 10.0906 12.3 10.0919 12.3C10.0932 12.3 10.0944 12.3 10.0957 12.3C10.0969 12.3 10.0982 12.3 10.0995 12.3C10.1007 12.3 10.102 12.3 10.1032 12.3C10.1045 12.3 10.1058 12.3 10.107 12.3C10.1083 12.3 10.1096 12.3 10.1108 12.3C10.1121 12.3 10.1133 12.3 10.1146 12.3C10.1159 12.3 10.1171 12.3 10.1184 12.3C10.1197 12.3 10.1209 12.3 10.1222 12.3C10.1235 12.3 10.1247 12.3 10.126 12.3C10.1273 12.3 10.1285 12.3 10.1298 12.3C10.1311 12.3 10.1323 12.3 10.1336 12.3C10.1349 12.3 10.1362 12.3 10.1374 12.3C10.1387 12.3 10.14 12.3 10.1412 12.3C10.1425 12.3 10.1438 12.3 10.1451 12.3C10.1463 12.3 10.1476 12.3 10.1489 12.3C10.1501 12.3 10.1514 12.3 10.1527 12.3C10.154 12.3 10.1553 12.3 10.1565 12.3C10.1578 12.3 10.1591 12.3 10.1604 12.3C10.1616 12.3 10.1629 12.3 10.1642 12.3C10.1655 12.3 10.1668 12.3 10.168 12.3C10.1693 12.3 10.1706 12.3 10.1719 12.3C10.1732 12.3 10.1744 12.3 10.1757 12.3C10.177 12.3 10.1783 12.3 10.1796 12.3C10.1809 12.3 10.1821 12.3 10.1834 12.3C10.1847 12.3 10.186 12.3 10.1873 12.3C10.1886 12.3 10.1899 12.3 10.1912 12.3C10.1924 12.3 10.1937 12.3 10.195 12.3C10.1963 12.3 10.1976 12.3 10.1989 12.3C10.2002 12.3 10.2015 12.3 10.2028 12.3C10.2041 12.3 10.2054 12.3 10.2067 12.3C10.208 12.3 10.2093 12.3 10.2106 12.3C10.2119 12.3 10.2132 12.3 10.2145 12.3C10.2158 12.3 10.2171 12.3 10.2184 12.3C10.2197 12.3 10.221 12.3 10.2223 12.3C10.2236 12.3 10.2249 12.3 10.2262 12.3C10.2275 12.3 10.2288 12.3 10.2301 12.3C10.2314 12.3 10.2327 12.3 10.234 12.3C10.2353 12.3 10.2366 12.3 10.238 12.3C10.2393 12.3 10.2406 12.3 10.2419 12.3C10.2432 12.3 10.2445 12.3 10.2458 12.3C10.2472 12.3 10.2485 12.3 10.2498 12.3C10.2511 12.3 10.2524 12.3 10.2538 12.3C10.2551 12.3 10.2564 12.3 10.2577 12.3C10.259 12.3 10.2604 12.3 10.2617 12.3C10.263 12.3 10.2643 12.3 10.2657 12.3C10.267 12.3 10.2683 12.3 10.2697 12.3C10.271 12.3 10.2723 12.3 10.2736 12.3C10.275 12.3 10.2763 12.3 10.2776 12.3C10.279 12.3 10.2803 12.3 10.2817 12.3C10.283 12.3 10.2843 12.3 10.2857 12.3C10.287 12.3 10.2883 12.3 10.2897 12.3C10.291 12.3 10.2924 12.3 10.2937 12.3C10.2951 12.3 10.2964 12.3 10.2978 12.3C10.2991 12.3 10.3005 12.3 10.3018 12.3C10.3032 12.3 10.3045 12.3 10.3059 12.3C10.3072 12.3 10.3086 12.3 10.3099 12.3C10.3113 12.3 10.3126 12.3 10.314 12.3C10.3154 12.3 10.3167 12.3 10.3181 12.3C10.3194 12.3 10.3208 12.3 10.3222 12.3C10.3235 12.3 10.3249 12.3 10.3263 12.3C10.3276 12.3 10.329 12.3 10.3304 12.3C10.3317 12.3 10.3331 12.3 10.3345 12.3C10.3359 12.3 10.3372 12.3 10.3386 12.3C10.34 12.3 10.3414 12.3 10.3427 12.3C10.3441 12.3 10.3455 12.3 10.3469 12.3C10.3483 12.3 10.3496 12.3 10.351 12.3C10.3524 12.3 10.3538 12.3 10.3552 12.3C10.3566 12.3 10.358 12.3 10.3594 12.3C10.3608 12.3 10.3622 12.3 10.3636 12.3C10.3649 12.3 10.3663 12.3 10.3677 12.3C10.3691 12.3 10.3705 12.3 10.3719 12.3C10.3733 12.3 10.3747 12.3 10.3762 12.3C10.3776 12.3 10.379 12.3 10.3804 12.3C10.3818 12.3 10.3832 12.3 10.3846 12.3C10.386 12.3 10.3874 12.3 10.3889 12.3C10.3903 12.3 10.3917 12.3 10.3931 12.3C10.3945 12.3 10.3959 12.3 10.3974 12.3C10.3988 12.3 10.4002 12.3 10.4016 12.3C10.4031 12.3 10.4045 12.3 10.4059 12.3C10.4074 12.3 10.4088 12.3 10.4102 12.3C10.4117 12.3 10.4131 12.3 10.4145 12.3C10.416 12.3 10.4174 12.3 10.4189 12.3C10.4203 12.3 10.4217 12.3 10.4232 12.3C10.4246 12.3 10.4261 12.3 10.4275 12.3C10.429 12.3 10.4304 12.3 10.4319 12.3C10.4333 12.3 10.4348 12.3 10.4362 12.3C10.4377 12.3 10.4392 12.3 10.4406 12.3C10.4421 12.3 10.4436 12.3 10.445 12.3C10.4465 12.3 10.448 12.3 10.4494 12.3C10.4509 12.3 10.4524 12.3 10.4538 12.3C10.4553 12.3 10.4568 12.3 10.4583 12.3C10.4597 12.3 10.4612 12.3 10.4627 12.3C10.4642 12.3 10.4657 12.3 10.4672 12.3C10.4686 12.3 10.4701 12.3 10.4716 12.3C10.4731 12.3 10.4746 12.3 10.4761 12.3C10.4776 12.3 10.4791 12.3 10.4806 12.3C10.4821 12.3 10.4836 12.3 10.4851 12.3C10.4866 12.3 10.4881 12.3 10.4896 12.3C10.4911 12.3 10.4926 12.3 10.4941 12.3C10.4956 12.3 10.4972 12.3 10.4987 12.3C10.5002 12.3 10.5017 12.3 10.5032 12.3C10.5048 12.3 10.5063 12.3 10.5078 12.3C10.5093 12.3 10.5109 12.3 10.5124 12.3C10.5139 12.3 10.5155 12.3 10.517 12.3C10.5185 12.3 10.5201 12.3 10.5216 12.3C10.5231 12.3 10.5247 12.3 10.5262 12.3C10.5278 12.3 10.5293 12.3 10.5309 12.3C10.5324 12.3 10.534 12.3 10.5355 12.3C10.5371 12.3 10.5386 12.3 10.5402 12.3C10.5418 12.3 10.5433 12.3 10.5449 12.3C10.5464 12.3 10.548 12.3 10.5496 12.3C10.5511 12.3 10.5527 12.3 10.5543 12.3C10.5559 12.3 10.5574 12.3 10.559 12.3C10.5606 12.3 10.5622 12.3 10.5638 12.3C10.5654 12.3 10.5669 12.3 10.5685 12.3C10.5701 12.3 10.5717 12.3 10.5733 12.3C10.5749 12.3 10.5765 12.3 10.5781 12.3C10.5797 12.3 10.5813 12.3 10.5829 12.3C10.5845 12.3 10.5861 12.3 10.5877 12.3C10.5893 12.3 10.5909 12.3 10.5926 12.3C10.5942 12.3 10.5958 12.3 10.5974 12.3C10.599 12.3 10.6007 12.3 10.6023 12.3C10.6039 12.3 10.6055 12.3 10.6072 12.3C10.6088 12.3 10.6104 12.3 10.6121 12.3C10.6137 12.3 10.6153 12.3 10.617 12.3C10.6186 12.3 10.6203 12.3 10.6219 12.3C10.6236 12.3 10.6252 12.3 10.6269 12.3C10.6285 12.3 10.6302 12.3 10.6318 12.3C10.6335 12.3 10.6352 12.3 10.6368 12.3C10.6385 12.3 10.6402 12.3 10.6418 12.3C10.6435 12.3 10.6452 12.3 10.6468 12.3C10.6485 12.3 10.6502 12.3 10.6519 12.3C10.6536 12.3 10.6552 12.3 10.6569 12.3C10.6586 12.3 10.6603 12.3 10.662 12.3C10.6637 12.3 10.6654 12.3 10.6671 12.3C10.6688 12.3 10.6705 12.3 10.6722 12.3C10.6739 12.3 10.6756 12.3 10.6773 12.3C10.679 12.3 10.6807 12.3 10.6825 12.3C10.6842 12.3 10.6859 12.3 10.6876 12.3C10.6893 12.3 10.6911 12.3 10.6928 12.3C10.6945 12.3 10.6963 12.3 10.698 12.3C10.6997 12.3 10.7015 12.3 10.7032 12.3C10.7049 12.3 10.7067 12.3 10.7084 12.3C10.7102 12.3 10.7119 12.3 10.7137 12.3C10.7154 12.3 10.7172 12.3 10.719 12.3C10.7207 12.3 10.7225 12.3 10.7243 12.3C10.726 12.3 10.7278 12.3 10.7296 12.3C10.7313 12.3 10.7331 12.3 10.7349 12.3C10.7367 12.3 10.7384 12.3 10.7402 12.3C10.742 12.3 10.7438 12.3 10.7456 12.3C10.7474 12.3 10.7492 12.3 10.751 12.3C10.7528 12.3 10.7546 12.3 10.7564 12.3C10.7582 12.3 10.76 12.3 10.7618 12.3C10.7636 12.3 10.7654 12.3 10.7673 12.3C10.7691 12.3 10.7709 12.3 10.7727 12.3C10.7745 12.3 10.7764 12.3 10.7782 12.3C10.78 12.3 10.7819 12.3 10.7837 12.3C10.7855 12.3 10.7874 12.3 10.7892 12.3C10.7911 12.3 10.7929 12.3 10.7948 12.3C10.7966 12.3 10.7985 12.3 10.8003 12.3C10.8022 12.3 10.8041 12.3 10.8059 12.3C10.8078 12.3 10.8097 12.3 10.8115 12.3C10.8134 12.3 10.8153 12.3 10.8172 12.3C10.819 12.3 10.8209 12.3 10.8228 12.3C10.8247 12.3 10.8266 12.3 10.8285 12.3C10.8304 12.3 10.8323 12.3 10.8342 12.3C10.8361 12.3 10.838 12.3 10.8399 12.3C10.8418 12.3 10.8437 12.3 10.8456 12.3C10.8475 12.3 10.8494 12.3 10.8514 12.3C10.8533 12.3 10.8552 12.3 10.8571 12.3C10.8591 12.3 10.861 12.3 10.8629 12.3C10.8649 12.3 10.8668 12.3 10.8688 12.3C10.8707 12.3 10.8727 12.3 10.8746 12.3C10.8766 12.3 10.8785 12.3 10.8805 12.3C10.8824 12.3 10.8844 12.3 10.8864 12.3C10.8883 12.3 10.8903 12.3 10.8923 12.3C10.8942 12.3 10.8962 12.3 10.8982 12.3C10.9002 12.3 10.9022 12.3 10.9041 12.3C10.9061 12.3 10.9081 12.3 10.9101 12.3C10.9121 12.3 10.9141 12.3 10.9161 12.3C10.9181 12.3 10.9201 12.3 10.9221 12.3C10.9242 12.3 10.9262 12.3 10.9282 12.3C10.9302 12.3 10.9322 12.3 10.9343 12.3C10.9363 12.3 10.9383 12.3 10.9404 12.3C10.9424 12.3 10.9444 12.3 10.9465 12.3C10.9485 12.3 10.9506 12.3 10.9526 12.3C10.9547 12.3 10.9567 12.3 10.9588 12.3C10.9608 12.3 10.9629 12.3 10.965 12.3C10.967 12.3 10.9691 12.3 10.9712 12.3C10.9732 12.3 10.9753 12.3 10.9774 12.3C10.9795 12.3 10.9816 12.3 10.9837 12.3C10.9857 12.3 10.9878 12.3 10.9899 12.3C10.992 12.3 10.9941 12.3 10.9962 12.3C10.9984 12.3 11.0005 12.3 11.0026 12.3C11.0047 12.3 11.0068 12.3 11.0089 12.3C11.0111 12.3 11.0132 12.3 11.0153 12.3C11.0174 12.3 11.0196 12.3 11.0217 12.3C11.0239 12.3 11.026 12.3 11.0282 12.3C11.0303 12.3 11.0325 12.3 11.0346 12.3C11.0368 12.3 11.0389 12.3 11.0411 12.3C11.0433 12.3 11.0454 12.3 11.0476 12.3C11.0498 12.3 11.0519 12.3 11.0541 12.3C11.0563 12.3 11.0585 12.3 11.0607 12.3C11.0629 12.3 11.0651 12.3 11.0673 12.3C11.0695 12.3 11.0717 12.3 11.0739 12.3C11.0761 12.3 11.0783 12.3 11.0805 12.3C11.0827 12.3 11.0849 12.3 11.0872 12.3C11.0894 12.3 11.0916 12.3 11.0939 12.3C11.0961 12.3 11.0983 12.3 11.1006 12.3C11.1028 12.3 11.1051 12.3 11.1073 12.3C11.1096 12.3 11.1118 12.3 11.1141 12.3C11.1163 12.3 11.1186 12.3 11.1209 12.3C11.1231 12.3 11.1254 12.3 11.1277 12.3C11.13 12.3 11.1322 12.3 11.1345 12.3C11.1368 12.3 11.1391 12.3 11.1414 12.3C11.1437 12.3 11.146 12.3 11.1483 12.3C11.1506 12.3 11.1529 12.3 11.1552 12.3C11.1575 12.3 11.1599 12.3 11.1622 12.3C11.1645 12.3 11.1668 12.3 11.1692 12.3C11.1715 12.3 11.1738 12.3 11.1762 12.3C11.1785 12.3 11.1809 12.3 11.1832 12.3C11.1856 12.3 11.1879 12.3 11.1903 12.3C11.1926 12.3 11.195 12.3 11.1974 12.3C11.1997 12.3 11.2021 12.3 11.2045 12.3C11.2069 12.3 11.2092 12.3 11.2116 12.3C11.214 12.3 11.2164 12.3 11.2188 12.3C11.2212 12.3 11.2236 12.3 11.226 12.3C11.2284 12.3 11.2308 12.3 11.2332 12.3C11.2357 12.3 11.2381 12.3 11.2405 12.3C11.2429 12.3 11.2454 12.3 11.2478 12.3C11.2502 12.3 11.2527 12.3 11.2551 12.3C11.2576 12.3 11.26 12.3 11.2625 12.3C11.2649 12.3 11.2674 12.3 11.2698 12.3C11.2723 12.3 11.2748 12.3 11.2773 12.3C11.2797 12.3 11.2822 12.3 11.2847 12.3C11.2872 12.3 11.2897 12.3 11.2922 12.3C11.2946 12.3 11.2971 12.3 11.2996 12.3C11.3022 12.3 11.3047 12.3 11.3072 12.3C11.3097 12.3 11.3122 12.3 11.3147 12.3C11.3173 12.3 11.3198 12.3 11.3223 12.3C11.3248 12.3 11.3274 12.3 11.3299 12.3C11.3325 12.3 11.335 12.3 11.3376 12.3C11.3401 12.3 11.3427 12.3 11.3452 12.3C11.3478 12.3 11.3504 12.3 11.353 12.3C11.3555 12.3 11.3581 12.3 11.3607 12.3C11.3633 12.3 11.3659 12.3 11.3685 12.3C11.371 12.3 11.3736 12.3 11.3762 12.3C11.3789 12.3 11.3815 12.3 11.3841 12.3C11.3867 12.3 11.3893 12.3 11.3919 12.3C11.3946 12.3 11.3972 12.3 11.3998 12.3C11.4025 12.3 11.4051 12.3 11.4077 12.3C11.4104 12.3 11.413 12.3 11.4157 12.3C11.4184 12.3 11.421 12.3 11.4237 12.3C11.4263 12.3 11.429 12.3 11.4317 12.3C11.4344 12.3 11.4371 12.3 11.4397 12.3C11.4424 12.3 11.4451 12.3 11.4478 12.3C11.4505 12.3 11.4532 12.3 11.4559 12.3C11.4586 12.3 11.4613 12.3 11.4641 12.3C11.4668 12.3 11.4695 12.3 11.4722 12.3C11.475 12.3 11.4777 12.3 11.4804 12.3C11.4832 12.3 11.4859 12.3 11.4887 12.3C11.4914 12.3 11.4942 12.3 11.497 12.3C11.4997 12.3 11.5025 12.3 11.5053 12.3C11.508 12.3 11.5108 12.3 11.5136 12.3C11.5164 12.3 11.5192 12.3 11.522 12.3C11.5248 12.3 11.5276 12.3 11.5304 12.3C11.5332 12.3 11.536 12.3 11.5388 12.3C11.5416 12.3 11.5444 12.3 11.5473 12.3C11.5501 12.3 11.5529 12.3 11.5558 12.3C11.5586 12.3 11.5615 12.3 11.5643 12.3C11.5672 12.3 11.57 12.3 11.5729 12.3C11.5757 12.3 11.5786 12.3 11.5815 12.3C11.5844 12.3 11.5872 12.3 11.5901 12.3C11.593 12.3 11.5959 12.3 11.5988 12.3C11.6017 12.3 11.6046 12.3 11.6075 12.3C11.6104 12.3 11.6133 12.3 11.6162 12.3C11.6191 12.3 11.6221 12.3 11.625 12.3V12ZM9 12V11.7C7.28233 11.7 5.93852 11.9872 5.06255 12.1255C4.60472 12.1978 4.32477 12.2196 4.16315 12.1823C4.09508 12.1666 4.08015 12.147 4.07688 12.1426C4.07138 12.1353 4.05 12.1017 4.05 12H3.75H3.45C3.45 12.1796 3.48721 12.3569 3.59742 12.5034C3.70987 12.6528 3.86778 12.7299 4.02823 12.7669C4.32362 12.8351 4.72334 12.7865 5.15612 12.7182C6.06137 12.5753 7.34256 12.3 9 12.3V12ZM3.75 12L4.04698 12.0424C4.06691 11.903 4.09896 11.8339 4.11974 11.8047C4.13328 11.7856 4.13607 11.7889 4.13818 11.7886C4.15369 11.7867 4.20091 11.7881 4.29134 11.8283C4.37928 11.8674 4.48775 11.9342 4.61601 12.0328C5.13733 12.4334 5.83106 13.2357 6.55751 14.1966C8.00306 16.1084 9.49206 18.5301 9.85663 19.2592L10.125 19.125L10.3933 18.9908C10.0077 18.2199 8.49676 15.7666 7.03611 13.8347C6.30946 12.8736 5.57353 12.0119 4.9816 11.557C4.83155 11.4417 4.68148 11.3452 4.53523 11.2801C4.39147 11.2162 4.22886 11.1725 4.06346 11.1933C3.88467 11.2157 3.73549 11.3095 3.63056 11.4572C3.53288 11.5948 3.47997 11.7689 3.45302 11.9576L3.75 12ZM10.5 5.25L10.2953 5.03068L4.6703 10.2807L4.875 10.5L5.0797 10.7193L10.7047 5.46932L10.5 5.25Z" fill="black"/>
</g>
<defs>
<clipPath id="clip0_759_3551">
<rect width="24" height="24" fill="white"/>
</clipPath>
</defs>
</svg>
