<svg width="20" height="20" viewBox="0 0 20 20" fill="none" xmlns="http://www.w3.org/2000/svg">
<g clip-path="url(#clip0_793_126)">
<path d="M8.0875 7.18603C8.0875 8.06969 8.80384 8.78603 9.6875 8.78603C10.5712 8.78603 11.2875 8.06969 11.2875 7.18603C11.2875 6.30238 10.5712 5.58603 9.6875 5.58603C8.80384 5.58603 8.0875 6.30238 8.0875 7.18603ZM13.75 3.50238L13.9002 3.2427C13.892 3.23797 13.8837 3.23364 13.8751 3.2297L13.75 3.50238ZM7.59997 3.20863C7.75619 3.15342 7.83807 2.98202 7.78285 2.82581C7.72764 2.66959 7.55624 2.58772 7.40003 2.64293L7.59997 3.20863ZM17.5 9.99902H17.2C17.2 13.9755 13.9764 17.199 10 17.199V17.499V17.799C14.3078 17.799 17.8 14.3068 17.8 9.99902H17.5ZM10 17.499V17.199C6.02355 17.199 2.8 13.9755 2.8 9.99902H2.5H2.2C2.2 14.3068 5.69218 17.799 10 17.799V17.499ZM9.6875 7.18603L9.98595 7.15555C9.8373 5.70038 10.2861 4.63526 10.9755 4.04937C11.6605 3.46724 12.628 3.31779 13.6249 3.77507L13.75 3.50238L13.8751 3.2297C12.6845 2.68361 11.4645 2.84642 10.587 3.59217C9.71389 4.33416 9.2252 5.61256 9.38905 7.21652L9.6875 7.18603ZM13.75 3.50238L13.5998 3.76207C15.7527 5.00743 17.2 7.33438 17.2 9.99902H17.5H17.8C17.8 7.11154 16.2309 4.59091 13.9002 3.2427L13.75 3.50238ZM2.5 9.99902H2.8C2.8 6.86456 4.80311 4.19718 7.59997 3.20863L7.5 2.92578L7.40003 2.64293C4.37093 3.71356 2.2 6.60238 2.2 9.99902H2.5Z" fill="#CC3838"/>
<path d="M9.375 10C9.54076 10 9.69973 10.0753 9.81694 10.2092C9.93415 10.3432 10 10.5248 10 10.7143V14.2857C10 14.4752 10.0658 14.6568 10.1831 14.7908C10.3003 14.9247 10.4592 15 10.625 15" stroke="#CC3838" stroke-width="0.6" stroke-linecap="round" stroke-linejoin="round"/>
</g>
<defs>
<clipPath id="clip0_793_126">
<rect width="20" height="20" fill="white"/>
</clipPath>
</defs>
</svg>
