<svg width="20" height="21" viewBox="0 0 20 21" fill="none" xmlns="http://www.w3.org/2000/svg">
<g clip-path="url(#clip0_448_5182)">
<path d="M8.0875 7.38525C8.0875 8.26891 8.80384 8.98525 9.6875 8.98525C10.5712 8.98525 11.2875 8.26891 11.2875 7.38525C11.2875 6.5016 10.5712 5.78525 9.6875 5.78525C8.80384 5.78525 8.0875 6.5016 8.0875 7.38525ZM13.75 3.7016L13.9002 3.44192C13.892 3.43719 13.8837 3.43285 13.8751 3.42892L13.75 3.7016ZM7.59997 3.40785C7.75619 3.35264 7.83807 3.18124 7.78285 3.02503C7.72764 2.86881 7.55624 2.78693 7.40003 2.84215L7.59997 3.40785ZM17.5 10.1982H17.2C17.2 14.1747 13.9765 17.3982 10 17.3982V17.6982V17.9982C14.3078 17.9982 17.8 14.5061 17.8 10.1982H17.5ZM10 17.6982V17.3982C6.02355 17.3982 2.8 14.1747 2.8 10.1982H2.5H2.2C2.2 14.5061 5.69218 17.9982 10 17.9982V17.6982ZM9.6875 7.38525L9.98595 7.35477C9.8373 5.8996 10.2861 4.83448 10.9755 4.24859C11.6605 3.66646 12.628 3.51701 13.6249 3.97429L13.75 3.7016L13.8751 3.42892C12.6845 2.88283 11.4645 3.04564 10.587 3.79139C9.71389 4.53338 9.2252 5.81178 9.38905 7.41574L9.6875 7.38525ZM13.75 3.7016L13.5998 3.96128C15.7526 5.20665 17.2 7.5336 17.2 10.1982H17.5H17.8C17.8 7.31076 16.2309 4.79012 13.9002 3.44192L13.75 3.7016ZM2.5 10.1982H2.8C2.8 7.06378 4.80311 4.3964 7.59997 3.40785L7.5 3.125L7.40003 2.84215C4.37093 3.91278 2.2 6.8016 2.2 10.1982H2.5Z" fill="#222222" fill-opacity="0.7"/>
<path d="M9.375 10.1992C9.54076 10.1992 9.69973 10.2745 9.81694 10.4084C9.93415 10.5424 10 10.7241 10 10.9135V14.4849C10 14.6744 10.0658 14.8561 10.1831 14.99C10.3003 15.124 10.4592 15.1992 10.625 15.1992" stroke="#222222" stroke-opacity="0.7" stroke-width="0.6" stroke-linecap="round" stroke-linejoin="round"/>
</g>
<defs>
<clipPath id="clip0_448_5182">
<rect width="20" height="20" fill="white" transform="translate(0 0.199219)"/>
</clipPath>
</defs>
</svg>
