<svg width="25" height="25" viewBox="0 0 25 25" fill="none" xmlns="http://www.w3.org/2000/svg">
<g clip-path="url(#clip0_476_22399)">
<path d="M2.55507 10.9169C2.55507 11.8005 3.27142 12.5169 4.15507 12.5169C5.03873 12.5169 5.75507 11.8005 5.75507 10.9169C5.75507 10.0332 5.03873 9.31686 4.15507 9.31686C3.27142 9.31686 2.55507 10.0332 2.55507 10.9169ZM6.91161 7.58621L6.95558 7.88297L6.91161 7.58621ZM7.60105 14.3049L7.85704 14.4614L7.60105 14.3049ZM5.43572 18.0223C5.36385 18.1716 5.4266 18.3508 5.57588 18.4227C5.72516 18.4946 5.90445 18.4318 5.97632 18.2826L5.43572 18.0223ZM4.15507 10.9169L4.35203 10.6906C3.57417 10.0136 3.09929 9.53619 2.87489 9.19116C2.76306 9.01921 2.7376 8.91567 2.73799 8.8608C2.73824 8.82575 2.74768 8.78652 2.81716 8.72912C2.8973 8.66292 3.03898 8.59046 3.2689 8.517C3.49468 8.44487 3.78273 8.37869 4.13728 8.31273C4.84878 8.18039 5.78491 8.0564 6.95558 7.88297L6.91161 7.58621L6.86765 7.28945C5.71251 7.46057 4.75354 7.58781 4.02756 7.72285C3.66337 7.79059 3.34708 7.86214 3.0863 7.94546C2.82967 8.02745 2.60255 8.12816 2.43504 8.26654C2.25686 8.41372 2.13978 8.61047 2.13801 8.85649C2.13638 9.08268 2.2334 9.30531 2.37191 9.51828C2.6482 9.94311 3.18546 10.4707 3.95812 11.1432L4.15507 10.9169ZM6.91161 7.58621L6.95558 7.88297C9.92724 7.44274 19.5844 6.18845 20.8535 6.01539L20.813 5.71814L20.7725 5.42089C19.5149 5.59238 9.84291 6.84869 6.86765 7.28945L6.91161 7.58621ZM20.813 5.71814L20.8535 6.01539C21.165 5.97292 21.4272 5.95496 21.6235 5.97809C21.827 6.00207 21.8787 6.05929 21.8934 6.08681C21.9142 6.12576 21.9467 6.257 21.8181 6.58596C21.6941 6.90283 21.4445 7.34116 21.0193 7.93645L21.2634 8.11082L21.5075 8.2852C21.9437 7.67456 22.2263 7.18931 22.3768 6.80453C22.5226 6.43182 22.5718 6.08333 22.4226 5.80406C22.2673 5.51336 21.9622 5.41386 21.6937 5.38221C21.4179 5.34972 21.0927 5.37722 20.7725 5.42089L20.813 5.71814ZM21.2634 8.11082L21.0193 7.93645C19.2957 10.3494 15.3313 16.0375 14.1802 17.7641L14.4298 17.9305L14.6794 18.0969C15.8253 16.378 19.7856 10.6959 21.5075 8.2852L21.2634 8.11082ZM14.4298 17.9305L14.1802 17.7641C13.8852 18.2066 13.6823 18.5282 13.5029 18.7525C13.3182 18.9833 13.2213 19.0264 13.1665 19.0316C13.1083 19.0372 12.9833 19.0114 12.7153 18.7896C12.4574 18.5761 12.1262 18.2324 11.6651 17.7281L11.4437 17.9305L11.2223 18.1329C11.68 18.6336 12.0379 19.0077 12.3327 19.2518C12.6175 19.4875 12.9087 19.6592 13.2239 19.6289C13.5423 19.5982 13.7756 19.3721 13.9714 19.1273C14.1724 18.8761 14.4002 18.5157 14.6794 18.0969L14.4298 17.9305ZM11.4437 17.9305L11.6651 17.7281C11.2145 17.2352 10.7903 16.7009 10.3944 16.1875C10.002 15.6786 9.63154 15.1824 9.30086 14.7846C8.97749 14.3956 8.65631 14.0548 8.35326 13.8894C8.19656 13.8039 8.00717 13.7442 7.80714 13.7886C7.6009 13.8344 7.45092 13.9753 7.34507 14.1485L7.60105 14.3049L7.85704 14.4614C7.88318 14.4186 7.90454 14.3965 7.91777 14.3857C7.92964 14.376 7.93562 14.3747 7.93717 14.3744C7.94034 14.3737 7.97623 14.3672 8.06582 14.4161C8.25536 14.5195 8.51082 14.7728 8.83945 15.1682C9.16077 15.5547 9.5177 16.0331 9.91931 16.5539C10.3175 17.0703 10.7541 17.6209 11.2223 18.1329L11.4437 17.9305ZM7.60105 14.3049L7.34507 14.1485C6.9901 14.7294 6.17418 16.4886 5.43572 18.0223L5.70602 18.1524L5.97632 18.2826C6.73092 16.7153 7.5229 15.0081 7.85704 14.4614L7.60105 14.3049Z" fill="#222222"/>
<path d="M8.92154 13.3272C9.38094 13.0401 15.87 9.82425 17.9947 8.5609C20.1194 7.29755 20.062 7.01042 19.4303 7.24012C18.7986 7.46982 10.3572 10.9728 9.09387 11.4322C8.57574 11.6206 6.79677 12.1213 6.05029 13.0401C5.54499 14.1886 3.92561 19.0697 4.27004 19.8162C4.44232 20.5627 8.40482 17.2321 9.09387 16.6004" stroke="#222222" stroke-width="0.6" stroke-linecap="round"/>
</g>
<defs>
<clipPath id="clip0_476_22399">
<rect width="24" height="24" fill="white" transform="translate(0.187988 0.84375)"/>
</clipPath>
</defs>
</svg>
