<svg width="20" height="20" viewBox="0 0 20 20" fill="none" xmlns="http://www.w3.org/2000/svg">
<g clip-path="url(#clip0_448_5812)">
<path d="M10 10.625V6.25" stroke="#CC3838" stroke-width="0.6" stroke-linecap="round" stroke-linejoin="round"/>
<path d="M12.8477 2.5L12.8477 2.8L12.8479 2.8L12.8477 2.5ZM7.15234 2.5L7.15211 2.8H7.15234V2.5ZM6.71016 2.68281L6.49814 2.47056L6.49802 2.47068L6.71016 2.68281ZM2.68281 6.71016L2.47068 6.49802L2.47056 6.49814L2.68281 6.71016ZM2.5 7.15234L2.8 7.15234L2.8 7.15211L2.5 7.15234ZM2.5 12.8477L2.8 12.8479V12.8477H2.5ZM2.68281 13.2898L2.47056 13.5019L2.47068 13.502L2.68281 13.2898ZM6.71016 17.3172L6.49802 17.5293L6.49814 17.5294L6.71016 17.3172ZM7.15234 17.5L7.17923 17.2012L7.1657 17.2L7.15211 17.2L7.15234 17.5ZM12.8479 17.2C12.6822 17.1999 12.5478 17.3341 12.5477 17.4998C12.5475 17.6654 12.6817 17.7999 12.8474 17.8L12.8479 17.2ZM13.2898 17.3172L13.5019 17.5294L13.502 17.5293L13.2898 17.3172ZM17.3172 13.2898L17.5293 13.502L17.5294 13.5019L17.3172 13.2898ZM17.5 12.8477L17.2 12.8477L17.2 12.8479L17.5 12.8477ZM17.5 7.15234L17.2 7.15211V7.15234H17.5ZM17.3172 6.71016L17.5294 6.49814L17.5293 6.49802L17.3172 6.71016ZM13.2898 2.68281L13.502 2.47068L13.5019 2.47056L13.2898 2.68281ZM8.4 13.5C8.4 14.3837 9.11634 15.1 10 15.1C10.8837 15.1 11.6 14.3837 11.6 13.5C11.6 12.6163 10.8837 11.9 10 11.9C9.11634 11.9 8.4 12.6163 8.4 13.5ZM12.8477 2.5V2.2H7.15234V2.5V2.8H12.8477V2.5ZM7.15234 2.5L7.15258 2.2C7.03107 2.1999 6.91073 2.22375 6.79844 2.27017L6.91306 2.54741L7.02768 2.82466C7.06714 2.80834 7.10942 2.79997 7.15211 2.8L7.15234 2.5ZM6.91306 2.54741L6.79844 2.27017C6.68615 2.3166 6.58411 2.38469 6.49814 2.47056L6.71016 2.68281L6.92217 2.89506C6.95238 2.86489 6.98823 2.84097 7.02768 2.82466L6.91306 2.54741ZM6.71016 2.68281L6.49802 2.47068L2.47068 6.49802L2.68281 6.71016L2.89494 6.92229L6.92229 2.89494L6.71016 2.68281ZM2.68281 6.71016L2.47056 6.49814C2.38469 6.58411 2.3166 6.68615 2.27017 6.79844L2.54741 6.91306L2.82466 7.02768C2.84097 6.98823 2.86489 6.95238 2.89506 6.92217L2.68281 6.71016ZM2.54741 6.91306L2.27017 6.79844C2.22375 6.91073 2.1999 7.03107 2.2 7.15258L2.5 7.15234L2.8 7.15211C2.79997 7.10942 2.80834 7.06714 2.82466 7.02768L2.54741 6.91306ZM2.5 7.15234H2.2V12.8477H2.5H2.8V7.15234H2.5ZM2.5 12.8477L2.2 12.8474C2.1999 12.9689 2.22375 13.0893 2.27017 13.2016L2.54741 13.0869L2.82466 12.9723C2.80834 12.9329 2.79997 12.8906 2.8 12.8479L2.5 12.8477ZM2.54741 13.0869L2.27017 13.2016C2.3166 13.3138 2.38469 13.4159 2.47056 13.5019L2.68281 13.2898L2.89506 13.0778C2.86489 13.0476 2.84097 13.0118 2.82466 12.9723L2.54741 13.0869ZM2.68281 13.2898L2.47068 13.502L6.49802 17.5293L6.71016 17.3172L6.92229 17.1051L2.89494 13.0777L2.68281 13.2898ZM6.71016 17.3172L6.49814 17.5294C6.58411 17.6153 6.68615 17.6834 6.79844 17.7298L6.91306 17.4526L7.02768 17.1753C6.98823 17.159 6.95238 17.1351 6.92217 17.1049L6.71016 17.3172ZM6.91306 17.4526L6.79844 17.7298C6.91073 17.7763 7.03107 17.8001 7.15258 17.8L7.15234 17.5L7.15211 17.2C7.10942 17.2 7.06714 17.1917 7.02768 17.1753L6.91306 17.4526ZM12.8477 17.5L12.8474 17.8C12.9689 17.8001 13.0893 17.7763 13.2016 17.7298L13.0869 17.4526L12.9723 17.1753C12.9329 17.1917 12.8906 17.2 12.8479 17.2L12.8477 17.5ZM13.0869 17.4526L13.2016 17.7298C13.3138 17.6834 13.4159 17.6153 13.5019 17.5294L13.2898 17.3172L13.0778 17.1049C13.0476 17.1351 13.0118 17.159 12.9723 17.1753L13.0869 17.4526ZM13.2898 17.3172L13.502 17.5293L17.5293 13.502L17.3172 13.2898L17.1051 13.0777L13.0777 17.1051L13.2898 17.3172ZM17.3172 13.2898L17.5294 13.5019C17.6153 13.4159 17.6834 13.3138 17.7298 13.2016L17.4526 13.0869L17.1753 12.9723C17.159 13.0118 17.1351 13.0476 17.1049 13.0778L17.3172 13.2898ZM17.4526 13.0869L17.7298 13.2016C17.7763 13.0893 17.8001 12.9689 17.8 12.8474L17.5 12.8477L17.2 12.8479C17.2 12.8906 17.1917 12.9329 17.1753 12.9723L17.4526 13.0869ZM17.5 12.8477H17.8V7.15234H17.5H17.2V12.8477H17.5ZM17.5 7.15234L17.8 7.15258C17.8001 7.03107 17.7763 6.91073 17.7298 6.79844L17.4526 6.91306L17.1753 7.02768C17.1917 7.06714 17.2 7.10942 17.2 7.15211L17.5 7.15234ZM17.4526 6.91306L17.7298 6.79844C17.6834 6.68615 17.6153 6.58411 17.5294 6.49814L17.3172 6.71016L17.1049 6.92217C17.1351 6.95238 17.159 6.98823 17.1753 7.02768L17.4526 6.91306ZM17.3172 6.71016L17.5293 6.49802L13.502 2.47068L13.2898 2.68281L13.0777 2.89494L17.1051 6.92229L17.3172 6.71016ZM13.2898 2.68281L13.5019 2.47056C13.4159 2.38469 13.3138 2.3166 13.2016 2.27017L13.0869 2.54741L12.9723 2.82466C13.0118 2.84097 13.0476 2.86489 13.0778 2.89506L13.2898 2.68281ZM13.0869 2.54741L13.2016 2.27017C13.0893 2.22375 12.9689 2.1999 12.8474 2.2L12.8477 2.5L12.8479 2.8C12.8906 2.79997 12.9329 2.80834 12.9723 2.82466L13.0869 2.54741ZM7.15234 17.5C7.12546 17.7988 7.12549 17.7988 7.12554 17.7988C7.12557 17.7988 7.12564 17.7988 7.12571 17.7988C7.12584 17.7988 7.12603 17.7988 7.12628 17.7989C7.12677 17.7989 7.12747 17.799 7.12837 17.7991C7.13019 17.7992 7.13285 17.7994 7.13632 17.7998C7.14326 17.8004 7.15344 17.8012 7.16668 17.8024C7.19316 17.8046 7.23184 17.8078 7.28112 17.8117C7.37968 17.8195 7.52074 17.8301 7.69147 17.8411C8.03256 17.8632 8.49375 17.8875 8.9718 17.896C9.44805 17.9045 9.9492 17.8975 10.3674 17.8552C10.576 17.834 10.7727 17.8033 10.9391 17.7581C11.0948 17.7158 11.2688 17.6496 11.3891 17.5293L11.1769 17.3172L10.9648 17.1051C10.9659 17.1039 10.9554 17.1142 10.9213 17.1303C10.8884 17.1458 10.8425 17.1626 10.7818 17.1791C10.6597 17.2122 10.4991 17.2388 10.3069 17.2582C9.92361 17.297 9.44986 17.3045 8.98247 17.2961C8.51688 17.2879 8.06566 17.2641 7.73028 17.2424C7.56276 17.2315 7.42456 17.2212 7.32841 17.2136C7.28035 17.2098 7.24282 17.2067 7.21742 17.2045C7.20472 17.2034 7.19505 17.2026 7.18862 17.202C7.18541 17.2018 7.183 17.2015 7.18143 17.2014C7.18064 17.2013 7.18006 17.2013 7.1797 17.2012C7.17951 17.2012 7.17938 17.2012 7.1793 17.2012C7.17927 17.2012 7.17925 17.2012 7.17923 17.2012C7.17922 17.2012 7.17923 17.2012 7.15234 17.5ZM11.1769 17.3172L11.3891 17.5293C11.6023 17.3161 11.6542 17.004 11.6444 16.7108C11.6343 16.4073 11.5565 16.0562 11.4359 15.6898C11.194 14.9547 10.7613 14.1011 10.2496 13.3336L10 13.5L9.75038 13.6664C10.2387 14.3989 10.6444 15.2039 10.866 15.8774C10.9772 16.2153 11.0373 16.506 11.0448 16.7307C11.0526 16.9657 11.0015 17.0683 10.9648 17.1051L11.1769 17.3172Z" fill="#CC3838"/>
</g>
<defs>
<clipPath id="clip0_448_5812">
<rect width="20" height="20" fill="white"/>
</clipPath>
</defs>
</svg>
