<svg width="32" height="32" viewBox="0 0 32 32" fill="none" xmlns="http://www.w3.org/2000/svg">
<g clip-path="url(#clip0_1148_429)">
<path d="M24.8667 16C24.8667 17.1782 25.8218 18.1333 27 18.1333C28.1782 18.1333 29.1333 17.1782 29.1333 16C29.1333 14.8218 28.1782 13.8667 27 13.8667C25.8218 13.8667 24.8667 14.8218 24.8667 16ZM14.2729 7.29242C14.4344 7.14169 14.4432 6.88857 14.2924 6.72707C14.1417 6.56557 13.8886 6.55684 13.7271 6.70758L14.2729 7.29242ZM5 16L4.60402 15.9434C4.60134 15.9622 4.6 15.9811 4.6 16L5 16ZM13.1422 25.6789C13.241 25.8765 13.4813 25.9566 13.6788 25.8578C13.8764 25.759 13.9565 25.5187 13.8577 25.3211L13.1422 25.6789ZM6.22707 13.7076C6.06557 13.8583 6.05684 14.1114 6.20758 14.2729C6.35831 14.4344 6.61143 14.4432 6.77293 14.2924L6.22707 13.7076ZM27 16V15.6H15.5V16V16.4H27V16ZM15.5 16V15.6C15.4961 15.6 15.4922 15.6 15.4883 15.6C15.4844 15.6 15.4805 15.6 15.4767 15.6C15.4728 15.6 15.4689 15.6 15.465 15.6C15.4612 15.6 15.4573 15.6 15.4535 15.6C15.4496 15.6 15.4458 15.6 15.442 15.6C15.4381 15.6 15.4343 15.6 15.4305 15.6C15.4267 15.6 15.4229 15.6 15.4191 15.6C15.4153 15.6 15.4115 15.6 15.4077 15.6C15.4039 15.6 15.4001 15.6 15.3964 15.6C15.3926 15.6 15.3888 15.6 15.3851 15.6C15.3813 15.6 15.3776 15.6 15.3738 15.6C15.3701 15.6 15.3663 15.6 15.3626 15.6C15.3589 15.6 15.3552 15.6 15.3515 15.6C15.3478 15.6 15.344 15.6 15.3403 15.6C15.3367 15.6 15.333 15.6 15.3293 15.6C15.3256 15.6 15.3219 15.6 15.3182 15.6C15.3146 15.6 15.3109 15.6 15.3073 15.6C15.3036 15.6 15.3 15.6 15.2963 15.6C15.2927 15.6 15.2891 15.6 15.2854 15.6C15.2818 15.6 15.2782 15.6 15.2746 15.6C15.271 15.6 15.2674 15.6 15.2638 15.6C15.2602 15.6 15.2566 15.6 15.253 15.6C15.2494 15.6 15.2458 15.6 15.2423 15.6C15.2387 15.6 15.2351 15.6 15.2316 15.6C15.228 15.6 15.2245 15.6 15.2209 15.6C15.2174 15.6 15.2139 15.6 15.2103 15.6C15.2068 15.6 15.2033 15.6 15.1998 15.6C15.1962 15.6 15.1927 15.6 15.1892 15.6C15.1857 15.6 15.1823 15.6 15.1788 15.6C15.1753 15.6 15.1718 15.6 15.1683 15.6C15.1649 15.6 15.1614 15.6 15.1579 15.6C15.1545 15.6 15.151 15.6 15.1476 15.6C15.1441 15.6 15.1407 15.6 15.1373 15.6C15.1338 15.6 15.1304 15.6 15.127 15.6C15.1236 15.6 15.1202 15.6 15.1168 15.6C15.1134 15.6 15.11 15.6 15.1066 15.6C15.1032 15.6 15.0998 15.6 15.0964 15.6C15.093 15.6 15.0897 15.6 15.0863 15.6C15.0829 15.6 15.0796 15.6 15.0762 15.6C15.0729 15.6 15.0695 15.6 15.0662 15.6C15.0629 15.6 15.0595 15.6 15.0562 15.6C15.0529 15.6 15.0496 15.6 15.0463 15.6C15.0429 15.6 15.0396 15.6 15.0363 15.6C15.033 15.6 15.0297 15.6 15.0265 15.6C15.0232 15.6 15.0199 15.6 15.0166 15.6C15.0134 15.6 15.0101 15.6 15.0068 15.6C15.0036 15.6 15.0003 15.6 14.9971 15.6C14.9938 15.6 14.9906 15.6 14.9873 15.6C14.9841 15.6 14.9809 15.6 14.9777 15.6C14.9744 15.6 14.9712 15.6 14.968 15.6C14.9648 15.6 14.9616 15.6 14.9584 15.6C14.9552 15.6 14.952 15.6 14.9488 15.6C14.9457 15.6 14.9425 15.6 14.9393 15.6C14.9361 15.6 14.933 15.6 14.9298 15.6C14.9267 15.6 14.9235 15.6 14.9204 15.6C14.9172 15.6 14.9141 15.6 14.9109 15.6C14.9078 15.6 14.9047 15.6 14.9016 15.6C14.8984 15.6 14.8953 15.6 14.8922 15.6C14.8891 15.6 14.886 15.6 14.8829 15.6C14.8798 15.6 14.8767 15.6 14.8736 15.6C14.8706 15.6 14.8675 15.6 14.8644 15.6C14.8613 15.6 14.8583 15.6 14.8552 15.6C14.8521 15.6 14.8491 15.6 14.846 15.6C14.843 15.6 14.8399 15.6 14.8369 15.6C14.8339 15.6 14.8308 15.6 14.8278 15.6C14.8248 15.6 14.8218 15.6 14.8188 15.6C14.8158 15.6 14.8127 15.6 14.8097 15.6C14.8067 15.6 14.8037 15.6 14.8008 15.6C14.7978 15.6 14.7948 15.6 14.7918 15.6C14.7888 15.6 14.7859 15.6 14.7829 15.6C14.7799 15.6 14.777 15.6 14.774 15.6C14.7711 15.6 14.7681 15.6 14.7652 15.6C14.7622 15.6 14.7593 15.6 14.7564 15.6C14.7534 15.6 14.7505 15.6 14.7476 15.6C14.7447 15.6 14.7417 15.6 14.7388 15.6C14.7359 15.6 14.733 15.6 14.7301 15.6C14.7272 15.6 14.7243 15.6 14.7215 15.6C14.7186 15.6 14.7157 15.6 14.7128 15.6C14.7099 15.6 14.7071 15.6 14.7042 15.6C14.7013 15.6 14.6985 15.6 14.6956 15.6C14.6928 15.6 14.6899 15.6 14.6871 15.6C14.6842 15.6 14.6814 15.6 14.6786 15.6C14.6758 15.6 14.6729 15.6 14.6701 15.6C14.6673 15.6 14.6645 15.6 14.6617 15.6C14.6589 15.6 14.6561 15.6 14.6533 15.6C14.6505 15.6 14.6477 15.6 14.6449 15.6C14.6421 15.6 14.6393 15.6 14.6365 15.6C14.6338 15.6 14.631 15.6 14.6282 15.6C14.6255 15.6 14.6227 15.6 14.6199 15.6C14.6172 15.6 14.6144 15.6 14.6117 15.6C14.6089 15.6 14.6062 15.6 14.6035 15.6C14.6007 15.6 14.598 15.6 14.5953 15.6C14.5926 15.6 14.5899 15.6 14.5871 15.6C14.5844 15.6 14.5817 15.6 14.579 15.6C14.5763 15.6 14.5736 15.6 14.5709 15.6C14.5682 15.6 14.5655 15.6 14.5629 15.6C14.5602 15.6 14.5575 15.6 14.5548 15.6C14.5522 15.6 14.5495 15.6 14.5468 15.6C14.5442 15.6 14.5415 15.6 14.5389 15.6C14.5362 15.6 14.5336 15.6 14.5309 15.6C14.5283 15.6 14.5256 15.6 14.523 15.6C14.5204 15.6 14.5178 15.6 14.5151 15.6C14.5125 15.6 14.5099 15.6 14.5073 15.6C14.5047 15.6 14.5021 15.6 14.4995 15.6C14.4969 15.6 14.4943 15.6 14.4917 15.6C14.4891 15.6 14.4865 15.6 14.4839 15.6C14.4813 15.6 14.4788 15.6 14.4762 15.6C14.4736 15.6 14.4711 15.6 14.4685 15.6C14.4659 15.6 14.4634 15.6 14.4608 15.6C14.4583 15.6 14.4557 15.6 14.4532 15.6C14.4506 15.6 14.4481 15.6 14.4456 15.6C14.443 15.6 14.4405 15.6 14.438 15.6C14.4354 15.6 14.4329 15.6 14.4304 15.6C14.4279 15.6 14.4254 15.6 14.4229 15.6C14.4204 15.6 14.4179 15.6 14.4154 15.6C14.4129 15.6 14.4104 15.6 14.4079 15.6C14.4054 15.6 14.4029 15.6 14.4005 15.6C14.398 15.6 14.3955 15.6 14.393 15.6C14.3906 15.6 14.3881 15.6 14.3856 15.6C14.3832 15.6 14.3807 15.6 14.3783 15.6C14.3758 15.6 14.3734 15.6 14.3709 15.6C14.3685 15.6 14.3661 15.6 14.3636 15.6C14.3612 15.6 14.3588 15.6 14.3563 15.6C14.3539 15.6 14.3515 15.6 14.3491 15.6C14.3467 15.6 14.3443 15.6 14.3418 15.6C14.3394 15.6 14.337 15.6 14.3346 15.6C14.3322 15.6 14.3299 15.6 14.3275 15.6C14.3251 15.6 14.3227 15.6 14.3203 15.6C14.3179 15.6 14.3156 15.6 14.3132 15.6C14.3108 15.6 14.3084 15.6 14.3061 15.6C14.3037 15.6 14.3014 15.6 14.299 15.6C14.2966 15.6 14.2943 15.6 14.2919 15.6C14.2896 15.6 14.2873 15.6 14.2849 15.6C14.2826 15.6 14.2803 15.6 14.2779 15.6C14.2756 15.6 14.2733 15.6 14.2709 15.6C14.2686 15.6 14.2663 15.6 14.264 15.6C14.2617 15.6 14.2594 15.6 14.2571 15.6C14.2548 15.6 14.2525 15.6 14.2502 15.6C14.2479 15.6 14.2456 15.6 14.2433 15.6C14.241 15.6 14.2387 15.6 14.2364 15.6C14.2341 15.6 14.2319 15.6 14.2296 15.6C14.2273 15.6 14.2251 15.6 14.2228 15.6C14.2205 15.6 14.2183 15.6 14.216 15.6C14.2137 15.6 14.2115 15.6 14.2092 15.6C14.207 15.6 14.2047 15.6 14.2025 15.6C14.2003 15.6 14.198 15.6 14.1958 15.6C14.1936 15.6 14.1913 15.6 14.1891 15.6C14.1869 15.6 14.1846 15.6 14.1824 15.6C14.1802 15.6 14.178 15.6 14.1758 15.6C14.1736 15.6 14.1714 15.6 14.1692 15.6C14.167 15.6 14.1648 15.6 14.1626 15.6C14.1604 15.6 14.1582 15.6 14.156 15.6C14.1538 15.6 14.1516 15.6 14.1494 15.6C14.1472 15.6 14.1451 15.6 14.1429 15.6C14.1407 15.6 14.1385 15.6 14.1364 15.6C14.1342 15.6 14.132 15.6 14.1299 15.6C14.1277 15.6 14.1256 15.6 14.1234 15.6C14.1213 15.6 14.1191 15.6 14.117 15.6C14.1148 15.6 14.1127 15.6 14.1105 15.6C14.1084 15.6 14.1063 15.6 14.1041 15.6C14.102 15.6 14.0999 15.6 14.0977 15.6C14.0956 15.6 14.0935 15.6 14.0914 15.6C14.0893 15.6 14.0871 15.6 14.085 15.6C14.0829 15.6 14.0808 15.6 14.0787 15.6C14.0766 15.6 14.0745 15.6 14.0724 15.6C14.0703 15.6 14.0682 15.6 14.0661 15.6C14.064 15.6 14.0619 15.6 14.0598 15.6C14.0578 15.6 14.0557 15.6 14.0536 15.6C14.0515 15.6 14.0494 15.6 14.0474 15.6C14.0453 15.6 14.0432 15.6 14.0412 15.6C14.0391 15.6 14.037 15.6 14.035 15.6C14.0329 15.6 14.0309 15.6 14.0288 15.6C14.0268 15.6 14.0247 15.6 14.0227 15.6C14.0206 15.6 14.0186 15.6 14.0165 15.6C14.0145 15.6 14.0124 15.6 14.0104 15.6C14.0084 15.6 14.0063 15.6 14.0043 15.6C14.0023 15.6 14.0003 15.6 13.9982 15.6C13.9962 15.6 13.9942 15.6 13.9922 15.6C13.9902 15.6 13.9882 15.6 13.9861 15.6C13.9841 15.6 13.9821 15.6 13.9801 15.6C13.9781 15.6 13.9761 15.6 13.9741 15.6C13.9721 15.6 13.9701 15.6 13.9681 15.6C13.9661 15.6 13.9641 15.6 13.9622 15.6C13.9602 15.6 13.9582 15.6 13.9562 15.6C13.9542 15.6 13.9522 15.6 13.9503 15.6C13.9483 15.6 13.9463 15.6 13.9443 15.6C13.9424 15.6 13.9404 15.6 13.9384 15.6C13.9365 15.6 13.9345 15.6 13.9326 15.6C13.9306 15.6 13.9286 15.6 13.9267 15.6C13.9247 15.6 13.9228 15.6 13.9208 15.6C13.9189 15.6 13.9169 15.6 13.915 15.6C13.9131 15.6 13.9111 15.6 13.9092 15.6C13.9072 15.6 13.9053 15.6 13.9034 15.6C13.9014 15.6 13.8995 15.6 13.8976 15.6C13.8957 15.6 13.8937 15.6 13.8918 15.6C13.8899 15.6 13.888 15.6 13.886 15.6C13.8841 15.6 13.8822 15.6 13.8803 15.6C13.8784 15.6 13.8765 15.6 13.8746 15.6C13.8727 15.6 13.8708 15.6 13.8689 15.6C13.867 15.6 13.8651 15.6 13.8632 15.6C13.8613 15.6 13.8594 15.6 13.8575 15.6C13.8556 15.6 13.8537 15.6 13.8518 15.6C13.8499 15.6 13.848 15.6 13.8461 15.6C13.8443 15.6 13.8424 15.6 13.8405 15.6C13.8386 15.6 13.8367 15.6 13.8349 15.6C13.833 15.6 13.8311 15.6 13.8293 15.6C13.8274 15.6 13.8255 15.6 13.8237 15.6C13.8218 15.6 13.8199 15.6 13.8181 15.6C13.8162 15.6 13.8143 15.6 13.8125 15.6C13.8106 15.6 13.8088 15.6 13.8069 15.6C13.8051 15.6 13.8032 15.6 13.8014 15.6C13.7995 15.6 13.7977 15.6 13.7958 15.6C13.794 15.6 13.7922 15.6 13.7903 15.6C13.7885 15.6 13.7866 15.6 13.7848 15.6C13.783 15.6 13.7811 15.6 13.7793 15.6C13.7775 15.6 13.7756 15.6 13.7738 15.6C13.772 15.6 13.7702 15.6 13.7683 15.6C13.7665 15.6 13.7647 15.6 13.7629 15.6C13.7611 15.6 13.7592 15.6 13.7574 15.6C13.7556 15.6 13.7538 15.6 13.752 15.6C13.7502 15.6 13.7484 15.6 13.7466 15.6C13.7448 15.6 13.743 15.6 13.7411 15.6C13.7393 15.6 13.7375 15.6 13.7357 15.6C13.7339 15.6 13.7321 15.6 13.7303 15.6C13.7285 15.6 13.7268 15.6 13.725 15.6C13.7232 15.6 13.7214 15.6 13.7196 15.6C13.7178 15.6 13.716 15.6 13.7142 15.6C13.7124 15.6 13.7107 15.6 13.7089 15.6C13.7071 15.6 13.7053 15.6 13.7035 15.6C13.7017 15.6 13.7 15.6 13.6982 15.6C13.6964 15.6 13.6946 15.6 13.6929 15.6C13.6911 15.6 13.6893 15.6 13.6876 15.6C13.6858 15.6 13.684 15.6 13.6822 15.6C13.6805 15.6 13.6787 15.6 13.677 15.6C13.6752 15.6 13.6734 15.6 13.6717 15.6C13.6699 15.6 13.6681 15.6 13.6664 15.6C13.6646 15.6 13.6629 15.6 13.6611 15.6C13.6594 15.6 13.6576 15.6 13.6559 15.6C13.6541 15.6 13.6524 15.6 13.6506 15.6C13.6489 15.6 13.6471 15.6 13.6454 15.6C13.6436 15.6 13.6419 15.6 13.6401 15.6C13.6384 15.6 13.6366 15.6 13.6349 15.6C13.6332 15.6 13.6314 15.6 13.6297 15.6C13.628 15.6 13.6262 15.6 13.6245 15.6C13.6227 15.6 13.621 15.6 13.6193 15.6C13.6175 15.6 13.6158 15.6 13.6141 15.6C13.6123 15.6 13.6106 15.6 13.6089 15.6C13.6072 15.6 13.6054 15.6 13.6037 15.6C13.602 15.6 13.6003 15.6 13.5985 15.6C13.5968 15.6 13.5951 15.6 13.5934 15.6C13.5916 15.6 13.5899 15.6 13.5882 15.6C13.5865 15.6 13.5848 15.6 13.5831 15.6C13.5813 15.6 13.5796 15.6 13.5779 15.6C13.5762 15.6 13.5745 15.6 13.5728 15.6C13.5711 15.6 13.5693 15.6 13.5676 15.6C13.5659 15.6 13.5642 15.6 13.5625 15.6C13.5608 15.6 13.5591 15.6 13.5574 15.6C13.5557 15.6 13.554 15.6 13.5523 15.6C13.5506 15.6 13.5488 15.6 13.5471 15.6C13.5454 15.6 13.5437 15.6 13.542 15.6C13.5403 15.6 13.5386 15.6 13.5369 15.6C13.5352 15.6 13.5335 15.6 13.5318 15.6C13.5301 15.6 13.5284 15.6 13.5267 15.6C13.525 15.6 13.5233 15.6 13.5217 15.6C13.52 15.6 13.5183 15.6 13.5166 15.6C13.5149 15.6 13.5132 15.6 13.5115 15.6C13.5098 15.6 13.5081 15.6 13.5064 15.6C13.5047 15.6 13.503 15.6 13.5013 15.6C13.4997 15.6 13.498 15.6 13.4963 15.6C13.4946 15.6 13.4929 15.6 13.4912 15.6C13.4895 15.6 13.4878 15.6 13.4862 15.6C13.4845 15.6 13.4828 15.6 13.4811 15.6C13.4794 15.6 13.4777 15.6 13.476 15.6C13.4744 15.6 13.4727 15.6 13.471 15.6C13.4693 15.6 13.4676 15.6 13.4659 15.6C13.4643 15.6 13.4626 15.6 13.4609 15.6C13.4592 15.6 13.4575 15.6 13.4559 15.6C13.4542 15.6 13.4525 15.6 13.4508 15.6C13.4491 15.6 13.4475 15.6 13.4458 15.6C13.4441 15.6 13.4424 15.6 13.4407 15.6C13.4391 15.6 13.4374 15.6 13.4357 15.6C13.434 15.6 13.4324 15.6 13.4307 15.6C13.429 15.6 13.4273 15.6 13.4256 15.6C13.424 15.6 13.4223 15.6 13.4206 15.6C13.4189 15.6 13.4173 15.6 13.4156 15.6C13.4139 15.6 13.4122 15.6 13.4106 15.6C13.4089 15.6 13.4072 15.6 13.4055 15.6C13.4039 15.6 13.4022 15.6 13.4005 15.6C13.3988 15.6 13.3972 15.6 13.3955 15.6C13.3938 15.6 13.3921 15.6 13.3905 15.6C13.3888 15.6 13.3871 15.6 13.3854 15.6C13.3838 15.6 13.3821 15.6 13.3804 15.6C13.3787 15.6 13.3771 15.6 13.3754 15.6C13.3737 15.6 13.372 15.6 13.3704 15.6C13.3687 15.6 13.367 15.6 13.3654 15.6C13.3637 15.6 13.362 15.6 13.3603 15.6C13.3587 15.6 13.357 15.6 13.3553 15.6C13.3536 15.6 13.352 15.6 13.3503 15.6C13.3486 15.6 13.3469 15.6 13.3453 15.6C13.3436 15.6 13.3419 15.6 13.3402 15.6C13.3386 15.6 13.3369 15.6 13.3352 15.6C13.3335 15.6 13.3319 15.6 13.3302 15.6C13.3285 15.6 13.3268 15.6 13.3251 15.6C13.3235 15.6 13.3218 15.6 13.3201 15.6C13.3184 15.6 13.3168 15.6 13.3151 15.6C13.3134 15.6 13.3117 15.6 13.31 15.6C13.3084 15.6 13.3067 15.6 13.305 15.6C13.3033 15.6 13.3016 15.6 13.3 15.6C13.2983 15.6 13.2966 15.6 13.2949 15.6C13.2932 15.6 13.2916 15.6 13.2899 15.6C13.2882 15.6 13.2865 15.6 13.2848 15.6C13.2831 15.6 13.2815 15.6 13.2798 15.6C13.2781 15.6 13.2764 15.6 13.2747 15.6C13.273 15.6 13.2714 15.6 13.2697 15.6C13.268 15.6 13.2663 15.6 13.2646 15.6C13.2629 15.6 13.2612 15.6 13.2595 15.6C13.2579 15.6 13.2562 15.6 13.2545 15.6C13.2528 15.6 13.2511 15.6 13.2494 15.6C13.2477 15.6 13.246 15.6 13.2443 15.6C13.2426 15.6 13.241 15.6 13.2393 15.6C13.2376 15.6 13.2359 15.6 13.2342 15.6C13.2325 15.6 13.2308 15.6 13.2291 15.6C13.2274 15.6 13.2257 15.6 13.224 15.6C13.2223 15.6 13.2206 15.6 13.2189 15.6C13.2172 15.6 13.2155 15.6 13.2138 15.6C13.2121 15.6 13.2104 15.6 13.2087 15.6C13.207 15.6 13.2053 15.6 13.2036 15.6C13.2019 15.6 13.2002 15.6 13.1985 15.6C13.1968 15.6 13.195 15.6 13.1933 15.6C13.1916 15.6 13.1899 15.6 13.1882 15.6C13.1865 15.6 13.1848 15.6 13.1831 15.6C13.1814 15.6 13.1796 15.6 13.1779 15.6C13.1762 15.6 13.1745 15.6 13.1728 15.6C13.1711 15.6 13.1693 15.6 13.1676 15.6C13.1659 15.6 13.1642 15.6 13.1625 15.6C13.1607 15.6 13.159 15.6 13.1573 15.6C13.1556 15.6 13.1539 15.6 13.1521 15.6C13.1504 15.6 13.1487 15.6 13.1469 15.6C13.1452 15.6 13.1435 15.6 13.1418 15.6C13.14 15.6 13.1383 15.6 13.1366 15.6C13.1348 15.6 13.1331 15.6 13.1314 15.6C13.1296 15.6 13.1279 15.6 13.1262 15.6C13.1244 15.6 13.1227 15.6 13.1209 15.6C13.1192 15.6 13.1175 15.6 13.1157 15.6C13.114 15.6 13.1122 15.6 13.1105 15.6C13.1087 15.6 13.107 15.6 13.1052 15.6C13.1035 15.6 13.1017 15.6 13.1 15.6C13.0982 15.6 13.0965 15.6 13.0947 15.6C13.093 15.6 13.0912 15.6 13.0895 15.6C13.0877 15.6 13.0859 15.6 13.0842 15.6C13.0824 15.6 13.0807 15.6 13.0789 15.6C13.0771 15.6 13.0754 15.6 13.0736 15.6C13.0718 15.6 13.0701 15.6 13.0683 15.6C13.0665 15.6 13.0648 15.6 13.063 15.6C13.0612 15.6 13.0594 15.6 13.0577 15.6C13.0559 15.6 13.0541 15.6 13.0523 15.6C13.0506 15.6 13.0488 15.6 13.047 15.6C13.0452 15.6 13.0434 15.6 13.0416 15.6C13.0399 15.6 13.0381 15.6 13.0363 15.6C13.0345 15.6 13.0327 15.6 13.0309 15.6C13.0291 15.6 13.0273 15.6 13.0255 15.6C13.0237 15.6 13.0219 15.6 13.0201 15.6C13.0183 15.6 13.0165 15.6 13.0147 15.6C13.0129 15.6 13.0111 15.6 13.0093 15.6C13.0075 15.6 13.0057 15.6 13.0039 15.6C13.0021 15.6 13.0003 15.6 12.9984 15.6C12.9966 15.6 12.9948 15.6 12.993 15.6C12.9912 15.6 12.9894 15.6 12.9875 15.6C12.9857 15.6 12.9839 15.6 12.9821 15.6C12.9802 15.6 12.9784 15.6 12.9766 15.6C12.9747 15.6 12.9729 15.6 12.9711 15.6C12.9692 15.6 12.9674 15.6 12.9656 15.6C12.9637 15.6 12.9619 15.6 12.96 15.6C12.9582 15.6 12.9564 15.6 12.9545 15.6C12.9527 15.6 12.9508 15.6 12.949 15.6C12.9471 15.6 12.9453 15.6 12.9434 15.6C12.9415 15.6 12.9397 15.6 12.9378 15.6C12.936 15.6 12.9341 15.6 12.9322 15.6C12.9304 15.6 12.9285 15.6 12.9266 15.6C12.9248 15.6 12.9229 15.6 12.921 15.6C12.9192 15.6 12.9173 15.6 12.9154 15.6C12.9135 15.6 12.9116 15.6 12.9098 15.6C12.9079 15.6 12.906 15.6 12.9041 15.6C12.9022 15.6 12.9003 15.6 12.8984 15.6C12.8965 15.6 12.8947 15.6 12.8928 15.6C12.8909 15.6 12.889 15.6 12.8871 15.6C12.8852 15.6 12.8832 15.6 12.8813 15.6C12.8794 15.6 12.8775 15.6 12.8756 15.6C12.8737 15.6 12.8718 15.6 12.8699 15.6C12.868 15.6 12.866 15.6 12.8641 15.6C12.8622 15.6 12.8603 15.6 12.8583 15.6C12.8564 15.6 12.8545 15.6 12.8526 15.6C12.8506 15.6 12.8487 15.6 12.8468 15.6C12.8448 15.6 12.8429 15.6 12.8409 15.6C12.839 15.6 12.837 15.6 12.8351 15.6C12.8332 15.6 12.8312 15.6 12.8292 15.6C12.8273 15.6 12.8253 15.6 12.8234 15.6C12.8214 15.6 12.8195 15.6 12.8175 15.6C12.8155 15.6 12.8136 15.6 12.8116 15.6C12.8096 15.6 12.8077 15.6 12.8057 15.6C12.8037 15.6 12.8017 15.6 12.7997 15.6C12.7978 15.6 12.7958 15.6 12.7938 15.6C12.7918 15.6 12.7898 15.6 12.7878 15.6C12.7858 15.6 12.7838 15.6 12.7818 15.6C12.7798 15.6 12.7778 15.6 12.7758 15.6C12.7738 15.6 12.7718 15.6 12.7698 15.6C12.7678 15.6 12.7658 15.6 12.7638 15.6C12.7618 15.6 12.7597 15.6 12.7577 15.6C12.7557 15.6 12.7537 15.6 12.7517 15.6C12.7496 15.6 12.7476 15.6 12.7456 15.6C12.7435 15.6 12.7415 15.6 12.7395 15.6C12.7374 15.6 12.7354 15.6 12.7333 15.6C12.7313 15.6 12.7292 15.6 12.7272 15.6C12.7251 15.6 12.7231 15.6 12.721 15.6C12.7189 15.6 12.7169 15.6 12.7148 15.6C12.7128 15.6 12.7107 15.6 12.7086 15.6C12.7065 15.6 12.7045 15.6 12.7024 15.6C12.7003 15.6 12.6982 15.6 12.6962 15.6C12.6941 15.6 12.692 15.6 12.6899 15.6C12.6878 15.6 12.6857 15.6 12.6836 15.6C12.6815 15.6 12.6794 15.6 12.6773 15.6C12.6752 15.6 12.6731 15.6 12.671 15.6C12.6689 15.6 12.6668 15.6 12.6646 15.6C12.6625 15.6 12.6604 15.6 12.6583 15.6C12.6561 15.6 12.654 15.6 12.6519 15.6C12.6498 15.6 12.6476 15.6 12.6455 15.6C12.6433 15.6 12.6412 15.6 12.6391 15.6C12.6369 15.6 12.6348 15.6 12.6326 15.6C12.6305 15.6 12.6283 15.6 12.6261 15.6C12.624 15.6 12.6218 15.6 12.6197 15.6C12.6175 15.6 12.6153 15.6 12.6131 15.6C12.611 15.6 12.6088 15.6 12.6066 15.6C12.6044 15.6 12.6022 15.6 12.6001 15.6C12.5979 15.6 12.5957 15.6 12.5935 15.6C12.5913 15.6 12.5891 15.6 12.5869 15.6C12.5847 15.6 12.5825 15.6 12.5803 15.6C12.5781 15.6 12.5758 15.6 12.5736 15.6C12.5714 15.6 12.5692 15.6 12.567 15.6C12.5647 15.6 12.5625 15.6 12.5603 15.6C12.558 15.6 12.5558 15.6 12.5536 15.6C12.5513 15.6 12.5491 15.6 12.5468 15.6C12.5446 15.6 12.5423 15.6 12.5401 15.6C12.5378 15.6 12.5355 15.6 12.5333 15.6C12.531 15.6 12.5288 15.6 12.5265 15.6C12.5242 15.6 12.5219 15.6 12.5197 15.6C12.5174 15.6 12.5151 15.6 12.5128 15.6C12.5105 15.6 12.5082 15.6 12.5059 15.6C12.5036 15.6 12.5013 15.6 12.499 15.6C12.4967 15.6 12.4944 15.6 12.4921 15.6C12.4898 15.6 12.4875 15.6 12.4852 15.6C12.4828 15.6 12.4805 15.6 12.4782 15.6C12.4758 15.6 12.4735 15.6 12.4712 15.6C12.4688 15.6 12.4665 15.6 12.4642 15.6C12.4618 15.6 12.4595 15.6 12.4571 15.6C12.4548 15.6 12.4524 15.6 12.45 15.6C12.4477 15.6 12.4453 15.6 12.4429 15.6C12.4406 15.6 12.4382 15.6 12.4358 15.6C12.4334 15.6 12.431 15.6 12.4287 15.6C12.4263 15.6 12.4239 15.6 12.4215 15.6C12.4191 15.6 12.4167 15.6 12.4143 15.6C12.4119 15.6 12.4095 15.6 12.4071 15.6C12.4046 15.6 12.4022 15.6 12.3998 15.6C12.3974 15.6 12.3949 15.6 12.3925 15.6C12.3901 15.6 12.3876 15.6 12.3852 15.6C12.3828 15.6 12.3803 15.6 12.3779 15.6C12.3754 15.6 12.373 15.6 12.3705 15.6C12.3681 15.6 12.3656 15.6 12.3631 15.6C12.3607 15.6 12.3582 15.6 12.3557 15.6C12.3532 15.6 12.3507 15.6 12.3483 15.6C12.3458 15.6 12.3433 15.6 12.3408 15.6C12.3383 15.6 12.3358 15.6 12.3333 15.6C12.3308 15.6 12.3283 15.6 12.3258 15.6C12.3233 15.6 12.3207 15.6 12.3182 15.6C12.3157 15.6 12.3132 15.6 12.3106 15.6C12.3081 15.6 12.3056 15.6 12.303 15.6C12.3005 15.6 12.2979 15.6 12.2954 15.6C12.2928 15.6 12.2903 15.6 12.2877 15.6C12.2851 15.6 12.2826 15.6 12.28 15.6C12.2774 15.6 12.2749 15.6 12.2723 15.6C12.2697 15.6 12.2671 15.6 12.2645 15.6C12.2619 15.6 12.2593 15.6 12.2567 15.6C12.2541 15.6 12.2515 15.6 12.2489 15.6C12.2463 15.6 12.2437 15.6 12.2411 15.6C12.2385 15.6 12.2358 15.6 12.2332 15.6C12.2306 15.6 12.2279 15.6 12.2253 15.6C12.2227 15.6 12.22 15.6 12.2174 15.6C12.2147 15.6 12.2121 15.6 12.2094 15.6C12.2067 15.6 12.2041 15.6 12.2014 15.6C12.1987 15.6 12.1961 15.6 12.1934 15.6C12.1907 15.6 12.188 15.6 12.1853 15.6C12.1826 15.6 12.1799 15.6 12.1772 15.6C12.1745 15.6 12.1718 15.6 12.1691 15.6C12.1664 15.6 12.1637 15.6 12.161 15.6C12.1583 15.6 12.1555 15.6 12.1528 15.6C12.1501 15.6 12.1473 15.6 12.1446 15.6C12.1418 15.6 12.1391 15.6 12.1363 15.6C12.1336 15.6 12.1308 15.6 12.1281 15.6C12.1253 15.6 12.1225 15.6 12.1198 15.6C12.117 15.6 12.1142 15.6 12.1114 15.6C12.1086 15.6 12.1058 15.6 12.103 15.6C12.1002 15.6 12.0974 15.6 12.0946 15.6C12.0918 15.6 12.089 15.6 12.0862 15.6C12.0834 15.6 12.0806 15.6 12.0777 15.6C12.0749 15.6 12.0721 15.6 12.0692 15.6C12.0664 15.6 12.0635 15.6 12.0607 15.6C12.0578 15.6 12.055 15.6 12.0521 15.6C12.0493 15.6 12.0464 15.6 12.0435 15.6C12.0406 15.6 12.0378 15.6 12.0349 15.6C12.032 15.6 12.0291 15.6 12.0262 15.6C12.0233 15.6 12.0204 15.6 12.0175 15.6C12.0146 15.6 12.0117 15.6 12.0088 15.6C12.0059 15.6 12.0029 15.6 12 15.6V16V16.4C12.0029 16.4 12.0059 16.4 12.0088 16.4C12.0117 16.4 12.0146 16.4 12.0175 16.4C12.0204 16.4 12.0233 16.4 12.0262 16.4C12.0291 16.4 12.032 16.4 12.0349 16.4C12.0378 16.4 12.0406 16.4 12.0435 16.4C12.0464 16.4 12.0493 16.4 12.0521 16.4C12.055 16.4 12.0578 16.4 12.0607 16.4C12.0635 16.4 12.0664 16.4 12.0692 16.4C12.0721 16.4 12.0749 16.4 12.0777 16.4C12.0806 16.4 12.0834 16.4 12.0862 16.4C12.089 16.4 12.0918 16.4 12.0946 16.4C12.0974 16.4 12.1002 16.4 12.103 16.4C12.1058 16.4 12.1086 16.4 12.1114 16.4C12.1142 16.4 12.117 16.4 12.1198 16.4C12.1225 16.4 12.1253 16.4 12.1281 16.4C12.1308 16.4 12.1336 16.4 12.1363 16.4C12.1391 16.4 12.1418 16.4 12.1446 16.4C12.1473 16.4 12.1501 16.4 12.1528 16.4C12.1555 16.4 12.1583 16.4 12.161 16.4C12.1637 16.4 12.1664 16.4 12.1691 16.4C12.1718 16.4 12.1745 16.4 12.1772 16.4C12.1799 16.4 12.1826 16.4 12.1853 16.4C12.188 16.4 12.1907 16.4 12.1934 16.4C12.1961 16.4 12.1987 16.4 12.2014 16.4C12.2041 16.4 12.2067 16.4 12.2094 16.4C12.2121 16.4 12.2147 16.4 12.2174 16.4C12.22 16.4 12.2227 16.4 12.2253 16.4C12.2279 16.4 12.2306 16.4 12.2332 16.4C12.2358 16.4 12.2385 16.4 12.2411 16.4C12.2437 16.4 12.2463 16.4 12.2489 16.4C12.2515 16.4 12.2541 16.4 12.2567 16.4C12.2593 16.4 12.2619 16.4 12.2645 16.4C12.2671 16.4 12.2697 16.4 12.2723 16.4C12.2749 16.4 12.2774 16.4 12.28 16.4C12.2826 16.4 12.2851 16.4 12.2877 16.4C12.2903 16.4 12.2928 16.4 12.2954 16.4C12.2979 16.4 12.3005 16.4 12.303 16.4C12.3056 16.4 12.3081 16.4 12.3106 16.4C12.3132 16.4 12.3157 16.4 12.3182 16.4C12.3207 16.4 12.3233 16.4 12.3258 16.4C12.3283 16.4 12.3308 16.4 12.3333 16.4C12.3358 16.4 12.3383 16.4 12.3408 16.4C12.3433 16.4 12.3458 16.4 12.3483 16.4C12.3507 16.4 12.3532 16.4 12.3557 16.4C12.3582 16.4 12.3607 16.4 12.3631 16.4C12.3656 16.4 12.3681 16.4 12.3705 16.4C12.373 16.4 12.3754 16.4 12.3779 16.4C12.3803 16.4 12.3828 16.4 12.3852 16.4C12.3876 16.4 12.3901 16.4 12.3925 16.4C12.3949 16.4 12.3974 16.4 12.3998 16.4C12.4022 16.4 12.4046 16.4 12.4071 16.4C12.4095 16.4 12.4119 16.4 12.4143 16.4C12.4167 16.4 12.4191 16.4 12.4215 16.4C12.4239 16.4 12.4263 16.4 12.4287 16.4C12.431 16.4 12.4334 16.4 12.4358 16.4C12.4382 16.4 12.4406 16.4 12.4429 16.4C12.4453 16.4 12.4477 16.4 12.45 16.4C12.4524 16.4 12.4548 16.4 12.4571 16.4C12.4595 16.4 12.4618 16.4 12.4642 16.4C12.4665 16.4 12.4688 16.4 12.4712 16.4C12.4735 16.4 12.4758 16.4 12.4782 16.4C12.4805 16.4 12.4828 16.4 12.4852 16.4C12.4875 16.4 12.4898 16.4 12.4921 16.4C12.4944 16.4 12.4967 16.4 12.499 16.4C12.5013 16.4 12.5036 16.4 12.5059 16.4C12.5082 16.4 12.5105 16.4 12.5128 16.4C12.5151 16.4 12.5174 16.4 12.5197 16.4C12.5219 16.4 12.5242 16.4 12.5265 16.4C12.5288 16.4 12.531 16.4 12.5333 16.4C12.5355 16.4 12.5378 16.4 12.5401 16.4C12.5423 16.4 12.5446 16.4 12.5468 16.4C12.5491 16.4 12.5513 16.4 12.5536 16.4C12.5558 16.4 12.558 16.4 12.5603 16.4C12.5625 16.4 12.5647 16.4 12.567 16.4C12.5692 16.4 12.5714 16.4 12.5736 16.4C12.5758 16.4 12.5781 16.4 12.5803 16.4C12.5825 16.4 12.5847 16.4 12.5869 16.4C12.5891 16.4 12.5913 16.4 12.5935 16.4C12.5957 16.4 12.5979 16.4 12.6001 16.4C12.6022 16.4 12.6044 16.4 12.6066 16.4C12.6088 16.4 12.611 16.4 12.6131 16.4C12.6153 16.4 12.6175 16.4 12.6197 16.4C12.6218 16.4 12.624 16.4 12.6261 16.4C12.6283 16.4 12.6305 16.4 12.6326 16.4C12.6348 16.4 12.6369 16.4 12.6391 16.4C12.6412 16.4 12.6433 16.4 12.6455 16.4C12.6476 16.4 12.6498 16.4 12.6519 16.4C12.654 16.4 12.6561 16.4 12.6583 16.4C12.6604 16.4 12.6625 16.4 12.6646 16.4C12.6668 16.4 12.6689 16.4 12.671 16.4C12.6731 16.4 12.6752 16.4 12.6773 16.4C12.6794 16.4 12.6815 16.4 12.6836 16.4C12.6857 16.4 12.6878 16.4 12.6899 16.4C12.692 16.4 12.6941 16.4 12.6962 16.4C12.6982 16.4 12.7003 16.4 12.7024 16.4C12.7045 16.4 12.7065 16.4 12.7086 16.4C12.7107 16.4 12.7128 16.4 12.7148 16.4C12.7169 16.4 12.7189 16.4 12.721 16.4C12.7231 16.4 12.7251 16.4 12.7272 16.4C12.7292 16.4 12.7313 16.4 12.7333 16.4C12.7354 16.4 12.7374 16.4 12.7395 16.4C12.7415 16.4 12.7435 16.4 12.7456 16.4C12.7476 16.4 12.7496 16.4 12.7517 16.4C12.7537 16.4 12.7557 16.4 12.7577 16.4C12.7597 16.4 12.7618 16.4 12.7638 16.4C12.7658 16.4 12.7678 16.4 12.7698 16.4C12.7718 16.4 12.7738 16.4 12.7758 16.4C12.7778 16.4 12.7798 16.4 12.7818 16.4C12.7838 16.4 12.7858 16.4 12.7878 16.4C12.7898 16.4 12.7918 16.4 12.7938 16.4C12.7958 16.4 12.7978 16.4 12.7997 16.4C12.8017 16.4 12.8037 16.4 12.8057 16.4C12.8077 16.4 12.8096 16.4 12.8116 16.4C12.8136 16.4 12.8155 16.4 12.8175 16.4C12.8195 16.4 12.8214 16.4 12.8234 16.4C12.8253 16.4 12.8273 16.4 12.8292 16.4C12.8312 16.4 12.8332 16.4 12.8351 16.4C12.837 16.4 12.839 16.4 12.8409 16.4C12.8429 16.4 12.8448 16.4 12.8468 16.4C12.8487 16.4 12.8506 16.4 12.8526 16.4C12.8545 16.4 12.8564 16.4 12.8583 16.4C12.8603 16.4 12.8622 16.4 12.8641 16.4C12.866 16.4 12.868 16.4 12.8699 16.4C12.8718 16.4 12.8737 16.4 12.8756 16.4C12.8775 16.4 12.8794 16.4 12.8813 16.4C12.8832 16.4 12.8852 16.4 12.8871 16.4C12.889 16.4 12.8909 16.4 12.8928 16.4C12.8947 16.4 12.8965 16.4 12.8984 16.4C12.9003 16.4 12.9022 16.4 12.9041 16.4C12.906 16.4 12.9079 16.4 12.9098 16.4C12.9116 16.4 12.9135 16.4 12.9154 16.4C12.9173 16.4 12.9192 16.4 12.921 16.4C12.9229 16.4 12.9248 16.4 12.9266 16.4C12.9285 16.4 12.9304 16.4 12.9322 16.4C12.9341 16.4 12.936 16.4 12.9378 16.4C12.9397 16.4 12.9415 16.4 12.9434 16.4C12.9453 16.4 12.9471 16.4 12.949 16.4C12.9508 16.4 12.9527 16.4 12.9545 16.4C12.9564 16.4 12.9582 16.4 12.96 16.4C12.9619 16.4 12.9637 16.4 12.9656 16.4C12.9674 16.4 12.9692 16.4 12.9711 16.4C12.9729 16.4 12.9747 16.4 12.9766 16.4C12.9784 16.4 12.9802 16.4 12.9821 16.4C12.9839 16.4 12.9857 16.4 12.9875 16.4C12.9894 16.4 12.9912 16.4 12.993 16.4C12.9948 16.4 12.9966 16.4 12.9984 16.4C13.0003 16.4 13.0021 16.4 13.0039 16.4C13.0057 16.4 13.0075 16.4 13.0093 16.4C13.0111 16.4 13.0129 16.4 13.0147 16.4C13.0165 16.4 13.0183 16.4 13.0201 16.4C13.0219 16.4 13.0237 16.4 13.0255 16.4C13.0273 16.4 13.0291 16.4 13.0309 16.4C13.0327 16.4 13.0345 16.4 13.0363 16.4C13.0381 16.4 13.0399 16.4 13.0416 16.4C13.0434 16.4 13.0452 16.4 13.047 16.4C13.0488 16.4 13.0506 16.4 13.0523 16.4C13.0541 16.4 13.0559 16.4 13.0577 16.4C13.0594 16.4 13.0612 16.4 13.063 16.4C13.0648 16.4 13.0665 16.4 13.0683 16.4C13.0701 16.4 13.0718 16.4 13.0736 16.4C13.0754 16.4 13.0771 16.4 13.0789 16.4C13.0807 16.4 13.0824 16.4 13.0842 16.4C13.0859 16.4 13.0877 16.4 13.0895 16.4C13.0912 16.4 13.093 16.4 13.0947 16.4C13.0965 16.4 13.0982 16.4 13.1 16.4C13.1017 16.4 13.1035 16.4 13.1052 16.4C13.107 16.4 13.1087 16.4 13.1105 16.4C13.1122 16.4 13.114 16.4 13.1157 16.4C13.1175 16.4 13.1192 16.4 13.1209 16.4C13.1227 16.4 13.1244 16.4 13.1262 16.4C13.1279 16.4 13.1296 16.4 13.1314 16.4C13.1331 16.4 13.1348 16.4 13.1366 16.4C13.1383 16.4 13.14 16.4 13.1418 16.4C13.1435 16.4 13.1452 16.4 13.1469 16.4C13.1487 16.4 13.1504 16.4 13.1521 16.4C13.1539 16.4 13.1556 16.4 13.1573 16.4C13.159 16.4 13.1607 16.4 13.1625 16.4C13.1642 16.4 13.1659 16.4 13.1676 16.4C13.1693 16.4 13.1711 16.4 13.1728 16.4C13.1745 16.4 13.1762 16.4 13.1779 16.4C13.1796 16.4 13.1814 16.4 13.1831 16.4C13.1848 16.4 13.1865 16.4 13.1882 16.4C13.1899 16.4 13.1916 16.4 13.1933 16.4C13.195 16.4 13.1968 16.4 13.1985 16.4C13.2002 16.4 13.2019 16.4 13.2036 16.4C13.2053 16.4 13.207 16.4 13.2087 16.4C13.2104 16.4 13.2121 16.4 13.2138 16.4C13.2155 16.4 13.2172 16.4 13.2189 16.4C13.2206 16.4 13.2223 16.4 13.224 16.4C13.2257 16.4 13.2274 16.4 13.2291 16.4C13.2308 16.4 13.2325 16.4 13.2342 16.4C13.2359 16.4 13.2376 16.4 13.2393 16.4C13.241 16.4 13.2426 16.4 13.2443 16.4C13.246 16.4 13.2477 16.4 13.2494 16.4C13.2511 16.4 13.2528 16.4 13.2545 16.4C13.2562 16.4 13.2579 16.4 13.2595 16.4C13.2612 16.4 13.2629 16.4 13.2646 16.4C13.2663 16.4 13.268 16.4 13.2697 16.4C13.2714 16.4 13.273 16.4 13.2747 16.4C13.2764 16.4 13.2781 16.4 13.2798 16.4C13.2815 16.4 13.2831 16.4 13.2848 16.4C13.2865 16.4 13.2882 16.4 13.2899 16.4C13.2916 16.4 13.2932 16.4 13.2949 16.4C13.2966 16.4 13.2983 16.4 13.3 16.4C13.3016 16.4 13.3033 16.4 13.305 16.4C13.3067 16.4 13.3084 16.4 13.31 16.4C13.3117 16.4 13.3134 16.4 13.3151 16.4C13.3168 16.4 13.3184 16.4 13.3201 16.4C13.3218 16.4 13.3235 16.4 13.3251 16.4C13.3268 16.4 13.3285 16.4 13.3302 16.4C13.3319 16.4 13.3335 16.4 13.3352 16.4C13.3369 16.4 13.3386 16.4 13.3402 16.4C13.3419 16.4 13.3436 16.4 13.3453 16.4C13.3469 16.4 13.3486 16.4 13.3503 16.4C13.352 16.4 13.3536 16.4 13.3553 16.4C13.357 16.4 13.3587 16.4 13.3603 16.4C13.362 16.4 13.3637 16.4 13.3654 16.4C13.367 16.4 13.3687 16.4 13.3704 16.4C13.372 16.4 13.3737 16.4 13.3754 16.4C13.3771 16.4 13.3787 16.4 13.3804 16.4C13.3821 16.4 13.3838 16.4 13.3854 16.4C13.3871 16.4 13.3888 16.4 13.3905 16.4C13.3921 16.4 13.3938 16.4 13.3955 16.4C13.3972 16.4 13.3988 16.4 13.4005 16.4C13.4022 16.4 13.4039 16.4 13.4055 16.4C13.4072 16.4 13.4089 16.4 13.4106 16.4C13.4122 16.4 13.4139 16.4 13.4156 16.4C13.4173 16.4 13.4189 16.4 13.4206 16.4C13.4223 16.4 13.424 16.4 13.4256 16.4C13.4273 16.4 13.429 16.4 13.4307 16.4C13.4324 16.4 13.434 16.4 13.4357 16.4C13.4374 16.4 13.4391 16.4 13.4407 16.4C13.4424 16.4 13.4441 16.4 13.4458 16.4C13.4475 16.4 13.4491 16.4 13.4508 16.4C13.4525 16.4 13.4542 16.4 13.4559 16.4C13.4575 16.4 13.4592 16.4 13.4609 16.4C13.4626 16.4 13.4643 16.4 13.4659 16.4C13.4676 16.4 13.4693 16.4 13.471 16.4C13.4727 16.4 13.4744 16.4 13.476 16.4C13.4777 16.4 13.4794 16.4 13.4811 16.4C13.4828 16.4 13.4845 16.4 13.4862 16.4C13.4878 16.4 13.4895 16.4 13.4912 16.4C13.4929 16.4 13.4946 16.4 13.4963 16.4C13.498 16.4 13.4997 16.4 13.5013 16.4C13.503 16.4 13.5047 16.4 13.5064 16.4C13.5081 16.4 13.5098 16.4 13.5115 16.4C13.5132 16.4 13.5149 16.4 13.5166 16.4C13.5183 16.4 13.52 16.4 13.5217 16.4C13.5233 16.4 13.525 16.4 13.5267 16.4C13.5284 16.4 13.5301 16.4 13.5318 16.4C13.5335 16.4 13.5352 16.4 13.5369 16.4C13.5386 16.4 13.5403 16.4 13.542 16.4C13.5437 16.4 13.5454 16.4 13.5471 16.4C13.5488 16.4 13.5506 16.4 13.5523 16.4C13.554 16.4 13.5557 16.4 13.5574 16.4C13.5591 16.4 13.5608 16.4 13.5625 16.4C13.5642 16.4 13.5659 16.4 13.5676 16.4C13.5693 16.4 13.5711 16.4 13.5728 16.4C13.5745 16.4 13.5762 16.4 13.5779 16.4C13.5796 16.4 13.5813 16.4 13.5831 16.4C13.5848 16.4 13.5865 16.4 13.5882 16.4C13.5899 16.4 13.5916 16.4 13.5934 16.4C13.5951 16.4 13.5968 16.4 13.5985 16.4C13.6003 16.4 13.602 16.4 13.6037 16.4C13.6054 16.4 13.6072 16.4 13.6089 16.4C13.6106 16.4 13.6123 16.4 13.6141 16.4C13.6158 16.4 13.6175 16.4 13.6193 16.4C13.621 16.4 13.6227 16.4 13.6245 16.4C13.6262 16.4 13.628 16.4 13.6297 16.4C13.6314 16.4 13.6332 16.4 13.6349 16.4C13.6366 16.4 13.6384 16.4 13.6401 16.4C13.6419 16.4 13.6436 16.4 13.6454 16.4C13.6471 16.4 13.6489 16.4 13.6506 16.4C13.6524 16.4 13.6541 16.4 13.6559 16.4C13.6576 16.4 13.6594 16.4 13.6611 16.4C13.6629 16.4 13.6646 16.4 13.6664 16.4C13.6681 16.4 13.6699 16.4 13.6717 16.4C13.6734 16.4 13.6752 16.4 13.677 16.4C13.6787 16.4 13.6805 16.4 13.6822 16.4C13.684 16.4 13.6858 16.4 13.6876 16.4C13.6893 16.4 13.6911 16.4 13.6929 16.4C13.6946 16.4 13.6964 16.4 13.6982 16.4C13.7 16.4 13.7017 16.4 13.7035 16.4C13.7053 16.4 13.7071 16.4 13.7089 16.4C13.7107 16.4 13.7124 16.4 13.7142 16.4C13.716 16.4 13.7178 16.4 13.7196 16.4C13.7214 16.4 13.7232 16.4 13.725 16.4C13.7268 16.4 13.7285 16.4 13.7303 16.4C13.7321 16.4 13.7339 16.4 13.7357 16.4C13.7375 16.4 13.7393 16.4 13.7411 16.4C13.743 16.4 13.7448 16.4 13.7466 16.4C13.7484 16.4 13.7502 16.4 13.752 16.4C13.7538 16.4 13.7556 16.4 13.7574 16.4C13.7592 16.4 13.7611 16.4 13.7629 16.4C13.7647 16.4 13.7665 16.4 13.7683 16.4C13.7702 16.4 13.772 16.4 13.7738 16.4C13.7756 16.4 13.7775 16.4 13.7793 16.4C13.7811 16.4 13.783 16.4 13.7848 16.4C13.7866 16.4 13.7885 16.4 13.7903 16.4C13.7922 16.4 13.794 16.4 13.7958 16.4C13.7977 16.4 13.7995 16.4 13.8014 16.4C13.8032 16.4 13.8051 16.4 13.8069 16.4C13.8088 16.4 13.8106 16.4 13.8125 16.4C13.8143 16.4 13.8162 16.4 13.8181 16.4C13.8199 16.4 13.8218 16.4 13.8237 16.4C13.8255 16.4 13.8274 16.4 13.8293 16.4C13.8311 16.4 13.833 16.4 13.8349 16.4C13.8367 16.4 13.8386 16.4 13.8405 16.4C13.8424 16.4 13.8443 16.4 13.8461 16.4C13.848 16.4 13.8499 16.4 13.8518 16.4C13.8537 16.4 13.8556 16.4 13.8575 16.4C13.8594 16.4 13.8613 16.4 13.8632 16.4C13.8651 16.4 13.867 16.4 13.8689 16.4C13.8708 16.4 13.8727 16.4 13.8746 16.4C13.8765 16.4 13.8784 16.4 13.8803 16.4C13.8822 16.4 13.8841 16.4 13.886 16.4C13.888 16.4 13.8899 16.4 13.8918 16.4C13.8937 16.4 13.8957 16.4 13.8976 16.4C13.8995 16.4 13.9014 16.4 13.9034 16.4C13.9053 16.4 13.9072 16.4 13.9092 16.4C13.9111 16.4 13.9131 16.4 13.915 16.4C13.9169 16.4 13.9189 16.4 13.9208 16.4C13.9228 16.4 13.9247 16.4 13.9267 16.4C13.9286 16.4 13.9306 16.4 13.9326 16.4C13.9345 16.4 13.9365 16.4 13.9384 16.4C13.9404 16.4 13.9424 16.4 13.9443 16.4C13.9463 16.4 13.9483 16.4 13.9503 16.4C13.9522 16.4 13.9542 16.4 13.9562 16.4C13.9582 16.4 13.9602 16.4 13.9622 16.4C13.9641 16.4 13.9661 16.4 13.9681 16.4C13.9701 16.4 13.9721 16.4 13.9741 16.4C13.9761 16.4 13.9781 16.4 13.9801 16.4C13.9821 16.4 13.9841 16.4 13.9861 16.4C13.9882 16.4 13.9902 16.4 13.9922 16.4C13.9942 16.4 13.9962 16.4 13.9982 16.4C14.0003 16.4 14.0023 16.4 14.0043 16.4C14.0063 16.4 14.0084 16.4 14.0104 16.4C14.0124 16.4 14.0145 16.4 14.0165 16.4C14.0186 16.4 14.0206 16.4 14.0227 16.4C14.0247 16.4 14.0268 16.4 14.0288 16.4C14.0309 16.4 14.0329 16.4 14.035 16.4C14.037 16.4 14.0391 16.4 14.0412 16.4C14.0432 16.4 14.0453 16.4 14.0474 16.4C14.0494 16.4 14.0515 16.4 14.0536 16.4C14.0557 16.4 14.0578 16.4 14.0598 16.4C14.0619 16.4 14.064 16.4 14.0661 16.4C14.0682 16.4 14.0703 16.4 14.0724 16.4C14.0745 16.4 14.0766 16.4 14.0787 16.4C14.0808 16.4 14.0829 16.4 14.085 16.4C14.0871 16.4 14.0893 16.4 14.0914 16.4C14.0935 16.4 14.0956 16.4 14.0977 16.4C14.0999 16.4 14.102 16.4 14.1041 16.4C14.1063 16.4 14.1084 16.4 14.1105 16.4C14.1127 16.4 14.1148 16.4 14.117 16.4C14.1191 16.4 14.1213 16.4 14.1234 16.4C14.1256 16.4 14.1277 16.4 14.1299 16.4C14.132 16.4 14.1342 16.4 14.1364 16.4C14.1385 16.4 14.1407 16.4 14.1429 16.4C14.1451 16.4 14.1472 16.4 14.1494 16.4C14.1516 16.4 14.1538 16.4 14.156 16.4C14.1582 16.4 14.1604 16.4 14.1626 16.4C14.1648 16.4 14.167 16.4 14.1692 16.4C14.1714 16.4 14.1736 16.4 14.1758 16.4C14.178 16.4 14.1802 16.4 14.1824 16.4C14.1846 16.4 14.1869 16.4 14.1891 16.4C14.1913 16.4 14.1936 16.4 14.1958 16.4C14.198 16.4 14.2003 16.4 14.2025 16.4C14.2047 16.4 14.207 16.4 14.2092 16.4C14.2115 16.4 14.2137 16.4 14.216 16.4C14.2183 16.4 14.2205 16.4 14.2228 16.4C14.2251 16.4 14.2273 16.4 14.2296 16.4C14.2319 16.4 14.2341 16.4 14.2364 16.4C14.2387 16.4 14.241 16.4 14.2433 16.4C14.2456 16.4 14.2479 16.4 14.2502 16.4C14.2525 16.4 14.2548 16.4 14.2571 16.4C14.2594 16.4 14.2617 16.4 14.264 16.4C14.2663 16.4 14.2686 16.4 14.2709 16.4C14.2733 16.4 14.2756 16.4 14.2779 16.4C14.2803 16.4 14.2826 16.4 14.2849 16.4C14.2873 16.4 14.2896 16.4 14.2919 16.4C14.2943 16.4 14.2966 16.4 14.299 16.4C14.3014 16.4 14.3037 16.4 14.3061 16.4C14.3084 16.4 14.3108 16.4 14.3132 16.4C14.3156 16.4 14.3179 16.4 14.3203 16.4C14.3227 16.4 14.3251 16.4 14.3275 16.4C14.3299 16.4 14.3322 16.4 14.3346 16.4C14.337 16.4 14.3394 16.4 14.3418 16.4C14.3443 16.4 14.3467 16.4 14.3491 16.4C14.3515 16.4 14.3539 16.4 14.3563 16.4C14.3588 16.4 14.3612 16.4 14.3636 16.4C14.3661 16.4 14.3685 16.4 14.3709 16.4C14.3734 16.4 14.3758 16.4 14.3783 16.4C14.3807 16.4 14.3832 16.4 14.3856 16.4C14.3881 16.4 14.3906 16.4 14.393 16.4C14.3955 16.4 14.398 16.4 14.4005 16.4C14.4029 16.4 14.4054 16.4 14.4079 16.4C14.4104 16.4 14.4129 16.4 14.4154 16.4C14.4179 16.4 14.4204 16.4 14.4229 16.4C14.4254 16.4 14.4279 16.4 14.4304 16.4C14.4329 16.4 14.4354 16.4 14.438 16.4C14.4405 16.4 14.443 16.4 14.4456 16.4C14.4481 16.4 14.4506 16.4 14.4532 16.4C14.4557 16.4 14.4583 16.4 14.4608 16.4C14.4634 16.4 14.4659 16.4 14.4685 16.4C14.4711 16.4 14.4736 16.4 14.4762 16.4C14.4788 16.4 14.4813 16.4 14.4839 16.4C14.4865 16.4 14.4891 16.4 14.4917 16.4C14.4943 16.4 14.4969 16.4 14.4995 16.4C14.5021 16.4 14.5047 16.4 14.5073 16.4C14.5099 16.4 14.5125 16.4 14.5151 16.4C14.5178 16.4 14.5204 16.4 14.523 16.4C14.5256 16.4 14.5283 16.4 14.5309 16.4C14.5336 16.4 14.5362 16.4 14.5389 16.4C14.5415 16.4 14.5442 16.4 14.5468 16.4C14.5495 16.4 14.5522 16.4 14.5548 16.4C14.5575 16.4 14.5602 16.4 14.5629 16.4C14.5655 16.4 14.5682 16.4 14.5709 16.4C14.5736 16.4 14.5763 16.4 14.579 16.4C14.5817 16.4 14.5844 16.4 14.5871 16.4C14.5899 16.4 14.5926 16.4 14.5953 16.4C14.598 16.4 14.6007 16.4 14.6035 16.4C14.6062 16.4 14.6089 16.4 14.6117 16.4C14.6144 16.4 14.6172 16.4 14.6199 16.4C14.6227 16.4 14.6255 16.4 14.6282 16.4C14.631 16.4 14.6338 16.4 14.6365 16.4C14.6393 16.4 14.6421 16.4 14.6449 16.4C14.6477 16.4 14.6505 16.4 14.6533 16.4C14.6561 16.4 14.6589 16.4 14.6617 16.4C14.6645 16.4 14.6673 16.4 14.6701 16.4C14.6729 16.4 14.6758 16.4 14.6786 16.4C14.6814 16.4 14.6842 16.4 14.6871 16.4C14.6899 16.4 14.6928 16.4 14.6956 16.4C14.6985 16.4 14.7013 16.4 14.7042 16.4C14.7071 16.4 14.7099 16.4 14.7128 16.4C14.7157 16.4 14.7186 16.4 14.7215 16.4C14.7243 16.4 14.7272 16.4 14.7301 16.4C14.733 16.4 14.7359 16.4 14.7388 16.4C14.7417 16.4 14.7447 16.4 14.7476 16.4C14.7505 16.4 14.7534 16.4 14.7564 16.4C14.7593 16.4 14.7622 16.4 14.7652 16.4C14.7681 16.4 14.7711 16.4 14.774 16.4C14.777 16.4 14.7799 16.4 14.7829 16.4C14.7859 16.4 14.7888 16.4 14.7918 16.4C14.7948 16.4 14.7978 16.4 14.8008 16.4C14.8037 16.4 14.8067 16.4 14.8097 16.4C14.8127 16.4 14.8158 16.4 14.8188 16.4C14.8218 16.4 14.8248 16.4 14.8278 16.4C14.8308 16.4 14.8339 16.4 14.8369 16.4C14.8399 16.4 14.843 16.4 14.846 16.4C14.8491 16.4 14.8521 16.4 14.8552 16.4C14.8583 16.4 14.8613 16.4 14.8644 16.4C14.8675 16.4 14.8706 16.4 14.8736 16.4C14.8767 16.4 14.8798 16.4 14.8829 16.4C14.886 16.4 14.8891 16.4 14.8922 16.4C14.8953 16.4 14.8984 16.4 14.9016 16.4C14.9047 16.4 14.9078 16.4 14.9109 16.4C14.9141 16.4 14.9172 16.4 14.9204 16.4C14.9235 16.4 14.9267 16.4 14.9298 16.4C14.933 16.4 14.9361 16.4 14.9393 16.4C14.9425 16.4 14.9457 16.4 14.9488 16.4C14.952 16.4 14.9552 16.4 14.9584 16.4C14.9616 16.4 14.9648 16.4 14.968 16.4C14.9712 16.4 14.9744 16.4 14.9777 16.4C14.9809 16.4 14.9841 16.4 14.9873 16.4C14.9906 16.4 14.9938 16.4 14.9971 16.4C15.0003 16.4 15.0036 16.4 15.0068 16.4C15.0101 16.4 15.0134 16.4 15.0166 16.4C15.0199 16.4 15.0232 16.4 15.0265 16.4C15.0297 16.4 15.033 16.4 15.0363 16.4C15.0396 16.4 15.0429 16.4 15.0463 16.4C15.0496 16.4 15.0529 16.4 15.0562 16.4C15.0595 16.4 15.0629 16.4 15.0662 16.4C15.0695 16.4 15.0729 16.4 15.0762 16.4C15.0796 16.4 15.0829 16.4 15.0863 16.4C15.0897 16.4 15.093 16.4 15.0964 16.4C15.0998 16.4 15.1032 16.4 15.1066 16.4C15.11 16.4 15.1134 16.4 15.1168 16.4C15.1202 16.4 15.1236 16.4 15.127 16.4C15.1304 16.4 15.1338 16.4 15.1373 16.4C15.1407 16.4 15.1441 16.4 15.1476 16.4C15.151 16.4 15.1545 16.4 15.1579 16.4C15.1614 16.4 15.1649 16.4 15.1683 16.4C15.1718 16.4 15.1753 16.4 15.1788 16.4C15.1823 16.4 15.1857 16.4 15.1892 16.4C15.1927 16.4 15.1962 16.4 15.1998 16.4C15.2033 16.4 15.2068 16.4 15.2103 16.4C15.2139 16.4 15.2174 16.4 15.2209 16.4C15.2245 16.4 15.228 16.4 15.2316 16.4C15.2351 16.4 15.2387 16.4 15.2423 16.4C15.2458 16.4 15.2494 16.4 15.253 16.4C15.2566 16.4 15.2602 16.4 15.2638 16.4C15.2674 16.4 15.271 16.4 15.2746 16.4C15.2782 16.4 15.2818 16.4 15.2854 16.4C15.2891 16.4 15.2927 16.4 15.2963 16.4C15.3 16.4 15.3036 16.4 15.3073 16.4C15.3109 16.4 15.3146 16.4 15.3182 16.4C15.3219 16.4 15.3256 16.4 15.3293 16.4C15.333 16.4 15.3367 16.4 15.3403 16.4C15.344 16.4 15.3478 16.4 15.3515 16.4C15.3552 16.4 15.3589 16.4 15.3626 16.4C15.3663 16.4 15.3701 16.4 15.3738 16.4C15.3776 16.4 15.3813 16.4 15.3851 16.4C15.3888 16.4 15.3926 16.4 15.3964 16.4C15.4001 16.4 15.4039 16.4 15.4077 16.4C15.4115 16.4 15.4153 16.4 15.4191 16.4C15.4229 16.4 15.4267 16.4 15.4305 16.4C15.4343 16.4 15.4381 16.4 15.442 16.4C15.4458 16.4 15.4496 16.4 15.4535 16.4C15.4573 16.4 15.4612 16.4 15.465 16.4C15.4689 16.4 15.4728 16.4 15.4767 16.4C15.4805 16.4 15.4844 16.4 15.4883 16.4C15.4922 16.4 15.4961 16.4 15.5 16.4V16ZM12 16V15.6C9.70978 15.6 7.91803 15.983 6.75006 16.1674C6.13963 16.2638 5.76637 16.2928 5.55086 16.2431C5.46011 16.2221 5.44021 16.196 5.43584 16.1902C5.42851 16.1804 5.4 16.1356 5.4 16L5 16L4.6 16C4.6 16.2394 4.64961 16.4758 4.79657 16.6711C4.94649 16.8704 5.15705 16.9732 5.37097 17.0226C5.76482 17.1135 6.29778 17.0487 6.87483 16.9576C8.08183 16.767 9.79008 16.4 12 16.4V16ZM5 16L5.39598 16.0566C5.42254 15.8706 5.46527 15.7786 5.49299 15.7395C5.51104 15.7141 5.51476 15.7185 5.51758 15.7182C5.53825 15.7156 5.60122 15.7175 5.72179 15.7711C5.83904 15.8233 5.98366 15.9123 6.15468 16.0437C6.84978 16.5779 7.77474 17.6477 8.74334 18.9287C10.6707 21.4779 12.6561 24.7069 13.1422 25.6789L13.4999 25.5L13.8577 25.3211C13.3436 24.2931 11.329 21.0221 9.38148 18.4463C8.41261 17.1648 7.43137 16.0159 6.64213 15.4094C6.44207 15.2557 6.24197 15.1269 6.04697 15.0402C5.85529 14.9549 5.63848 14.8967 5.41795 14.9244C5.17956 14.9543 4.98065 15.0793 4.84074 15.2763C4.71051 15.4597 4.63996 15.6919 4.60402 15.9434L5 16ZM14 7L13.7271 6.70758L6.22707 13.7076L6.5 14L6.77293 14.2924L14.2729 7.29242L14 7Z" fill="#222222"/>
</g>
<defs>
<clipPath id="clip0_1148_429">
<rect width="32" height="32" fill="white"/>
</clipPath>
</defs>
</svg>
