<svg width="32" height="32" viewBox="0 0 32 32" fill="none" xmlns="http://www.w3.org/2000/svg">
<g clip-path="url(#clip0_1148_320)">
<path d="M18 14C23 15.5 24 18.8536 24 18.8536C24 18.8536 20.4183 22 16 22C11.5817 22 8 18.8536 8 18.8536C8 18.8536 10.2262 14.7065 13.3333 14" stroke="#222222" stroke-width="0.8" stroke-linecap="round" stroke-linejoin="round"/>
<path d="M17.157 6.7058C17.2707 6.89523 17.5164 6.95666 17.7058 6.843C17.8952 6.72934 17.9567 6.48363 17.843 6.2942L17.157 6.7058ZM20 9.5L20.32 9.26L20.32 9.26L20 9.5ZM13.8667 17.5C13.8667 18.6782 14.8218 19.6333 16 19.6333C17.1782 19.6333 18.1333 18.6782 18.1333 17.5C18.1333 16.3218 17.1782 15.3667 16 15.3667C14.8218 15.3667 13.8667 16.3218 13.8667 17.5ZM16 10.5L15.6286 10.3514L16 10.5ZM2.12946 23.4188L1.80396 23.1863L2.12946 23.4188ZM15.1135 5.24112L14.788 5.00862L15.1135 5.24112ZM16.7847 5.30786L17.1277 5.10206L16.7847 5.30786ZM15.1135 5.24112L14.788 5.00862L1.80396 23.1863L2.12946 23.4188L2.45495 23.6513L15.439 5.47361L15.1135 5.24112ZM2.94319 25V25.4H29.0645V25V24.6H2.94319V25ZM17.5 6.5L17.843 6.2942L17.1277 5.10206L16.7847 5.30786L16.4417 5.51366L17.157 6.7058L17.5 6.5ZM29.8843 23.4274L30.2105 23.1959C27.4284 19.2746 20.3784 9.33784 20.32 9.26L20 9.5L19.68 9.74C19.6794 9.7392 19.7051 9.77512 19.7634 9.85707C19.8186 9.93459 19.8983 10.0468 19.9999 10.1898C20.2031 10.4758 20.4935 10.8848 20.8493 11.3859C21.5608 12.3882 22.5334 13.7587 23.5915 15.2496C25.7075 18.2316 28.165 21.6953 29.5581 23.6589L29.8843 23.4274ZM20 9.5L20.32 9.26C19.5397 8.2196 18.6396 7.67231 17.7073 7.92659C16.8258 8.16698 16.1372 9.08003 15.6286 10.3514L16 10.5L16.3714 10.6486C16.8628 9.41997 17.4242 8.83302 17.9177 8.69841C18.3604 8.57769 18.9603 8.7804 19.68 9.74L20 9.5ZM16 10.5L15.6286 10.3514C15.3005 11.1718 15.1748 12.232 15.1875 13.4417C15.2003 14.6572 15.3535 16.0542 15.6054 17.5658L16 17.5L16.3946 17.4342C16.1465 15.9458 15.9997 14.5928 15.9875 13.4333C15.9752 12.268 16.0995 11.3282 16.3714 10.6486L16 10.5ZM29.0645 25V25.4C30.1957 25.4 30.8714 24.1274 30.2105 23.1959L29.8843 23.4274L29.5581 23.6589C29.8368 24.0517 29.557 24.6 29.0645 24.6V25ZM2.12946 23.4188L1.80396 23.1863C1.1421 24.1129 1.80447 25.4 2.94319 25.4V25V24.6C2.45517 24.6 2.17129 24.0484 2.45495 23.6513L2.12946 23.4188ZM15.1135 5.24112L15.439 5.47361C15.6901 5.122 16.2194 5.14313 16.4417 5.51366L16.7847 5.30786L17.1277 5.10206C16.609 4.23751 15.374 4.18819 14.788 5.00862L15.1135 5.24112Z" fill="#222222"/>
<path d="M18 22.0025L19 24.0025" stroke="#222222" stroke-width="0.8"/>
<path d="M20.2594 21.0007L21.1505 22.5678" stroke="#222222" stroke-width="0.8"/>
<path d="M22.1587 19.8801L22.8406 21.1191" stroke="#222222" stroke-width="0.8"/>
<path d="M14.1191 22.0945L13.1191 24.0945" stroke="#222222" stroke-width="0.8"/>
<path d="M11.8598 21.0927L10.9686 22.6598" stroke="#222222" stroke-width="0.8"/>
<path d="M9.96041 19.9721L9.27858 21.2111" stroke="#222222" stroke-width="0.8"/>
<path d="M13.1191 14.0026L12.1191 12.0026" stroke="#222222" stroke-width="0.8"/>
<path d="M10.8598 15.0043L9.96862 13.4372" stroke="#222222" stroke-width="0.8"/>
<path d="M9.46041 17.0281L8.77858 15.7891" stroke="#222222" stroke-width="0.8"/>
<path d="M18.4004 14.0844L19.4004 12.0844" stroke="#222222" stroke-width="0.8"/>
<path d="M20.6598 15.0861L21.5509 13.519" stroke="#222222" stroke-width="0.8"/>
<path d="M22.6792 16.6386L23.3611 15.3996" stroke="#222222" stroke-width="0.8"/>
</g>
<defs>
<clipPath id="clip0_1148_320">
<rect width="32" height="32" fill="white"/>
</clipPath>
</defs>
</svg>
