<svg width="32" height="32" viewBox="0 0 32 32" fill="none" xmlns="http://www.w3.org/2000/svg">
<g clip-path="url(#clip0_1148_437)">
<path d="M3.15611 13.4316C3.15611 14.6098 4.11124 15.5649 5.28945 15.5649C6.46765 15.5649 7.42278 14.6098 7.42278 13.4316C7.42278 12.2534 6.46765 11.2983 5.28945 11.2983C4.11124 11.2983 3.15611 12.2534 3.15611 13.4316ZM8.96483 8.99074L9.02345 9.38642L8.96483 8.99074ZM9.88409 17.949L10.2254 18.1576L10.2254 18.1576L9.88409 17.949ZM6.99698 22.9055C6.90114 23.1045 6.98481 23.3436 7.18385 23.4394C7.3829 23.5352 7.62194 23.4516 7.71778 23.2525L6.99698 22.9055ZM5.28945 13.4316L5.55205 13.1299C4.51491 12.2272 3.88173 11.5907 3.58254 11.1307C3.43343 10.9014 3.39948 10.7634 3.40001 10.6902C3.40034 10.6435 3.41292 10.5911 3.50556 10.5146C3.61242 10.4264 3.80132 10.3297 4.10789 10.2318C4.40893 10.1356 4.79298 10.0474 5.26572 9.95944C6.21439 9.78298 7.46256 9.61765 9.02345 9.38642L8.96483 8.99074L8.90622 8.59505C7.36603 8.82322 6.0874 8.99288 5.11942 9.17293C4.63385 9.26325 4.21213 9.35865 3.86442 9.46974C3.52224 9.57906 3.21942 9.71334 2.99607 9.89784C2.7585 10.0941 2.60238 10.3564 2.60003 10.6844C2.59786 10.986 2.72722 11.2829 2.9119 11.5668C3.28028 12.1333 3.99663 12.8367 5.02684 13.7333L5.28945 13.4316ZM8.96483 8.99074L9.02345 9.38642C12.9857 8.79945 25.8619 7.12706 27.554 6.89631L27.5 6.49998L27.446 6.10365C25.7692 6.3323 12.8732 8.00737 8.90622 8.59505L8.96483 8.99074ZM27.5 6.49998L27.554 6.89631C27.9693 6.83968 28.3189 6.81574 28.5807 6.84658C28.8521 6.87856 28.9209 6.95484 28.9405 6.99154C28.9683 7.04347 29.0117 7.21846 28.8401 7.65707C28.6748 8.07956 28.342 8.66401 27.775 9.45773L28.1005 9.69022L28.426 9.92272C29.0076 9.10854 29.3845 8.46154 29.5851 7.94849C29.7795 7.45156 29.8451 6.9869 29.6461 6.61454C29.439 6.22693 29.0323 6.09426 28.6743 6.05207C28.3066 6.00875 27.8729 6.04542 27.446 6.10365L27.5 6.49998ZM28.1005 9.69022L27.775 9.45773C25.477 12.675 20.191 20.2591 18.6563 22.5613L18.9891 22.7831L19.3219 23.005C20.8498 20.7132 26.1301 13.137 28.426 9.92272L28.1005 9.69022ZM18.9891 22.7831L18.6563 22.5613C18.2629 23.1513 17.9924 23.5801 17.7532 23.8792C17.507 24.1869 17.3777 24.2443 17.3046 24.2513C17.2271 24.2587 17.0604 24.2244 16.7031 23.9286C16.3592 23.6439 15.9176 23.1856 15.3028 22.5132L15.0076 22.7831L14.7124 23.053C15.3227 23.7205 15.7999 24.2194 16.1929 24.5448C16.5727 24.8592 16.961 25.088 17.3812 25.0476C17.8058 25.0068 18.1168 24.7052 18.3778 24.3789C18.6459 24.0439 18.9496 23.5635 19.3219 23.005L18.9891 22.7831ZM15.0076 22.7831L15.3028 22.5132C14.702 21.8561 14.1364 21.1436 13.6086 20.4592C13.0853 19.7806 12.5914 19.119 12.1505 18.5886C11.7193 18.0699 11.2911 17.6155 10.887 17.395C10.6781 17.2809 10.4256 17.2014 10.1589 17.2607C9.88388 17.3217 9.68391 17.5095 9.54277 17.7405L9.88409 17.949L10.2254 18.1576C10.2603 18.1006 10.2887 18.0711 10.3064 18.0567C10.3222 18.0438 10.3302 18.0421 10.3322 18.0416C10.3365 18.0407 10.3843 18.032 10.5038 18.0972C10.7565 18.2351 11.0971 18.5729 11.5353 19.1C11.9637 19.6154 12.4396 20.2533 12.9751 20.9477C13.506 21.6362 14.0882 22.3703 14.7124 23.053L15.0076 22.7831ZM9.88409 17.949L9.54277 17.7405C9.06949 18.5149 7.98159 20.8605 6.99698 22.9055L7.35738 23.079L7.71778 23.2525C8.72391 21.1629 9.77988 18.8866 10.2254 18.1576L9.88409 17.949Z" fill="#222222"/>
<path d="M11.6444 16.6474C12.2569 16.2646 20.909 11.9768 23.742 10.2923C26.5749 8.60787 26.4984 8.22504 25.6561 8.53131C24.8139 8.83757 13.5586 13.5082 11.8742 14.1207C11.1833 14.3719 8.81138 15.0395 7.81607 16.2646C7.14234 17.7959 4.98317 24.3041 5.44242 25.2994C5.67212 26.2948 10.9555 21.8539 11.8742 21.0117" stroke="#222222" stroke-width="0.8" stroke-linecap="round"/>
</g>
<defs>
<clipPath id="clip0_1148_437">
<rect width="32" height="32" fill="white"/>
</clipPath>
</defs>
</svg>
