<svg width="391" height="234" viewBox="0 0 391 234" fill="none" xmlns="http://www.w3.org/2000/svg">
<path d="M121.591 217.165L122.341 217.154L122.341 217.154L121.591 217.165ZM134.929 230.94L135.304 231.589L135.304 231.589L134.929 230.94ZM1.53532 222.725C1.53532 224.934 3.32618 226.725 5.53532 226.725C7.74446 226.725 9.53532 224.934 9.53532 222.725C9.53532 220.516 7.74446 218.725 5.53532 218.725C3.32618 218.725 1.53532 220.516 1.53532 222.725ZM35.8821 190.291L35.7645 189.55L35.8821 190.291ZM132.68 210.763L132.295 211.407L132.295 211.407L132.68 210.763ZM137.939 229.202L137.564 228.553L137.564 228.553L137.939 229.202ZM127.479 178.672L128.204 178.866L128.206 178.858L128.208 178.851L127.479 178.672ZM129.697 169.622L128.973 169.425L128.97 169.434L128.968 169.444L129.697 169.622ZM202.311 78.1559L202.33 77.4061L202.304 77.4054L202.277 77.4066L202.311 78.1559ZM359.423 56.9216L359.716 57.6119L359.727 57.6072L359.738 57.6021L359.423 56.9216ZM374.624 4C374.624 6.20914 376.415 8 378.624 8C380.833 8 382.624 6.20914 382.624 4C382.624 1.79086 380.833 0 378.624 0C376.415 0 374.624 1.79086 374.624 4ZM302.123 66.4866L301.929 67.211L301.937 67.2133L301.946 67.2154L302.123 66.4866ZM277.009 52.696L276.385 53.1109L276.385 53.1109L277.009 52.696ZM281.446 38.737L281.335 37.9952L281.335 37.9952L281.446 38.737ZM215.213 78.4854L215.292 77.7396L215.262 77.7364L215.232 77.7357L215.213 78.4854ZM272.805 70.8707L273.187 71.5157L273.195 71.5112L273.202 71.5065L272.805 70.8707ZM292.786 50.337L293.505 50.5509L293.505 50.5509L292.786 50.337ZM284.46 38.2863L284.571 39.0281L284.571 39.0281L284.46 38.2863ZM4.01617 218.195C3.84329 217.818 3.39801 217.653 3.02159 217.826C2.64518 217.999 2.48018 218.444 2.65305 218.821L4.01617 218.195ZM0.251162 209.368C0.245795 209.782 0.577203 210.122 0.991382 210.128C1.40556 210.133 1.74567 209.802 1.75104 209.387L0.251162 209.368ZM5.32742 201.52C5.62752 201.234 5.63935 200.76 5.35384 200.46C5.06834 200.16 4.59361 200.148 4.29351 200.433L5.32742 201.52ZM12.6019 195.372C12.2198 195.532 12.0395 195.971 12.1994 196.353C12.3592 196.735 12.7986 196.915 13.1807 196.756L12.6019 195.372ZM22.0938 193.842C22.4947 193.737 22.7352 193.328 22.6311 192.927C22.5269 192.526 22.1174 192.286 21.7165 192.39L22.0938 193.842ZM31.0429 190.357C30.6355 190.432 30.366 190.823 30.4409 191.23C30.5158 191.637 30.9067 191.907 31.3141 191.832L31.0429 190.357ZM41.4565 190.355C41.869 190.317 42.1729 189.952 42.1353 189.54C42.0976 189.127 41.7327 188.823 41.3202 188.861L41.4565 190.355ZM52.4871 188.474C52.0729 188.467 51.7316 188.797 51.7246 189.211C51.7176 189.625 52.0477 189.967 52.4618 189.974L52.4871 188.474ZM63.4755 190.639C63.8876 190.681 64.2554 190.381 64.297 189.968C64.3386 189.556 64.0383 189.189 63.6262 189.147L63.4755 190.639ZM74.6735 190.655C74.2651 190.585 73.8778 190.86 73.8083 191.268C73.7388 191.677 74.0135 192.064 74.4218 192.134L74.6735 190.655ZM85.2598 194.308C85.6635 194.401 86.066 194.149 86.1589 193.745C86.2517 193.341 85.9997 192.939 85.596 192.846L85.2598 194.308ZM96.3831 195.624C95.9847 195.511 95.5698 195.742 95.4564 196.14C95.3429 196.539 95.5739 196.953 95.9723 197.067L96.3831 195.624ZM106.533 200.356C106.925 200.489 107.351 200.279 107.484 199.886C107.617 199.494 107.406 199.068 107.014 198.935L106.533 200.356ZM117.475 202.78C117.09 202.627 116.654 202.815 116.501 203.199C116.347 203.584 116.535 204.02 116.92 204.174L117.475 202.78ZM121.266 208.42C121.228 208.832 121.532 209.198 121.944 209.236C122.357 209.274 122.722 208.971 122.76 208.558L121.266 208.42ZM122.377 214.296C122.392 213.882 122.068 213.535 121.654 213.52C121.24 213.505 120.892 213.829 120.878 214.243L122.377 214.296ZM121.392 223.435C121.465 223.843 121.855 224.114 122.263 224.04C122.67 223.967 122.941 223.577 122.868 223.169L121.392 223.435ZM129.145 231.685C128.733 231.637 128.361 231.931 128.312 232.343C128.264 232.754 128.559 233.127 128.97 233.175L129.145 231.685ZM136.057 231.155C136.416 230.948 136.538 230.489 136.331 230.131C136.124 229.772 135.666 229.649 135.307 229.856L136.057 231.155ZM136.812 228.987C136.453 229.194 136.33 229.653 136.537 230.012C136.744 230.37 137.203 230.493 137.562 230.286L136.812 228.987ZM142.854 225.159C143.018 224.779 142.843 224.337 142.463 224.173C142.082 224.009 141.641 224.185 141.477 224.565L142.854 225.159ZM137.241 214.871C137.557 215.139 138.03 215.099 138.298 214.783C138.565 214.466 138.525 213.993 138.209 213.726L137.241 214.871ZM130.505 208.685C130.14 208.49 129.686 208.629 129.491 208.995C129.297 209.361 129.436 209.815 129.802 210.009L130.505 208.685ZM124.641 207.472C125.018 207.645 125.463 207.481 125.636 207.104C125.809 206.728 125.645 206.283 125.268 206.11L124.641 207.472ZM123.967 198.921C124.031 198.512 123.751 198.129 123.341 198.065C122.932 198.002 122.549 198.282 122.485 198.691L123.967 198.921ZM125.094 185.164C125.001 185.568 125.253 185.97 125.657 186.063C126.061 186.155 126.463 185.903 126.556 185.5L125.094 185.164ZM128.762 176.588C128.861 176.186 128.614 175.78 128.212 175.681C127.81 175.583 127.404 175.829 127.305 176.231L128.762 176.588ZM128.414 171.706C128.315 172.109 128.561 172.515 128.964 172.613C129.366 172.712 129.772 172.466 129.871 172.063L128.414 171.706ZM131.806 164.82C131.918 164.422 131.686 164.007 131.287 163.895C130.888 163.783 130.474 164.015 130.362 164.414L131.806 164.82ZM133.319 154.394C133.196 154.789 133.417 155.209 133.813 155.332C134.208 155.455 134.629 155.234 134.752 154.839L133.319 154.394ZM138.013 144.97C138.151 144.579 137.946 144.151 137.555 144.014C137.164 143.876 136.736 144.081 136.598 144.472L138.013 144.97ZM140.295 134.684C140.139 135.068 140.324 135.505 140.708 135.661C141.092 135.817 141.529 135.632 141.685 135.248L140.295 134.684ZM145.851 125.743C146.029 125.368 145.869 124.921 145.495 124.744C145.121 124.566 144.674 124.726 144.496 125.1L145.851 125.743ZM149.309 115.795C149.105 116.156 149.233 116.613 149.593 116.817C149.954 117.021 150.411 116.894 150.615 116.533L149.309 115.795ZM156.091 107.747C156.326 107.406 156.241 106.939 155.9 106.704C155.559 106.469 155.092 106.555 154.856 106.896L156.091 107.747ZM161.278 98.5852C161.006 98.8976 161.039 99.3713 161.351 99.6433C161.664 99.9153 162.138 99.8825 162.41 99.5701L161.278 98.5852ZM169.69 92.2765C170.003 92.0055 170.037 91.5319 169.766 91.2186C169.495 90.9053 169.022 90.8709 168.708 91.1419L169.69 92.2765ZM177.229 84.9404C176.874 85.1535 176.759 85.6142 176.972 85.9694C177.185 86.3246 177.646 86.4398 178.001 86.2268L177.229 84.9404ZM187.265 81.8296C187.655 81.6902 187.858 81.261 187.719 80.871C187.579 80.4809 187.15 80.2777 186.76 80.4171L187.265 81.8296ZM197.008 77.8938C196.598 77.9519 196.312 78.3314 196.371 78.7415C196.429 79.1517 196.808 79.437 197.218 79.3789L197.008 77.8938ZM205.517 78.988C205.931 78.9986 206.276 78.6715 206.286 78.2574C206.297 77.8433 205.97 77.4991 205.555 77.4885L205.517 78.988ZM212.007 77.6533C211.593 77.6427 211.248 77.9698 211.238 78.3839C211.227 78.798 211.554 79.1422 211.968 79.1528L212.007 77.6533ZM220.046 79.6351C220.46 79.6609 220.816 79.3467 220.842 78.9333C220.867 78.5198 220.553 78.1638 220.14 78.138L220.046 79.6351ZM229.903 78.4351C229.488 78.435 229.152 78.7706 229.152 79.1849C229.152 79.5991 229.488 79.935 229.902 79.9351L229.903 78.4351ZM239.757 79.641C240.17 79.6157 240.485 79.26 240.46 78.8466C240.434 78.4331 240.079 78.1185 239.665 78.1439L239.757 79.641ZM249.375 77.1979C248.964 77.2542 248.677 77.6325 248.734 78.0429C248.79 78.4532 249.168 78.7403 249.579 78.684L249.375 77.1979ZM259.296 76.8632C259.698 76.7644 259.944 76.3582 259.845 75.9559C259.746 75.5537 259.34 75.3077 258.938 75.4065L259.296 76.8632ZM268.135 72.3926C267.755 72.5567 267.579 72.9981 267.743 73.3784C267.908 73.7587 268.349 73.9339 268.729 73.7697L268.135 72.3926ZM276.781 69.2232C277.127 68.9954 277.223 68.5303 276.995 68.1843C276.767 67.8384 276.302 67.7427 275.956 67.9705L276.781 69.2232ZM282.688 63.0126C282.371 63.2799 282.332 63.7531 282.599 64.0695C282.866 64.3859 283.34 64.4256 283.656 64.1582L282.688 63.0126ZM289.783 63.242C290.164 63.4052 290.605 63.2288 290.768 62.848C290.931 62.4673 290.754 62.0264 290.374 61.8633L289.783 63.242ZM298.262 64.6351C297.864 64.5184 297.447 64.746 297.331 65.1435C297.214 65.5409 297.442 65.9577 297.839 66.0744L298.262 64.6351ZM306.868 68.0668C307.28 68.1125 307.651 67.8158 307.697 67.4042C307.742 66.9925 307.446 66.6217 307.034 66.5759L306.868 68.0668ZM316.71 66.7677C316.297 66.7909 315.98 67.1449 316.004 67.5585C316.027 67.9721 316.381 68.2885 316.794 68.2654L316.71 66.7677ZM326.619 67.1641C327.028 67.0979 327.305 66.7128 327.239 66.3039C327.173 65.895 326.788 65.6172 326.379 65.6834L326.619 67.1641ZM335.941 63.7477C335.538 63.8444 335.29 64.2493 335.387 64.652C335.483 65.0548 335.888 65.3029 336.291 65.2062L335.941 63.7477ZM345.801 62.6047C346.197 62.4834 346.42 62.064 346.298 61.6679C346.177 61.2719 345.758 61.0491 345.362 61.1704L345.801 62.6047ZM354.61 58.0305C354.223 58.1761 354.026 58.6085 354.172 58.9963C354.317 59.3841 354.75 59.5804 355.138 59.4348L354.61 58.0305ZM363.793 55.647C364.163 55.4611 364.312 55.0104 364.126 54.6402C363.94 54.2701 363.49 54.1207 363.12 54.3066L363.793 55.647ZM370.89 50.0197C370.536 50.2356 370.425 50.6972 370.64 51.0507C370.856 51.4042 371.318 51.5158 371.671 51.2999L370.89 50.0197ZM379.095 46.146C379.418 45.8871 379.47 45.4151 379.211 45.0918C378.952 44.7685 378.48 44.7163 378.157 44.9753L379.095 46.146ZM384.439 38.8652C384.177 39.1864 384.226 39.6588 384.547 39.9203C384.868 40.1818 385.341 40.1333 385.602 39.8121L384.439 38.8652ZM390.118 31.831C390.247 31.4375 390.033 31.0137 389.639 30.8845C389.246 30.7552 388.822 30.9695 388.693 31.363L390.118 31.831ZM389.357 22.8909C389.423 23.2999 389.807 23.5779 390.216 23.512C390.625 23.4461 390.903 23.0611 390.837 22.6522L389.357 22.8909ZM387.657 14.0532C387.451 13.6936 386.993 13.5688 386.633 13.7745C386.274 13.9801 386.149 14.4383 386.355 14.7979L387.657 14.0532ZM381.174 7.74201C381.45 8.05125 381.924 8.07855 382.233 7.80297C382.543 7.52739 382.57 7.0533 382.294 6.74406L381.174 7.74201ZM284.042 58.4927C283.698 58.2626 283.232 58.3551 283.002 58.6995C282.772 59.0438 282.864 59.5096 283.209 59.7398L284.042 58.4927ZM278.362 55.6341C278.641 55.94 279.115 55.9617 279.421 55.6824C279.727 55.4031 279.749 54.9287 279.469 54.6228L278.362 55.6341ZM275.944 48.5065C275.849 48.1033 275.445 47.8536 275.042 47.9486C274.639 48.0437 274.389 48.4476 274.484 48.8508L275.944 48.5065ZM276.995 40.0204C276.686 40.2969 276.661 40.7711 276.937 41.0795C277.214 41.3879 277.688 41.4137 277.996 41.1372L276.995 40.0204ZM282.311 39.3661C282.72 39.3048 283.003 38.9231 282.941 38.5134C282.88 38.1038 282.498 37.8213 282.089 37.8826L282.311 39.3661ZM283.596 37.6573C283.186 37.7185 282.904 38.1003 282.965 38.5099C283.026 38.9196 283.408 39.202 283.817 39.1408L283.596 37.6573ZM288.461 39.5724C288.837 39.7466 289.283 39.5832 289.457 39.2074C289.631 38.8316 289.468 38.3857 289.092 38.2115L288.461 39.5724ZM294.076 45.9212C294.049 45.5079 293.692 45.1947 293.279 45.2218C292.865 45.2488 292.552 45.6058 292.579 46.0191L294.076 45.9212ZM290.997 52.8991C290.82 53.2733 290.979 53.7206 291.353 53.8982C291.728 54.0757 292.175 53.9163 292.352 53.5421L290.997 52.8991ZM288.918 58.8861C289.18 58.5652 289.132 58.0928 288.812 57.8308C288.491 57.5688 288.018 57.6166 287.756 57.9374L288.918 58.8861ZM5.53532 222.725L6.18486 222.35C5.35186 220.907 4.6261 219.523 4.01617 218.195L3.33461 218.508L2.65305 218.821C3.28596 220.199 4.03422 221.625 4.88579 223.1L5.53532 222.725ZM1.0011 209.378L1.75104 209.387C1.78929 206.435 2.88844 203.84 5.32742 201.52L4.81046 200.977L4.29351 200.433C1.5756 203.019 0.294894 205.993 0.251162 209.368L1.0011 209.378ZM12.8913 196.064L13.1807 196.756C15.6851 195.708 18.6423 194.738 22.0938 193.842L21.9052 193.116L21.7165 192.39C18.2149 193.3 15.1874 194.29 12.6019 195.372L12.8913 196.064ZM31.1785 191.095L31.3141 191.832C32.8114 191.557 34.3728 191.29 35.9998 191.032L35.8821 190.291L35.7645 189.55C34.1265 189.811 32.5531 190.079 31.0429 190.357L31.1785 191.095ZM35.8821 190.291L35.9998 191.032C37.7893 190.748 39.6102 190.523 41.4565 190.355L41.3884 189.608L41.3202 188.861C39.4428 189.032 37.5889 189.261 35.7645 189.55L35.8821 190.291ZM52.4745 189.224L52.4618 189.974C56.098 190.035 59.7825 190.266 63.4755 190.639L63.5508 189.893L63.6262 189.147C59.8961 188.77 56.1695 188.536 52.4871 188.474L52.4745 189.224ZM74.5476 191.394L74.4218 192.134C78.0802 192.756 81.7062 193.491 85.2598 194.308L85.4279 193.577L85.596 192.846C82.0166 192.023 78.3624 191.283 74.6735 190.655L74.5476 191.394ZM96.1777 196.346L95.9723 197.067C99.6462 198.113 103.184 199.222 106.533 200.356L106.773 199.646L107.014 198.935C103.642 197.794 100.082 196.677 96.3831 195.624L96.1777 196.346ZM117.197 203.477L116.92 204.174C118.719 204.891 120.42 205.601 122.011 206.295L122.31 205.607L122.61 204.92C121.004 204.219 119.288 203.503 117.475 202.78L117.197 203.477ZM122.31 205.607L121.565 205.523C121.452 206.524 121.353 207.49 121.266 208.42L122.013 208.489L122.76 208.558C122.845 207.639 122.944 206.682 123.056 205.691L122.31 205.607ZM121.627 214.27L120.878 214.243C120.84 215.313 120.828 216.294 120.841 217.177L121.591 217.165L122.341 217.154C122.328 216.301 122.339 215.346 122.377 214.296L121.627 214.27ZM121.591 217.165L120.841 217.177C120.877 219.566 121.069 221.642 121.392 223.435L122.13 223.302L122.868 223.169C122.562 221.472 122.376 219.478 122.341 217.154L121.591 217.165ZM129.057 232.43L128.97 233.175C131.098 233.424 133.317 232.737 135.304 231.589L134.929 230.94L134.554 230.29C132.736 231.341 130.844 231.884 129.145 231.685L129.057 232.43ZM134.929 230.94L135.304 231.589L136.057 231.155L135.682 230.506L135.307 229.856L134.554 230.29L134.929 230.94ZM137.187 229.637L137.562 230.286L138.314 229.852L137.939 229.202L137.564 228.553L136.812 228.987L137.187 229.637ZM137.939 229.202L138.314 229.852C140.302 228.704 142.006 227.126 142.854 225.159L142.166 224.862L141.477 224.565C140.799 226.137 139.383 227.503 137.564 228.553L137.939 229.202ZM137.725 214.299L138.209 213.726C136.818 212.55 135.116 211.346 133.065 210.12L132.68 210.763L132.295 211.407C134.29 212.6 135.923 213.758 137.241 214.871L137.725 214.299ZM132.68 210.763L133.065 210.12C132.307 209.667 131.451 209.187 130.505 208.685L130.154 209.347L129.802 210.009C130.73 210.502 131.563 210.97 132.295 211.407L132.68 210.763ZM124.955 206.791L125.268 206.11C124.42 205.719 123.533 205.322 122.61 204.92L122.31 205.607L122.011 206.295C122.925 206.693 123.803 207.086 124.641 207.472L124.955 206.791ZM122.31 205.607L123.056 205.691C123.308 203.456 123.615 201.191 123.967 198.921L123.226 198.806L122.485 198.691C122.13 200.98 121.82 203.266 121.565 205.523L122.31 205.607ZM125.825 185.332L126.556 185.5C127.077 183.23 127.629 181.01 128.204 178.866L127.479 178.672L126.755 178.478C126.176 180.639 125.619 182.877 125.094 185.164L125.825 185.332ZM127.479 178.672L128.208 178.851L128.762 176.588L128.034 176.41L127.305 176.231L126.751 178.494L127.479 178.672ZM129.142 171.885L129.871 172.063L130.425 169.801L129.697 169.622L128.968 169.444L128.414 171.706L129.142 171.885ZM129.697 169.622L130.42 169.82C130.854 168.233 131.315 166.562 131.806 164.82L131.084 164.617L130.362 164.414C129.87 166.161 129.408 167.836 128.973 169.425L129.697 169.622ZM134.035 154.616L134.752 154.839C135.741 151.656 136.824 148.347 138.013 144.97L137.306 144.721L136.598 144.472C135.402 147.869 134.313 151.196 133.319 154.394L134.035 154.616ZM140.99 134.966L141.685 135.248C142.971 132.076 144.357 128.893 145.851 125.743L145.174 125.421L144.496 125.1C142.988 128.279 141.591 131.489 140.295 134.684L140.99 134.966ZM149.962 116.164L150.615 116.533C152.321 113.515 154.143 110.572 156.091 107.747L155.474 107.322L154.856 106.896C152.88 109.761 151.035 112.742 149.309 115.795L149.962 116.164ZM161.844 99.0776L162.41 99.5701C164.69 96.9506 167.114 94.5041 169.69 92.2765L169.199 91.7092L168.708 91.1419C166.074 93.4203 163.601 95.9178 161.278 98.5852L161.844 99.0776ZM177.615 85.5836L178.001 86.2268C180.919 84.4765 184.003 82.9951 187.265 81.8296L187.013 81.1233L186.76 80.4171C183.401 81.6175 180.228 83.1421 177.229 84.9404L177.615 85.5836ZM197.113 78.6363L197.218 79.3789C198.886 79.1427 200.594 78.9832 202.344 78.9051L202.311 78.1559L202.277 77.4066C200.479 77.4868 198.723 77.6507 197.008 77.8938L197.113 78.6363ZM202.311 78.1559L202.292 78.9056L205.517 78.988L205.536 78.2383L205.555 77.4885L202.33 77.4061L202.311 78.1559ZM211.988 78.403L211.968 79.1528L215.194 79.2352L215.213 78.4854L215.232 77.7357L212.007 77.6533L211.988 78.403ZM215.213 78.4854L215.135 79.2313C216.576 79.383 218.228 79.5217 220.046 79.6351L220.093 78.8866L220.14 78.138C218.34 78.0258 216.71 77.8888 215.292 77.7396L215.213 78.4854ZM229.902 79.1851L229.902 79.9351C233.033 79.9362 236.358 79.8495 239.757 79.641L239.711 78.8925L239.665 78.1439C236.3 78.3502 233.006 78.4362 229.903 78.4351L229.902 79.1851ZM249.477 77.9409L249.579 78.684C252.883 78.2306 256.158 77.634 259.296 76.8632L259.117 76.1349L258.938 75.4065C255.859 76.1627 252.637 76.7503 249.375 77.1979L249.477 77.9409ZM268.432 73.0811L268.729 73.7697C270.302 73.0909 271.795 72.3418 273.187 71.5157L272.805 70.8707L272.422 70.2256C271.092 71.015 269.656 71.7357 268.135 72.3926L268.432 73.0811ZM272.805 70.8707L273.202 71.5065C274.303 70.8184 275.514 70.0573 276.781 69.2232L276.368 68.5969L275.956 67.9705C274.705 68.7942 273.506 69.5472 272.407 70.2348L272.805 70.8707ZM283.172 63.5854L283.656 64.1582C284.741 63.2413 285.802 62.2685 286.809 61.2384L286.273 60.7142L285.737 60.1899C284.768 61.1811 283.742 62.1216 282.688 63.0126L283.172 63.5854ZM286.273 60.7142L285.913 61.3724C287.178 62.0629 288.477 62.6826 289.783 63.242L290.078 62.5527L290.374 61.8633C289.105 61.3196 287.849 60.7204 286.633 60.056L286.273 60.7142ZM298.05 65.3547L297.839 66.0744C299.294 66.5015 300.676 66.8749 301.929 67.211L302.123 66.4866L302.318 65.7622C301.065 65.4264 299.698 65.0569 298.262 64.6351L298.05 65.3547ZM302.123 66.4866L301.946 67.2154C303.519 67.5981 305.166 67.8777 306.868 68.0668L306.951 67.3213L307.034 66.5759C305.387 66.393 303.804 66.1235 302.301 65.7579L302.123 66.4866ZM316.752 67.5165L316.794 68.2654C320.02 68.0846 323.326 67.6972 326.619 67.1641L326.499 66.4237L326.379 65.6834C323.128 66.2097 319.875 66.5904 316.71 66.7677L316.752 67.5165ZM336.116 64.477L336.291 65.2062C339.603 64.4112 342.807 63.5217 345.801 62.6047L345.581 61.8876L345.362 61.1704C342.394 62.0794 339.219 62.9605 335.941 63.7477L336.116 64.477ZM354.874 58.7327L355.138 59.4348C356.843 58.7945 358.382 58.1787 359.716 57.6119L359.423 56.9216L359.13 56.2314C357.817 56.7889 356.298 57.3968 354.61 58.0305L354.874 58.7327ZM359.423 56.9216L359.738 57.6021C361.118 56.9624 362.471 56.3108 363.793 55.647L363.456 54.9768L363.12 54.3066C361.813 54.9628 360.474 55.6076 359.108 56.2412L359.423 56.9216ZM371.281 50.6598L371.671 51.2999C374.368 49.6531 376.859 47.9365 379.095 46.146L378.626 45.5606L378.157 44.9753C375.98 46.7191 373.542 48.3997 370.89 50.0197L371.281 50.6598ZM385.02 39.3386L385.602 39.8121C387.651 37.2951 389.196 34.6373 390.118 31.831L389.405 31.597L388.693 31.363C387.839 33.9626 386.395 36.4613 384.439 38.8652L385.02 39.3386ZM390.097 22.7716L390.837 22.6522C390.39 19.8768 389.349 17.0115 387.657 14.0532L387.006 14.4255L386.355 14.7979C387.971 17.6238 388.942 20.3191 389.357 22.8909L390.097 22.7716ZM381.734 7.24304L382.294 6.74406C381.331 5.66295 380.283 4.5693 379.147 3.46285L378.624 4L378.101 4.53715C379.213 5.62087 380.236 6.68911 381.174 7.74201L381.734 7.24304ZM286.273 60.7142L286.633 60.056C285.744 59.5705 284.877 59.0507 284.042 58.4927L283.626 59.1163L283.209 59.7398C284.084 60.325 284.99 60.8678 285.913 61.3724L286.273 60.7142ZM278.915 55.1285L279.469 54.6228C278.8 53.8893 278.185 53.1101 277.634 52.2811L277.009 52.696L276.385 53.1109C276.98 54.0081 277.644 54.8477 278.362 55.6341L278.915 55.1285ZM277.009 52.696L277.634 52.2811C276.772 50.9831 276.228 49.7103 275.944 48.5065L275.214 48.6786L274.484 48.8508C274.812 50.2428 275.433 51.6784 276.385 53.1109L277.009 52.696ZM277.495 40.5788L277.996 41.1372C278.961 40.2719 280.181 39.6845 281.557 39.4787L281.446 38.737L281.335 37.9952C279.671 38.2442 278.179 38.9585 276.995 40.0204L277.495 40.5788ZM281.446 38.737L281.557 39.4787L282.311 39.3661L282.2 38.6243L282.089 37.8826L281.335 37.9952L281.446 38.737ZM283.707 38.399L283.817 39.1408L284.571 39.0281L284.46 38.2863L284.349 37.5446L283.596 37.6573L283.707 38.399ZM284.46 38.2863L284.571 39.0281C285.947 38.8224 287.285 39.0272 288.461 39.5724L288.777 38.8919L289.092 38.2115C287.649 37.5425 286.014 37.2957 284.349 37.5446L284.46 38.2863ZM293.327 45.9702L292.579 46.0191C292.66 47.2533 292.512 48.6296 292.067 50.123L292.786 50.337L293.505 50.5509C293.995 48.9028 294.169 47.3484 294.076 45.9212L293.327 45.9702ZM292.786 50.337L292.067 50.123C291.783 51.0767 291.423 52.0018 290.997 52.8991L291.675 53.2206L292.352 53.5421C292.809 52.58 293.197 51.5831 293.505 50.5509L292.786 50.337ZM288.337 58.4117L287.756 57.9374C287.121 58.7151 286.444 59.4658 285.737 60.1899L286.273 60.7142L286.809 61.2384C287.545 60.4857 288.252 59.7018 288.918 58.8861L288.337 58.4117Z" fill="#72B5BF"/>
<path d="M149.27 75.136C149.51 74.9997 149.595 74.6945 149.458 74.4544C149.322 74.2142 149.017 74.13 148.777 74.2663L149.27 75.136ZM146.543 97.8305L146.932 97.5166L146.932 97.5166L146.543 97.8305ZM167.619 87.6377L167.218 87.3395L167.218 87.3395L167.619 87.6377ZM166.544 76.6528L166.986 76.8866L166.544 76.6528ZM174.199 75.2004L174.697 75.2431L174.697 75.2431L174.199 75.2004ZM152.146 44.2117L152.484 44.5806L152.146 44.2117ZM152.424 74.4191L152.662 73.9792L152.65 73.9724L152.637 73.9664L152.424 74.4191ZM155.055 76.8088C155.114 78.2804 156.355 79.4256 157.827 79.3666C159.298 79.3077 160.443 78.0669 160.384 76.5953C160.325 75.1238 159.085 73.9786 157.613 74.0376C156.142 74.0965 154.996 75.3372 155.055 76.8088ZM169.087 54.1294L169.502 53.8506L169.087 54.1294ZM179.524 72.2978L179.05 72.1379L179.05 72.1379L179.524 72.2978ZM179.562 50.6077L179.093 50.7795L179.093 50.7795L179.562 50.6077ZM165.466 36.8788L165.228 36.4395L165.466 36.8788ZM160.001 43.51C159.877 43.757 159.977 44.0573 160.224 44.181C160.471 44.3046 160.772 44.2046 160.895 43.9576L160.001 43.51ZM175.595 77.7858C175.342 77.895 175.225 78.1892 175.334 78.4428C175.443 78.6964 175.737 78.8134 175.991 78.7041L175.595 77.7858ZM149.024 74.7011L148.777 74.2663C147.2 75.1608 146.047 76.8569 145.246 78.881C144.441 80.9145 143.967 83.3403 143.789 85.7863C143.611 88.2338 143.729 90.7232 144.121 92.8907C144.51 95.0436 145.181 96.9381 146.154 98.1444L146.543 97.8305L146.932 97.5166C146.115 96.5032 145.483 94.8038 145.105 92.7127C144.729 90.6362 144.614 88.2315 144.787 85.8588C144.959 83.4845 145.418 81.1639 146.176 79.249C146.937 77.3246 147.977 75.8701 149.27 75.136L149.024 74.7011ZM146.543 97.8305L146.154 98.1444C147.175 99.4101 148.696 99.9198 150.428 99.8672C152.151 99.8149 154.124 99.2092 156.157 98.1977C160.226 96.1729 164.659 92.4605 168.02 87.9359L167.619 87.6377L167.218 87.3395C163.94 91.7513 159.625 95.355 155.711 97.3024C153.752 98.277 151.925 98.8213 150.398 98.8677C148.88 98.9137 147.702 98.4706 146.932 97.5166L146.543 97.8305ZM167.619 87.6377L168.02 87.9359C169.526 85.9097 170.418 84.0314 170.863 82.3665L170.38 82.2375L169.896 82.1085C169.489 83.6327 168.66 85.3981 167.218 87.3395L167.619 87.6377ZM170.38 82.2375L170.863 82.3665C171.639 79.4612 171.055 77.171 169.946 75.9611C169.393 75.3575 168.678 74.9992 167.938 75.0593C167.183 75.1207 166.532 75.6062 166.102 76.419L166.544 76.6528L166.986 76.8866C167.297 76.2987 167.683 76.0834 168.019 76.0561C168.37 76.0275 168.802 76.1926 169.209 76.6367C170.02 77.5224 170.613 79.4253 169.896 82.1085L170.38 82.2375ZM166.544 76.6528L166.102 76.419C165.847 76.9009 165.917 77.5361 166.079 78.104C166.25 78.7035 166.562 79.3635 166.962 79.9878C167.362 80.6132 167.861 81.221 168.416 81.7087C168.967 82.1928 169.602 82.583 170.275 82.7265L170.38 82.2375L170.484 81.7485C170.037 81.6533 169.553 81.3767 169.076 80.9573C168.602 80.5416 168.163 80.0092 167.804 79.4488C167.445 78.8873 167.179 78.3161 167.04 77.83C166.893 77.3123 166.922 77.0076 166.986 76.8866L166.544 76.6528ZM170.38 82.2375L170.275 82.7265C170.782 82.8345 171.309 82.8016 171.815 82.5657C172.318 82.3317 172.763 81.9161 173.143 81.3223C173.894 80.1491 174.443 78.2032 174.697 75.2431L174.199 75.2004L173.7 75.1577C173.451 78.0677 172.919 79.8169 172.301 80.7831C171.996 81.2589 171.684 81.524 171.393 81.6591C171.107 81.7923 170.805 81.817 170.484 81.7485L170.38 82.2375ZM152.146 44.2117L151.809 43.8428C151.273 44.3332 150.769 45.1343 150.308 46.1145C149.842 47.1057 149.4 48.3235 149.003 49.6874C148.211 52.4155 147.594 55.763 147.351 59.1225C147.107 62.4779 147.234 65.8754 147.949 68.6918C148.66 71.4956 149.982 73.8255 152.212 74.8717L152.424 74.4191L152.637 73.9664C150.806 73.1077 149.599 71.1332 148.918 68.4459C148.239 65.7713 148.109 62.491 148.348 59.1948C148.587 55.9028 149.192 52.6248 149.964 49.9663C150.35 48.6369 150.775 47.4711 151.213 46.5401C151.656 45.598 152.093 44.9382 152.484 44.5806L152.146 44.2117ZM152.424 74.4191L152.187 74.859C154.006 75.8419 156.524 76.8115 157.554 77.1738L157.72 76.7021L157.886 76.2304C156.873 75.8743 154.413 74.9251 152.662 73.9792L152.424 74.4191ZM174.199 75.2004L174.697 75.2431C174.848 73.4804 174.706 69.8665 173.957 65.8442C173.208 61.8224 171.84 57.3322 169.502 53.8506L169.087 54.1294L168.672 54.4081C170.902 57.7285 172.236 62.0674 172.974 66.0274C173.711 69.9869 173.842 73.5076 173.7 75.1577L174.199 75.2004ZM169.087 54.1294L169.502 53.8506C166.609 49.5423 162.821 46.5372 159.482 44.8448C157.814 43.9993 156.241 43.4727 154.933 43.2826C153.663 43.0981 152.499 43.2113 151.809 43.8428L152.146 44.2117L152.484 44.5806C152.821 44.2716 153.578 44.0962 154.789 44.2722C155.962 44.4427 157.43 44.9259 159.03 45.7368C162.226 47.3572 165.881 50.2513 168.672 54.4081L169.087 54.1294ZM179.524 72.2978L179.998 72.4577C180.563 70.7832 181.283 67.241 181.511 63.1554C181.738 59.0702 181.476 54.3809 180.032 50.4358L179.562 50.6077L179.093 50.7795C180.47 54.5427 180.736 59.0776 180.512 63.0999C180.289 67.1219 179.579 70.5706 179.05 72.1379L179.524 72.2978ZM179.562 50.6077L180.032 50.4358C178.245 45.5539 175.28 41.7201 172.441 39.2693C171.022 38.0449 169.62 37.1531 168.395 36.652C167.206 36.1656 166.049 35.9931 165.228 36.4395L165.466 36.8788L165.705 37.3181C166.105 37.1005 166.881 37.1131 168.016 37.5775C169.115 38.0271 170.426 38.8518 171.787 40.0264C174.507 42.3737 177.369 46.0682 179.093 50.7795L179.562 50.6077ZM165.466 36.8788L165.228 36.4395C164.428 36.874 163.551 37.8032 162.678 39.0028C161.793 40.2185 160.873 41.7679 160.001 43.51L160.448 43.7338L160.895 43.9576C161.749 42.2512 162.642 40.7516 163.487 39.5913C164.343 38.4147 165.112 37.6407 165.705 37.3181L165.466 36.8788ZM175.793 78.2449L175.991 78.7041C176.704 78.397 177.39 77.7537 178.047 76.752C178.707 75.7462 179.362 74.3433 179.998 72.4577L179.524 72.2978L179.05 72.1379C178.43 73.9764 177.808 75.2934 177.211 76.2033C176.611 77.1174 176.06 77.5856 175.595 77.7858L175.793 78.2449Z" fill="#026A67"/>
</svg>
