<svg width="122" height="123" viewBox="0 0 122 123" fill="none" xmlns="http://www.w3.org/2000/svg">
<g opacity="0.1" clip-path="url(#clip0_319_165)">
<path d="M26.6597 112.5C24.9603 110.007 23.7714 107.202 23.1613 104.248C22.5513 101.293 22.5323 98.2466 23.1055 95.2844L23.1602 94.9993" stroke="#026A67" stroke-width="2" stroke-linecap="round" stroke-linejoin="round"/>
<path d="M94.1748 22.8398C95.556 24.6686 97.3601 28.0622 98.4365 31.7755C99.2917 34.7257 99.6076 38.7479 99.635 39.549" stroke="#026A67" stroke-width="2" stroke-linecap="round" stroke-linejoin="round"/>
<path d="M39.5001 72.9399C39.9945 72.6936 40.1956 72.0933 39.9493 71.5989C39.7031 71.1046 39.1027 70.9034 38.6084 71.1497L39.5001 72.9399ZM32.8604 110.705L33.6673 110.114L33.6673 110.114L32.8604 110.705ZM69.4518 95.3734L68.683 94.7339L68.683 94.7339L69.4518 95.3734ZM68.5759 76.8201L67.7187 76.3051L68.5759 76.8201ZM81.671 75.0323L82.6616 75.1692L82.6616 75.1692L81.671 75.0323ZM46.9692 21.0696L47.6029 21.8432L46.9692 21.0696ZM44.8414 71.8609L45.3576 71.0045L45.3334 70.9899L45.3084 70.9767L44.8414 71.8609ZM48.2849 76.1498C48.2849 79.0953 50.6727 81.4831 53.6182 81.4831C56.5637 81.4831 58.9515 79.0953 58.9515 76.1498C58.9515 73.2043 56.5637 70.8165 53.6182 70.8165C50.6727 70.8165 48.2849 73.2043 48.2849 76.1498ZM74.8227 39.1834L75.6782 38.6656L74.8227 39.1834ZM90.9453 70.6086L90.0163 70.2386L90.0163 70.2386L90.9453 70.6086ZM92.8764 34.1586L93.831 33.8608L92.8764 34.1586ZM70.1716 9.88245L69.742 8.97943L69.742 8.97943L70.1716 9.88245ZM60.2096 20.4796C59.936 20.9593 60.1031 21.57 60.5828 21.8436C61.0625 22.1173 61.6732 21.9502 61.9469 21.4705L60.2096 20.4796ZM83.765 79.347C83.2469 79.5382 82.9818 80.1132 83.173 80.6313C83.3642 81.1495 83.9392 81.4145 84.4573 81.2233L83.765 79.347ZM39.0542 72.0448L38.6084 71.1497C35.8165 72.5404 33.696 75.3285 32.1567 78.6785C30.6091 82.0465 29.5935 86.1001 29.0804 90.2076C28.5668 94.3183 28.551 98.5262 29.0306 102.218C29.5064 105.88 30.485 109.153 32.0535 111.296L32.8604 110.705L33.6673 110.114C32.3928 108.374 31.4733 105.496 31.0139 101.96C30.5583 98.4532 30.5701 94.4161 31.0649 90.4556C31.5601 86.4919 32.5337 82.6482 33.974 79.5136C35.4226 76.3611 37.2887 74.0414 39.5001 72.9399L39.0542 72.0448ZM32.8604 110.705L32.0535 111.296C33.7115 113.56 36.2973 114.558 39.266 114.618C42.2175 114.678 45.6344 113.821 49.1773 112.289C56.2703 109.224 64.1202 103.347 70.2206 96.0129L69.4518 95.3734L68.683 94.7339C62.7626 101.852 55.1599 107.525 48.3838 110.453C44.9922 111.919 41.8706 112.67 39.3064 112.619C36.7594 112.567 34.8523 111.733 33.6673 110.114L32.8604 110.705ZM69.4518 95.3734L70.2206 96.0129C72.9568 92.7233 74.641 89.6251 75.5452 86.8422L74.5941 86.5332L73.6431 86.2242C72.8295 88.7284 71.2839 91.6069 68.683 94.7339L69.4518 95.3734ZM74.5941 86.5332L75.5452 86.8422C77.122 81.9887 76.3338 78.0261 74.5139 75.8437C73.6062 74.7553 72.3858 74.0628 71.0705 74.1024C69.7257 74.143 68.5388 74.9399 67.7187 76.3051L68.5759 76.8201L69.4331 77.335C69.9892 76.4094 70.6188 76.117 71.1308 76.1015C71.6723 76.0852 72.3488 76.3702 72.9779 77.1246C74.2316 78.628 75.0763 81.8127 73.6431 86.2242L74.5941 86.5332ZM68.5759 76.8201L67.7187 76.3051C67.2107 77.1507 67.2872 78.2797 67.5146 79.2568C67.757 80.2978 68.2373 81.4486 68.8663 82.5422C69.4967 83.6382 70.2982 84.7146 71.2094 85.5935C72.113 86.465 73.1773 87.1926 74.3382 87.4999L74.5941 86.5332L74.85 85.5665C74.1341 85.377 73.3596 84.8886 72.5978 84.1539C71.8436 83.4265 71.153 82.5065 70.6 81.545C70.0455 80.5811 69.6511 79.6132 69.4626 78.8033C69.2592 77.9295 69.3487 77.4755 69.4331 77.335L68.5759 76.8201ZM74.5941 86.5332L74.3382 87.4999C75.2139 87.7317 76.1415 87.7219 77.0533 87.3554C77.9569 86.9922 78.7678 86.31 79.4763 85.3262C80.873 83.3865 81.9759 80.1311 82.6616 75.1692L81.671 75.0323L80.6804 74.8954C80.0087 79.7561 78.9615 82.6185 77.8533 84.1574C77.3093 84.9128 76.7789 85.3101 76.3074 85.4997C75.8441 85.6859 75.3626 85.7022 74.85 85.5665L74.5941 86.5332ZM46.9692 21.0696L46.3356 20.296C45.3617 21.0936 44.4277 22.4187 43.5588 24.0329C42.6785 25.6685 41.8207 27.6857 41.0301 29.9497C39.4488 34.4784 38.113 40.0629 37.4098 45.6995C36.7075 51.3278 36.6283 57.068 37.6013 61.8862C38.5695 66.6802 40.6255 70.7651 44.3743 72.7452L44.8414 71.8609L45.3084 70.9767C42.3398 69.4087 40.4813 66.0437 39.5618 61.4903C38.6471 56.9612 38.707 51.4567 39.3944 45.9472C40.0807 40.446 41.3851 34.9998 42.9183 30.609C43.685 28.4134 44.5029 26.4987 45.3199 24.9808C46.1484 23.4416 46.9333 22.3916 47.6029 21.8432L46.9692 21.0696ZM44.8414 71.8609L44.3252 72.7174C47.3334 74.5305 51.5246 76.3784 53.2417 77.0762L53.6182 76.1498L53.9947 75.2234C52.3121 74.5396 48.2331 72.7377 45.3576 71.0045L44.8414 71.8609ZM81.671 75.0323L82.6616 75.1692C83.0717 72.201 83.1417 66.0996 82.2167 59.2652C81.2918 52.4315 79.3566 44.7433 75.6782 38.6656L74.8227 39.1834L73.9672 39.7012C77.4434 45.4448 79.3269 52.8257 80.2348 59.5334C81.1425 66.2404 81.0594 72.1528 80.6804 74.8954L81.671 75.0323ZM74.8227 39.1834L75.6782 38.6656C71.1313 31.153 64.95 25.7612 59.4174 22.6203C56.6536 21.0512 54.0185 20.025 51.7992 19.5901C49.6555 19.1701 47.6142 19.2486 46.3356 20.296L46.9692 21.0696L47.6029 21.8432C48.1467 21.3978 49.3853 21.1552 51.4146 21.5528C53.3683 21.9356 55.7991 22.866 58.43 24.3596C63.687 27.344 69.6099 32.5019 73.9672 39.7012L74.8227 39.1834ZM90.9453 70.6086L91.8743 70.9786C92.9829 68.1953 94.511 62.2884 95.2486 55.4308C95.9861 48.5739 95.9474 40.6449 93.831 33.8608L92.8764 34.1586L91.9217 34.4565C93.9219 40.868 93.984 48.4865 93.2601 55.2169C92.5362 61.9467 91.0405 67.667 90.0163 70.2386L90.9453 70.6086ZM92.8764 34.1586L93.831 33.8608C91.2149 25.4751 86.5046 18.7558 81.8856 14.3777C79.5781 12.1906 77.2656 10.5614 75.2153 9.60625C73.235 8.68366 71.2344 8.26947 69.742 8.97943L70.1716 9.88245L70.6012 10.7855C71.2353 10.4838 72.4956 10.5456 74.3707 11.4192C76.1758 12.2601 78.3131 13.7473 80.5097 15.8293C84.899 19.9896 89.4146 26.42 91.9217 34.4565L92.8764 34.1586ZM70.1716 9.88245L69.742 8.97943C68.3189 9.65646 66.7346 11.1659 65.1487 13.1113C63.5378 15.0873 61.8403 17.6205 60.2096 20.4796L61.0782 20.975L61.9469 21.4705C63.5379 18.681 65.1747 16.2447 66.6989 14.375C68.248 12.4746 69.5995 11.262 70.6012 10.7855L70.1716 9.88245ZM84.1112 80.2852L84.4573 81.2233C85.7289 80.7542 86.9685 79.7064 88.1788 78.0651C89.3945 76.4164 90.6308 74.101 91.8743 70.9786L90.9453 70.6086L90.0163 70.2386C88.8099 73.2678 87.6484 75.4145 86.5691 76.8782C85.4843 78.3493 84.5319 79.064 83.765 79.347L84.1112 80.2852Z" fill="#026A67"/>
</g>
<defs>
<clipPath id="clip0_319_165">
<rect width="122" height="122" fill="white" transform="translate(0 0.621094)"/>
</clipPath>
</defs>
</svg>
