<svg width="665" height="478" viewBox="0 0 665 478" fill="none" xmlns="http://www.w3.org/2000/svg">
<path d="M205.432 372.386L206.182 372.375L205.432 372.386ZM21.9289 383.011C23.0335 384.924 25.4798 385.579 27.393 384.475C29.3062 383.37 29.9617 380.924 28.8572 379.011C27.7526 377.097 25.3063 376.442 23.3931 377.546C21.4799 378.651 20.8244 381.097 21.9289 383.011ZM72.4707 330.696L72.353 329.955L72.4707 330.696ZM222.635 362.455L222.25 363.098L222.635 362.455ZM214.567 312.671L215.292 312.865L215.294 312.857L215.296 312.849L214.567 312.671ZM218.007 298.632L217.283 298.434L217.281 298.444L217.278 298.453L218.007 298.632ZM330.654 156.738L330.674 155.988L330.647 155.987L330.621 155.989L330.654 156.738ZM574.386 123.797L574.679 124.487L574.69 124.482L574.701 124.477L574.386 123.797ZM600.709 43.6984C601.813 45.6116 604.259 46.2672 606.173 45.1626C608.086 44.058 608.741 41.6117 607.637 39.6985C606.532 37.7853 604.086 37.1298 602.173 38.2344C600.259 39.3389 599.604 41.7853 600.709 43.6984ZM485.496 138.635L485.301 139.36L485.31 139.362L485.318 139.364L485.496 138.635ZM446.536 117.242L445.911 117.656L446.536 117.242ZM453.419 95.5866L453.308 94.8449L453.419 95.5866ZM350.67 157.249L350.749 156.503L350.719 156.5L350.69 156.499L350.67 157.249ZM440.013 145.436L440.396 146.081L440.403 146.077L440.411 146.072L440.013 145.436ZM471.01 113.582L471.729 113.796L471.01 113.582ZM458.094 94.8875L458.205 95.6293L458.094 94.8875ZM23.4492 375.81C23.2658 375.438 22.8161 375.286 22.4447 375.469C22.0733 375.653 21.9208 376.102 22.1042 376.474L23.4492 375.81ZM18.2218 365.946C18.3098 366.351 18.7093 366.608 19.114 366.52C19.5188 366.432 19.7755 366.032 19.6875 365.627L18.2218 365.946ZM19.9625 355.116C20.094 354.724 19.8823 354.299 19.4895 354.167C19.0968 354.036 18.6717 354.247 18.5402 354.64L19.9625 355.116ZM25.1739 345.469C24.8545 345.733 24.8094 346.206 25.0732 346.525C25.337 346.845 25.8097 346.89 26.1291 346.626L25.1739 345.469ZM35.4048 341.076C35.7823 340.906 35.9502 340.462 35.7797 340.084C35.6093 339.707 35.165 339.539 34.7875 339.709L35.4048 341.076ZM45.2481 335.855C44.8519 335.975 44.6283 336.394 44.7489 336.791C44.8695 337.187 45.2885 337.41 45.6847 337.29L45.2481 335.855ZM56.3141 334.511C56.7182 334.419 56.9717 334.018 56.8805 333.614C56.7892 333.21 56.3877 332.956 55.9837 333.048L56.3141 334.511ZM66.8785 330.872C66.4706 330.944 66.1984 331.334 66.2706 331.741C66.3428 332.149 66.7319 332.421 67.1398 332.349L66.8785 330.872ZM77.4294 330.766C77.8407 330.717 78.1345 330.344 78.0856 329.932C78.0367 329.521 77.6636 329.227 77.2523 329.276L77.4294 330.766ZM87.1056 328.459C86.6919 328.479 86.373 328.831 86.3934 329.245C86.4137 329.658 86.7655 329.977 87.1793 329.957L87.1056 328.459ZM96.9716 329.773C97.3858 329.777 97.725 329.445 97.7291 329.031C97.7333 328.616 97.4009 328.277 96.9867 328.273L96.9716 329.773ZM106.858 328.63C106.445 328.605 106.089 328.92 106.064 329.333C106.039 329.747 106.353 330.102 106.767 330.128L106.858 328.63ZM116.538 330.951C116.95 330.995 117.32 330.696 117.363 330.284C117.407 329.872 117.109 329.503 116.697 329.459L116.538 330.951ZM126.488 330.702C126.078 330.641 125.697 330.925 125.637 331.335C125.577 331.744 125.86 332.125 126.27 332.186L126.488 330.702ZM135.95 333.787C136.358 333.862 136.749 333.592 136.824 333.185C136.898 332.778 136.629 332.387 136.221 332.312L135.95 333.787ZM145.893 334.254C145.489 334.166 145.089 334.423 145.001 334.828C144.913 335.232 145.169 335.632 145.574 335.72L145.893 334.254ZM155.135 337.957C155.536 338.057 155.944 337.813 156.044 337.411C156.145 337.009 155.9 336.602 155.498 336.501L155.135 337.957ZM165.031 339.032C164.632 338.92 164.218 339.152 164.106 339.551C163.994 339.95 164.226 340.364 164.625 340.476L165.031 339.032ZM174.037 343.263C174.432 343.387 174.852 343.166 174.976 342.77C175.099 342.375 174.878 341.954 174.483 341.831L174.037 343.263ZM183.857 344.896C183.465 344.762 183.039 344.971 182.905 345.362C182.77 345.754 182.979 346.181 183.371 346.315L183.857 344.896ZM192.613 349.632C193.001 349.778 193.433 349.581 193.579 349.194C193.725 348.806 193.528 348.373 193.141 348.228L192.613 349.632ZM202.323 351.847C201.94 351.688 201.502 351.87 201.343 352.253C201.185 352.636 201.367 353.074 201.75 353.233L202.323 351.847ZM205.341 358.857C205.303 359.27 205.606 359.635 206.018 359.673C206.431 359.712 206.796 359.408 206.834 358.996L205.341 358.857ZM206.238 367.92C206.253 367.506 205.929 367.159 205.515 367.144C205.101 367.129 204.754 367.453 204.739 367.867L206.238 367.92ZM204.912 377.23C204.946 377.642 205.309 377.949 205.722 377.915C206.134 377.88 206.441 377.518 206.407 377.105L204.912 377.23ZM208.135 386.3C208.004 385.907 207.579 385.694 207.186 385.825C206.794 385.956 206.581 386.381 206.712 386.774L208.135 386.3ZM212.167 394.985C212.505 395.225 212.973 395.146 213.213 394.809C213.453 394.471 213.374 394.003 213.036 393.763L212.167 394.985ZM221.544 394.912C221.145 395.022 220.911 395.436 221.022 395.835C221.133 396.234 221.546 396.468 221.946 396.357L221.544 394.912ZM227.667 393.73C228.026 393.523 228.149 393.065 227.941 392.706C227.734 392.347 227.276 392.224 226.917 392.431L227.667 393.73ZM229.251 391.084C228.893 391.291 228.77 391.749 228.977 392.108C229.184 392.467 229.643 392.59 230.001 392.383L229.251 391.084ZM235.137 388.741C235.432 388.451 235.437 387.976 235.146 387.68C234.856 387.385 234.381 387.381 234.086 387.671L235.137 388.741ZM237.345 379.729C237.384 380.141 237.75 380.444 238.163 380.404C238.575 380.365 238.877 379.999 238.838 379.587L237.345 379.729ZM234.455 370.757C234.18 370.447 233.706 370.419 233.396 370.694C233.086 370.968 233.058 371.442 233.333 371.752L234.455 370.757ZM226.234 365.658C226.574 365.894 227.042 365.81 227.278 365.47C227.514 365.129 227.43 364.662 227.09 364.426L226.234 365.658ZM219.068 359.595C218.702 359.4 218.248 359.54 218.054 359.905C217.859 360.271 217.998 360.725 218.364 360.92L219.068 359.595ZM210.337 356.973C210.714 357.146 211.159 356.982 211.332 356.605C211.505 356.229 211.341 355.784 210.964 355.611L210.337 356.973ZM207.947 349.273C208.003 348.863 207.715 348.485 207.304 348.43C206.894 348.374 206.516 348.662 206.461 349.073L207.947 349.273ZM208.098 338.524C208.026 338.932 208.299 339.321 208.707 339.392C209.115 339.463 209.504 339.19 209.575 338.782L208.098 338.524ZM211.589 328.355C211.674 327.95 211.415 327.552 211.01 327.466C210.605 327.381 210.207 327.64 210.121 328.045L211.589 328.355ZM212.51 317.644C212.41 318.046 212.655 318.452 213.057 318.552C213.459 318.652 213.866 318.407 213.965 318.005L212.51 317.644ZM216.156 309.339C216.254 308.937 216.008 308.531 215.606 308.432C215.203 308.334 214.797 308.58 214.699 308.982L216.156 309.339ZM216.418 301.963C216.32 302.365 216.566 302.771 216.968 302.87C217.371 302.968 217.777 302.722 217.875 302.32L216.418 301.963ZM220.016 294.162C220.127 293.763 219.893 293.349 219.494 293.238C219.095 293.128 218.681 293.361 218.571 293.76L220.016 294.162ZM221.227 284.417C221.111 284.815 221.339 285.231 221.737 285.347C222.134 285.463 222.551 285.235 222.667 284.837L221.227 284.417ZM225.454 275.575C225.577 275.179 225.356 274.759 224.96 274.636C224.565 274.513 224.145 274.734 224.022 275.13L225.454 275.575ZM227.001 265.883C226.87 266.276 227.082 266.701 227.474 266.832C227.867 266.964 228.292 266.752 228.424 266.359L227.001 265.883ZM231.607 257.201C231.748 256.812 231.547 256.382 231.157 256.241C230.768 256.1 230.338 256.301 230.197 256.691L231.607 257.201ZM233.627 247.6C233.475 247.986 233.664 248.421 234.05 248.573C234.435 248.725 234.871 248.535 235.023 248.15L233.627 247.6ZM238.709 239.198C238.873 238.818 238.698 238.377 238.317 238.213C237.937 238.049 237.496 238.224 237.332 238.605L238.709 239.198ZM241.339 229.74C241.162 230.114 241.321 230.562 241.695 230.739C242.069 230.917 242.517 230.757 242.694 230.383L241.339 229.74ZM247.014 221.73C247.207 221.363 247.066 220.909 246.699 220.717C246.333 220.524 245.879 220.665 245.686 221.032L247.014 221.73ZM250.412 212.519C250.202 212.876 250.322 213.336 250.679 213.546C251.037 213.755 251.496 213.636 251.706 213.278L250.412 212.519ZM256.812 205.076C257.04 204.731 256.945 204.266 256.6 204.037C256.254 203.809 255.789 203.904 255.561 204.249L256.812 205.076ZM261.177 196.285C260.928 196.616 260.994 197.086 261.325 197.335C261.656 197.585 262.126 197.519 262.375 197.188L261.177 196.285ZM268.443 189.687C268.715 189.374 268.683 188.901 268.37 188.629C268.058 188.357 267.584 188.389 267.312 188.702L268.443 189.687ZM274.005 181.604C273.708 181.893 273.703 182.368 273.992 182.664C274.281 182.961 274.756 182.966 275.053 182.677L274.005 181.604ZM282.241 176.268C282.563 176.008 282.613 175.535 282.352 175.213C282.091 174.892 281.619 174.842 281.297 175.103L282.241 176.268ZM289.193 169.346C288.846 169.572 288.748 170.037 288.974 170.384C289.2 170.731 289.665 170.829 290.012 170.603L289.193 169.346ZM298.345 165.82C298.716 165.635 298.866 165.184 298.681 164.814C298.495 164.443 298.045 164.293 297.674 164.478L298.345 165.82ZM306.67 160.635C306.28 160.775 306.077 161.204 306.216 161.594C306.355 161.984 306.785 162.187 307.175 162.048L306.67 160.635ZM316.398 159.376C316.802 159.285 317.056 158.884 316.965 158.48C316.874 158.076 316.473 157.822 316.069 157.912L316.398 159.376ZM325.719 156.347C325.307 156.389 325.007 156.757 325.049 157.169C325.091 157.581 325.459 157.881 325.871 157.839L325.719 156.347ZM335.639 157.615C336.053 157.626 336.398 157.299 336.408 156.885C336.419 156.471 336.092 156.127 335.678 156.116L335.639 157.615ZM345.686 156.372C345.272 156.361 344.927 156.688 344.917 157.102C344.906 157.516 345.233 157.861 345.647 157.871L345.686 156.372ZM355.148 158.408C355.561 158.44 355.921 158.131 355.953 157.718C355.985 157.305 355.676 156.944 355.264 156.912L355.148 158.408ZM364.359 157.42C363.945 157.405 363.598 157.729 363.583 158.143C363.568 158.556 363.891 158.904 364.305 158.919L364.359 157.42ZM373.458 159.085C373.872 159.085 374.208 158.749 374.208 158.335C374.208 157.921 373.872 157.585 373.458 157.585L373.458 159.085ZM382.564 157.425C382.15 157.44 381.827 157.787 381.842 158.201C381.856 158.615 382.204 158.939 382.618 158.924L382.564 157.425ZM391.768 158.422C392.181 158.391 392.491 158.031 392.46 157.618C392.429 157.205 392.069 156.895 391.656 156.926L391.768 158.422ZM400.715 156.048C400.303 156.098 400.01 156.471 400.06 156.882C400.109 157.294 400.482 157.587 400.894 157.537L400.715 156.048ZM409.97 156.207C410.378 156.135 410.651 155.747 410.579 155.339C410.508 154.931 410.119 154.658 409.711 154.729L409.97 156.207ZM418.6 152.874C418.197 152.973 417.952 153.379 418.05 153.782C418.149 154.184 418.555 154.43 418.958 154.331L418.6 152.874ZM427.789 151.761C428.181 151.627 428.39 151.201 428.256 150.809C428.121 150.417 427.695 150.208 427.303 150.342L427.789 151.761ZM435.669 146.921C435.297 147.103 435.142 147.552 435.324 147.924C435.505 148.296 435.954 148.451 436.327 148.269L435.669 146.921ZM445.954 142.535C446.3 142.307 446.396 141.842 446.168 141.496C445.94 141.15 445.475 141.055 445.129 141.282L445.954 142.535ZM455.612 133.562C455.296 133.829 455.256 134.302 455.523 134.619C455.791 134.935 456.264 134.975 456.58 134.707L455.612 133.562ZM466.515 133.222C466.895 133.385 467.336 133.208 467.5 132.828C467.663 132.447 467.486 132.006 467.106 131.843L466.515 133.222ZM479.388 136.16C478.991 136.043 478.574 136.271 478.458 136.668C478.341 137.065 478.568 137.482 478.966 137.599L479.388 136.16ZM489.849 140.266C490.259 140.331 490.643 140.052 490.707 139.642C490.772 139.233 490.493 138.849 490.084 138.784L489.849 140.266ZM499.085 139.608C498.671 139.595 498.324 139.919 498.31 140.333C498.297 140.747 498.621 141.094 499.035 141.108L499.085 139.608ZM508.232 140.982C508.646 140.959 508.962 140.605 508.939 140.191C508.916 139.777 508.562 139.461 508.148 139.484L508.232 140.982ZM517.191 138.658C516.78 138.709 516.488 139.083 516.539 139.494C516.59 139.905 516.964 140.197 517.375 140.146L517.191 138.658ZM526.444 138.764C526.851 138.691 527.123 138.301 527.05 137.893C526.977 137.486 526.587 137.214 526.179 137.287L526.444 138.764ZM535.098 135.477C534.694 135.568 534.441 135.97 534.532 136.374C534.623 136.778 535.025 137.031 535.429 136.94L535.098 135.477ZM544.326 134.744C544.726 134.637 544.964 134.226 544.857 133.826C544.75 133.425 544.339 133.188 543.938 133.295L544.326 134.744ZM552.693 130.783C552.297 130.905 552.074 131.324 552.196 131.72C552.317 132.116 552.736 132.339 553.132 132.218L552.693 130.783ZM561.836 129.382C562.227 129.247 562.435 128.82 562.3 128.428C562.164 128.037 561.737 127.829 561.346 127.965L561.836 129.382ZM569.895 124.818C569.509 124.969 569.32 125.405 569.471 125.79C569.622 126.176 570.058 126.366 570.443 126.214L569.895 124.818ZM578.894 122.483C579.266 122.301 579.42 121.852 579.238 121.48C579.057 121.108 578.608 120.953 578.235 121.135L578.894 122.483ZM586.422 116.897C586.059 117.097 585.927 117.553 586.127 117.916C586.326 118.279 586.782 118.411 587.145 118.212L586.422 116.897ZM595.153 113.489C595.503 113.267 595.606 112.804 595.384 112.454C595.162 112.104 594.699 112.001 594.349 112.223L595.153 113.489ZM601.897 106.999C601.567 107.249 601.502 107.72 601.753 108.049C602.004 108.379 602.474 108.444 602.804 108.193L601.897 106.999ZM609.913 102.145C610.211 101.858 610.22 101.383 609.933 101.085C609.645 100.786 609.171 100.778 608.872 101.065L609.913 102.145ZM614.913 94.2411C614.667 94.5747 614.739 95.0442 615.072 95.2897C615.406 95.5353 615.875 95.4638 616.121 95.1303L614.913 94.2411ZM620.788 86.9662C620.946 86.5832 620.763 86.1449 620.38 85.9871C619.997 85.8293 619.559 86.0119 619.401 86.3949L620.788 86.9662ZM621.519 77.6722C621.487 78.0852 621.795 78.4461 622.208 78.4784C622.621 78.5106 622.982 78.202 623.014 77.7891L621.519 77.6722ZM622.251 68.3843C622.156 67.9812 621.752 67.7317 621.349 67.8269C620.945 67.9222 620.696 68.3262 620.791 68.7293L622.251 68.3843ZM617.616 60.2626C617.805 60.6317 618.256 60.7783 618.625 60.5901C618.994 60.402 619.141 59.9503 618.953 59.5813L617.616 60.2626ZM613.974 51.6379C613.728 51.3052 613.258 51.2354 612.925 51.4821C612.592 51.7288 612.523 52.1985 612.769 52.5312L613.974 51.6379ZM606.869 45.513C607.152 45.8151 607.627 45.8303 607.929 45.5469C608.231 45.2635 608.246 44.7889 607.963 44.4867L606.869 45.513ZM457.217 126.578C456.872 126.348 456.406 126.44 456.176 126.785C455.946 127.129 456.039 127.595 456.383 127.825L457.217 126.578ZM448.939 121.521C449.218 121.827 449.693 121.848 449.999 121.569C450.304 121.29 450.326 120.815 450.047 120.509L448.939 121.521ZM444.481 110.837C444.386 110.434 443.982 110.184 443.579 110.279C443.176 110.374 442.926 110.778 443.021 111.181L444.481 110.837ZM446.789 97.8855C446.481 98.162 446.455 98.6362 446.732 98.9446C447.008 99.253 447.482 99.2788 447.791 99.0022L446.789 97.8855ZM454.699 96.1536C455.108 96.0924 455.391 95.7106 455.329 95.3009C455.268 94.8913 454.886 94.6089 454.477 94.6701L454.699 96.1536ZM456.814 94.3206C456.405 94.3818 456.122 94.7636 456.184 95.1732C456.245 95.5829 456.627 95.8653 457.036 95.8041L456.814 94.3206ZM464.475 96.5074C464.851 96.6817 465.297 96.5183 465.471 96.1425C465.645 95.7667 465.482 95.3208 465.106 95.1466L464.475 96.5074ZM472.599 106.759C472.572 106.345 472.215 106.032 471.802 106.059C471.388 106.086 471.075 106.443 471.102 106.856L472.599 106.759ZM468.609 117.734C468.432 118.108 468.591 118.555 468.965 118.733C469.339 118.91 469.787 118.751 469.964 118.377L468.609 117.734ZM464.69 126.583C464.952 126.262 464.904 125.789 464.583 125.527C464.263 125.266 463.79 125.313 463.528 125.634L464.69 126.583ZM26.0426 380.636C25.0866 378.98 24.2202 377.371 23.4492 375.81L22.1042 376.474C22.8915 378.069 23.7736 379.705 24.7435 381.386L26.0426 380.636ZM19.6875 365.627C18.8467 361.76 18.904 358.276 19.9625 355.116L18.5402 354.64C17.3767 358.113 17.3379 361.881 18.2218 365.946L19.6875 365.627ZM26.1291 346.626C28.5276 344.645 31.594 342.797 35.4048 341.076L34.7875 339.709C30.889 341.469 27.7003 343.383 25.1739 345.469L26.1291 346.626ZM45.6847 337.29C48.8987 336.312 52.436 335.387 56.3141 334.511L55.9837 333.048C52.0759 333.93 48.5026 334.865 45.2481 335.855L45.6847 337.29ZM67.1398 332.349C68.9009 332.038 70.7168 331.733 72.5883 331.436L72.353 329.955C70.4733 330.253 68.6488 330.559 66.8785 330.872L67.1398 332.349ZM72.5883 331.436C74.1867 331.182 75.801 330.959 77.4294 330.766L77.2523 329.276C75.6052 329.472 73.9715 329.698 72.353 329.955L72.5883 331.436ZM87.1793 329.957C90.4081 329.798 93.6764 329.74 96.9716 329.773L96.9867 328.273C93.6638 328.24 90.366 328.298 87.1056 328.459L87.1793 329.957ZM106.767 330.128C110.014 330.327 113.275 330.604 116.538 330.951L116.697 329.459C113.413 329.11 110.129 328.831 106.858 328.63L106.767 330.128ZM126.27 332.186C129.51 332.661 132.74 333.198 135.95 333.787L136.221 332.312C132.994 331.719 129.746 331.18 126.488 330.702L126.27 332.186ZM145.574 335.72C148.798 336.422 151.989 337.171 155.135 337.957L155.498 336.501C152.339 335.712 149.133 334.96 145.893 334.254L145.574 335.72ZM164.625 340.476C167.832 341.377 170.973 342.309 174.037 343.263L174.483 341.831C171.406 340.873 168.251 339.937 165.031 339.032L164.625 340.476ZM183.371 346.315C186.574 347.412 189.661 348.523 192.613 349.632L193.141 348.228C190.175 347.113 187.074 345.998 183.857 344.896L183.371 346.315ZM201.75 353.233C203.305 353.876 204.806 354.514 206.249 355.143L206.848 353.768C205.397 353.135 203.887 352.494 202.323 351.847L201.75 353.233ZM205.803 354.371C205.628 355.921 205.474 357.418 205.341 358.857L206.834 358.996C206.967 357.567 207.12 356.08 207.294 354.54L205.803 354.371ZM204.739 367.867C204.68 369.522 204.662 371.037 204.682 372.397L206.182 372.375C206.162 371.044 206.18 369.554 206.238 367.92L204.739 367.867ZM204.682 372.397C204.708 374.113 204.786 375.722 204.912 377.23L206.407 377.105C206.284 375.634 206.208 374.059 206.182 372.375L204.682 372.397ZM206.712 386.774C208.022 390.705 209.903 393.375 212.167 394.985L213.036 393.763C211.102 392.387 209.375 390.022 208.135 386.3L206.712 386.774ZM221.946 396.357C223.497 395.926 225.032 395.252 226.5 394.404L225.75 393.105C224.373 393.9 222.955 394.52 221.544 394.912L221.946 396.357ZM226.5 394.404L227.667 393.73L226.917 392.431L225.75 393.105L226.5 394.404ZM230.001 392.383L231.169 391.709L230.419 390.41L229.251 391.084L230.001 392.383ZM231.169 391.709C232.637 390.861 233.988 389.869 235.137 388.741L234.086 387.671C233.041 388.696 231.795 389.615 230.419 390.41L231.169 391.709ZM238.838 379.587C238.576 376.822 237.205 373.857 234.455 370.757L233.333 371.752C235.937 374.688 237.121 377.366 237.345 379.729L238.838 379.587ZM227.09 364.426C225.847 363.563 224.492 362.691 223.019 361.811L222.25 363.098C223.696 363.963 225.022 364.816 226.234 365.658L227.09 364.426ZM223.019 361.811C221.851 361.113 220.53 360.371 219.068 359.595L218.364 360.92C219.808 361.686 221.107 362.415 222.25 363.098L223.019 361.811ZM210.964 355.611C209.651 355.006 208.278 354.391 206.848 353.768L206.249 355.143C207.669 355.762 209.034 356.373 210.337 356.973L210.964 355.611ZM207.294 354.54C207.491 352.794 207.709 351.037 207.947 349.273L206.461 349.073C206.221 350.847 206.001 352.615 205.803 354.371L207.294 354.54ZM209.575 338.782C210.186 335.282 210.862 331.794 211.589 328.355L210.121 328.045C209.391 331.5 208.712 335.006 208.098 338.524L209.575 338.782ZM213.965 318.005C214.397 316.265 214.84 314.55 215.292 312.865L213.843 312.476C213.389 314.17 212.944 315.895 212.51 317.644L213.965 318.005ZM215.296 312.849L216.156 309.339L214.699 308.982L213.839 312.492L215.296 312.849ZM217.875 302.32L218.735 298.81L217.278 298.453L216.418 301.963L217.875 302.32ZM218.73 298.83C219.143 297.321 219.571 295.764 220.016 294.162L218.571 293.76C218.125 295.365 217.696 296.924 217.283 298.434L218.73 298.83ZM222.667 284.837C223.539 281.846 224.467 278.751 225.454 275.575L224.022 275.13C223.031 278.315 222.101 281.419 221.227 284.417L222.667 284.837ZM228.424 266.359C229.43 263.349 230.489 260.29 231.607 257.201L230.197 256.691C229.074 259.792 228.011 262.863 227.001 265.883L228.424 266.359ZM235.023 248.15C236.195 245.173 237.423 242.184 238.709 239.198L237.332 238.605C236.038 241.606 234.804 244.61 233.627 247.6L235.023 248.15ZM242.694 230.383C244.073 227.476 245.512 224.587 247.014 221.73L245.686 221.032C244.174 223.908 242.726 226.816 241.339 229.74L242.694 230.383ZM251.706 213.278C253.34 210.493 255.041 207.754 256.812 205.076L255.561 204.249C253.774 206.951 252.059 209.712 250.412 212.519L251.706 213.278ZM262.375 197.188C264.322 194.604 266.343 192.099 268.443 189.687L267.312 188.702C265.187 191.142 263.144 193.675 261.177 196.285L262.375 197.188ZM275.053 182.677C277.363 180.422 279.758 178.28 282.241 176.268L281.297 175.103C278.776 177.146 276.346 179.318 274.005 181.604L275.053 182.677ZM290.012 170.603C292.695 168.856 295.471 167.256 298.345 165.82L297.674 164.478C294.748 165.941 291.922 167.57 289.193 169.346L290.012 170.603ZM307.175 162.048C310.152 160.984 313.225 160.088 316.398 159.376L316.069 157.912C312.836 158.638 309.704 159.551 306.67 160.635L307.175 162.048ZM325.871 157.839C327.454 157.678 329.059 157.56 330.688 157.487L330.621 155.989C328.964 156.063 327.33 156.182 325.719 156.347L325.871 157.839ZM330.635 157.488L335.639 157.615L335.678 156.116L330.674 155.988L330.635 157.488ZM345.647 157.871L350.651 157.999L350.69 156.499L345.686 156.372L345.647 157.871ZM350.592 157.995C351.988 158.142 353.512 158.281 355.148 158.408L355.264 156.912C353.641 156.786 352.13 156.649 350.749 156.503L350.592 157.995ZM364.305 158.919C367.192 159.023 370.26 159.083 373.458 159.085L373.458 157.585C370.279 157.584 367.229 157.524 364.359 157.42L364.305 158.919ZM382.618 158.924C385.616 158.817 388.679 158.653 391.768 158.422L391.656 156.926C388.587 157.156 385.545 157.319 382.564 157.425L382.618 158.924ZM400.894 157.537C403.937 157.172 406.974 156.731 409.97 156.207L409.711 154.729C406.744 155.249 403.734 155.685 400.715 156.048L400.894 157.537ZM418.958 154.331C421.997 153.584 424.955 152.732 427.789 151.761L427.303 150.342C424.516 151.296 421.602 152.137 418.6 152.874L418.958 154.331ZM436.327 148.269C437.736 147.582 439.095 146.853 440.396 146.081L439.63 144.791C438.367 145.541 437.045 146.25 435.669 146.921L436.327 148.269ZM440.411 146.072C442.117 145.005 443.994 143.826 445.954 142.535L445.129 141.282C443.184 142.563 441.321 143.734 439.615 144.8L440.411 146.072ZM456.58 134.707C458.255 133.292 459.892 131.792 461.443 130.204L460.37 129.156C458.857 130.704 457.256 132.172 455.612 133.562L456.58 134.707ZM460.547 130.338C462.495 131.403 464.499 132.358 466.515 133.222L467.106 131.843C465.127 130.995 463.167 130.06 461.266 129.022L460.547 130.338ZM478.966 137.599C481.218 138.26 483.357 138.838 485.301 139.36L485.69 137.911C483.747 137.39 481.623 136.815 479.388 136.16L478.966 137.599ZM485.318 139.364C486.788 139.721 488.301 140.021 489.849 140.266L490.084 138.784C488.572 138.545 487.1 138.254 485.673 137.906L485.318 139.364ZM499.035 141.108C502.029 141.207 505.107 141.157 508.232 140.982L508.148 139.484C505.061 139.657 502.029 139.706 499.085 139.608L499.035 141.108ZM517.375 140.146C520.394 139.772 523.426 139.304 526.444 138.764L526.179 137.287C523.186 137.824 520.18 138.287 517.191 138.658L517.375 140.146ZM535.429 136.94C538.451 136.258 541.427 135.519 544.326 134.744L543.938 133.295C541.057 134.065 538.1 134.799 535.098 135.477L535.429 136.94ZM553.132 132.218C556.19 131.281 559.106 130.326 561.836 129.382L561.346 127.965C558.632 128.903 555.733 129.852 552.693 130.783L553.132 132.218ZM570.443 126.214C571.97 125.615 573.387 125.036 574.679 124.487L574.093 123.107C572.814 123.65 571.41 124.223 569.895 124.818L570.443 126.214ZM574.701 124.477C576.118 123.821 577.516 123.156 578.894 122.483L578.235 121.135C576.867 121.803 575.478 122.464 574.07 123.116L574.701 124.477ZM587.145 118.212C589.934 116.678 592.609 115.104 595.153 113.489L594.349 112.223C591.835 113.819 589.186 115.377 586.422 116.897L587.145 118.212ZM602.804 108.193C605.38 106.236 607.76 104.221 609.913 102.145L608.872 101.065C606.767 103.094 604.433 105.072 601.897 106.999L602.804 108.193ZM616.121 95.1303C618.055 92.5026 619.628 89.7824 620.788 86.9662L619.401 86.3949C618.293 89.0839 616.784 91.6983 614.913 94.2411L616.121 95.1303ZM623.014 77.7891C623.253 74.7424 623.013 71.6076 622.251 68.3843L620.791 68.7293C621.519 71.807 621.745 74.786 621.519 77.6722L623.014 77.7891ZM618.953 59.5813C617.629 56.9853 615.976 54.3381 613.974 51.6379L612.769 52.5312C614.727 55.1723 616.335 57.749 617.616 60.2626L618.953 59.5813ZM607.963 44.4867C606.931 43.387 605.843 42.2786 604.696 41.1613L603.649 42.2356C604.78 43.338 605.853 44.4304 606.869 45.513L607.963 44.4867ZM461.266 129.022C459.878 128.264 458.523 127.451 457.217 126.578L456.383 127.825C457.73 128.725 459.124 129.561 460.547 130.338L461.266 129.022ZM450.047 120.509C448.995 119.357 448.027 118.131 447.161 116.827L445.911 117.656C446.823 119.029 447.839 120.315 448.939 121.521L450.047 120.509ZM447.161 116.827C445.799 114.776 444.934 112.757 444.481 110.837L443.021 111.181C443.518 113.289 444.46 115.471 445.911 117.656L447.161 116.827ZM447.791 99.0022C449.348 97.6057 451.316 96.6594 453.53 96.3284L453.308 94.8449C450.805 95.2191 448.566 96.2923 446.789 97.8855L447.791 99.0022ZM453.53 96.3284L454.699 96.1536L454.477 94.6701L453.308 94.8449L453.53 96.3284ZM457.036 95.8041L458.205 95.6293L457.983 94.1458L456.814 94.3206L457.036 95.8041ZM458.205 95.6293C460.419 95.2982 462.578 95.6275 464.475 96.5074L465.106 95.1466C462.941 94.1428 460.486 93.7715 457.983 94.1458L458.205 95.6293ZM471.102 106.856C471.231 108.824 470.994 111.009 470.292 113.368L471.729 113.796C472.478 111.282 472.74 108.919 472.599 106.759L471.102 106.856ZM470.292 113.368C469.845 114.869 469.278 116.324 468.609 117.734L469.964 118.377C470.664 116.902 471.259 115.375 471.729 113.796L470.292 113.368ZM463.528 125.634C462.535 126.851 461.476 128.025 460.37 129.156L461.443 130.204C462.577 129.045 463.665 127.838 464.69 126.583L463.528 125.634Z" fill="#72B5BF"/>
<path d="M253.104 168.007C253.344 167.871 253.429 167.566 253.292 167.325C253.156 167.085 252.851 167.001 252.611 167.137L253.104 168.007ZM250.377 190.702L250.766 190.388L250.766 190.388L250.377 190.702ZM271.453 180.509L271.052 180.211L271.453 180.509ZM270.378 169.524L270.82 169.758L270.378 169.524ZM278.033 168.071L278.531 168.114L278.033 168.071ZM255.98 137.083L256.318 137.452L255.98 137.083ZM256.258 167.29L256.496 166.85L256.484 166.844L256.471 166.837L256.258 167.29ZM258.889 169.68C258.948 171.152 260.189 172.297 261.661 172.238C263.132 172.179 264.277 170.938 264.218 169.466C264.159 167.995 262.919 166.85 261.447 166.909C259.975 166.968 258.83 168.208 258.889 169.68ZM272.921 147L273.336 146.722L272.921 147ZM283.358 165.169L282.884 165.009L283.358 165.169ZM283.396 143.479L282.927 143.651L283.396 143.479ZM269.3 129.75L269.062 129.311L269.3 129.75ZM263.835 136.381C263.711 136.628 263.811 136.928 264.058 137.052C264.305 137.176 264.606 137.076 264.729 136.829L263.835 136.381ZM279.429 170.657C279.176 170.766 279.059 171.06 279.168 171.314C279.277 171.568 279.571 171.684 279.825 171.575L279.429 170.657ZM252.611 167.137C251.034 168.032 249.881 169.728 249.08 171.752C248.275 173.786 247.801 176.211 247.623 178.657C247.445 181.105 247.563 183.594 247.955 185.762C248.344 187.915 249.015 189.809 249.988 191.016L250.766 190.388C249.949 189.374 249.317 187.675 248.939 185.584C248.563 183.507 248.448 181.103 248.621 178.73C248.793 176.356 249.252 174.035 250.01 172.12C250.771 170.196 251.811 168.741 253.104 168.007L252.611 167.137ZM249.988 191.016C251.009 192.281 252.53 192.791 254.262 192.738C255.985 192.686 257.958 192.08 259.991 191.069C264.06 189.044 268.493 185.332 271.854 180.807L271.052 180.211C267.774 184.622 263.459 188.226 259.545 190.173C257.586 191.148 255.759 191.692 254.232 191.739C252.714 191.785 251.535 191.342 250.766 190.388L249.988 191.016ZM271.854 180.807C273.36 178.781 274.252 176.903 274.697 175.238L273.73 174.98C273.323 176.504 272.494 178.269 271.052 180.211L271.854 180.807ZM274.697 175.238C275.473 172.332 274.889 170.042 273.78 168.832C273.227 168.229 272.512 167.87 271.772 167.93C271.017 167.992 270.366 168.477 269.936 169.29L270.82 169.758C271.131 169.17 271.517 168.954 271.853 168.927C272.204 168.899 272.636 169.064 273.043 169.508C273.854 170.394 274.447 172.296 273.73 174.98L274.697 175.238ZM269.936 169.29C269.681 169.772 269.751 170.407 269.913 170.975C270.084 171.575 270.396 172.235 270.796 172.859C271.196 173.484 271.695 174.092 272.25 174.58C272.801 175.064 273.436 175.454 274.109 175.598L274.318 174.62C273.871 174.524 273.387 174.248 272.91 173.828C272.436 173.413 271.997 172.88 271.638 172.32C271.279 171.758 271.013 171.187 270.874 170.701C270.727 170.183 270.756 169.879 270.82 169.758L269.936 169.29ZM274.109 175.598C274.616 175.706 275.143 175.673 275.649 175.437C276.152 175.203 276.597 174.787 276.977 174.193C277.728 173.02 278.277 171.074 278.531 168.114L277.534 168.029C277.285 170.939 276.753 172.688 276.135 173.654C275.83 174.13 275.518 174.395 275.227 174.53C274.941 174.663 274.639 174.688 274.318 174.62L274.109 175.598ZM255.643 136.714C255.107 137.204 254.603 138.005 254.142 138.986C253.676 139.977 253.234 141.195 252.837 142.558C252.045 145.287 251.428 148.634 251.185 151.994C250.941 155.349 251.068 158.746 251.783 161.563C252.494 164.367 253.816 166.697 256.046 167.743L256.471 166.837C254.64 165.979 253.433 164.004 252.752 161.317C252.073 158.642 251.943 155.362 252.182 152.066C252.421 148.774 253.026 145.496 253.798 142.837C254.184 141.508 254.609 140.342 255.047 139.411C255.49 138.469 255.927 137.809 256.318 137.452L255.643 136.714ZM256.021 167.73C257.84 168.713 260.358 169.683 261.388 170.045L261.72 169.101C260.707 168.745 258.247 167.796 256.496 166.85L256.021 167.73ZM278.531 168.114C278.682 166.351 278.54 162.738 277.791 158.715C277.042 154.694 275.674 150.203 273.336 146.722L272.506 147.279C274.736 150.6 276.07 154.938 276.808 158.898C277.545 162.858 277.676 166.379 277.534 168.029L278.531 168.114ZM273.336 146.722C270.443 142.413 266.655 139.408 263.316 137.716C261.648 136.87 260.075 136.344 258.767 136.154C257.497 135.969 256.333 136.082 255.643 136.714L256.318 137.452C256.655 137.143 257.412 136.967 258.623 137.143C259.796 137.314 261.264 137.797 262.864 138.608C266.06 140.228 269.715 143.122 272.506 147.279L273.336 146.722ZM283.832 165.329C284.397 163.654 285.117 160.112 285.345 156.027C285.572 151.941 285.31 147.252 283.866 143.307L282.927 143.651C284.304 147.414 284.57 151.949 284.346 155.971C284.122 159.993 283.413 163.442 282.884 165.009L283.832 165.329ZM283.866 143.307C282.079 138.425 279.114 134.591 276.275 132.14C274.856 130.916 273.454 130.024 272.229 129.523C271.04 129.037 269.883 128.864 269.062 129.311L269.539 130.189C269.939 129.972 270.715 129.984 271.85 130.449C272.949 130.898 274.26 131.723 275.621 132.897C278.341 135.245 281.203 138.939 282.927 143.651L283.866 143.307ZM269.062 129.311C268.262 129.745 267.385 130.674 266.512 131.874C265.627 133.09 264.707 134.639 263.835 136.381L264.729 136.829C265.583 135.122 266.476 133.623 267.321 132.462C268.177 131.286 268.946 130.512 269.539 130.189L269.062 129.311ZM279.825 171.575C280.538 171.268 281.224 170.625 281.881 169.623C282.541 168.617 283.196 167.214 283.832 165.329L282.884 165.009C282.264 166.847 281.642 168.164 281.045 169.074C280.445 169.988 279.894 170.457 279.429 170.657L279.825 171.575Z" fill="#026A67"/>
</svg>
