<svg width="230" height="91" viewBox="0 0 230 91" fill="none" xmlns="http://www.w3.org/2000/svg">
<path d="M198.423 56.9216L198.716 57.6119L198.727 57.6072L198.738 57.6021L198.423 56.9216ZM213.624 4C213.624 6.20914 215.414 8 217.624 8C219.833 8 221.624 6.20914 221.624 4C221.624 1.79086 219.833 0 217.624 0C215.414 0 213.624 1.79086 213.624 4ZM141.123 66.4866L140.929 67.211L140.937 67.2133L140.946 67.2154L141.123 66.4866ZM116.009 52.696L115.384 53.1109L115.384 53.1109L116.009 52.696ZM120.446 38.737L120.335 37.9952L120.335 37.9952L120.446 38.737ZM0 86.5C0 88.7091 1.79086 90.5 4 90.5C6.20914 90.5 8 88.7091 8 86.5C8 84.2909 6.20914 82.5 4 82.5C1.79086 82.5 0 84.2909 0 86.5ZM109.5 71.5L109.635 72.2378L109.5 71.5ZM131.786 50.337L132.504 50.5509L132.504 50.5509L131.786 50.337ZM123.46 38.2863L123.57 39.0281L123.57 39.0281L123.46 38.2863ZM128.783 63.242C129.163 63.4052 129.604 63.2288 129.767 62.848C129.93 62.4673 129.754 62.0264 129.373 61.8633L128.783 63.242ZM137.261 64.6351C136.864 64.5184 136.447 64.746 136.33 65.1435C136.214 65.5409 136.441 65.9577 136.839 66.0744L137.261 64.6351ZM145.868 68.0668C146.28 68.1125 146.65 67.8158 146.696 67.4042C146.742 66.9925 146.445 66.6217 146.034 66.5759L145.868 68.0668ZM155.71 66.7677C155.296 66.7909 154.98 67.1449 155.003 67.5585C155.026 67.9721 155.38 68.2885 155.794 68.2654L155.71 66.7677ZM165.618 67.1641C166.027 67.0979 166.305 66.7128 166.239 66.3039C166.173 65.895 165.788 65.6172 165.379 65.6834L165.618 67.1641ZM174.94 63.7477C174.538 63.8444 174.29 64.2493 174.386 64.652C174.483 65.0548 174.888 65.3029 175.291 65.2062L174.94 63.7477ZM184.8 62.6047C185.196 62.4834 185.419 62.064 185.298 61.6679C185.177 61.2719 184.757 61.0491 184.361 61.1704L184.8 62.6047ZM193.61 58.0305C193.222 58.1761 193.026 58.6085 193.171 58.9963C193.317 59.3841 193.749 59.5804 194.137 59.4348L193.61 58.0305ZM202.792 55.647C203.163 55.4611 203.312 55.0104 203.126 54.6402C202.94 54.2701 202.489 54.1207 202.119 54.3066L202.792 55.647ZM209.889 50.0197C209.536 50.2356 209.424 50.6972 209.64 51.0507C209.856 51.4042 210.317 51.5158 210.671 51.2999L209.889 50.0197ZM218.094 46.146C218.418 45.8871 218.47 45.4151 218.211 45.0918C217.952 44.7685 217.48 44.7163 217.157 44.9753L218.094 46.146ZM223.438 38.8652C223.177 39.1864 223.225 39.6588 223.547 39.9203C223.868 40.1818 224.34 40.1333 224.602 39.8121L223.438 38.8652ZM229.117 31.831C229.247 31.4375 229.032 31.0137 228.639 30.8845C228.245 30.7552 227.821 30.9695 227.692 31.363L229.117 31.831ZM228.356 22.8909C228.422 23.2999 228.807 23.5779 229.216 23.512C229.625 23.4461 229.903 23.0611 229.837 22.6522L228.356 22.8909ZM226.656 14.0532C226.451 13.6936 225.993 13.5688 225.633 13.7745C225.274 13.9801 225.149 14.4383 225.354 14.7979L226.656 14.0532ZM220.174 7.74201C220.45 8.05125 220.924 8.07855 221.233 7.80297C221.542 7.52739 221.57 7.0533 221.294 6.74406L220.174 7.74201ZM123.042 58.4927C122.698 58.2626 122.232 58.3551 122.002 58.6995C121.771 59.0438 121.864 59.5096 122.208 59.7398L123.042 58.4927ZM117.361 55.6341C117.64 55.94 118.115 55.9617 118.421 55.6824C118.727 55.4031 118.748 54.9287 118.469 54.6228L117.361 55.6341ZM114.944 48.5065C114.849 48.1033 114.445 47.8536 114.042 47.9486C113.639 48.0437 113.389 48.4476 113.484 48.8508L114.944 48.5065ZM115.994 40.0204C115.686 40.2969 115.66 40.7711 115.937 41.0795C116.213 41.3879 116.687 41.4137 116.996 41.1372L115.994 40.0204ZM121.31 39.3661C121.72 39.3048 122.002 38.9231 121.941 38.5134C121.88 38.1038 121.498 37.8213 121.088 37.8826L121.31 39.3661ZM122.595 37.6573C122.186 37.7185 121.903 38.1003 121.964 38.5099C122.026 38.9196 122.407 39.202 122.817 39.1408L122.595 37.6573ZM127.461 39.5724C127.837 39.7466 128.282 39.5832 128.457 39.2074C128.631 38.8316 128.468 38.3857 128.092 38.2115L127.461 39.5724ZM133.075 45.9212C133.048 45.5079 132.691 45.1947 132.278 45.2218C131.865 45.2488 131.552 45.6058 131.579 46.0191L133.075 45.9212ZM129.997 52.8991C129.819 53.2733 129.979 53.7206 130.353 53.8982C130.727 54.0757 131.174 53.9163 131.352 53.5421L129.997 52.8991ZM127.918 58.8861C128.18 58.5652 128.132 58.0928 127.811 57.8308C127.49 57.5688 127.018 57.6166 126.756 57.9374L127.918 58.8861ZM7.26817 83.1209C7.52501 82.7959 7.46978 82.3243 7.14481 82.0674C6.81983 81.8106 6.34818 81.8658 6.09134 82.1908L7.26817 83.1209ZM12.8958 75.5507C12.564 75.7986 12.4959 76.2685 12.7437 76.6004C12.9916 76.9323 13.4615 77.0004 13.7934 76.7525L12.8958 75.5507ZM21.7506 72.2631C22.1333 72.1046 22.3151 71.6658 22.1566 71.2831C21.9981 70.9005 21.5594 70.7187 21.1767 70.8772L21.7506 72.2631ZM30.2563 68.1668C29.8502 68.2481 29.5869 68.6433 29.6682 69.0495C29.7495 69.4556 30.1447 69.7189 30.5509 69.6376L30.2563 68.1668ZM39.7208 68.4874C40.1343 68.4622 40.449 68.1066 40.4239 67.6932C40.3987 67.2797 40.0431 66.9649 39.6297 66.9901L39.7208 68.4874ZM49.0406 66.8767C48.6265 66.8641 48.2807 67.1896 48.2682 67.6036C48.2557 68.0176 48.5812 68.3634 48.9952 68.376L49.0406 66.8767ZM58.2843 68.9466C58.6969 68.9829 59.0608 68.6777 59.097 68.2651C59.1332 67.8525 58.8281 67.4886 58.4155 67.4524L58.2843 68.9466ZM67.7362 68.4338C67.3249 68.385 66.9519 68.6788 66.903 69.0901C66.8542 69.5015 67.1481 69.8745 67.5594 69.9233L67.7362 68.4338ZM76.8316 71.0735C77.2426 71.1249 77.6175 70.8335 77.669 70.4225C77.7205 70.0115 77.429 69.6366 77.018 69.5851L76.8316 71.0735ZM86.292 70.6736C85.88 70.6305 85.5112 70.9296 85.4681 71.3416C85.4251 71.7536 85.7242 72.1224 86.1362 72.1654L86.292 70.6736ZM95.5008 72.9064C95.9146 72.9255 96.2655 72.6056 96.2846 72.1918C96.3037 71.778 95.9838 71.4271 95.57 71.408L95.5008 72.9064ZM104.821 71.3354C104.408 71.3672 104.099 71.7277 104.131 72.1407C104.163 72.5537 104.523 72.8627 104.936 72.831L104.821 71.3354ZM114.535 70.9765C114.926 70.8384 115.13 70.4098 114.992 70.0193C114.854 69.6288 114.426 69.4243 114.035 69.5624L114.535 70.9765ZM121.528 64.0472C121.271 64.3722 121.327 64.8439 121.652 65.1007C121.977 65.3574 122.448 65.3021 122.705 64.9771L121.528 64.0472ZM125.273 60.7142L124.913 61.3724C126.177 62.0629 127.477 62.6826 128.783 63.242L129.078 62.5527L129.373 61.8633C128.105 61.3196 126.849 60.7204 125.632 60.056L125.273 60.7142ZM137.05 65.3547L136.839 66.0744C138.294 66.5015 139.675 66.8749 140.929 67.211L141.123 66.4866L141.317 65.7622C140.065 65.4264 138.698 65.0569 137.261 64.6351L137.05 65.3547ZM141.123 66.4866L140.946 67.2154C142.519 67.5981 144.166 67.8777 145.868 68.0668L145.951 67.3213L146.034 66.5759C144.386 66.393 142.803 66.1235 141.3 65.7579L141.123 66.4866ZM155.752 67.5165L155.794 68.2654C159.02 68.0846 162.326 67.6972 165.618 67.1641L165.499 66.4237L165.379 65.6834C162.128 66.2097 158.875 66.5904 155.71 66.7677L155.752 67.5165ZM175.116 64.477L175.291 65.2062C178.602 64.4112 181.806 63.5217 184.8 62.6047L184.581 61.8876L184.361 61.1704C181.393 62.0794 178.219 62.9605 174.94 63.7477L175.116 64.477ZM193.874 58.7327L194.137 59.4348C195.843 58.7945 197.382 58.1787 198.716 57.6119L198.423 56.9216L198.129 56.2314C196.817 56.7889 195.298 57.3968 193.61 58.0305L193.874 58.7327ZM198.423 56.9216L198.738 57.6021C200.118 56.9624 201.471 56.3108 202.792 55.647L202.456 54.9768L202.119 54.3066C200.813 54.9628 199.474 55.6076 198.107 56.2412L198.423 56.9216ZM210.28 50.6598L210.671 51.2999C213.368 49.6531 215.859 47.9365 218.094 46.146L217.626 45.5606L217.157 44.9753C214.979 46.7191 212.542 48.3997 209.889 50.0197L210.28 50.6598ZM224.02 39.3386L224.602 39.8121C226.65 37.2951 228.196 34.6373 229.117 31.831L228.405 31.597L227.692 31.363C226.839 33.9626 225.395 36.4613 223.438 38.8652L224.02 39.3386ZM229.097 22.7716L229.837 22.6522C229.39 19.8768 228.348 17.0115 226.656 14.0532L226.005 14.4255L225.354 14.7979C226.97 17.6238 227.942 20.3191 228.356 22.8909L229.097 22.7716ZM220.734 7.24304L221.294 6.74406C220.331 5.66295 219.282 4.5693 218.147 3.46285L217.624 4L217.1 4.53715C218.212 5.62087 219.236 6.68911 220.174 7.74201L220.734 7.24304ZM125.273 60.7142L125.632 60.056C124.744 59.5705 123.877 59.0507 123.042 58.4927L122.625 59.1163L122.208 59.7398C123.084 60.325 123.989 60.8678 124.913 61.3724L125.273 60.7142ZM117.915 55.1285L118.469 54.6228C117.799 53.8893 117.184 53.1101 116.634 52.2811L116.009 52.696L115.384 53.1109C115.98 54.0081 116.643 54.8477 117.361 55.6341L117.915 55.1285ZM116.009 52.696L116.634 52.2811C115.772 50.9831 115.228 49.7103 114.944 48.5065L114.214 48.6786L113.484 48.8508C113.812 50.2428 114.433 51.6784 115.384 53.1109L116.009 52.696ZM116.495 40.5788L116.996 41.1372C117.961 40.2719 119.181 39.6845 120.557 39.4787L120.446 38.737L120.335 37.9952C118.67 38.2442 117.179 38.9585 115.994 40.0204L116.495 40.5788ZM120.446 38.737L120.557 39.4787L121.31 39.3661L121.199 38.6243L121.088 37.8826L120.335 37.9952L120.446 38.737ZM122.706 38.399L122.817 39.1408L123.57 39.0281L123.46 38.2863L123.349 37.5446L122.595 37.6573L122.706 38.399ZM123.46 38.2863L123.57 39.0281C124.946 38.8224 126.285 39.0272 127.461 39.5724L127.776 38.8919L128.092 38.2115C126.649 37.5425 125.013 37.2957 123.349 37.5446L123.46 38.2863ZM132.327 45.9702L131.579 46.0191C131.659 47.2533 131.511 48.6296 131.067 50.123L131.786 50.337L132.504 50.5509C132.995 48.9028 133.169 47.3484 133.075 45.9212L132.327 45.9702ZM131.786 50.337L131.067 50.123C130.783 51.0767 130.423 52.0018 129.997 52.8991L130.674 53.2206L131.352 53.5421C131.809 52.58 132.197 51.5831 132.504 50.5509L131.786 50.337ZM127.337 58.4117L126.756 57.9374C126.121 58.7151 125.444 59.4658 124.736 60.1899L125.273 60.7142L125.809 61.2384C126.545 60.4857 127.252 59.7018 127.918 58.8861L127.337 58.4117ZM4 86.5L4.63906 86.8926C5.46696 85.5448 6.34456 84.2895 7.26817 83.1209L6.67976 82.6559L6.09134 82.1908C5.13024 83.4069 4.21895 84.7107 3.36094 86.1074L4 86.5ZM13.3446 76.1516L13.7934 76.7525C16.2591 74.911 18.9235 73.434 21.7506 72.2631L21.4637 71.5701L21.1767 70.8772C18.2444 72.0916 15.4696 73.6285 12.8958 75.5507L13.3446 76.1516ZM30.4036 68.9022L30.5509 69.6376C33.5048 69.046 36.572 68.6791 39.7208 68.4874L39.6753 67.7387L39.6297 66.9901C36.4248 67.1853 33.2884 67.5595 30.2563 68.1668L30.4036 68.9022ZM49.0179 67.6263L48.9952 68.376C52.0602 68.4687 55.1654 68.6729 58.2843 68.9466L58.3499 68.1995L58.4155 67.4524C55.2755 67.1768 52.1408 66.9705 49.0406 66.8767L49.0179 67.6263ZM67.6478 69.1786L67.5594 69.9233C70.6759 70.2933 73.7729 70.6905 76.8316 71.0735L76.9248 70.3293L77.018 69.5851C73.9652 69.2029 70.8591 68.8046 67.7362 68.4338L67.6478 69.1786ZM86.2141 71.4195L86.1362 72.1654C89.3534 72.5014 92.488 72.7674 95.5008 72.9064L95.5354 72.1572L95.57 71.408C92.5957 71.2707 89.4918 71.0077 86.292 70.6736L86.2141 71.4195ZM104.879 72.0832L104.936 72.831C106.561 72.7062 108.13 72.5128 109.635 72.2378L109.5 71.5L109.365 70.7622C107.919 71.0265 106.402 71.2139 104.821 71.3354L104.879 72.0832ZM109.5 71.5L109.635 72.2378C111.543 71.8892 113.154 71.4654 114.535 70.9765L114.285 70.2695L114.035 69.5624C112.742 70.0201 111.21 70.4252 109.365 70.7622L109.5 71.5ZM122.117 64.5122L122.705 64.9771C123.7 63.7178 124.594 62.481 125.809 61.2384L125.273 60.7142L124.736 60.1899C123.449 61.5069 122.478 62.845 121.528 64.0472L122.117 64.5122Z" fill="#72B5BF"/>
<path d="M45.548 42.9405C45.8186 42.9954 46.0825 42.8205 46.1373 42.5499C46.1922 42.2792 46.0173 42.0154 45.7467 41.9605L45.548 42.9405ZM28.5906 58.2679L29.0903 58.2866L29.0903 58.2866L28.5906 58.2679ZM51.1802 64.4173L51.0732 63.9288L51.0732 63.9288L51.1802 64.4173ZM57.5817 55.426L57.7615 55.8925L57.5817 55.426ZM64.3086 59.3557L64.6564 59.715L64.6564 59.715L64.3086 59.3557ZM68.0205 21.503L68.0329 22.0029L68.0205 21.503ZM48.3977 44.4706L48.8658 44.2948L48.8608 44.2815L48.8551 44.2686L48.3977 44.4706ZM48.8132 48.0005C47.8915 49.1492 48.0755 50.8275 49.2242 51.7492C50.3729 52.6709 52.0513 52.4869 52.973 51.3382C53.8947 50.1895 53.7107 48.5112 52.562 47.5895C51.4133 46.6678 49.7349 46.8518 48.8132 48.0005ZM74.2873 40.1063L74.7834 40.1686L74.2873 40.1063ZM70.2314 60.663L69.979 60.2313L69.979 60.2313L70.2314 60.663ZM84.5008 44.3275L84.0339 44.1488L84.0339 44.1488L84.5008 44.3275ZM82.8821 24.7173L82.9904 24.2292L82.8821 24.7173ZM74.406 26.1309C74.1506 26.236 74.0288 26.5282 74.1339 26.7836C74.239 27.0389 74.5313 27.1607 74.7866 27.0556L74.406 26.1309ZM63.6647 62.2229C63.4017 62.1388 63.1203 62.2839 63.0363 62.5469C62.9522 62.81 63.0973 63.0913 63.3603 63.1754L63.6647 62.2229ZM45.6473 42.4505L45.7467 41.9605C43.9704 41.6003 41.9869 42.1224 40.0537 43.1231C38.1115 44.1286 36.1612 45.647 34.4212 47.3753C32.6801 49.1046 31.1342 51.0593 30.0067 52.9515C28.8869 54.831 28.149 56.7004 28.091 58.2492L28.5906 58.2679L29.0903 58.2866C29.139 56.9855 29.7781 55.2889 30.8658 53.4634C31.9459 51.6505 33.4381 49.7612 35.1259 48.0848C36.8149 46.4072 38.6845 44.958 40.5134 44.0112C42.3514 43.0597 44.0903 42.645 45.548 42.9405L45.6473 42.4505ZM28.5906 58.2679L28.091 58.2492C28.03 59.8742 28.8432 61.2576 30.184 62.355C31.5177 63.4466 33.4036 64.285 35.601 64.8567C39.9996 66.0011 45.7807 66.1112 51.2871 64.9057L51.1802 64.4173L51.0732 63.9288C45.704 65.1043 40.0834 64.9896 35.8528 63.8889C33.7355 63.3381 31.9999 62.549 30.8174 61.5812C29.642 60.6192 29.0443 59.5114 29.0903 58.2866L28.5906 58.2679ZM51.1802 64.4173L51.2871 64.9057C53.753 64.3658 55.659 63.5347 57.0875 62.5708L56.8078 62.1563L56.5282 61.7419C55.2204 62.6243 53.436 63.4116 51.0732 63.9288L51.1802 64.4173ZM56.8078 62.1563L57.0875 62.5708C59.5803 60.8888 60.6435 58.7781 60.6016 57.1376C60.5807 56.3191 60.2771 55.5798 59.6792 55.1391C59.0693 54.6897 58.2598 54.6287 57.4018 54.9594L57.5817 55.426L57.7615 55.8925C58.3821 55.6532 58.8145 55.7441 59.0859 55.9441C59.3694 56.1531 59.5865 56.561 59.6019 57.1631C59.6326 58.364 58.8303 60.1885 56.5282 61.7419L56.8078 62.1563ZM57.5817 55.426L57.4018 54.9594C56.8931 55.1556 56.5284 55.6802 56.2776 56.2149C56.0129 56.7792 55.8156 57.4824 55.7069 58.2155C55.5981 58.9499 55.5752 59.7358 55.6739 60.4683C55.7718 61.1954 55.9946 61.9065 56.4081 62.4567L56.8078 62.1563L57.2075 61.8559C56.9332 61.4909 56.7497 60.9646 56.6649 60.3348C56.5808 59.7104 56.5986 59.0201 56.6961 58.3621C56.7938 57.7027 56.9683 57.0972 57.183 56.6396C57.4116 56.1523 57.6338 55.9417 57.7615 55.8925L57.5817 55.426ZM56.8078 62.1563L56.4081 62.4567C56.7194 62.8709 57.1383 63.1919 57.6754 63.3466C58.208 63.5 58.8163 63.4785 59.4929 63.2802C60.8297 62.8884 62.5216 61.7813 64.6564 59.715L64.3086 59.3557L63.9609 58.9964C61.8623 61.0277 60.3126 61.9979 59.2117 62.3205C58.6695 62.4794 58.2599 62.4743 57.9522 62.3857C57.649 62.2984 57.4051 62.1188 57.2075 61.8559L56.8078 62.1563ZM68.0205 21.503L68.0081 21.0032C67.2819 21.0212 66.3761 21.2949 65.3849 21.7315C64.3825 22.1731 63.2492 22.8012 62.0549 23.5699C59.6661 25.1074 57.0032 27.2274 54.6137 29.6015C52.2272 31.9727 50.0922 34.6185 48.7819 37.212C47.4775 39.7937 46.9449 42.4191 47.9404 44.6726L48.3977 44.4706L48.8551 44.2686C48.0381 42.419 48.4243 40.1374 49.6745 37.6629C50.9187 35.2001 52.9741 32.6403 55.3185 30.3109C57.6599 27.9845 60.2684 25.909 62.5962 24.4107C63.7602 23.6615 64.8465 23.0615 65.788 22.6467C66.7408 22.227 67.5033 22.016 68.0329 22.0029L68.0205 21.503ZM48.3977 44.4706L47.9296 44.6464C48.6566 46.5822 49.9191 48.9666 50.4583 49.9162L50.8931 49.6694L51.3279 49.4225C50.7979 48.4891 49.5654 46.1578 48.8658 44.2948L48.3977 44.4706ZM64.3086 59.3557L64.6564 59.715C65.9276 58.4846 68.1935 55.6657 70.2691 52.1399C72.3445 48.6144 74.2611 44.3297 74.7834 40.1686L74.2873 40.1063L73.7912 40.0441C73.2931 44.0124 71.4509 48.1613 69.4074 51.6326C67.3641 55.1035 65.1509 57.8446 63.9609 58.9964L64.3086 59.3557ZM74.2873 40.1063L74.7834 40.1686C75.4298 35.0195 74.5452 30.2654 73.138 26.7968C72.4349 25.0639 71.5942 23.634 70.7325 22.6319C69.8958 21.6589 68.9433 20.98 68.0081 21.0032L68.0205 21.503L68.0329 22.0029C68.4905 21.9915 69.1764 22.356 69.9743 23.2839C70.7471 24.1826 71.5371 25.5109 72.2114 27.1727C73.5587 30.4938 74.4149 35.0759 73.7912 40.0441L74.2873 40.1063ZM70.2314 60.663L70.4838 61.0946C72.0094 60.2025 74.8784 58.0037 77.7321 55.0711C80.5856 52.1388 83.4666 48.4297 84.9678 44.5062L84.5008 44.3275L84.0339 44.1488C82.6018 47.8915 79.825 51.4866 77.0154 54.3737C74.2061 57.2606 71.407 59.3964 69.979 60.2313L70.2314 60.663ZM84.5008 44.3275L84.9678 44.5062C86.8255 39.6509 87.1061 34.8124 86.5731 31.0993C86.3068 29.2442 85.8348 27.651 85.24 26.469C84.6628 25.3218 83.9028 24.4316 82.9904 24.2292L82.8821 24.7173L82.7739 25.2055C83.2185 25.3041 83.7956 25.823 84.3467 26.9184C84.8804 27.979 85.3278 29.4618 85.5833 31.2414C86.0937 34.7977 85.8266 39.4633 84.0339 44.1488L84.5008 44.3275ZM82.8821 24.7173L82.9904 24.2292C82.1024 24.0322 80.8306 24.1572 79.3845 24.4888C77.9189 24.8248 76.2075 25.3894 74.406 26.1309L74.5963 26.5932L74.7866 27.0556C76.5513 26.3293 78.2091 25.7842 79.608 25.4635C81.0263 25.1383 82.1144 25.0592 82.7739 25.2055L82.8821 24.7173ZM63.5125 62.6991L63.3603 63.1754C64.0996 63.4117 65.0393 63.3767 66.1927 63.0527C67.3508 62.7274 68.7658 62.0991 70.4838 61.0946L70.2314 60.663L69.979 60.2313C68.304 61.2107 66.9701 61.7956 65.9223 62.09C64.8698 62.3856 64.1465 62.3769 63.6647 62.2229L63.5125 62.6991Z" fill="#026A67"/>
</svg>
