<svg width="122" height="123" viewBox="0 0 122 123" fill="none" xmlns="http://www.w3.org/2000/svg">
<g opacity="0.1" clip-path="url(#clip0_315_133)">
<path d="M56.2258 15.8711C56.2258 18.8166 58.6136 21.2044 61.5591 21.2044C64.5047 21.2044 66.8925 18.8166 66.8925 15.8711C66.8925 12.9256 64.5047 10.5378 61.5591 10.5378C58.6136 10.5378 56.2258 12.9256 56.2258 15.8711ZM49.3738 99.6957C49.9261 99.6957 50.3738 99.248 50.3738 98.6957C50.3738 98.1435 49.9261 97.6957 49.3738 97.6957V99.6957ZM48.4908 67.0846L48.9223 66.1825L48.4908 67.0846ZM61.5591 14.8711C51.2141 14.8711 38.7187 20.2897 31.9756 29.2198L33.5717 30.425C39.8969 22.0484 51.7719 16.8711 61.5591 16.8711V14.8711ZM31.9756 29.2198C28.5481 33.7589 26.5761 40.7714 25.9281 47.7652C25.2794 54.7666 25.9379 61.9629 27.9624 66.9321L29.8146 66.1775C27.9539 61.6104 27.2879 54.7672 27.9196 47.9497C28.5519 41.1247 30.4651 34.5391 33.5717 30.425L31.9756 29.2198ZM27.9624 66.9321C29.9883 71.9048 33.2209 75.0837 35.8019 77.796C38.4346 80.5625 40.2503 82.7208 40.2503 85.8041H42.2503C42.2503 81.8234 39.8277 79.1253 37.2508 76.4172C34.6221 73.6549 31.6739 70.7412 29.8146 66.1775L27.9624 66.9321ZM40.2503 85.8041C40.2503 87.5322 40.2058 89.2745 40.279 90.845C40.3525 92.4217 40.5466 93.9433 41.0712 95.2672C41.6075 96.6209 42.4884 97.7638 43.8917 98.5478C45.2687 99.3171 47.0679 99.6957 49.3738 99.6957V97.6957C47.2648 97.6957 45.8411 97.3459 44.8671 96.8018C43.9194 96.2723 43.3213 95.5167 42.9305 94.5305C42.528 93.5145 42.3468 92.2547 42.2768 90.7519C42.2065 89.2431 42.2503 87.6079 42.2503 85.8041H40.2503ZM58.674 96.5766C58.674 95.701 58.7621 87.9411 58.8505 80.0759C58.9387 72.2231 59.0272 64.2665 59.0272 63.0229H57.0272C57.0272 64.2516 56.939 72.1889 56.8506 80.0534C56.7624 87.9054 56.674 95.6861 56.674 96.5766H58.674ZM59.0272 63.0229C59.0272 61.7933 58.9957 59.5709 57.958 57.6475C57.4268 56.6627 56.6317 55.7532 55.4613 55.0975C54.2965 54.445 52.8176 54.0759 50.9632 54.0759V56.0759C52.5525 56.0759 53.6785 56.3912 54.4838 56.8424C55.2836 57.2905 55.824 57.9041 56.1978 58.5971C56.9704 60.029 57.0272 61.78 57.0272 63.0229H59.0272ZM50.9632 54.0759C46.9596 54.0759 44.5735 56.8287 44.0399 59.8953C43.5138 62.919 44.7589 66.4083 48.0594 67.9868L48.9223 66.1825C46.5716 65.0583 45.6092 62.5432 46.0103 60.2382C46.4039 57.9762 48.0796 56.0759 50.9632 56.0759V54.0759ZM48.0594 67.9868C52.385 70.0555 55.3617 69.4974 61.3825 69.4974V67.4974C55.0414 67.4974 52.7202 67.9989 48.9223 66.1825L48.0594 67.9868ZM56.674 96.5766C56.674 96.5801 56.674 96.5837 56.674 96.5872C56.674 96.5908 56.674 96.5944 56.674 96.5979C56.674 96.6015 56.674 96.605 56.674 96.6086C56.674 96.6121 56.674 96.6157 56.674 96.6192C56.674 96.6227 56.674 96.6263 56.674 96.6298C56.674 96.6334 56.674 96.6369 56.674 96.6404C56.674 96.644 56.674 96.6475 56.674 96.651C56.674 96.6546 56.674 96.6581 56.674 96.6616C56.674 96.6651 56.674 96.6686 56.674 96.6722C56.674 96.6757 56.674 96.6792 56.674 96.6827C56.674 96.6862 56.674 96.6897 56.674 96.6932C56.674 96.6968 56.674 96.7003 56.674 96.7038C56.674 96.7073 56.674 96.7108 56.674 96.7143C56.674 96.7178 56.674 96.7213 56.674 96.7247C56.674 96.7282 56.674 96.7317 56.674 96.7352C56.674 96.7387 56.674 96.7422 56.674 96.7457C56.674 96.7492 56.674 96.7526 56.674 96.7561C56.674 96.7596 56.674 96.7631 56.674 96.7665C56.674 96.77 56.674 96.7735 56.674 96.7769C56.674 96.7804 56.674 96.7839 56.674 96.7873C56.674 96.7908 56.674 96.7943 56.674 96.7977C56.674 96.8012 56.674 96.8046 56.674 96.8081C56.674 96.8115 56.674 96.815 56.674 96.8184C56.674 96.8219 56.674 96.8253 56.674 96.8288C56.674 96.8322 56.674 96.8356 56.674 96.8391C56.674 96.8425 56.674 96.846 56.674 96.8494C56.674 96.8528 56.674 96.8563 56.674 96.8597C56.674 96.8631 56.674 96.8665 56.674 96.87C56.674 96.8734 56.674 96.8768 56.674 96.8802C56.674 96.8836 56.674 96.8871 56.674 96.8905C56.674 96.8939 56.674 96.8973 56.674 96.9007C56.674 96.9041 56.674 96.9075 56.674 96.9109C56.674 96.9143 56.674 96.9177 56.674 96.9211C56.674 96.9245 56.674 96.9279 56.674 96.9313C56.674 96.9347 56.674 96.9381 56.674 96.9415C56.674 96.9449 56.674 96.9483 56.674 96.9516C56.674 96.955 56.674 96.9584 56.674 96.9618C56.674 96.9652 56.674 96.9686 56.674 96.9719C56.674 96.9753 56.674 96.9787 56.674 96.982C56.674 96.9854 56.674 96.9888 56.674 96.9921C56.674 96.9955 56.674 96.9989 56.674 97.0022C56.674 97.0056 56.674 97.009 56.674 97.0123C56.674 97.0157 56.674 97.019 56.674 97.0224C56.674 97.0257 56.674 97.0291 56.674 97.0324C56.674 97.0358 56.674 97.0391 56.674 97.0424C56.674 97.0458 56.674 97.0491 56.674 97.0525C56.674 97.0558 56.674 97.0591 56.674 97.0625C56.674 97.0658 56.674 97.0691 56.674 97.0725C56.674 97.0758 56.674 97.0791 56.674 97.0824C56.674 97.0858 56.674 97.0891 56.674 97.0924C56.674 97.0957 56.674 97.099 56.674 97.1024C56.674 97.1057 56.674 97.109 56.674 97.1123C56.674 97.1156 56.674 97.1189 56.674 97.1222C56.674 97.1255 56.674 97.1288 56.674 97.1321C56.674 97.1354 56.674 97.1387 56.674 97.142C56.674 97.1453 56.674 97.1486 56.674 97.1519C56.674 97.1552 56.674 97.1585 56.674 97.1618C56.674 97.1651 56.674 97.1683 56.674 97.1716C56.674 97.1749 56.674 97.1782 56.674 97.1815C56.674 97.1847 56.674 97.188 56.674 97.1913C56.674 97.1946 56.674 97.1978 56.674 97.2011C56.674 97.2044 56.674 97.2076 56.674 97.2109C56.674 97.2142 56.674 97.2174 56.674 97.2207C56.674 97.2239 56.674 97.2272 56.674 97.2305C56.674 97.2337 56.674 97.237 56.674 97.2402C56.674 97.2435 56.674 97.2467 56.674 97.25C56.674 97.2532 56.674 97.2565 56.674 97.2597C56.674 97.2629 56.674 97.2662 56.674 97.2694C56.674 97.2727 56.674 97.2759 56.674 97.2791C56.674 97.2824 56.674 97.2856 56.674 97.2888C56.674 97.2921 56.674 97.2953 56.674 97.2985C56.674 97.3017 56.674 97.3049 56.674 97.3082C56.674 97.3114 56.674 97.3146 56.674 97.3178C56.674 97.321 56.674 97.3243 56.674 97.3275C56.674 97.3307 56.674 97.3339 56.674 97.3371C56.674 97.3403 56.674 97.3435 56.674 97.3467C56.674 97.3499 56.674 97.3531 56.674 97.3563C56.674 97.3595 56.674 97.3627 56.674 97.3659C56.674 97.3691 56.674 97.3723 56.674 97.3755C56.674 97.3787 56.674 97.3819 56.674 97.385C56.674 97.3882 56.674 97.3914 56.674 97.3946C56.674 97.3978 56.674 97.401 56.674 97.4041C56.674 97.4073 56.674 97.4105 56.674 97.4137C56.674 97.4168 56.674 97.42 56.674 97.4232C56.674 97.4263 56.674 97.4295 56.674 97.4327C56.674 97.4358 56.674 97.439 56.674 97.4422C56.674 97.4453 56.674 97.4485 56.674 97.4516C56.674 97.4548 56.674 97.458 56.674 97.4611C56.674 97.4643 56.674 97.4674 56.674 97.4706C56.674 97.4737 56.674 97.4769 56.674 97.48C56.674 97.4831 56.674 97.4863 56.674 97.4894C56.674 97.4926 56.674 97.4957 56.674 97.4988C56.674 97.502 56.674 97.5051 56.674 97.5082C56.674 97.5114 56.674 97.5145 56.674 97.5176C56.674 97.5208 56.674 97.5239 56.674 97.527C56.674 97.5301 56.674 97.5333 56.674 97.5364C56.674 97.5395 56.674 97.5426 56.674 97.5457C56.674 97.5488 56.674 97.552 56.674 97.5551C56.674 97.5582 56.674 97.5613 56.674 97.5644C56.674 97.5675 56.674 97.5706 56.674 97.5737C56.674 97.5768 56.674 97.5799 56.674 97.583C56.674 97.5861 56.674 97.5892 56.674 97.5923C56.674 97.5954 56.674 97.5985 56.674 97.6016C56.674 97.6047 56.674 97.6078 56.674 97.6109C56.674 97.614 56.674 97.617 56.674 97.6201C56.674 97.6232 56.674 97.6263 56.674 97.6294C56.674 97.6325 56.674 97.6355 56.674 97.6386C56.674 97.6417 56.674 97.6448 56.674 97.6478C56.674 97.6509 56.674 97.654 56.674 97.657C56.674 97.6601 56.674 97.6632 56.674 97.6662C56.674 97.6693 56.674 97.6724 56.674 97.6754C56.674 97.6785 56.674 97.6815 56.674 97.6846C56.674 97.6877 56.674 97.6907 56.674 97.6938C56.674 97.6968 56.674 97.6999 56.674 97.7029C56.674 97.706 56.674 97.709 56.674 97.7121C56.674 97.7151 56.674 97.7181 56.674 97.7212C56.674 97.7242 56.674 97.7273 56.674 97.7303C56.674 97.7333 56.674 97.7364 56.674 97.7394C56.674 97.7424 56.674 97.7455 56.674 97.7485C56.674 97.7515 56.674 97.7546 56.674 97.7576C56.674 97.7606 56.674 97.7636 56.674 97.7667C56.674 97.7697 56.674 97.7727 56.674 97.7757C56.674 97.7787 56.674 97.7818 56.674 97.7848C56.674 97.7878 56.674 97.7908 56.674 97.7938C56.674 97.7968 56.674 97.7998 56.674 97.8028C56.674 97.8058 56.674 97.8089 56.674 97.8119C56.674 97.8149 56.674 97.8179 56.674 97.8209C56.674 97.8239 56.674 97.8269 56.674 97.8299C56.674 97.8329 56.674 97.8359 56.674 97.8388C56.674 97.8418 56.674 97.8448 56.674 97.8478C56.674 97.8508 56.674 97.8538 56.674 97.8568C56.674 97.8598 56.674 97.8627 56.674 97.8657C56.674 97.8687 56.674 97.8717 56.674 97.8747C56.674 97.8776 56.674 97.8806 56.674 97.8836C56.674 97.8866 56.674 97.8895 56.674 97.8925C56.674 97.8955 56.674 97.8985 56.674 97.9014C56.674 97.9044 56.674 97.9074 56.674 97.9103C56.674 97.9133 56.674 97.9163 56.674 97.9192C56.674 97.9222 56.674 97.9251 56.674 97.9281C56.674 97.931 56.674 97.934 56.674 97.937C56.674 97.9399 56.674 97.9429 56.674 97.9458C56.674 97.9488 56.674 97.9517 56.674 97.9547C56.674 97.9576 56.674 97.9605 56.674 97.9635C56.674 97.9664 56.674 97.9694 56.674 97.9723C56.674 97.9753 56.674 97.9782 56.674 97.9811C56.674 97.9841 56.674 97.987 56.674 97.9899C56.674 97.9929 56.674 97.9958 56.674 97.9987C56.674 98.0016 56.674 98.0046 56.674 98.0075C56.674 98.0104 56.674 98.0134 56.674 98.0163C56.674 98.0192 56.674 98.0221 56.674 98.025C56.674 98.028 56.674 98.0309 56.674 98.0338C56.674 98.0367 56.674 98.0396 56.674 98.0425C56.674 98.0454 56.674 98.0483 56.674 98.0513C56.674 98.0542 56.674 98.0571 56.674 98.06C56.674 98.0629 56.674 98.0658 56.674 98.0687C56.674 98.0716 56.674 98.0745 56.674 98.0774C56.674 98.0803 56.674 98.0832 56.674 98.0861C56.674 98.089 56.674 98.0919 56.674 98.0948C56.674 98.0977 56.674 98.1005 56.674 98.1034C56.674 98.1063 56.674 98.1092 56.674 98.1121C56.674 98.115 56.674 98.1179 56.674 98.1208C56.674 98.1236 56.674 98.1265 56.674 98.1294C56.674 98.1323 56.674 98.1351 56.674 98.138C56.674 98.1409 56.674 98.1438 56.674 98.1466C56.674 98.1495 56.674 98.1524 56.674 98.1553C56.674 98.1581 56.674 98.161 56.674 98.1639C56.674 98.1667 56.674 98.1696 56.674 98.1725C56.674 98.1753 56.674 98.1782 56.674 98.181C56.674 98.1839 56.674 98.1868 56.674 98.1896C56.674 98.1925 56.674 98.1953 56.674 98.1982C56.674 98.201 56.674 98.2039 56.674 98.2067C56.674 98.2096 56.674 98.2124 56.674 98.2153C56.674 98.2181 56.674 98.221 56.674 98.2238C56.674 98.2267 56.674 98.2295 56.674 98.2323C56.674 98.2352 56.674 98.238 56.674 98.2409C56.674 98.2437 56.674 98.2465 56.674 98.2494C56.674 98.2522 56.674 98.255 56.674 98.2579C56.674 98.2607 56.674 98.2635 56.674 98.2664C56.674 98.2692 56.674 98.272 56.674 98.2748C56.674 98.2777 56.674 98.2805 56.674 98.2833C56.674 98.2861 56.674 98.289 56.674 98.2918C56.674 98.2946 56.674 98.2974 56.674 98.3002C56.674 98.303 56.674 98.3059 56.674 98.3087C56.674 98.3115 56.674 98.3143 56.674 98.3171C56.674 98.3199 56.674 98.3227 56.674 98.3255C56.674 98.3283 56.674 98.3312 56.674 98.334C56.674 98.3368 56.674 98.3396 56.674 98.3424C56.674 98.3452 56.674 98.348 56.674 98.3508C56.674 98.3536 56.674 98.3564 56.674 98.3592C56.674 98.362 56.674 98.3648 56.674 98.3675C56.674 98.3703 56.674 98.3731 56.674 98.3759C56.674 98.3787 56.674 98.3815 56.674 98.3843C56.674 98.3871 56.674 98.3899 56.674 98.3926C56.674 98.3954 56.674 98.3982 56.674 98.401C56.674 98.4038 56.674 98.4065 56.674 98.4093C56.674 98.4121 56.674 98.4149 56.674 98.4177C56.674 98.4204 56.674 98.4232 56.674 98.426C56.674 98.4288 56.674 98.4315 56.674 98.4343C56.674 98.4371 56.674 98.4398 56.674 98.4426C56.674 98.4454 56.674 98.4481 56.674 98.4509C56.674 98.4537 56.674 98.4564 56.674 98.4592C56.674 98.4619 56.674 98.4647 56.674 98.4675C56.674 98.4702 56.674 98.473 56.674 98.4757C56.674 98.4785 56.674 98.4812 56.674 98.484C56.674 98.4868 56.674 98.4895 56.674 98.4923C56.674 98.495 56.674 98.4978 56.674 98.5005C56.674 98.5033 56.674 98.506 56.674 98.5087C56.674 98.5115 56.674 98.5142 56.674 98.517C56.674 98.5197 56.674 98.5225 56.674 98.5252C56.674 98.5279 56.674 98.5307 56.674 98.5334C56.674 98.5362 56.674 98.5389 56.674 98.5416C56.674 98.5444 56.674 98.5471 56.674 98.5498C56.674 98.5526 56.674 98.5553 56.674 98.558C56.674 98.5607 56.674 98.5635 56.674 98.5662C56.674 98.5689 56.674 98.5716 56.674 98.5744C56.674 98.5771 56.674 98.5798 56.674 98.5825C56.674 98.5853 56.674 98.588 56.674 98.5907C56.674 98.5934 56.674 98.5961 56.674 98.5989C56.674 98.6016 56.674 98.6043 56.674 98.607C56.674 98.6097 56.674 98.6124 56.674 98.6151C56.674 98.6178 56.674 98.6206 56.674 98.6233C56.674 98.626 56.674 98.6287 56.674 98.6314C56.674 98.6341 56.674 98.6368 56.674 98.6395C56.674 98.6422 56.674 98.6449 56.674 98.6476C56.674 98.6503 56.674 98.653 56.674 98.6557C56.674 98.6584 56.674 98.6611 56.674 98.6638C56.674 98.6665 56.674 98.6692 56.674 98.6719C56.674 98.6746 56.674 98.6773 56.674 98.68C56.674 98.6826 56.674 98.6853 56.674 98.688C56.674 98.6907 56.674 98.6934 56.674 98.6961C56.674 98.6988 56.674 98.7015 56.674 98.7041C56.674 98.7068 56.674 98.7095 56.674 98.7122C56.674 98.7149 56.674 98.7176 56.674 98.7202C56.674 98.7229 56.674 98.7256 56.674 98.7283C56.674 98.7309 56.674 98.7336 56.674 98.7363C56.674 98.739 56.674 98.7416 56.674 98.7443C56.674 98.747 56.674 98.7496 56.674 98.7523C56.674 98.755 56.674 98.7577 56.674 98.7603C56.674 98.763 56.674 98.7657 56.674 98.7683C56.674 98.771 56.674 98.7737 56.674 98.7763C56.674 98.779 56.674 98.7816 56.674 98.7843C56.674 98.787 56.674 98.7896 56.674 98.7923C56.674 98.7949 56.674 98.7976 56.674 98.8002C56.674 98.8029 56.674 98.8055 56.674 98.8082C56.674 98.8109 56.674 98.8135 56.674 98.8162C56.674 98.8188 56.674 98.8215 56.674 98.8241C56.674 98.8268 56.674 98.8294 56.674 98.8321C56.674 98.8347 56.674 98.8373 56.674 98.84C56.674 98.8426 56.674 98.8453 56.674 98.8479C56.674 98.8506 56.674 98.8532 56.674 98.8558C56.674 98.8585 56.674 98.8611 56.674 98.8638C56.674 98.8664 56.674 98.869 56.674 98.8717C56.674 98.8743 56.674 98.8769 56.674 98.8796C56.674 98.8822 56.674 98.8848 56.674 98.8875C56.674 98.8901 56.674 98.8927 56.674 98.8954C56.674 98.898 56.674 98.9006 56.674 98.9033C56.674 98.9059 56.674 98.9085 56.674 98.9111C56.674 98.9137 56.674 98.9164 56.674 98.919C56.674 98.9216 56.674 98.9242 56.674 98.9269C56.674 98.9295 56.674 98.9321 56.674 98.9347C56.674 98.9373 56.674 98.94 56.674 98.9426C56.674 98.9452 56.674 98.9478 56.674 98.9504C56.674 98.953 56.674 98.9557 56.674 98.9583C56.674 98.9609 56.674 98.9635 56.674 98.9661C56.674 98.9687 56.674 98.9713 56.674 98.9739C56.674 98.9765 56.674 98.9791 56.674 98.9818C56.674 98.9844 56.674 98.987 56.674 98.9896C56.674 98.9922 56.674 98.9948 56.674 98.9974C56.674 99 56.674 99.0026 56.674 99.0052C56.674 99.0078 56.674 99.0104 56.674 99.013C56.674 99.0156 56.674 99.0182 56.674 99.0208C56.674 99.0234 56.674 99.026 56.674 99.0286C56.674 99.0312 56.674 99.0338 56.674 99.0363C56.674 99.0389 56.674 99.0415 56.674 99.0441C56.674 99.0467 56.674 99.0493 56.674 99.0519C56.674 99.0545 56.674 99.0571 56.674 99.0597C56.674 99.0622 56.674 99.0648 56.674 99.0674C56.674 99.07 56.674 99.0726 56.674 99.0752C56.674 99.0778 56.674 99.0803 56.674 99.0829C56.674 99.0855 56.674 99.0881 56.674 99.0907C56.674 99.0932 56.674 99.0958 56.674 99.0984C56.674 99.101 56.674 99.1036 56.674 99.1061C56.674 99.1087 56.674 99.1113 56.674 99.1139C56.674 99.1164 56.674 99.119 56.674 99.1216C56.674 99.1242 56.674 99.1267 56.674 99.1293C56.674 99.1319 56.674 99.1344 56.674 99.137C56.674 99.1396 56.674 99.1421 56.674 99.1447C56.674 99.1473 56.674 99.1498 56.674 99.1524C56.674 99.155 56.674 99.1575 56.674 99.1601C56.674 99.1627 56.674 99.1652 56.674 99.1678C56.674 99.1704 56.674 99.1729 56.674 99.1755C56.674 99.178 56.674 99.1806 56.674 99.1832C56.674 99.1857 56.674 99.1883 56.674 99.1908C56.674 99.1934 56.674 99.1959 56.674 99.1985C56.674 99.2011 56.674 99.2036 56.674 99.2062C56.674 99.2087 56.674 99.2113 56.674 99.2138C56.674 99.2164 56.674 99.2189 56.674 99.2215C56.674 99.224 56.674 99.2266 56.674 99.2291C56.674 99.2317 56.674 99.2342 56.674 99.2368C56.674 99.2393 56.674 99.2419 56.674 99.2444C56.674 99.247 56.674 99.2495 56.674 99.2521C56.674 99.2546 56.674 99.2571 56.674 99.2597C56.674 99.2622 56.674 99.2648 56.674 99.2673C56.674 99.2699 56.674 99.2724 56.674 99.2749C56.674 99.2775 56.674 99.28 56.674 99.2825C56.674 99.2851 56.674 99.2876 56.674 99.2902C56.674 99.2927 56.674 99.2952 56.674 99.2978C56.674 99.3003 56.674 99.3028 56.674 99.3054C56.674 99.3079 56.674 99.3104 56.674 99.313C56.674 99.3155 56.674 99.318 56.674 99.3206C56.674 99.3231 56.674 99.3256 56.674 99.3282C56.674 99.3307 56.674 99.3332 56.674 99.3357C56.674 99.3383 56.674 99.3408 56.674 99.3433C56.674 99.3458 56.674 99.3484 56.674 99.3509C56.674 99.3534 56.674 99.3559 56.674 99.3585C56.674 99.361 56.674 99.3635 56.674 99.366C56.674 99.3686 56.674 99.3711 56.674 99.3736C56.674 99.3761 56.674 99.3786 56.674 99.3812C56.674 99.3837 56.674 99.3862 56.674 99.3887C56.674 99.3912 56.674 99.3938 56.674 99.3963C56.674 99.3988 56.674 99.4013 56.674 99.4038C56.674 99.4063 56.674 99.4089 56.674 99.4114C56.674 99.4139 56.674 99.4164 56.674 99.4189C56.674 99.4214 56.674 99.4239 56.674 99.4264C56.674 99.429 56.674 99.4315 56.674 99.434C56.674 99.4365 56.674 99.439 56.674 99.4415C56.674 99.444 56.674 99.4465 56.674 99.449C56.674 99.4515 56.674 99.454 56.674 99.4566C56.674 99.4591 56.674 99.4616 56.674 99.4641C56.674 99.4666 56.674 99.4691 56.674 99.4716C56.674 99.4741 56.674 99.4766 56.674 99.4791C56.674 99.4816 56.674 99.4841 56.674 99.4866C56.674 99.4891 56.674 99.4916 56.674 99.4941C56.674 99.4966 56.674 99.4991 56.674 99.5016C56.674 99.5041 56.674 99.5066 56.674 99.5091C56.674 99.5116 56.674 99.5141 56.674 99.5166C56.674 99.5191 56.674 99.5216 56.674 99.5241C56.674 99.5266 56.674 99.5291 56.674 99.5316C56.674 99.5341 56.674 99.5366 56.674 99.5391C56.674 99.5415 56.674 99.544 56.674 99.5465C56.674 99.549 56.674 99.5515 56.674 99.554C56.674 99.5565 56.674 99.559 56.674 99.5615C56.674 99.564 56.674 99.5665 56.674 99.569C56.674 99.5714 56.674 99.5739 56.674 99.5764C56.674 99.5789 56.674 99.5814 56.674 99.5839C56.674 99.5864 56.674 99.5889 56.674 99.5913C56.674 99.5938 56.674 99.5963 56.674 99.5988C56.674 99.6013 56.674 99.6038 56.674 99.6063C56.674 99.6087 56.674 99.6112 56.674 99.6137C56.674 99.6162 56.674 99.6187 56.674 99.6211C56.674 99.6236 56.674 99.6261 56.674 99.6286C56.674 99.6311 56.674 99.6336 56.674 99.636C56.674 99.6385 56.674 99.641 56.674 99.6435C56.674 99.646 56.674 99.6484 56.674 99.6509C56.674 99.6534 56.674 99.6559 56.674 99.6583C56.674 99.6608 56.674 99.6633 56.674 99.6658C56.674 99.6683 56.674 99.6707 56.674 99.6732C56.674 99.6757 56.674 99.6782 56.674 99.6806C56.674 99.6831 56.674 99.6856 56.674 99.6881C56.674 99.6905 56.674 99.693 56.674 99.6955C56.674 99.698 56.674 99.7004 56.674 99.7029C56.674 99.7054 56.674 99.7078 56.674 99.7103C56.674 99.7128 56.674 99.7153 56.674 99.7177C56.674 99.7202 56.674 99.7227 56.674 99.7251C56.674 99.7276 56.674 99.7301 56.674 99.7325C56.674 99.735 56.674 99.7375 56.674 99.7399C56.674 99.7424 56.674 99.7449 56.674 99.7474C56.674 99.7498 56.674 99.7523 56.674 99.7548C56.674 99.7572 56.674 99.7597 56.674 99.7622C56.674 99.7646 56.674 99.7671 56.674 99.7695C56.674 99.772 56.674 99.7745 56.674 99.7769C56.674 99.7794 56.674 99.7819 56.674 99.7843C56.674 99.7868 56.674 99.7893 56.674 99.7917C56.674 99.7942 56.674 99.7966 56.674 99.7991C56.674 99.8016 56.674 99.804 56.674 99.8065C56.674 99.809 56.674 99.8114 56.674 99.8139C56.674 99.8163 56.674 99.8188 56.674 99.8213C56.674 99.8237 56.674 99.8262 56.674 99.8286C56.674 99.8311 56.674 99.8336 56.674 99.836C56.674 99.8385 56.674 99.8409 56.674 99.8434C56.674 99.8459 56.674 99.8483 56.674 99.8508C56.674 99.8532 56.674 99.8557 56.674 99.8581C56.674 99.8606 56.674 99.8631 56.674 99.8655C56.674 99.868 56.674 99.8704 56.674 99.8729C56.674 99.8753 56.674 99.8778 56.674 99.8802C56.674 99.8827 56.674 99.8852 56.674 99.8876C56.674 99.8901 56.674 99.8925 56.674 99.895C56.674 99.8974 56.674 99.8999 56.674 99.9023C56.674 99.9048 56.674 99.9072 56.674 99.9097C56.674 99.9122 56.674 99.9146 56.674 99.9171C56.674 99.9195 56.674 99.922 56.674 99.9244C56.674 99.9269 56.674 99.9293 56.674 99.9318C56.674 99.9342 56.674 99.9367 56.674 99.9391C56.674 99.9416 56.674 99.944 56.674 99.9465C56.674 99.9489 56.674 99.9514 56.674 99.9538C56.674 99.9563 56.674 99.9587 56.674 99.9612C56.674 99.9636 56.674 99.9661 56.674 99.9685C56.674 99.971 56.674 99.9734 56.674 99.9759C56.674 99.9783 56.674 99.9808 56.674 99.9832C56.674 99.9857 56.674 99.9881 56.674 99.9906C56.674 99.993 56.674 99.9955 56.674 99.9979C56.674 100 56.674 100.003 56.674 100.005C56.674 100.008 56.674 100.01 56.674 100.013C56.674 100.015 56.674 100.018 56.674 100.02C56.674 100.022 56.674 100.025 56.674 100.027C56.674 100.03 56.674 100.032 56.674 100.035C56.674 100.037 56.674 100.04 56.674 100.042C56.674 100.044 56.674 100.047 56.674 100.049C56.674 100.052 56.674 100.054 56.674 100.057C56.674 100.059 56.674 100.062 56.674 100.064C56.674 100.066 56.674 100.069 56.674 100.071C56.674 100.074 56.674 100.076 56.674 100.079C56.674 100.081 56.674 100.084 56.674 100.086C56.674 100.088 56.674 100.091 56.674 100.093C56.674 100.096 56.674 100.098 56.674 100.101C56.674 100.103 56.674 100.106 56.674 100.108C56.674 100.11 56.674 100.113 56.674 100.115C56.674 100.118 56.674 100.12 56.674 100.123C56.674 100.125 56.674 100.128 56.674 100.13C56.674 100.132 56.674 100.135 56.674 100.137C56.674 100.14 56.674 100.142 56.674 100.145C56.674 100.147 56.674 100.15 56.674 100.152C56.674 100.154 56.674 100.157 56.674 100.159C56.674 100.162 56.674 100.164 56.674 100.167C56.674 100.169 56.674 100.172 56.674 100.174C56.674 100.176 56.674 100.179 56.674 100.181C56.674 100.184 56.674 100.186 56.674 100.189C56.674 100.191 56.674 100.194 56.674 100.196C56.674 100.198 56.674 100.201 56.674 100.203C56.674 100.206 56.674 100.208 56.674 100.211C56.674 100.213 56.674 100.216 56.674 100.218C56.674 100.22 56.674 100.223 56.674 100.225C56.674 100.228 56.674 100.23 56.674 100.233C56.674 100.235 56.674 100.238 56.674 100.24C56.674 100.242 56.674 100.245 56.674 100.247C56.674 100.25 56.674 100.252 56.674 100.255C56.674 100.257 56.674 100.259 56.674 100.262C56.674 100.264 56.674 100.267 56.674 100.269C56.674 100.272 56.674 100.274 56.674 100.277C56.674 100.279 56.674 100.281 56.674 100.284C56.674 100.286 56.674 100.289 56.674 100.291C56.674 100.294 56.674 100.296 56.674 100.299C56.674 100.301 56.674 100.303 56.674 100.306C56.674 100.308 56.674 100.311 56.674 100.313C56.674 100.316 56.674 100.318 56.674 100.321C56.674 100.323 56.674 100.325 56.674 100.328C56.674 100.33 56.674 100.333 56.674 100.335C56.674 100.338 56.674 100.34 56.674 100.343C56.674 100.345 56.674 100.347 56.674 100.35C56.674 100.352 56.674 100.355 56.674 100.357C56.674 100.36 56.674 100.362 56.674 100.365C56.674 100.367 56.674 100.369 56.674 100.372C56.674 100.374 56.674 100.377 56.674 100.379C56.674 100.382 56.674 100.384 56.674 100.387C56.674 100.389 56.674 100.392 56.674 100.394C56.674 100.396 56.674 100.399 56.674 100.401C56.674 100.404 56.674 100.406 56.674 100.409C56.674 100.411 56.674 100.414 56.674 100.416C56.674 100.418 56.674 100.421 56.674 100.423C56.674 100.426 56.674 100.428 56.674 100.431C56.674 100.433 56.674 100.436 56.674 100.438C56.674 100.44 56.674 100.443 56.674 100.445C56.674 100.448 56.674 100.45 56.674 100.453C56.674 100.455 56.674 100.458 56.674 100.46C56.674 100.463 56.674 100.465 56.674 100.467C56.674 100.47 56.674 100.472 56.674 100.475C56.674 100.477 56.674 100.48 56.674 100.482C56.674 100.485 56.674 100.487 56.674 100.489C56.674 100.492 56.674 100.494 56.674 100.497C56.674 100.499 56.674 100.502 56.674 100.504C56.674 100.507 56.674 100.509 56.674 100.512C56.674 100.514 56.674 100.516 56.674 100.519C56.674 100.521 56.674 100.524 56.674 100.526C56.674 100.529 56.674 100.531 56.674 100.534C56.674 100.536 56.674 100.539 56.674 100.541C56.674 100.543 56.674 100.546 56.674 100.548C56.674 100.551 56.674 100.553 56.674 100.556C56.674 100.558 56.674 100.561 56.674 100.563C56.674 100.566 56.674 100.568 56.674 100.57C56.674 100.573 56.674 100.575 56.674 100.578C56.674 100.58 56.674 100.583 56.674 100.585C56.674 100.588 56.674 100.59 56.674 100.593C56.674 100.595 56.674 100.598 56.674 100.6C56.674 100.602 56.674 100.605 56.674 100.607C56.674 100.61 56.674 100.612 56.674 100.615C56.674 100.617 56.674 100.62 56.674 100.622C56.674 100.625 56.674 100.627 56.674 100.63C56.674 100.632 56.674 100.634 56.674 100.637C56.674 100.639 56.674 100.642 56.674 100.644C56.674 100.647 56.674 100.649 56.674 100.652C56.674 100.654 56.674 100.657 56.674 100.659C56.674 100.662 56.674 100.664 56.674 100.666C56.674 100.669 56.674 100.671 56.674 100.674C56.674 100.676 56.674 100.679 56.674 100.681C56.674 100.684 56.674 100.686 56.674 100.689C56.674 100.691 56.674 100.694 56.674 100.696C56.674 100.699 56.674 100.701 56.674 100.703C56.674 100.706 56.674 100.708 56.674 100.711C56.674 100.713 56.674 100.716 56.674 100.718C56.674 100.721 56.674 100.723 56.674 100.726C56.674 100.728 56.674 100.731 56.674 100.733C56.674 100.736 56.674 100.738 56.674 100.741C56.674 100.743 56.674 100.746 56.674 100.748C56.674 100.75 56.674 100.753 56.674 100.755C56.674 100.758 56.674 100.76 56.674 100.763C56.674 100.765 56.674 100.768 56.674 100.77C56.674 100.773 56.674 100.775 56.674 100.778C56.674 100.78 56.674 100.783 56.674 100.785C56.674 100.788 56.674 100.79 56.674 100.793C56.674 100.795 56.674 100.798 56.674 100.8C56.674 100.803 56.674 100.805 56.674 100.807C56.674 100.81 56.674 100.812 56.674 100.815H58.674C58.674 100.812 58.674 100.81 58.674 100.807C58.674 100.805 58.674 100.803 58.674 100.8C58.674 100.798 58.674 100.795 58.674 100.793C58.674 100.79 58.674 100.788 58.674 100.785C58.674 100.783 58.674 100.78 58.674 100.778C58.674 100.775 58.674 100.773 58.674 100.77C58.674 100.768 58.674 100.765 58.674 100.763C58.674 100.76 58.674 100.758 58.674 100.755C58.674 100.753 58.674 100.75 58.674 100.748C58.674 100.746 58.674 100.743 58.674 100.741C58.674 100.738 58.674 100.736 58.674 100.733C58.674 100.731 58.674 100.728 58.674 100.726C58.674 100.723 58.674 100.721 58.674 100.718C58.674 100.716 58.674 100.713 58.674 100.711C58.674 100.708 58.674 100.706 58.674 100.703C58.674 100.701 58.674 100.699 58.674 100.696C58.674 100.694 58.674 100.691 58.674 100.689C58.674 100.686 58.674 100.684 58.674 100.681C58.674 100.679 58.674 100.676 58.674 100.674C58.674 100.671 58.674 100.669 58.674 100.666C58.674 100.664 58.674 100.662 58.674 100.659C58.674 100.657 58.674 100.654 58.674 100.652C58.674 100.649 58.674 100.647 58.674 100.644C58.674 100.642 58.674 100.639 58.674 100.637C58.674 100.634 58.674 100.632 58.674 100.63C58.674 100.627 58.674 100.625 58.674 100.622C58.674 100.62 58.674 100.617 58.674 100.615C58.674 100.612 58.674 100.61 58.674 100.607C58.674 100.605 58.674 100.602 58.674 100.6C58.674 100.598 58.674 100.595 58.674 100.593C58.674 100.59 58.674 100.588 58.674 100.585C58.674 100.583 58.674 100.58 58.674 100.578C58.674 100.575 58.674 100.573 58.674 100.57C58.674 100.568 58.674 100.566 58.674 100.563C58.674 100.561 58.674 100.558 58.674 100.556C58.674 100.553 58.674 100.551 58.674 100.548C58.674 100.546 58.674 100.543 58.674 100.541C58.674 100.539 58.674 100.536 58.674 100.534C58.674 100.531 58.674 100.529 58.674 100.526C58.674 100.524 58.674 100.521 58.674 100.519C58.674 100.516 58.674 100.514 58.674 100.512C58.674 100.509 58.674 100.507 58.674 100.504C58.674 100.502 58.674 100.499 58.674 100.497C58.674 100.494 58.674 100.492 58.674 100.489C58.674 100.487 58.674 100.485 58.674 100.482C58.674 100.48 58.674 100.477 58.674 100.475C58.674 100.472 58.674 100.47 58.674 100.467C58.674 100.465 58.674 100.463 58.674 100.46C58.674 100.458 58.674 100.455 58.674 100.453C58.674 100.45 58.674 100.448 58.674 100.445C58.674 100.443 58.674 100.44 58.674 100.438C58.674 100.436 58.674 100.433 58.674 100.431C58.674 100.428 58.674 100.426 58.674 100.423C58.674 100.421 58.674 100.418 58.674 100.416C58.674 100.414 58.674 100.411 58.674 100.409C58.674 100.406 58.674 100.404 58.674 100.401C58.674 100.399 58.674 100.396 58.674 100.394C58.674 100.392 58.674 100.389 58.674 100.387C58.674 100.384 58.674 100.382 58.674 100.379C58.674 100.377 58.674 100.374 58.674 100.372C58.674 100.369 58.674 100.367 58.674 100.365C58.674 100.362 58.674 100.36 58.674 100.357C58.674 100.355 58.674 100.352 58.674 100.35C58.674 100.347 58.674 100.345 58.674 100.343C58.674 100.34 58.674 100.338 58.674 100.335C58.674 100.333 58.674 100.33 58.674 100.328C58.674 100.325 58.674 100.323 58.674 100.321C58.674 100.318 58.674 100.316 58.674 100.313C58.674 100.311 58.674 100.308 58.674 100.306C58.674 100.303 58.674 100.301 58.674 100.299C58.674 100.296 58.674 100.294 58.674 100.291C58.674 100.289 58.674 100.286 58.674 100.284C58.674 100.281 58.674 100.279 58.674 100.277C58.674 100.274 58.674 100.272 58.674 100.269C58.674 100.267 58.674 100.264 58.674 100.262C58.674 100.259 58.674 100.257 58.674 100.255C58.674 100.252 58.674 100.25 58.674 100.247C58.674 100.245 58.674 100.242 58.674 100.24C58.674 100.238 58.674 100.235 58.674 100.233C58.674 100.23 58.674 100.228 58.674 100.225C58.674 100.223 58.674 100.22 58.674 100.218C58.674 100.216 58.674 100.213 58.674 100.211C58.674 100.208 58.674 100.206 58.674 100.203C58.674 100.201 58.674 100.198 58.674 100.196C58.674 100.194 58.674 100.191 58.674 100.189C58.674 100.186 58.674 100.184 58.674 100.181C58.674 100.179 58.674 100.176 58.674 100.174C58.674 100.172 58.674 100.169 58.674 100.167C58.674 100.164 58.674 100.162 58.674 100.159C58.674 100.157 58.674 100.154 58.674 100.152C58.674 100.15 58.674 100.147 58.674 100.145C58.674 100.142 58.674 100.14 58.674 100.137C58.674 100.135 58.674 100.132 58.674 100.13C58.674 100.128 58.674 100.125 58.674 100.123C58.674 100.12 58.674 100.118 58.674 100.115C58.674 100.113 58.674 100.11 58.674 100.108C58.674 100.106 58.674 100.103 58.674 100.101C58.674 100.098 58.674 100.096 58.674 100.093C58.674 100.091 58.674 100.088 58.674 100.086C58.674 100.084 58.674 100.081 58.674 100.079C58.674 100.076 58.674 100.074 58.674 100.071C58.674 100.069 58.674 100.066 58.674 100.064C58.674 100.062 58.674 100.059 58.674 100.057C58.674 100.054 58.674 100.052 58.674 100.049C58.674 100.047 58.674 100.044 58.674 100.042C58.674 100.04 58.674 100.037 58.674 100.035C58.674 100.032 58.674 100.03 58.674 100.027C58.674 100.025 58.674 100.022 58.674 100.02C58.674 100.018 58.674 100.015 58.674 100.013C58.674 100.01 58.674 100.008 58.674 100.005C58.674 100.003 58.674 100 58.674 99.9979C58.674 99.9955 58.674 99.993 58.674 99.9906C58.674 99.9881 58.674 99.9857 58.674 99.9832C58.674 99.9808 58.674 99.9783 58.674 99.9759C58.674 99.9734 58.674 99.971 58.674 99.9685C58.674 99.9661 58.674 99.9636 58.674 99.9612C58.674 99.9587 58.674 99.9563 58.674 99.9538C58.674 99.9514 58.674 99.9489 58.674 99.9465C58.674 99.944 58.674 99.9416 58.674 99.9391C58.674 99.9367 58.674 99.9342 58.674 99.9318C58.674 99.9293 58.674 99.9269 58.674 99.9244C58.674 99.922 58.674 99.9195 58.674 99.9171C58.674 99.9146 58.674 99.9122 58.674 99.9097C58.674 99.9072 58.674 99.9048 58.674 99.9023C58.674 99.8999 58.674 99.8974 58.674 99.895C58.674 99.8925 58.674 99.8901 58.674 99.8876C58.674 99.8852 58.674 99.8827 58.674 99.8802C58.674 99.8778 58.674 99.8753 58.674 99.8729C58.674 99.8704 58.674 99.868 58.674 99.8655C58.674 99.8631 58.674 99.8606 58.674 99.8581C58.674 99.8557 58.674 99.8532 58.674 99.8508C58.674 99.8483 58.674 99.8459 58.674 99.8434C58.674 99.8409 58.674 99.8385 58.674 99.836C58.674 99.8336 58.674 99.8311 58.674 99.8286C58.674 99.8262 58.674 99.8237 58.674 99.8213C58.674 99.8188 58.674 99.8163 58.674 99.8139C58.674 99.8114 58.674 99.809 58.674 99.8065C58.674 99.804 58.674 99.8016 58.674 99.7991C58.674 99.7966 58.674 99.7942 58.674 99.7917C58.674 99.7893 58.674 99.7868 58.674 99.7843C58.674 99.7819 58.674 99.7794 58.674 99.7769C58.674 99.7745 58.674 99.772 58.674 99.7695C58.674 99.7671 58.674 99.7646 58.674 99.7622C58.674 99.7597 58.674 99.7572 58.674 99.7548C58.674 99.7523 58.674 99.7498 58.674 99.7474C58.674 99.7449 58.674 99.7424 58.674 99.7399C58.674 99.7375 58.674 99.735 58.674 99.7325C58.674 99.7301 58.674 99.7276 58.674 99.7251C58.674 99.7227 58.674 99.7202 58.674 99.7177C58.674 99.7153 58.674 99.7128 58.674 99.7103C58.674 99.7078 58.674 99.7054 58.674 99.7029C58.674 99.7004 58.674 99.698 58.674 99.6955C58.674 99.693 58.674 99.6905 58.674 99.6881C58.674 99.6856 58.674 99.6831 58.674 99.6806C58.674 99.6782 58.674 99.6757 58.674 99.6732C58.674 99.6707 58.674 99.6683 58.674 99.6658C58.674 99.6633 58.674 99.6608 58.674 99.6583C58.674 99.6559 58.674 99.6534 58.674 99.6509C58.674 99.6484 58.674 99.646 58.674 99.6435C58.674 99.641 58.674 99.6385 58.674 99.636C58.674 99.6336 58.674 99.6311 58.674 99.6286C58.674 99.6261 58.674 99.6236 58.674 99.6211C58.674 99.6187 58.674 99.6162 58.674 99.6137C58.674 99.6112 58.674 99.6087 58.674 99.6063C58.674 99.6038 58.674 99.6013 58.674 99.5988C58.674 99.5963 58.674 99.5938 58.674 99.5913C58.674 99.5889 58.674 99.5864 58.674 99.5839C58.674 99.5814 58.674 99.5789 58.674 99.5764C58.674 99.5739 58.674 99.5714 58.674 99.569C58.674 99.5665 58.674 99.564 58.674 99.5615C58.674 99.559 58.674 99.5565 58.674 99.554C58.674 99.5515 58.674 99.549 58.674 99.5465C58.674 99.544 58.674 99.5415 58.674 99.5391C58.674 99.5366 58.674 99.5341 58.674 99.5316C58.674 99.5291 58.674 99.5266 58.674 99.5241C58.674 99.5216 58.674 99.5191 58.674 99.5166C58.674 99.5141 58.674 99.5116 58.674 99.5091C58.674 99.5066 58.674 99.5041 58.674 99.5016C58.674 99.4991 58.674 99.4966 58.674 99.4941C58.674 99.4916 58.674 99.4891 58.674 99.4866C58.674 99.4841 58.674 99.4816 58.674 99.4791C58.674 99.4766 58.674 99.4741 58.674 99.4716C58.674 99.4691 58.674 99.4666 58.674 99.4641C58.674 99.4616 58.674 99.4591 58.674 99.4566C58.674 99.454 58.674 99.4515 58.674 99.449C58.674 99.4465 58.674 99.444 58.674 99.4415C58.674 99.439 58.674 99.4365 58.674 99.434C58.674 99.4315 58.674 99.429 58.674 99.4264C58.674 99.4239 58.674 99.4214 58.674 99.4189C58.674 99.4164 58.674 99.4139 58.674 99.4114C58.674 99.4089 58.674 99.4063 58.674 99.4038C58.674 99.4013 58.674 99.3988 58.674 99.3963C58.674 99.3938 58.674 99.3912 58.674 99.3887C58.674 99.3862 58.674 99.3837 58.674 99.3812C58.674 99.3786 58.674 99.3761 58.674 99.3736C58.674 99.3711 58.674 99.3686 58.674 99.366C58.674 99.3635 58.674 99.361 58.674 99.3585C58.674 99.3559 58.674 99.3534 58.674 99.3509C58.674 99.3484 58.674 99.3458 58.674 99.3433C58.674 99.3408 58.674 99.3383 58.674 99.3357C58.674 99.3332 58.674 99.3307 58.674 99.3282C58.674 99.3256 58.674 99.3231 58.674 99.3206C58.674 99.318 58.674 99.3155 58.674 99.313C58.674 99.3104 58.674 99.3079 58.674 99.3054C58.674 99.3028 58.674 99.3003 58.674 99.2978C58.674 99.2952 58.674 99.2927 58.674 99.2902C58.674 99.2876 58.674 99.2851 58.674 99.2825C58.674 99.28 58.674 99.2775 58.674 99.2749C58.674 99.2724 58.674 99.2699 58.674 99.2673C58.674 99.2648 58.674 99.2622 58.674 99.2597C58.674 99.2571 58.674 99.2546 58.674 99.2521C58.674 99.2495 58.674 99.247 58.674 99.2444C58.674 99.2419 58.674 99.2393 58.674 99.2368C58.674 99.2342 58.674 99.2317 58.674 99.2291C58.674 99.2266 58.674 99.224 58.674 99.2215C58.674 99.2189 58.674 99.2164 58.674 99.2138C58.674 99.2113 58.674 99.2087 58.674 99.2062C58.674 99.2036 58.674 99.2011 58.674 99.1985C58.674 99.1959 58.674 99.1934 58.674 99.1908C58.674 99.1883 58.674 99.1857 58.674 99.1832C58.674 99.1806 58.674 99.178 58.674 99.1755C58.674 99.1729 58.674 99.1704 58.674 99.1678C58.674 99.1652 58.674 99.1627 58.674 99.1601C58.674 99.1575 58.674 99.155 58.674 99.1524C58.674 99.1498 58.674 99.1473 58.674 99.1447C58.674 99.1421 58.674 99.1396 58.674 99.137C58.674 99.1344 58.674 99.1319 58.674 99.1293C58.674 99.1267 58.674 99.1242 58.674 99.1216C58.674 99.119 58.674 99.1164 58.674 99.1139C58.674 99.1113 58.674 99.1087 58.674 99.1061C58.674 99.1036 58.674 99.101 58.674 99.0984C58.674 99.0958 58.674 99.0932 58.674 99.0907C58.674 99.0881 58.674 99.0855 58.674 99.0829C58.674 99.0803 58.674 99.0778 58.674 99.0752C58.674 99.0726 58.674 99.07 58.674 99.0674C58.674 99.0648 58.674 99.0622 58.674 99.0597C58.674 99.0571 58.674 99.0545 58.674 99.0519C58.674 99.0493 58.674 99.0467 58.674 99.0441C58.674 99.0415 58.674 99.0389 58.674 99.0363C58.674 99.0338 58.674 99.0312 58.674 99.0286C58.674 99.026 58.674 99.0234 58.674 99.0208C58.674 99.0182 58.674 99.0156 58.674 99.013C58.674 99.0104 58.674 99.0078 58.674 99.0052C58.674 99.0026 58.674 99 58.674 98.9974C58.674 98.9948 58.674 98.9922 58.674 98.9896C58.674 98.987 58.674 98.9844 58.674 98.9818C58.674 98.9791 58.674 98.9765 58.674 98.9739C58.674 98.9713 58.674 98.9687 58.674 98.9661C58.674 98.9635 58.674 98.9609 58.674 98.9583C58.674 98.9557 58.674 98.953 58.674 98.9504C58.674 98.9478 58.674 98.9452 58.674 98.9426C58.674 98.94 58.674 98.9373 58.674 98.9347C58.674 98.9321 58.674 98.9295 58.674 98.9269C58.674 98.9242 58.674 98.9216 58.674 98.919C58.674 98.9164 58.674 98.9137 58.674 98.9111C58.674 98.9085 58.674 98.9059 58.674 98.9033C58.674 98.9006 58.674 98.898 58.674 98.8954C58.674 98.8927 58.674 98.8901 58.674 98.8875C58.674 98.8848 58.674 98.8822 58.674 98.8796C58.674 98.8769 58.674 98.8743 58.674 98.8717C58.674 98.869 58.674 98.8664 58.674 98.8638C58.674 98.8611 58.674 98.8585 58.674 98.8558C58.674 98.8532 58.674 98.8506 58.674 98.8479C58.674 98.8453 58.674 98.8426 58.674 98.84C58.674 98.8373 58.674 98.8347 58.674 98.8321C58.674 98.8294 58.674 98.8268 58.674 98.8241C58.674 98.8215 58.674 98.8188 58.674 98.8162C58.674 98.8135 58.674 98.8109 58.674 98.8082C58.674 98.8055 58.674 98.8029 58.674 98.8002C58.674 98.7976 58.674 98.7949 58.674 98.7923C58.674 98.7896 58.674 98.787 58.674 98.7843C58.674 98.7816 58.674 98.779 58.674 98.7763C58.674 98.7737 58.674 98.771 58.674 98.7683C58.674 98.7657 58.674 98.763 58.674 98.7603C58.674 98.7577 58.674 98.755 58.674 98.7523C58.674 98.7496 58.674 98.747 58.674 98.7443C58.674 98.7416 58.674 98.739 58.674 98.7363C58.674 98.7336 58.674 98.7309 58.674 98.7283C58.674 98.7256 58.674 98.7229 58.674 98.7202C58.674 98.7176 58.674 98.7149 58.674 98.7122C58.674 98.7095 58.674 98.7068 58.674 98.7041C58.674 98.7015 58.674 98.6988 58.674 98.6961C58.674 98.6934 58.674 98.6907 58.674 98.688C58.674 98.6853 58.674 98.6826 58.674 98.68C58.674 98.6773 58.674 98.6746 58.674 98.6719C58.674 98.6692 58.674 98.6665 58.674 98.6638C58.674 98.6611 58.674 98.6584 58.674 98.6557C58.674 98.653 58.674 98.6503 58.674 98.6476C58.674 98.6449 58.674 98.6422 58.674 98.6395C58.674 98.6368 58.674 98.6341 58.674 98.6314C58.674 98.6287 58.674 98.626 58.674 98.6233C58.674 98.6206 58.674 98.6178 58.674 98.6151C58.674 98.6124 58.674 98.6097 58.674 98.607C58.674 98.6043 58.674 98.6016 58.674 98.5989C58.674 98.5961 58.674 98.5934 58.674 98.5907C58.674 98.588 58.674 98.5853 58.674 98.5825C58.674 98.5798 58.674 98.5771 58.674 98.5744C58.674 98.5716 58.674 98.5689 58.674 98.5662C58.674 98.5635 58.674 98.5607 58.674 98.558C58.674 98.5553 58.674 98.5526 58.674 98.5498C58.674 98.5471 58.674 98.5444 58.674 98.5416C58.674 98.5389 58.674 98.5362 58.674 98.5334C58.674 98.5307 58.674 98.5279 58.674 98.5252C58.674 98.5225 58.674 98.5197 58.674 98.517C58.674 98.5142 58.674 98.5115 58.674 98.5087C58.674 98.506 58.674 98.5033 58.674 98.5005C58.674 98.4978 58.674 98.495 58.674 98.4923C58.674 98.4895 58.674 98.4868 58.674 98.484C58.674 98.4812 58.674 98.4785 58.674 98.4757C58.674 98.473 58.674 98.4702 58.674 98.4675C58.674 98.4647 58.674 98.4619 58.674 98.4592C58.674 98.4564 58.674 98.4537 58.674 98.4509C58.674 98.4481 58.674 98.4454 58.674 98.4426C58.674 98.4398 58.674 98.4371 58.674 98.4343C58.674 98.4315 58.674 98.4288 58.674 98.426C58.674 98.4232 58.674 98.4204 58.674 98.4177C58.674 98.4149 58.674 98.4121 58.674 98.4093C58.674 98.4065 58.674 98.4038 58.674 98.401C58.674 98.3982 58.674 98.3954 58.674 98.3926C58.674 98.3899 58.674 98.3871 58.674 98.3843C58.674 98.3815 58.674 98.3787 58.674 98.3759C58.674 98.3731 58.674 98.3703 58.674 98.3675C58.674 98.3648 58.674 98.362 58.674 98.3592C58.674 98.3564 58.674 98.3536 58.674 98.3508C58.674 98.348 58.674 98.3452 58.674 98.3424C58.674 98.3396 58.674 98.3368 58.674 98.334C58.674 98.3312 58.674 98.3283 58.674 98.3255C58.674 98.3227 58.674 98.3199 58.674 98.3171C58.674 98.3143 58.674 98.3115 58.674 98.3087C58.674 98.3059 58.674 98.303 58.674 98.3002C58.674 98.2974 58.674 98.2946 58.674 98.2918C58.674 98.289 58.674 98.2861 58.674 98.2833C58.674 98.2805 58.674 98.2777 58.674 98.2748C58.674 98.272 58.674 98.2692 58.674 98.2664C58.674 98.2635 58.674 98.2607 58.674 98.2579C58.674 98.255 58.674 98.2522 58.674 98.2494C58.674 98.2465 58.674 98.2437 58.674 98.2409C58.674 98.238 58.674 98.2352 58.674 98.2323C58.674 98.2295 58.674 98.2267 58.674 98.2238C58.674 98.221 58.674 98.2181 58.674 98.2153C58.674 98.2124 58.674 98.2096 58.674 98.2067C58.674 98.2039 58.674 98.201 58.674 98.1982C58.674 98.1953 58.674 98.1925 58.674 98.1896C58.674 98.1868 58.674 98.1839 58.674 98.181C58.674 98.1782 58.674 98.1753 58.674 98.1725C58.674 98.1696 58.674 98.1667 58.674 98.1639C58.674 98.161 58.674 98.1581 58.674 98.1553C58.674 98.1524 58.674 98.1495 58.674 98.1466C58.674 98.1438 58.674 98.1409 58.674 98.138C58.674 98.1351 58.674 98.1323 58.674 98.1294C58.674 98.1265 58.674 98.1236 58.674 98.1208C58.674 98.1179 58.674 98.115 58.674 98.1121C58.674 98.1092 58.674 98.1063 58.674 98.1034C58.674 98.1005 58.674 98.0977 58.674 98.0948C58.674 98.0919 58.674 98.089 58.674 98.0861C58.674 98.0832 58.674 98.0803 58.674 98.0774C58.674 98.0745 58.674 98.0716 58.674 98.0687C58.674 98.0658 58.674 98.0629 58.674 98.06C58.674 98.0571 58.674 98.0542 58.674 98.0513C58.674 98.0483 58.674 98.0454 58.674 98.0425C58.674 98.0396 58.674 98.0367 58.674 98.0338C58.674 98.0309 58.674 98.028 58.674 98.025C58.674 98.0221 58.674 98.0192 58.674 98.0163C58.674 98.0134 58.674 98.0104 58.674 98.0075C58.674 98.0046 58.674 98.0016 58.674 97.9987C58.674 97.9958 58.674 97.9929 58.674 97.9899C58.674 97.987 58.674 97.9841 58.674 97.9811C58.674 97.9782 58.674 97.9753 58.674 97.9723C58.674 97.9694 58.674 97.9664 58.674 97.9635C58.674 97.9605 58.674 97.9576 58.674 97.9547C58.674 97.9517 58.674 97.9488 58.674 97.9458C58.674 97.9429 58.674 97.9399 58.674 97.937C58.674 97.934 58.674 97.931 58.674 97.9281C58.674 97.9251 58.674 97.9222 58.674 97.9192C58.674 97.9163 58.674 97.9133 58.674 97.9103C58.674 97.9074 58.674 97.9044 58.674 97.9014C58.674 97.8985 58.674 97.8955 58.674 97.8925C58.674 97.8895 58.674 97.8866 58.674 97.8836C58.674 97.8806 58.674 97.8776 58.674 97.8747C58.674 97.8717 58.674 97.8687 58.674 97.8657C58.674 97.8627 58.674 97.8598 58.674 97.8568C58.674 97.8538 58.674 97.8508 58.674 97.8478C58.674 97.8448 58.674 97.8418 58.674 97.8388C58.674 97.8359 58.674 97.8329 58.674 97.8299C58.674 97.8269 58.674 97.8239 58.674 97.8209C58.674 97.8179 58.674 97.8149 58.674 97.8119C58.674 97.8089 58.674 97.8058 58.674 97.8028C58.674 97.7998 58.674 97.7968 58.674 97.7938C58.674 97.7908 58.674 97.7878 58.674 97.7848C58.674 97.7818 58.674 97.7787 58.674 97.7757C58.674 97.7727 58.674 97.7697 58.674 97.7667C58.674 97.7636 58.674 97.7606 58.674 97.7576C58.674 97.7546 58.674 97.7515 58.674 97.7485C58.674 97.7455 58.674 97.7424 58.674 97.7394C58.674 97.7364 58.674 97.7333 58.674 97.7303C58.674 97.7273 58.674 97.7242 58.674 97.7212C58.674 97.7181 58.674 97.7151 58.674 97.7121C58.674 97.709 58.674 97.706 58.674 97.7029C58.674 97.6999 58.674 97.6968 58.674 97.6938C58.674 97.6907 58.674 97.6877 58.674 97.6846C58.674 97.6815 58.674 97.6785 58.674 97.6754C58.674 97.6724 58.674 97.6693 58.674 97.6662C58.674 97.6632 58.674 97.6601 58.674 97.657C58.674 97.654 58.674 97.6509 58.674 97.6478C58.674 97.6448 58.674 97.6417 58.674 97.6386C58.674 97.6355 58.674 97.6325 58.674 97.6294C58.674 97.6263 58.674 97.6232 58.674 97.6201C58.674 97.617 58.674 97.614 58.674 97.6109C58.674 97.6078 58.674 97.6047 58.674 97.6016C58.674 97.5985 58.674 97.5954 58.674 97.5923C58.674 97.5892 58.674 97.5861 58.674 97.583C58.674 97.5799 58.674 97.5768 58.674 97.5737C58.674 97.5706 58.674 97.5675 58.674 97.5644C58.674 97.5613 58.674 97.5582 58.674 97.5551C58.674 97.552 58.674 97.5488 58.674 97.5457C58.674 97.5426 58.674 97.5395 58.674 97.5364C58.674 97.5333 58.674 97.5301 58.674 97.527C58.674 97.5239 58.674 97.5208 58.674 97.5176C58.674 97.5145 58.674 97.5114 58.674 97.5082C58.674 97.5051 58.674 97.502 58.674 97.4988C58.674 97.4957 58.674 97.4926 58.674 97.4894C58.674 97.4863 58.674 97.4831 58.674 97.48C58.674 97.4769 58.674 97.4737 58.674 97.4706C58.674 97.4674 58.674 97.4643 58.674 97.4611C58.674 97.458 58.674 97.4548 58.674 97.4516C58.674 97.4485 58.674 97.4453 58.674 97.4422C58.674 97.439 58.674 97.4358 58.674 97.4327C58.674 97.4295 58.674 97.4263 58.674 97.4232C58.674 97.42 58.674 97.4168 58.674 97.4137C58.674 97.4105 58.674 97.4073 58.674 97.4041C58.674 97.401 58.674 97.3978 58.674 97.3946C58.674 97.3914 58.674 97.3882 58.674 97.385C58.674 97.3819 58.674 97.3787 58.674 97.3755C58.674 97.3723 58.674 97.3691 58.674 97.3659C58.674 97.3627 58.674 97.3595 58.674 97.3563C58.674 97.3531 58.674 97.3499 58.674 97.3467C58.674 97.3435 58.674 97.3403 58.674 97.3371C58.674 97.3339 58.674 97.3307 58.674 97.3275C58.674 97.3243 58.674 97.321 58.674 97.3178C58.674 97.3146 58.674 97.3114 58.674 97.3082C58.674 97.3049 58.674 97.3017 58.674 97.2985C58.674 97.2953 58.674 97.2921 58.674 97.2888C58.674 97.2856 58.674 97.2824 58.674 97.2791C58.674 97.2759 58.674 97.2727 58.674 97.2694C58.674 97.2662 58.674 97.2629 58.674 97.2597C58.674 97.2565 58.674 97.2532 58.674 97.25C58.674 97.2467 58.674 97.2435 58.674 97.2402C58.674 97.237 58.674 97.2337 58.674 97.2305C58.674 97.2272 58.674 97.2239 58.674 97.2207C58.674 97.2174 58.674 97.2142 58.674 97.2109C58.674 97.2076 58.674 97.2044 58.674 97.2011C58.674 97.1978 58.674 97.1946 58.674 97.1913C58.674 97.188 58.674 97.1847 58.674 97.1815C58.674 97.1782 58.674 97.1749 58.674 97.1716C58.674 97.1683 58.674 97.1651 58.674 97.1618C58.674 97.1585 58.674 97.1552 58.674 97.1519C58.674 97.1486 58.674 97.1453 58.674 97.142C58.674 97.1387 58.674 97.1354 58.674 97.1321C58.674 97.1288 58.674 97.1255 58.674 97.1222C58.674 97.1189 58.674 97.1156 58.674 97.1123C58.674 97.109 58.674 97.1057 58.674 97.1024C58.674 97.099 58.674 97.0957 58.674 97.0924C58.674 97.0891 58.674 97.0858 58.674 97.0824C58.674 97.0791 58.674 97.0758 58.674 97.0725C58.674 97.0691 58.674 97.0658 58.674 97.0625C58.674 97.0591 58.674 97.0558 58.674 97.0525C58.674 97.0491 58.674 97.0458 58.674 97.0424C58.674 97.0391 58.674 97.0358 58.674 97.0324C58.674 97.0291 58.674 97.0257 58.674 97.0224C58.674 97.019 58.674 97.0157 58.674 97.0123C58.674 97.009 58.674 97.0056 58.674 97.0022C58.674 96.9989 58.674 96.9955 58.674 96.9921C58.674 96.9888 58.674 96.9854 58.674 96.982C58.674 96.9787 58.674 96.9753 58.674 96.9719C58.674 96.9686 58.674 96.9652 58.674 96.9618C58.674 96.9584 58.674 96.955 58.674 96.9516C58.674 96.9483 58.674 96.9449 58.674 96.9415C58.674 96.9381 58.674 96.9347 58.674 96.9313C58.674 96.9279 58.674 96.9245 58.674 96.9211C58.674 96.9177 58.674 96.9143 58.674 96.9109C58.674 96.9075 58.674 96.9041 58.674 96.9007C58.674 96.8973 58.674 96.8939 58.674 96.8905C58.674 96.8871 58.674 96.8836 58.674 96.8802C58.674 96.8768 58.674 96.8734 58.674 96.87C58.674 96.8665 58.674 96.8631 58.674 96.8597C58.674 96.8563 58.674 96.8528 58.674 96.8494C58.674 96.846 58.674 96.8425 58.674 96.8391C58.674 96.8356 58.674 96.8322 58.674 96.8288C58.674 96.8253 58.674 96.8219 58.674 96.8184C58.674 96.815 58.674 96.8115 58.674 96.8081C58.674 96.8046 58.674 96.8012 58.674 96.7977C58.674 96.7943 58.674 96.7908 58.674 96.7873C58.674 96.7839 58.674 96.7804 58.674 96.7769C58.674 96.7735 58.674 96.77 58.674 96.7665C58.674 96.7631 58.674 96.7596 58.674 96.7561C58.674 96.7526 58.674 96.7492 58.674 96.7457C58.674 96.7422 58.674 96.7387 58.674 96.7352C58.674 96.7317 58.674 96.7282 58.674 96.7247C58.674 96.7213 58.674 96.7178 58.674 96.7143C58.674 96.7108 58.674 96.7073 58.674 96.7038C58.674 96.7003 58.674 96.6968 58.674 96.6932C58.674 96.6897 58.674 96.6862 58.674 96.6827C58.674 96.6792 58.674 96.6757 58.674 96.6722C58.674 96.6686 58.674 96.6651 58.674 96.6616C58.674 96.6581 58.674 96.6546 58.674 96.651C58.674 96.6475 58.674 96.644 58.674 96.6404C58.674 96.6369 58.674 96.6334 58.674 96.6298C58.674 96.6263 58.674 96.6227 58.674 96.6192C58.674 96.6157 58.674 96.6121 58.674 96.6086C58.674 96.605 58.674 96.6015 58.674 96.5979C58.674 96.5944 58.674 96.5908 58.674 96.5872C58.674 96.5837 58.674 96.5801 58.674 96.5766H56.674ZM56.674 100.815C56.674 101.562 56.424 102.057 56.0225 102.434C55.5871 102.842 54.9108 103.166 53.9883 103.4C52.127 103.87 49.6836 103.877 47.3495 103.877V105.877C49.607 105.877 52.3258 105.883 54.4788 105.338C55.5635 105.064 56.6074 104.627 57.3904 103.893C58.2074 103.127 58.674 102.098 58.674 100.815H56.674ZM47.3495 103.877C45.2942 103.877 43.7396 105.316 43.5115 106.946C43.393 107.792 43.6438 108.684 44.3673 109.342C45.068 109.979 46.0947 110.292 47.3495 110.292V108.292C46.3969 108.292 45.9225 108.053 45.7126 107.862C45.5255 107.692 45.4562 107.48 45.4922 107.223C45.5731 106.645 46.226 105.877 47.3495 105.877V103.877ZM47.3495 110.292C47.3564 110.292 47.3633 110.292 47.3703 110.292C47.3772 110.292 47.3841 110.292 47.3911 110.292C47.398 110.292 47.405 110.292 47.412 110.292C47.419 110.292 47.426 110.292 47.433 110.292C47.44 110.292 47.447 110.292 47.4541 110.292C47.4611 110.292 47.4682 110.292 47.4752 110.292C47.4823 110.292 47.4894 110.292 47.4965 110.292C47.5036 110.292 47.5107 110.292 47.5178 110.292C47.5249 110.292 47.5321 110.292 47.5392 110.292C47.5464 110.292 47.5535 110.292 47.5607 110.292C47.5679 110.292 47.5751 110.292 47.5823 110.292C47.5895 110.292 47.5967 110.292 47.604 110.292C47.6112 110.292 47.6184 110.292 47.6257 110.292C47.633 110.292 47.6402 110.292 47.6475 110.292C47.6548 110.292 47.6621 110.292 47.6694 110.292C47.6767 110.292 47.6841 110.292 47.6914 110.292C47.6988 110.292 47.7061 110.292 47.7135 110.292C47.7209 110.292 47.7282 110.292 47.7356 110.292C47.743 110.292 47.7504 110.292 47.7579 110.292C47.7653 110.292 47.7727 110.292 47.7802 110.292C47.7876 110.292 47.7951 110.292 47.8026 110.292C47.81 110.292 47.8175 110.292 47.825 110.292C47.8325 110.292 47.84 110.292 47.8476 110.292C47.8551 110.292 47.8626 110.292 47.8702 110.292C47.8777 110.292 47.8853 110.292 47.8929 110.292C47.9005 110.292 47.9081 110.292 47.9157 110.292C47.9233 110.292 47.9309 110.292 47.9385 110.292C47.9462 110.292 47.9538 110.292 47.9615 110.292C47.9691 110.292 47.9768 110.292 47.9845 110.292C47.9921 110.292 47.9998 110.292 48.0075 110.292C48.0153 110.292 48.023 110.292 48.0307 110.292C48.0384 110.292 48.0462 110.292 48.0539 110.292C48.0617 110.292 48.0695 110.292 48.0772 110.292C48.085 110.292 48.0928 110.292 48.1006 110.292C48.1084 110.292 48.1163 110.292 48.1241 110.292C48.1319 110.292 48.1398 110.292 48.1476 110.292C48.1555 110.292 48.1633 110.292 48.1712 110.292C48.1791 110.292 48.187 110.292 48.1949 110.292C48.2028 110.292 48.2107 110.292 48.2187 110.292C48.2266 110.292 48.2345 110.292 48.2425 110.292C48.2504 110.292 48.2584 110.292 48.2664 110.292C48.2743 110.292 48.2823 110.292 48.2903 110.292C48.2983 110.292 48.3064 110.292 48.3144 110.292C48.3224 110.292 48.3304 110.292 48.3385 110.292C48.3465 110.292 48.3546 110.292 48.3627 110.292C48.3707 110.292 48.3788 110.292 48.3869 110.292C48.395 110.292 48.4031 110.292 48.4112 110.292C48.4194 110.292 48.4275 110.292 48.4356 110.292C48.4438 110.292 48.4519 110.292 48.4601 110.292C48.4683 110.292 48.4764 110.292 48.4846 110.292C48.4928 110.292 48.501 110.292 48.5092 110.292C48.5174 110.292 48.5256 110.292 48.5339 110.292C48.5421 110.292 48.5504 110.292 48.5586 110.292C48.5669 110.292 48.5751 110.292 48.5834 110.292C48.5917 110.292 48.6 110.292 48.6083 110.292C48.6166 110.292 48.6249 110.292 48.6332 110.292C48.6415 110.292 48.6499 110.292 48.6582 110.292C48.6666 110.292 48.6749 110.292 48.6833 110.292C48.6917 110.292 48.7 110.292 48.7084 110.292C48.7168 110.292 48.7252 110.292 48.7336 110.292C48.742 110.292 48.7504 110.292 48.7589 110.292C48.7673 110.292 48.7758 110.292 48.7842 110.292C48.7927 110.292 48.8011 110.292 48.8096 110.292C48.8181 110.292 48.8266 110.292 48.8351 110.292C48.8436 110.292 48.8521 110.292 48.8606 110.292C48.8691 110.292 48.8776 110.292 48.8862 110.292C48.8947 110.292 48.9032 110.292 48.9118 110.292C48.9204 110.292 48.9289 110.292 48.9375 110.292C48.9461 110.292 48.9547 110.292 48.9633 110.292C48.9719 110.292 48.9805 110.292 48.9891 110.292C48.9977 110.292 49.0064 110.292 49.015 110.292C49.0237 110.292 49.0323 110.292 49.041 110.292C49.0496 110.292 49.0583 110.292 49.067 110.292C49.0757 110.292 49.0844 110.292 49.0931 110.292C49.1018 110.292 49.1105 110.292 49.1192 110.292C49.1279 110.292 49.1367 110.292 49.1454 110.292C49.1541 110.292 49.1629 110.292 49.1717 110.292C49.1804 110.292 49.1892 110.292 49.198 110.292C49.2068 110.292 49.2155 110.292 49.2244 110.292C49.2332 110.292 49.242 110.292 49.2508 110.292C49.2596 110.292 49.2684 110.292 49.2773 110.292C49.2861 110.292 49.295 110.292 49.3038 110.292C49.3127 110.292 49.3216 110.292 49.3304 110.292C49.3393 110.292 49.3482 110.292 49.3571 110.292C49.366 110.292 49.3749 110.292 49.3838 110.292C49.3927 110.292 49.4017 110.292 49.4106 110.292C49.4195 110.292 49.4285 110.292 49.4374 110.292C49.4464 110.292 49.4553 110.292 49.4643 110.292C49.4733 110.292 49.4823 110.292 49.4913 110.292C49.5002 110.292 49.5092 110.292 49.5183 110.292C49.5273 110.292 49.5363 110.292 49.5453 110.292C49.5543 110.292 49.5634 110.292 49.5724 110.292C49.5815 110.292 49.5905 110.292 49.5996 110.292C49.6086 110.292 49.6177 110.292 49.6268 110.292C49.6359 110.292 49.645 110.292 49.6541 110.292C49.6631 110.292 49.6723 110.292 49.6814 110.292C49.6905 110.292 49.6996 110.292 49.7087 110.292C49.7179 110.292 49.727 110.292 49.7362 110.292C49.7453 110.292 49.7545 110.292 49.7636 110.292C49.7728 110.292 49.782 110.292 49.7912 110.292C49.8004 110.292 49.8095 110.292 49.8188 110.292C49.828 110.292 49.8372 110.292 49.8464 110.292C49.8556 110.292 49.8648 110.292 49.8741 110.292C49.8833 110.292 49.8925 110.292 49.9018 110.292C49.911 110.292 49.9203 110.292 49.9296 110.292C49.9388 110.292 49.9481 110.292 49.9574 110.292C49.9667 110.292 49.976 110.292 49.9853 110.292C49.9946 110.292 50.0039 110.292 50.0132 110.292C50.0225 110.292 50.0318 110.292 50.0412 110.292C50.0505 110.292 50.0598 110.292 50.0692 110.292C50.0785 110.292 50.0879 110.292 50.0973 110.292C50.1066 110.292 50.116 110.292 50.1254 110.292C50.1348 110.292 50.1441 110.292 50.1535 110.292C50.1629 110.292 50.1723 110.292 50.1818 110.292C50.1912 110.292 50.2006 110.292 50.21 110.292C50.2194 110.292 50.2289 110.292 50.2383 110.292C50.2478 110.292 50.2572 110.292 50.2667 110.292C50.2761 110.292 50.2856 110.292 50.2951 110.292C50.3045 110.292 50.314 110.292 50.3235 110.292C50.333 110.292 50.3425 110.292 50.352 110.292C50.3615 110.292 50.371 110.292 50.3805 110.292C50.39 110.292 50.3995 110.292 50.4091 110.292C50.4186 110.292 50.4281 110.292 50.4377 110.292C50.4472 110.292 50.4568 110.292 50.4663 110.292C50.4759 110.292 50.4855 110.292 50.495 110.292C50.5046 110.292 50.5142 110.292 50.5238 110.292C50.5334 110.292 50.5429 110.292 50.5526 110.292C50.5622 110.292 50.5718 110.292 50.5814 110.292C50.591 110.292 50.6006 110.292 50.6102 110.292C50.6199 110.292 50.6295 110.292 50.6391 110.292C50.6488 110.292 50.6584 110.292 50.6681 110.292C50.6777 110.292 50.6874 110.292 50.6971 110.292C50.7067 110.292 50.7164 110.292 50.7261 110.292C50.7358 110.292 50.7455 110.292 50.7552 110.292C50.7649 110.292 50.7746 110.292 50.7843 110.292C50.794 110.292 50.8037 110.292 50.8134 110.292C50.8231 110.292 50.8329 110.292 50.8426 110.292C50.8523 110.292 50.8621 110.292 50.8718 110.292C50.8816 110.292 50.8913 110.292 50.9011 110.292C50.9108 110.292 50.9206 110.292 50.9304 110.292C50.9401 110.292 50.9499 110.292 50.9597 110.292C50.9695 110.292 50.9793 110.292 50.9891 110.292C50.9989 110.292 51.0087 110.292 51.0185 110.292C51.0283 110.292 51.0381 110.292 51.0479 110.292C51.0577 110.292 51.0676 110.292 51.0774 110.292C51.0872 110.292 51.0971 110.292 51.1069 110.292C51.1167 110.292 51.1266 110.292 51.1364 110.292C51.1463 110.292 51.1562 110.292 51.166 110.292C51.1759 110.292 51.1858 110.292 51.1956 110.292C51.2055 110.292 51.2154 110.292 51.2253 110.292C51.2352 110.292 51.2451 110.292 51.255 110.292C51.2649 110.292 51.2748 110.292 51.2847 110.292C51.2946 110.292 51.3045 110.292 51.3144 110.292C51.3244 110.292 51.3343 110.292 51.3442 110.292C51.3542 110.292 51.3641 110.292 51.374 110.292C51.384 110.292 51.3939 110.292 51.4039 110.292C51.4138 110.292 51.4238 110.292 51.4338 110.292C51.4437 110.292 51.4537 110.292 51.4637 110.292C51.4736 110.292 51.4836 110.292 51.4936 110.292C51.5036 110.292 51.5136 110.292 51.5236 110.292C51.5336 110.292 51.5436 110.292 51.5536 110.292C51.5636 110.292 51.5736 110.292 51.5836 110.292C51.5936 110.292 51.6036 110.292 51.6136 110.292C51.6237 110.292 51.6337 110.292 51.6437 110.292C51.6538 110.292 51.6638 110.292 51.6738 110.292C51.6839 110.292 51.6939 110.292 51.704 110.292C51.714 110.292 51.7241 110.292 51.7342 110.292C51.7442 110.292 51.7543 110.292 51.7644 110.292C51.7744 110.292 51.7845 110.292 51.7946 110.292C51.8047 110.292 51.8147 110.292 51.8248 110.292C51.8349 110.292 51.845 110.292 51.8551 110.292C51.8652 110.292 51.8753 110.292 51.8854 110.292C51.8955 110.292 51.9056 110.292 51.9157 110.292C51.9259 110.292 51.936 110.292 51.9461 110.292C51.9562 110.292 51.9664 110.292 51.9765 110.292C51.9866 110.292 51.9967 110.292 52.0069 110.292C52.017 110.292 52.0272 110.292 52.0373 110.292C52.0475 110.292 52.0576 110.292 52.0678 110.292C52.0779 110.292 52.0881 110.292 52.0982 110.292C52.1084 110.292 52.1186 110.292 52.1287 110.292C52.1389 110.292 52.1491 110.292 52.1593 110.292C52.1695 110.292 52.1796 110.292 52.1898 110.292C52.2 110.292 52.2102 110.292 52.2204 110.292C52.2306 110.292 52.2408 110.292 52.251 110.292C52.2612 110.292 52.2714 110.292 52.2816 110.292C52.2918 110.292 52.302 110.292 52.3122 110.292C52.3224 110.292 52.3327 110.292 52.3429 110.292C52.3531 110.292 52.3633 110.292 52.3736 110.292C52.3838 110.292 52.394 110.292 52.4042 110.292C52.4145 110.292 52.4247 110.292 52.435 110.292C52.4452 110.292 52.4554 110.292 52.4657 110.292C52.4759 110.292 52.4862 110.292 52.4964 110.292C52.5067 110.292 52.517 110.292 52.5272 110.292C52.5375 110.292 52.5477 110.292 52.558 110.292C52.5683 110.292 52.5785 110.292 52.5888 110.292C52.5991 110.292 52.6094 110.292 52.6196 110.292C52.6299 110.292 52.6402 110.292 52.6505 110.292C52.6608 110.292 52.6711 110.292 52.6813 110.292C52.6916 110.292 52.7019 110.292 52.7122 110.292C52.7225 110.292 52.7328 110.292 52.7431 110.292C52.7534 110.292 52.7637 110.292 52.774 110.292C52.7843 110.292 52.7946 110.292 52.8049 110.292C52.8153 110.292 52.8256 110.292 52.8359 110.292C52.8462 110.292 52.8565 110.292 52.8668 110.292C52.8772 110.292 52.8875 110.292 52.8978 110.292C52.9081 110.292 52.9185 110.292 52.9288 110.292C52.9391 110.292 52.9495 110.292 52.9598 110.292C52.9701 110.292 52.9805 110.292 52.9908 110.292C53.0011 110.292 53.0115 110.292 53.0218 110.292C53.0322 110.292 53.0425 110.292 53.0529 110.292C53.0632 110.292 53.0736 110.292 53.0839 110.292C53.0943 110.292 53.1046 110.292 53.115 110.292C53.1253 110.292 53.1357 110.292 53.146 110.292C53.1564 110.292 53.1668 110.292 53.1771 110.292C53.1875 110.292 53.1979 110.292 53.2082 110.292C53.2186 110.292 53.229 110.292 53.2393 110.292C53.2497 110.292 53.2601 110.292 53.2704 110.292C53.2808 110.292 53.2912 110.292 53.3016 110.292C53.3119 110.292 53.3223 110.292 53.3327 110.292C53.3431 110.292 53.3535 110.292 53.3638 110.292C53.3742 110.292 53.3846 110.292 53.395 110.292C53.4054 110.292 53.4158 110.292 53.4262 110.292C53.4365 110.292 53.4469 110.292 53.4573 110.292C53.4677 110.292 53.4781 110.292 53.4885 110.292C53.4989 110.292 53.5093 110.292 53.5197 110.292C53.5301 110.292 53.5405 110.292 53.5509 110.292C53.5613 110.292 53.5717 110.292 53.5821 110.292C53.5925 110.292 53.6029 110.292 53.6133 110.292C53.6237 110.292 53.6341 110.292 53.6445 110.292C53.6549 110.292 53.6653 110.292 53.6757 110.292C53.6861 110.292 53.6965 110.292 53.7069 110.292C53.7174 110.292 53.7278 110.292 53.7382 110.292C53.7486 110.292 53.759 110.292 53.7694 110.292C53.7798 110.292 53.7902 110.292 53.8006 110.292C53.8111 110.292 53.8215 110.292 53.8319 110.292C53.8423 110.292 53.8527 110.292 53.8631 110.292C53.8735 110.292 53.884 110.292 53.8944 110.292C53.9048 110.292 53.9152 110.292 53.9256 110.292C53.936 110.292 53.9465 110.292 53.9569 110.292C53.9673 110.292 53.9777 110.292 53.9881 110.292C53.9986 110.292 54.009 110.292 54.0194 110.292C54.0298 110.292 54.0402 110.292 54.0507 110.292C54.0611 110.292 54.0715 110.292 54.0819 110.292C54.0923 110.292 54.1028 110.292 54.1132 110.292C54.1236 110.292 54.134 110.292 54.1444 110.292C54.1549 110.292 54.1653 110.292 54.1757 110.292C54.1861 110.292 54.1965 110.292 54.207 110.292C54.2174 110.292 54.2278 110.292 54.2382 110.292C54.2486 110.292 54.2591 110.292 54.2695 110.292C54.2799 110.292 54.2903 110.292 54.3007 110.292C54.3112 110.292 54.3216 110.292 54.332 110.292C54.3424 110.292 54.3528 110.292 54.3633 110.292C54.3737 110.292 54.3841 110.292 54.3945 110.292C54.4049 110.292 54.4153 110.292 54.4258 110.292C54.4362 110.292 54.4466 110.292 54.457 110.292C54.4674 110.292 54.4778 110.292 54.4883 110.292C54.4987 110.292 54.5091 110.292 54.5195 110.292C54.5299 110.292 54.5403 110.292 54.5507 110.292C54.5611 110.292 54.5716 110.292 54.582 110.292C54.5924 110.292 54.6028 110.292 54.6132 110.292C54.6236 110.292 54.634 110.292 54.6444 110.292C54.6548 110.292 54.6652 110.292 54.6756 110.292C54.686 110.292 54.6964 110.292 54.7068 110.292C54.7172 110.292 54.7276 110.292 54.738 110.292C54.7484 110.292 54.7588 110.292 54.7692 110.292C54.7796 110.292 54.79 110.292 54.8004 110.292C54.8108 110.292 54.8212 110.292 54.8316 110.292C54.842 110.292 54.8524 110.292 54.8628 110.292C54.8732 110.292 54.8836 110.292 54.894 110.292C54.9043 110.292 54.9147 110.292 54.9251 110.292C54.9355 110.292 54.9459 110.292 54.9563 110.292C54.9667 110.292 54.977 110.292 54.9874 110.292C54.9978 110.292 55.0082 110.292 55.0185 110.292C55.0289 110.292 55.0393 110.292 55.0497 110.292C55.06 110.292 55.0704 110.292 55.0808 110.292C55.0912 110.292 55.1015 110.292 55.1119 110.292C55.1223 110.292 55.1326 110.292 55.143 110.292C55.1533 110.292 55.1637 110.292 55.1741 110.292C55.1844 110.292 55.1948 110.292 55.2051 110.292C55.2155 110.292 55.2258 110.292 55.2362 110.292C55.2465 110.292 55.2569 110.292 55.2672 110.292C55.2776 110.292 55.2879 110.292 55.2983 110.292C55.3086 110.292 55.3189 110.292 55.3293 110.292C55.3396 110.292 55.35 110.292 55.3603 110.292C55.3706 110.292 55.381 110.292 55.3913 110.292C55.4016 110.292 55.4119 110.292 55.4223 110.292C55.4326 110.292 55.4429 110.292 55.4532 110.292C55.4635 110.292 55.4739 110.292 55.4842 110.292C55.4945 110.292 55.5048 110.292 55.5151 110.292C55.5254 110.292 55.5357 110.292 55.546 110.292C55.5563 110.292 55.5666 110.292 55.5769 110.292C55.5872 110.292 55.5975 110.292 55.6078 110.292C55.6181 110.292 55.6284 110.292 55.6387 110.292C55.649 110.292 55.6593 110.292 55.6696 110.292C55.6798 110.292 55.6901 110.292 55.7004 110.292C55.7107 110.292 55.7209 110.292 55.7312 110.292C55.7415 110.292 55.7518 110.292 55.762 110.292C55.7723 110.292 55.7825 110.292 55.7928 110.292C55.8031 110.292 55.8133 110.292 55.8236 110.292C55.8338 110.292 55.8441 110.292 55.8543 110.292C55.8646 110.292 55.8748 110.292 55.885 110.292C55.8953 110.292 55.9055 110.292 55.9158 110.292C55.926 110.292 55.9362 110.292 55.9464 110.292C55.9567 110.292 55.9669 110.292 55.9771 110.292C55.9873 110.292 55.9976 110.292 56.0078 110.292C56.018 110.292 56.0282 110.292 56.0384 110.292C56.0486 110.292 56.0588 110.292 56.069 110.292C56.0792 110.292 56.0894 110.292 56.0996 110.292C56.1098 110.292 56.12 110.292 56.1301 110.292C56.1403 110.292 56.1505 110.292 56.1607 110.292C56.1709 110.292 56.181 110.292 56.1912 110.292C56.2014 110.292 56.2115 110.292 56.2217 110.292C56.2319 110.292 56.242 110.292 56.2522 110.292C56.2623 110.292 56.2725 110.292 56.2826 110.292C56.2928 110.292 56.3029 110.292 56.313 110.292C56.3232 110.292 56.3333 110.292 56.3434 110.292C56.3536 110.292 56.3637 110.292 56.3738 110.292C56.3839 110.292 56.3941 110.292 56.4042 110.292C56.4143 110.292 56.4244 110.292 56.4345 110.292C56.4446 110.292 56.4547 110.292 56.4648 110.292C56.4749 110.292 56.485 110.292 56.4951 110.292C56.5051 110.292 56.5152 110.292 56.5253 110.292C56.5354 110.292 56.5455 110.292 56.5555 110.292C56.5656 110.292 56.5756 110.292 56.5857 110.292C56.5958 110.292 56.6058 110.292 56.6159 110.292C56.6259 110.292 56.636 110.292 56.646 110.292C56.656 110.292 56.6661 110.292 56.6761 110.292C56.6861 110.292 56.6962 110.292 56.7062 110.292C56.7162 110.292 56.7262 110.292 56.7362 110.292C56.7463 110.292 56.7563 110.292 56.7663 110.292C56.7763 110.292 56.7863 110.292 56.7963 110.292C56.8062 110.292 56.8162 110.292 56.8262 110.292C56.8362 110.292 56.8462 110.292 56.8561 110.292C56.8661 110.292 56.8761 110.292 56.886 110.292C56.896 110.292 56.906 110.292 56.9159 110.292C56.9259 110.292 56.9358 110.292 56.9457 110.292C56.9557 110.292 56.9656 110.292 56.9755 110.292C56.9855 110.292 56.9954 110.292 57.0053 110.292C57.0152 110.292 57.0252 110.292 57.0351 110.292C57.045 110.292 57.0549 110.292 57.0648 110.292C57.0747 110.292 57.0846 110.292 57.0944 110.292C57.1043 110.292 57.1142 110.292 57.1241 110.292C57.134 110.292 57.1438 110.292 57.1537 110.292C57.1636 110.292 57.1734 110.292 57.1833 110.292C57.1931 110.292 57.203 110.292 57.2128 110.292C57.2226 110.292 57.2325 110.292 57.2423 110.292C57.2521 110.292 57.262 110.292 57.2718 110.292C57.2816 110.292 57.2914 110.292 57.3012 110.292C57.311 110.292 57.3208 110.292 57.3306 110.292C57.3404 110.292 57.3502 110.292 57.36 110.292C57.3697 110.292 57.3795 110.292 57.3893 110.292C57.399 110.292 57.4088 110.292 57.4186 110.292C57.4283 110.292 57.4381 110.292 57.4478 110.292C57.4576 110.292 57.4673 110.292 57.477 110.292C57.4868 110.292 57.4965 110.292 57.5062 110.292C57.5159 110.292 57.5256 110.292 57.5353 110.292C57.545 110.292 57.5547 110.292 57.5644 110.292C57.5741 110.292 57.5838 110.292 57.5935 110.292C57.6032 110.292 57.6128 110.292 57.6225 110.292C57.6322 110.292 57.6418 110.292 57.6515 110.292C57.6611 110.292 57.6708 110.292 57.6804 110.292C57.69 110.292 57.6997 110.292 57.7093 110.292C57.7189 110.292 57.7285 110.292 57.7382 110.292C57.7478 110.292 57.7574 110.292 57.767 110.292C57.7766 110.292 57.7862 110.292 57.7957 110.292C57.8053 110.292 57.8149 110.292 57.8245 110.292C57.834 110.292 57.8436 110.292 57.8532 110.292C57.8627 110.292 57.8723 110.292 57.8818 110.292C57.8913 110.292 57.9009 110.292 57.9104 110.292C57.9199 110.292 57.9294 110.292 57.939 110.292C57.9485 110.292 57.958 110.292 57.9675 110.292C57.977 110.292 57.9865 110.292 57.9959 110.292C58.0054 110.292 58.0149 110.292 58.0244 110.292C58.0338 110.292 58.0433 110.292 58.0527 110.292C58.0622 110.292 58.0716 110.292 58.0811 110.292C58.0905 110.292 58.1 110.292 58.1094 110.292C58.1188 110.292 58.1282 110.292 58.1376 110.292C58.147 110.292 58.1564 110.292 58.1658 110.292C58.1752 110.292 58.1846 110.292 58.194 110.292C58.2033 110.292 58.2127 110.292 58.2221 110.292C58.2314 110.292 58.2408 110.292 58.2501 110.292C58.2595 110.292 58.2688 110.292 58.2781 110.292C58.2875 110.292 58.2968 110.292 58.3061 110.292C58.3154 110.292 58.3247 110.292 58.334 110.292C58.3433 110.292 58.3526 110.292 58.3619 110.292C58.3712 110.292 58.3804 110.292 58.3897 110.292C58.399 110.292 58.4082 110.292 58.4175 110.292C58.4267 110.292 58.436 110.292 58.4452 110.292C58.4544 110.292 58.4636 110.292 58.4728 110.292C58.4821 110.292 58.4913 110.292 58.5005 110.292C58.5097 110.292 58.5189 110.292 58.528 110.292C58.5372 110.292 58.5464 110.292 58.5555 110.292C58.5647 110.292 58.5739 110.292 58.583 110.292C58.5922 110.292 58.6013 110.292 58.6104 110.292C58.6195 110.292 58.6287 110.292 58.6378 110.292C58.6469 110.292 58.656 110.292 58.6651 110.292C58.6742 110.292 58.6833 110.292 58.6923 110.292C58.7014 110.292 58.7105 110.292 58.7195 110.292C58.7286 110.292 58.7376 110.292 58.7467 110.292C58.7557 110.292 58.7648 110.292 58.7738 110.292C58.7828 110.292 58.7918 110.292 58.8008 110.292C58.8098 110.292 58.8188 110.292 58.8278 110.292C58.8368 110.292 58.8458 110.292 58.8547 110.292C58.8637 110.292 58.8727 110.292 58.8816 110.292C58.8906 110.292 58.8995 110.292 58.9084 110.292C58.9174 110.292 58.9263 110.292 58.9352 110.292C58.9441 110.292 58.953 110.292 58.9619 110.292C58.9708 110.292 58.9797 110.292 58.9885 110.292C58.9974 110.292 59.0063 110.292 59.0151 110.292C59.024 110.292 59.0328 110.292 59.0417 110.292C59.0505 110.292 59.0593 110.292 59.0681 110.292C59.077 110.292 59.0858 110.292 59.0946 110.292C59.1034 110.292 59.1121 110.292 59.1209 110.292C59.1297 110.292 59.1385 110.292 59.1472 110.292C59.156 110.292 59.1647 110.292 59.1735 110.292C59.1822 110.292 59.1909 110.292 59.1996 110.292C59.2084 110.292 59.2171 110.292 59.2258 110.292C59.2345 110.292 59.2432 110.292 59.2518 110.292C59.2605 110.292 59.2692 110.292 59.2778 110.292C59.2865 110.292 59.2951 110.292 59.3038 110.292C59.3124 110.292 59.321 110.292 59.3297 110.292C59.3383 110.292 59.3469 110.292 59.3555 110.292C59.3641 110.292 59.3727 110.292 59.3812 110.292C59.3898 110.292 59.3984 110.292 59.4069 110.292C59.4155 110.292 59.424 110.292 59.4325 110.292C59.4411 110.292 59.4496 110.292 59.4581 110.292C59.4666 110.292 59.4751 110.292 59.4836 110.292C59.4921 110.292 59.5006 110.292 59.5091 110.292C59.5175 110.292 59.526 110.292 59.5344 110.292C59.5429 110.292 59.5513 110.292 59.5597 110.292C59.5682 110.292 59.5766 110.292 59.585 110.292C59.5934 110.292 59.6018 110.292 59.6102 110.292C59.6186 110.292 59.6269 110.292 59.6353 110.292C59.6437 110.292 59.652 110.292 59.6603 110.292C59.6687 110.292 59.677 110.292 59.6853 110.292C59.6936 110.292 59.702 110.292 59.7102 110.292C59.7185 110.292 59.7268 110.292 59.7351 110.292C59.7434 110.292 59.7516 110.292 59.7599 110.292C59.7681 110.292 59.7764 110.292 59.7846 110.292C59.7928 110.292 59.801 110.292 59.8092 110.292C59.8174 110.292 59.8256 110.292 59.8338 110.292C59.842 110.292 59.8502 110.292 59.8583 110.292C59.8665 110.292 59.8746 110.292 59.8828 110.292C59.8909 110.292 59.899 110.292 59.9072 110.292C59.9153 110.292 59.9234 110.292 59.9315 110.292C59.9395 110.292 59.9476 110.292 59.9557 110.292C59.9638 110.292 59.9718 110.292 59.9798 110.292C59.9879 110.292 59.9959 110.292 60.0039 110.292C60.012 110.292 60.02 110.292 60.028 110.292C60.036 110.292 60.0439 110.292 60.0519 110.292C60.0599 110.292 60.0678 110.292 60.0758 110.292C60.0837 110.292 60.0917 110.292 60.0996 110.292C60.1075 110.292 60.1154 110.292 60.1233 110.292C60.1312 110.292 60.1391 110.292 60.147 110.292C60.1549 110.292 60.1627 110.292 60.1706 110.292C60.1784 110.292 60.1863 110.292 60.1941 110.292C60.2019 110.292 60.2097 110.292 60.2175 110.292C60.2253 110.292 60.2331 110.292 60.2409 110.292C60.2487 110.292 60.2564 110.292 60.2642 110.292C60.2719 110.292 60.2797 110.292 60.2874 110.292C60.2951 110.292 60.3028 110.292 60.3105 110.292C60.3182 110.292 60.3259 110.292 60.3336 110.292C60.3413 110.292 60.3489 110.292 60.3566 110.292C60.3642 110.292 60.3719 110.292 60.3795 110.292C60.3871 110.292 60.3947 110.292 60.4023 110.292C60.4099 110.292 60.4175 110.292 60.4251 110.292C60.4327 110.292 60.4402 110.292 60.4478 110.292C60.4553 110.292 60.4628 110.292 60.4704 110.292C60.4779 110.292 60.4854 110.292 60.4929 110.292C60.5004 110.292 60.5079 110.292 60.5153 110.292C60.5228 110.292 60.5303 110.292 60.5377 110.292C60.5452 110.292 60.5526 110.292 60.56 110.292C60.5674 110.292 60.5748 110.292 60.5822 110.292C60.5896 110.292 60.597 110.292 60.6043 110.292C60.6117 110.292 60.619 110.292 60.6264 110.292C60.6337 110.292 60.641 110.292 60.6483 110.292C60.6557 110.292 60.663 110.292 60.6702 110.292C60.6775 110.292 60.6848 110.292 60.692 110.292C60.6993 110.292 60.7065 110.292 60.7138 110.292C60.721 110.292 60.7282 110.292 60.7354 110.292C60.7426 110.292 60.7498 110.292 60.757 110.292C60.7641 110.292 60.7713 110.292 60.7784 110.292C60.7856 110.292 60.7927 110.292 60.7998 110.292C60.8069 110.292 60.8141 110.292 60.8211 110.292C60.8282 110.292 60.8353 110.292 60.8424 110.292C60.8494 110.292 60.8565 110.292 60.8635 110.292C60.8705 110.292 60.8776 110.292 60.8846 110.292C60.8916 110.292 60.8986 110.292 60.9055 110.292C60.9125 110.292 60.9195 110.292 60.9264 110.292C60.9334 110.292 60.9403 110.292 60.9472 110.292C60.9542 110.292 60.9611 110.292 60.9679 110.292C60.9748 110.292 60.9817 110.292 60.9886 110.292C60.9954 110.292 61.0023 110.292 61.0091 110.292C61.016 110.292 61.0228 110.292 61.0296 110.292C61.0364 110.292 61.0432 110.292 61.0499 110.292C61.0567 110.292 61.0635 110.292 61.0702 110.292C61.077 110.292 61.0837 110.292 61.0904 110.292C61.0971 110.292 61.1038 110.292 61.1105 110.292C61.1172 110.292 61.1239 110.292 61.1305 110.292C61.1372 110.292 61.1438 110.292 61.1505 110.292C61.1571 110.292 61.1637 110.292 61.1703 110.292C61.1769 110.292 61.1835 110.292 61.1901 110.292C61.1966 110.292 61.2032 110.292 61.2097 110.292C61.2163 110.292 61.2228 110.292 61.2293 110.292C61.2358 110.292 61.2423 110.292 61.2488 110.292C61.2552 110.292 61.2617 110.292 61.2682 110.292C61.2746 110.292 61.281 110.292 61.2874 110.292C61.2939 110.292 61.3003 110.292 61.3066 110.292C61.313 110.292 61.3194 110.292 61.3258 110.292C61.3321 110.292 61.3385 110.292 61.3448 110.292C61.3511 110.292 61.3574 110.292 61.3637 110.292C61.37 110.292 61.3763 110.292 61.3825 110.292V108.292C61.3763 108.292 61.37 108.292 61.3637 108.292C61.3574 108.292 61.3511 108.292 61.3448 108.292C61.3385 108.292 61.3321 108.292 61.3258 108.292C61.3194 108.292 61.313 108.292 61.3066 108.292C61.3003 108.292 61.2939 108.292 61.2874 108.292C61.281 108.292 61.2746 108.292 61.2682 108.292C61.2617 108.292 61.2552 108.292 61.2488 108.292C61.2423 108.292 61.2358 108.292 61.2293 108.292C61.2228 108.292 61.2163 108.292 61.2097 108.292C61.2032 108.292 61.1966 108.292 61.1901 108.292C61.1835 108.292 61.1769 108.292 61.1703 108.292C61.1637 108.292 61.1571 108.292 61.1505 108.292C61.1438 108.292 61.1372 108.292 61.1305 108.292C61.1239 108.292 61.1172 108.292 61.1105 108.292C61.1038 108.292 61.0971 108.292 61.0904 108.292C61.0837 108.292 61.077 108.292 61.0702 108.292C61.0635 108.292 61.0567 108.292 61.0499 108.292C61.0432 108.292 61.0364 108.292 61.0296 108.292C61.0228 108.292 61.016 108.292 61.0091 108.292C61.0023 108.292 60.9954 108.292 60.9886 108.292C60.9817 108.292 60.9748 108.292 60.9679 108.292C60.9611 108.292 60.9542 108.292 60.9472 108.292C60.9403 108.292 60.9334 108.292 60.9264 108.292C60.9195 108.292 60.9125 108.292 60.9055 108.292C60.8986 108.292 60.8916 108.292 60.8846 108.292C60.8776 108.292 60.8705 108.292 60.8635 108.292C60.8565 108.292 60.8494 108.292 60.8424 108.292C60.8353 108.292 60.8282 108.292 60.8211 108.292C60.8141 108.292 60.8069 108.292 60.7998 108.292C60.7927 108.292 60.7856 108.292 60.7784 108.292C60.7713 108.292 60.7641 108.292 60.757 108.292C60.7498 108.292 60.7426 108.292 60.7354 108.292C60.7282 108.292 60.721 108.292 60.7138 108.292C60.7065 108.292 60.6993 108.292 60.692 108.292C60.6848 108.292 60.6775 108.292 60.6702 108.292C60.663 108.292 60.6557 108.292 60.6483 108.292C60.641 108.292 60.6337 108.292 60.6264 108.292C60.619 108.292 60.6117 108.292 60.6043 108.292C60.597 108.292 60.5896 108.292 60.5822 108.292C60.5748 108.292 60.5674 108.292 60.56 108.292C60.5526 108.292 60.5452 108.292 60.5377 108.292C60.5303 108.292 60.5228 108.292 60.5153 108.292C60.5079 108.292 60.5004 108.292 60.4929 108.292C60.4854 108.292 60.4779 108.292 60.4704 108.292C60.4628 108.292 60.4553 108.292 60.4478 108.292C60.4402 108.292 60.4327 108.292 60.4251 108.292C60.4175 108.292 60.4099 108.292 60.4023 108.292C60.3947 108.292 60.3871 108.292 60.3795 108.292C60.3719 108.292 60.3642 108.292 60.3566 108.292C60.3489 108.292 60.3413 108.292 60.3336 108.292C60.3259 108.292 60.3182 108.292 60.3105 108.292C60.3028 108.292 60.2951 108.292 60.2874 108.292C60.2797 108.292 60.2719 108.292 60.2642 108.292C60.2564 108.292 60.2487 108.292 60.2409 108.292C60.2331 108.292 60.2253 108.292 60.2175 108.292C60.2097 108.292 60.2019 108.292 60.1941 108.292C60.1863 108.292 60.1784 108.292 60.1706 108.292C60.1627 108.292 60.1549 108.292 60.147 108.292C60.1391 108.292 60.1312 108.292 60.1233 108.292C60.1154 108.292 60.1075 108.292 60.0996 108.292C60.0917 108.292 60.0837 108.292 60.0758 108.292C60.0678 108.292 60.0599 108.292 60.0519 108.292C60.0439 108.292 60.036 108.292 60.028 108.292C60.02 108.292 60.012 108.292 60.0039 108.292C59.9959 108.292 59.9879 108.292 59.9798 108.292C59.9718 108.292 59.9638 108.292 59.9557 108.292C59.9476 108.292 59.9395 108.292 59.9315 108.292C59.9234 108.292 59.9153 108.292 59.9072 108.292C59.899 108.292 59.8909 108.292 59.8828 108.292C59.8746 108.292 59.8665 108.292 59.8583 108.292C59.8502 108.292 59.842 108.292 59.8338 108.292C59.8256 108.292 59.8174 108.292 59.8092 108.292C59.801 108.292 59.7928 108.292 59.7846 108.292C59.7764 108.292 59.7681 108.292 59.7599 108.292C59.7516 108.292 59.7434 108.292 59.7351 108.292C59.7268 108.292 59.7185 108.292 59.7102 108.292C59.702 108.292 59.6936 108.292 59.6853 108.292C59.677 108.292 59.6687 108.292 59.6603 108.292C59.652 108.292 59.6437 108.292 59.6353 108.292C59.6269 108.292 59.6186 108.292 59.6102 108.292C59.6018 108.292 59.5934 108.292 59.585 108.292C59.5766 108.292 59.5682 108.292 59.5597 108.292C59.5513 108.292 59.5429 108.292 59.5344 108.292C59.526 108.292 59.5175 108.292 59.5091 108.292C59.5006 108.292 59.4921 108.292 59.4836 108.292C59.4751 108.292 59.4666 108.292 59.4581 108.292C59.4496 108.292 59.4411 108.292 59.4325 108.292C59.424 108.292 59.4155 108.292 59.4069 108.292C59.3984 108.292 59.3898 108.292 59.3812 108.292C59.3727 108.292 59.3641 108.292 59.3555 108.292C59.3469 108.292 59.3383 108.292 59.3297 108.292C59.321 108.292 59.3124 108.292 59.3038 108.292C59.2951 108.292 59.2865 108.292 59.2778 108.292C59.2692 108.292 59.2605 108.292 59.2518 108.292C59.2432 108.292 59.2345 108.292 59.2258 108.292C59.2171 108.292 59.2084 108.292 59.1996 108.292C59.1909 108.292 59.1822 108.292 59.1735 108.292C59.1647 108.292 59.156 108.292 59.1472 108.292C59.1385 108.292 59.1297 108.292 59.1209 108.292C59.1121 108.292 59.1034 108.292 59.0946 108.292C59.0858 108.292 59.077 108.292 59.0681 108.292C59.0593 108.292 59.0505 108.292 59.0417 108.292C59.0328 108.292 59.024 108.292 59.0151 108.292C59.0063 108.292 58.9974 108.292 58.9885 108.292C58.9797 108.292 58.9708 108.292 58.9619 108.292C58.953 108.292 58.9441 108.292 58.9352 108.292C58.9263 108.292 58.9174 108.292 58.9084 108.292C58.8995 108.292 58.8906 108.292 58.8816 108.292C58.8727 108.292 58.8637 108.292 58.8547 108.292C58.8458 108.292 58.8368 108.292 58.8278 108.292C58.8188 108.292 58.8098 108.292 58.8008 108.292C58.7918 108.292 58.7828 108.292 58.7738 108.292C58.7648 108.292 58.7557 108.292 58.7467 108.292C58.7376 108.292 58.7286 108.292 58.7195 108.292C58.7105 108.292 58.7014 108.292 58.6923 108.292C58.6833 108.292 58.6742 108.292 58.6651 108.292C58.656 108.292 58.6469 108.292 58.6378 108.292C58.6287 108.292 58.6195 108.292 58.6104 108.292C58.6013 108.292 58.5922 108.292 58.583 108.292C58.5739 108.292 58.5647 108.292 58.5555 108.292C58.5464 108.292 58.5372 108.292 58.528 108.292C58.5189 108.292 58.5097 108.292 58.5005 108.292C58.4913 108.292 58.4821 108.292 58.4728 108.292C58.4636 108.292 58.4544 108.292 58.4452 108.292C58.436 108.292 58.4267 108.292 58.4175 108.292C58.4082 108.292 58.399 108.292 58.3897 108.292C58.3804 108.292 58.3712 108.292 58.3619 108.292C58.3526 108.292 58.3433 108.292 58.334 108.292C58.3247 108.292 58.3154 108.292 58.3061 108.292C58.2968 108.292 58.2875 108.292 58.2781 108.292C58.2688 108.292 58.2595 108.292 58.2501 108.292C58.2408 108.292 58.2314 108.292 58.2221 108.292C58.2127 108.292 58.2033 108.292 58.194 108.292C58.1846 108.292 58.1752 108.292 58.1658 108.292C58.1564 108.292 58.147 108.292 58.1376 108.292C58.1282 108.292 58.1188 108.292 58.1094 108.292C58.1 108.292 58.0905 108.292 58.0811 108.292C58.0716 108.292 58.0622 108.292 58.0527 108.292C58.0433 108.292 58.0338 108.292 58.0244 108.292C58.0149 108.292 58.0054 108.292 57.9959 108.292C57.9865 108.292 57.977 108.292 57.9675 108.292C57.958 108.292 57.9485 108.292 57.939 108.292C57.9294 108.292 57.9199 108.292 57.9104 108.292C57.9009 108.292 57.8913 108.292 57.8818 108.292C57.8723 108.292 57.8627 108.292 57.8532 108.292C57.8436 108.292 57.834 108.292 57.8245 108.292C57.8149 108.292 57.8053 108.292 57.7957 108.292C57.7862 108.292 57.7766 108.292 57.767 108.292C57.7574 108.292 57.7478 108.292 57.7382 108.292C57.7285 108.292 57.7189 108.292 57.7093 108.292C57.6997 108.292 57.69 108.292 57.6804 108.292C57.6708 108.292 57.6611 108.292 57.6515 108.292C57.6418 108.292 57.6322 108.292 57.6225 108.292C57.6128 108.292 57.6032 108.292 57.5935 108.292C57.5838 108.292 57.5741 108.292 57.5644 108.292C57.5547 108.292 57.545 108.292 57.5353 108.292C57.5256 108.292 57.5159 108.292 57.5062 108.292C57.4965 108.292 57.4868 108.292 57.477 108.292C57.4673 108.292 57.4576 108.292 57.4478 108.292C57.4381 108.292 57.4283 108.292 57.4186 108.292C57.4088 108.292 57.399 108.292 57.3893 108.292C57.3795 108.292 57.3697 108.292 57.36 108.292C57.3502 108.292 57.3404 108.292 57.3306 108.292C57.3208 108.292 57.311 108.292 57.3012 108.292C57.2914 108.292 57.2816 108.292 57.2718 108.292C57.262 108.292 57.2521 108.292 57.2423 108.292C57.2325 108.292 57.2226 108.292 57.2128 108.292C57.203 108.292 57.1931 108.292 57.1833 108.292C57.1734 108.292 57.1636 108.292 57.1537 108.292C57.1438 108.292 57.134 108.292 57.1241 108.292C57.1142 108.292 57.1043 108.292 57.0944 108.292C57.0846 108.292 57.0747 108.292 57.0648 108.292C57.0549 108.292 57.045 108.292 57.0351 108.292C57.0252 108.292 57.0152 108.292 57.0053 108.292C56.9954 108.292 56.9855 108.292 56.9755 108.292C56.9656 108.292 56.9557 108.292 56.9457 108.292C56.9358 108.292 56.9259 108.292 56.9159 108.292C56.906 108.292 56.896 108.292 56.886 108.292C56.8761 108.292 56.8661 108.292 56.8561 108.292C56.8462 108.292 56.8362 108.292 56.8262 108.292C56.8162 108.292 56.8062 108.292 56.7963 108.292C56.7863 108.292 56.7763 108.292 56.7663 108.292C56.7563 108.292 56.7463 108.292 56.7362 108.292C56.7262 108.292 56.7162 108.292 56.7062 108.292C56.6962 108.292 56.6861 108.292 56.6761 108.292C56.6661 108.292 56.656 108.292 56.646 108.292C56.636 108.292 56.6259 108.292 56.6159 108.292C56.6058 108.292 56.5958 108.292 56.5857 108.292C56.5756 108.292 56.5656 108.292 56.5555 108.292C56.5455 108.292 56.5354 108.292 56.5253 108.292C56.5152 108.292 56.5051 108.292 56.4951 108.292C56.485 108.292 56.4749 108.292 56.4648 108.292C56.4547 108.292 56.4446 108.292 56.4345 108.292C56.4244 108.292 56.4143 108.292 56.4042 108.292C56.3941 108.292 56.3839 108.292 56.3738 108.292C56.3637 108.292 56.3536 108.292 56.3434 108.292C56.3333 108.292 56.3232 108.292 56.313 108.292C56.3029 108.292 56.2928 108.292 56.2826 108.292C56.2725 108.292 56.2623 108.292 56.2522 108.292C56.242 108.292 56.2319 108.292 56.2217 108.292C56.2115 108.292 56.2014 108.292 56.1912 108.292C56.181 108.292 56.1709 108.292 56.1607 108.292C56.1505 108.292 56.1403 108.292 56.1301 108.292C56.12 108.292 56.1098 108.292 56.0996 108.292C56.0894 108.292 56.0792 108.292 56.069 108.292C56.0588 108.292 56.0486 108.292 56.0384 108.292C56.0282 108.292 56.018 108.292 56.0078 108.292C55.9976 108.292 55.9873 108.292 55.9771 108.292C55.9669 108.292 55.9567 108.292 55.9464 108.292C55.9362 108.292 55.926 108.292 55.9158 108.292C55.9055 108.292 55.8953 108.292 55.885 108.292C55.8748 108.292 55.8646 108.292 55.8543 108.292C55.8441 108.292 55.8338 108.292 55.8236 108.292C55.8133 108.292 55.8031 108.292 55.7928 108.292C55.7825 108.292 55.7723 108.292 55.762 108.292C55.7518 108.292 55.7415 108.292 55.7312 108.292C55.7209 108.292 55.7107 108.292 55.7004 108.292C55.6901 108.292 55.6798 108.292 55.6696 108.292C55.6593 108.292 55.649 108.292 55.6387 108.292C55.6284 108.292 55.6181 108.292 55.6078 108.292C55.5975 108.292 55.5872 108.292 55.5769 108.292C55.5666 108.292 55.5563 108.292 55.546 108.292C55.5357 108.292 55.5254 108.292 55.5151 108.292C55.5048 108.292 55.4945 108.292 55.4842 108.292C55.4739 108.292 55.4635 108.292 55.4532 108.292C55.4429 108.292 55.4326 108.292 55.4223 108.292C55.4119 108.292 55.4016 108.292 55.3913 108.292C55.381 108.292 55.3706 108.292 55.3603 108.292C55.35 108.292 55.3396 108.292 55.3293 108.292C55.3189 108.292 55.3086 108.292 55.2983 108.292C55.2879 108.292 55.2776 108.292 55.2672 108.292C55.2569 108.292 55.2465 108.292 55.2362 108.292C55.2258 108.292 55.2155 108.292 55.2051 108.292C55.1948 108.292 55.1844 108.292 55.1741 108.292C55.1637 108.292 55.1533 108.292 55.143 108.292C55.1326 108.292 55.1223 108.292 55.1119 108.292C55.1015 108.292 55.0912 108.292 55.0808 108.292C55.0704 108.292 55.06 108.292 55.0497 108.292C55.0393 108.292 55.0289 108.292 55.0185 108.292C55.0082 108.292 54.9978 108.292 54.9874 108.292C54.977 108.292 54.9667 108.292 54.9563 108.292C54.9459 108.292 54.9355 108.292 54.9251 108.292C54.9147 108.292 54.9043 108.292 54.894 108.292C54.8836 108.292 54.8732 108.292 54.8628 108.292C54.8524 108.292 54.842 108.292 54.8316 108.292C54.8212 108.292 54.8108 108.292 54.8004 108.292C54.79 108.292 54.7796 108.292 54.7692 108.292C54.7588 108.292 54.7484 108.292 54.738 108.292C54.7276 108.292 54.7172 108.292 54.7068 108.292C54.6964 108.292 54.686 108.292 54.6756 108.292C54.6652 108.292 54.6548 108.292 54.6444 108.292C54.634 108.292 54.6236 108.292 54.6132 108.292C54.6028 108.292 54.5924 108.292 54.582 108.292C54.5716 108.292 54.5611 108.292 54.5507 108.292C54.5403 108.292 54.5299 108.292 54.5195 108.292C54.5091 108.292 54.4987 108.292 54.4883 108.292C54.4778 108.292 54.4674 108.292 54.457 108.292C54.4466 108.292 54.4362 108.292 54.4258 108.292C54.4153 108.292 54.4049 108.292 54.3945 108.292C54.3841 108.292 54.3737 108.292 54.3633 108.292C54.3528 108.292 54.3424 108.292 54.332 108.292C54.3216 108.292 54.3112 108.292 54.3007 108.292C54.2903 108.292 54.2799 108.292 54.2695 108.292C54.2591 108.292 54.2486 108.292 54.2382 108.292C54.2278 108.292 54.2174 108.292 54.207 108.292C54.1965 108.292 54.1861 108.292 54.1757 108.292C54.1653 108.292 54.1549 108.292 54.1444 108.292C54.134 108.292 54.1236 108.292 54.1132 108.292C54.1028 108.292 54.0923 108.292 54.0819 108.292C54.0715 108.292 54.0611 108.292 54.0507 108.292C54.0402 108.292 54.0298 108.292 54.0194 108.292C54.009 108.292 53.9986 108.292 53.9881 108.292C53.9777 108.292 53.9673 108.292 53.9569 108.292C53.9465 108.292 53.936 108.292 53.9256 108.292C53.9152 108.292 53.9048 108.292 53.8944 108.292C53.884 108.292 53.8735 108.292 53.8631 108.292C53.8527 108.292 53.8423 108.292 53.8319 108.292C53.8215 108.292 53.8111 108.292 53.8006 108.292C53.7902 108.292 53.7798 108.292 53.7694 108.292C53.759 108.292 53.7486 108.292 53.7382 108.292C53.7278 108.292 53.7174 108.292 53.7069 108.292C53.6965 108.292 53.6861 108.292 53.6757 108.292C53.6653 108.292 53.6549 108.292 53.6445 108.292C53.6341 108.292 53.6237 108.292 53.6133 108.292C53.6029 108.292 53.5925 108.292 53.5821 108.292C53.5717 108.292 53.5613 108.292 53.5509 108.292C53.5405 108.292 53.5301 108.292 53.5197 108.292C53.5093 108.292 53.4989 108.292 53.4885 108.292C53.4781 108.292 53.4677 108.292 53.4573 108.292C53.4469 108.292 53.4365 108.292 53.4262 108.292C53.4158 108.292 53.4054 108.292 53.395 108.292C53.3846 108.292 53.3742 108.292 53.3638 108.292C53.3535 108.292 53.3431 108.292 53.3327 108.292C53.3223 108.292 53.3119 108.292 53.3016 108.292C53.2912 108.292 53.2808 108.292 53.2704 108.292C53.2601 108.292 53.2497 108.292 53.2393 108.292C53.229 108.292 53.2186 108.292 53.2082 108.292C53.1979 108.292 53.1875 108.292 53.1771 108.292C53.1668 108.292 53.1564 108.292 53.146 108.292C53.1357 108.292 53.1253 108.292 53.115 108.292C53.1046 108.292 53.0943 108.292 53.0839 108.292C53.0736 108.292 53.0632 108.292 53.0529 108.292C53.0425 108.292 53.0322 108.292 53.0218 108.292C53.0115 108.292 53.0011 108.292 52.9908 108.292C52.9805 108.292 52.9701 108.292 52.9598 108.292C52.9495 108.292 52.9391 108.292 52.9288 108.292C52.9185 108.292 52.9081 108.292 52.8978 108.292C52.8875 108.292 52.8772 108.292 52.8668 108.292C52.8565 108.292 52.8462 108.292 52.8359 108.292C52.8256 108.292 52.8153 108.292 52.8049 108.292C52.7946 108.292 52.7843 108.292 52.774 108.292C52.7637 108.292 52.7534 108.292 52.7431 108.292C52.7328 108.292 52.7225 108.292 52.7122 108.292C52.7019 108.292 52.6916 108.292 52.6813 108.292C52.6711 108.292 52.6608 108.292 52.6505 108.292C52.6402 108.292 52.6299 108.292 52.6196 108.292C52.6094 108.292 52.5991 108.292 52.5888 108.292C52.5785 108.292 52.5683 108.292 52.558 108.292C52.5477 108.292 52.5375 108.292 52.5272 108.292C52.517 108.292 52.5067 108.292 52.4964 108.292C52.4862 108.292 52.4759 108.292 52.4657 108.292C52.4554 108.292 52.4452 108.292 52.435 108.292C52.4247 108.292 52.4145 108.292 52.4042 108.292C52.394 108.292 52.3838 108.292 52.3736 108.292C52.3633 108.292 52.3531 108.292 52.3429 108.292C52.3327 108.292 52.3224 108.292 52.3122 108.292C52.302 108.292 52.2918 108.292 52.2816 108.292C52.2714 108.292 52.2612 108.292 52.251 108.292C52.2408 108.292 52.2306 108.292 52.2204 108.292C52.2102 108.292 52.2 108.292 52.1898 108.292C52.1796 108.292 52.1695 108.292 52.1593 108.292C52.1491 108.292 52.1389 108.292 52.1287 108.292C52.1186 108.292 52.1084 108.292 52.0982 108.292C52.0881 108.292 52.0779 108.292 52.0678 108.292C52.0576 108.292 52.0475 108.292 52.0373 108.292C52.0272 108.292 52.017 108.292 52.0069 108.292C51.9967 108.292 51.9866 108.292 51.9765 108.292C51.9664 108.292 51.9562 108.292 51.9461 108.292C51.936 108.292 51.9259 108.292 51.9157 108.292C51.9056 108.292 51.8955 108.292 51.8854 108.292C51.8753 108.292 51.8652 108.292 51.8551 108.292C51.845 108.292 51.8349 108.292 51.8248 108.292C51.8147 108.292 51.8047 108.292 51.7946 108.292C51.7845 108.292 51.7744 108.292 51.7644 108.292C51.7543 108.292 51.7442 108.292 51.7342 108.292C51.7241 108.292 51.714 108.292 51.704 108.292C51.6939 108.292 51.6839 108.292 51.6738 108.292C51.6638 108.292 51.6538 108.292 51.6437 108.292C51.6337 108.292 51.6237 108.292 51.6136 108.292C51.6036 108.292 51.5936 108.292 51.5836 108.292C51.5736 108.292 51.5636 108.292 51.5536 108.292C51.5436 108.292 51.5336 108.292 51.5236 108.292C51.5136 108.292 51.5036 108.292 51.4936 108.292C51.4836 108.292 51.4736 108.292 51.4637 108.292C51.4537 108.292 51.4437 108.292 51.4338 108.292C51.4238 108.292 51.4138 108.292 51.4039 108.292C51.3939 108.292 51.384 108.292 51.374 108.292C51.3641 108.292 51.3542 108.292 51.3442 108.292C51.3343 108.292 51.3244 108.292 51.3144 108.292C51.3045 108.292 51.2946 108.292 51.2847 108.292C51.2748 108.292 51.2649 108.292 51.255 108.292C51.2451 108.292 51.2352 108.292 51.2253 108.292C51.2154 108.292 51.2055 108.292 51.1956 108.292C51.1858 108.292 51.1759 108.292 51.166 108.292C51.1562 108.292 51.1463 108.292 51.1364 108.292C51.1266 108.292 51.1167 108.292 51.1069 108.292C51.0971 108.292 51.0872 108.292 51.0774 108.292C51.0676 108.292 51.0577 108.292 51.0479 108.292C51.0381 108.292 51.0283 108.292 51.0185 108.292C51.0087 108.292 50.9989 108.292 50.9891 108.292C50.9793 108.292 50.9695 108.292 50.9597 108.292C50.9499 108.292 50.9401 108.292 50.9304 108.292C50.9206 108.292 50.9108 108.292 50.9011 108.292C50.8913 108.292 50.8816 108.292 50.8718 108.292C50.8621 108.292 50.8523 108.292 50.8426 108.292C50.8329 108.292 50.8231 108.292 50.8134 108.292C50.8037 108.292 50.794 108.292 50.7843 108.292C50.7746 108.292 50.7649 108.292 50.7552 108.292C50.7455 108.292 50.7358 108.292 50.7261 108.292C50.7164 108.292 50.7067 108.292 50.6971 108.292C50.6874 108.292 50.6777 108.292 50.6681 108.292C50.6584 108.292 50.6488 108.292 50.6391 108.292C50.6295 108.292 50.6199 108.292 50.6102 108.292C50.6006 108.292 50.591 108.292 50.5814 108.292C50.5718 108.292 50.5622 108.292 50.5526 108.292C50.5429 108.292 50.5334 108.292 50.5238 108.292C50.5142 108.292 50.5046 108.292 50.495 108.292C50.4855 108.292 50.4759 108.292 50.4663 108.292C50.4568 108.292 50.4472 108.292 50.4377 108.292C50.4281 108.292 50.4186 108.292 50.4091 108.292C50.3995 108.292 50.39 108.292 50.3805 108.292C50.371 108.292 50.3615 108.292 50.352 108.292C50.3425 108.292 50.333 108.292 50.3235 108.292C50.314 108.292 50.3045 108.292 50.2951 108.292C50.2856 108.292 50.2761 108.292 50.2667 108.292C50.2572 108.292 50.2478 108.292 50.2383 108.292C50.2289 108.292 50.2194 108.292 50.21 108.292C50.2006 108.292 50.1912 108.292 50.1818 108.292C50.1723 108.292 50.1629 108.292 50.1535 108.292C50.1441 108.292 50.1348 108.292 50.1254 108.292C50.116 108.292 50.1066 108.292 50.0973 108.292C50.0879 108.292 50.0785 108.292 50.0692 108.292C50.0598 108.292 50.0505 108.292 50.0412 108.292C50.0318 108.292 50.0225 108.292 50.0132 108.292C50.0039 108.292 49.9946 108.292 49.9853 108.292C49.976 108.292 49.9667 108.292 49.9574 108.292C49.9481 108.292 49.9388 108.292 49.9296 108.292C49.9203 108.292 49.911 108.292 49.9018 108.292C49.8925 108.292 49.8833 108.292 49.8741 108.292C49.8648 108.292 49.8556 108.292 49.8464 108.292C49.8372 108.292 49.828 108.292 49.8188 108.292C49.8095 108.292 49.8004 108.292 49.7912 108.292C49.782 108.292 49.7728 108.292 49.7636 108.292C49.7545 108.292 49.7453 108.292 49.7362 108.292C49.727 108.292 49.7179 108.292 49.7087 108.292C49.6996 108.292 49.6905 108.292 49.6814 108.292C49.6723 108.292 49.6631 108.292 49.6541 108.292C49.645 108.292 49.6359 108.292 49.6268 108.292C49.6177 108.292 49.6086 108.292 49.5996 108.292C49.5905 108.292 49.5815 108.292 49.5724 108.292C49.5634 108.292 49.5543 108.292 49.5453 108.292C49.5363 108.292 49.5273 108.292 49.5183 108.292C49.5092 108.292 49.5002 108.292 49.4913 108.292C49.4823 108.292 49.4733 108.292 49.4643 108.292C49.4553 108.292 49.4464 108.292 49.4374 108.292C49.4285 108.292 49.4195 108.292 49.4106 108.292C49.4017 108.292 49.3927 108.292 49.3838 108.292C49.3749 108.292 49.366 108.292 49.3571 108.292C49.3482 108.292 49.3393 108.292 49.3304 108.292C49.3216 108.292 49.3127 108.292 49.3038 108.292C49.295 108.292 49.2861 108.292 49.2773 108.292C49.2684 108.292 49.2596 108.292 49.2508 108.292C49.242 108.292 49.2332 108.292 49.2244 108.292C49.2155 108.292 49.2068 108.292 49.198 108.292C49.1892 108.292 49.1804 108.292 49.1717 108.292C49.1629 108.292 49.1541 108.292 49.1454 108.292C49.1367 108.292 49.1279 108.292 49.1192 108.292C49.1105 108.292 49.1018 108.292 49.0931 108.292C49.0844 108.292 49.0757 108.292 49.067 108.292C49.0583 108.292 49.0496 108.292 49.041 108.292C49.0323 108.292 49.0237 108.292 49.015 108.292C49.0064 108.292 48.9977 108.292 48.9891 108.292C48.9805 108.292 48.9719 108.292 48.9633 108.292C48.9547 108.292 48.9461 108.292 48.9375 108.292C48.9289 108.292 48.9204 108.292 48.9118 108.292C48.9032 108.292 48.8947 108.292 48.8862 108.292C48.8776 108.292 48.8691 108.292 48.8606 108.292C48.8521 108.292 48.8436 108.292 48.8351 108.292C48.8266 108.292 48.8181 108.292 48.8096 108.292C48.8011 108.292 48.7927 108.292 48.7842 108.292C48.7758 108.292 48.7673 108.292 48.7589 108.292C48.7504 108.292 48.742 108.292 48.7336 108.292C48.7252 108.292 48.7168 108.292 48.7084 108.292C48.7 108.292 48.6917 108.292 48.6833 108.292C48.6749 108.292 48.6666 108.292 48.6582 108.292C48.6499 108.292 48.6415 108.292 48.6332 108.292C48.6249 108.292 48.6166 108.292 48.6083 108.292C48.6 108.292 48.5917 108.292 48.5834 108.292C48.5751 108.292 48.5669 108.292 48.5586 108.292C48.5504 108.292 48.5421 108.292 48.5339 108.292C48.5256 108.292 48.5174 108.292 48.5092 108.292C48.501 108.292 48.4928 108.292 48.4846 108.292C48.4764 108.292 48.4683 108.292 48.4601 108.292C48.4519 108.292 48.4438 108.292 48.4356 108.292C48.4275 108.292 48.4194 108.292 48.4112 108.292C48.4031 108.292 48.395 108.292 48.3869 108.292C48.3788 108.292 48.3707 108.292 48.3627 108.292C48.3546 108.292 48.3465 108.292 48.3385 108.292C48.3304 108.292 48.3224 108.292 48.3144 108.292C48.3064 108.292 48.2983 108.292 48.2903 108.292C48.2823 108.292 48.2743 108.292 48.2664 108.292C48.2584 108.292 48.2504 108.292 48.2425 108.292C48.2345 108.292 48.2266 108.292 48.2187 108.292C48.2107 108.292 48.2028 108.292 48.1949 108.292C48.187 108.292 48.1791 108.292 48.1712 108.292C48.1633 108.292 48.1555 108.292 48.1476 108.292C48.1398 108.292 48.1319 108.292 48.1241 108.292C48.1163 108.292 48.1084 108.292 48.1006 108.292C48.0928 108.292 48.085 108.292 48.0772 108.292C48.0695 108.292 48.0617 108.292 48.0539 108.292C48.0462 108.292 48.0384 108.292 48.0307 108.292C48.023 108.292 48.0153 108.292 48.0075 108.292C47.9998 108.292 47.9921 108.292 47.9845 108.292C47.9768 108.292 47.9691 108.292 47.9615 108.292C47.9538 108.292 47.9462 108.292 47.9385 108.292C47.9309 108.292 47.9233 108.292 47.9157 108.292C47.9081 108.292 47.9005 108.292 47.8929 108.292C47.8853 108.292 47.8777 108.292 47.8702 108.292C47.8626 108.292 47.8551 108.292 47.8476 108.292C47.84 108.292 47.8325 108.292 47.825 108.292C47.8175 108.292 47.81 108.292 47.8026 108.292C47.7951 108.292 47.7876 108.292 47.7802 108.292C47.7727 108.292 47.7653 108.292 47.7579 108.292C47.7504 108.292 47.743 108.292 47.7356 108.292C47.7282 108.292 47.7209 108.292 47.7135 108.292C47.7061 108.292 47.6988 108.292 47.6914 108.292C47.6841 108.292 47.6767 108.292 47.6694 108.292C47.6621 108.292 47.6548 108.292 47.6475 108.292C47.6402 108.292 47.633 108.292 47.6257 108.292C47.6184 108.292 47.6112 108.292 47.604 108.292C47.5967 108.292 47.5895 108.292 47.5823 108.292C47.5751 108.292 47.5679 108.292 47.5607 108.292C47.5535 108.292 47.5464 108.292 47.5392 108.292C47.5321 108.292 47.5249 108.292 47.5178 108.292C47.5107 108.292 47.5036 108.292 47.4965 108.292C47.4894 108.292 47.4823 108.292 47.4752 108.292C47.4682 108.292 47.4611 108.292 47.4541 108.292C47.447 108.292 47.44 108.292 47.433 108.292C47.426 108.292 47.419 108.292 47.412 108.292C47.405 108.292 47.398 108.292 47.3911 108.292C47.3841 108.292 47.3772 108.292 47.3703 108.292C47.3633 108.292 47.3564 108.292 47.3495 108.292V110.292Z" fill="#026A67"/>
<path d="M73.1339 98.6992C81.9638 98.6992 81.2574 92.8715 81.2574 85.8075C81.2574 78.7436 89.7341 76.0946 93.6193 66.5583C97.5044 57.022 96.5132 44.5444 89.5261 36.2525C79.4541 24.2997 62.3524 26.0629 55.5591 31.1579M61.1252 68.5009C67.3062 68.5009 69.9551 69.0306 74.0169 67.0881C79.6681 64.3853 78.4319 55.0794 71.5445 55.0794C64.6572 55.0794 64.4806 60.5539 64.4806 63.0263C64.4806 65.4987 64.8338 94.8141 64.8338 96.58C64.8338 98.4049 64.8338 99.5469 64.8338 100.818C64.8338 104.88 70.5667 104.88 75.1582 104.88C78.337 104.88 79.5732 109.295 75.1582 109.295C71.6263 109.295 64.3313 109.295 61.1252 109.295" stroke="#026A67" stroke-width="2" stroke-linecap="round"/>
</g>
<defs>
<clipPath id="clip0_315_133">
<rect width="122" height="122" fill="white" transform="translate(0 0.621094)"/>
</clipPath>
</defs>
</svg>
